<svg height="512pt" viewBox="0 0 511 512" width="512pt" xmlns="http://www.w3.org/2000/svg"><path d="m367.171875 13.578125v484.84375c0 7.496094-6.085937 13.578125-13.589844 13.578125h-339.496093c-7.503907 0-13.585938-6.082031-13.585938-13.578125v-484.84375c0-7.496094 6.082031-13.578125 13.585938-13.578125h339.496093c7.503907 0 13.589844 6.082031 13.589844 13.578125zm0 0" fill="#d2d2d7"/><path d="m367.171875 13.578125v484.84375c0 7.496094-6.085937 13.578125-13.589844 13.578125h-308.402343c-7.503907 0-13.585938-6.082031-13.585938-13.578125v-484.84375c0-7.496094 6.082031-13.578125 13.585938-13.578125h308.402343c7.503907 0 13.589844 6.082031 13.589844 13.578125zm0 0" fill="#ebebf0"/><g fill="#b9b9be"><path d="m150.019531 60.828125h26.042969v30.179687c0 4.292969 3.480469 7.773438 7.773438 7.773438 4.292968 0 7.773437-3.480469 7.773437-7.773438v-30.179687h26.042969c4.292968 0 7.773437-3.480469 7.773437-7.773437 0-4.292969-3.480469-7.773438-7.773437-7.773438h-67.632813c-4.296875 0-7.773437 3.480469-7.773437 7.773438 0 4.292968 3.480468 7.773437 7.773437 7.773437zm0 0"/><path d="m40.21875 353.011719h222.273438c4.292968 0 7.773437-3.480469 7.773437-7.773438s-3.480469-7.773437-7.773437-7.773437h-222.273438c-4.292969 0-7.773438 3.480468-7.773438 7.773437s3.480469 7.773438 7.773438 7.773438zm0 0"/><path d="m40.21875 401.265625h209.144531c4.292969 0 7.773438-3.480469 7.773438-7.773437 0-4.292969-3.480469-7.773438-7.773438-7.773438h-209.144531c-4.292969 0-7.773438 3.480469-7.773438 7.773438 0 4.292968 3.480469 7.773437 7.773438 7.773437zm0 0"/><path d="m195.683594 433.976562h-155.464844c-4.292969 0-7.773438 3.480469-7.773438 7.773438s3.480469 7.773438 7.773438 7.773438h155.464844c4.296875 0 7.773437-3.480469 7.773437-7.773438s-3.476562-7.773438-7.773437-7.773438zm0 0"/><path d="m269.402344 433.976562h-42.625c-4.292969 0-7.773438 3.480469-7.773438 7.773438s3.480469 7.773438 7.773438 7.773438h42.625c4.292968 0 7.769531-3.480469 7.769531-7.773438s-3.476563-7.773438-7.769531-7.773438zm0 0"/></g><path d="m511.835938 401.703125c0 55.542969-41.113282 101.476563-94.574219 109.023437-5.078125.722657-10.269531 1.097657-15.546875 1.097657-60.816406 0-110.109375-49.304688-110.109375-110.121094 0-60.820313 49.292969-110.113281 110.109375-110.113281 5.277344 0 10.46875.375 15.546875 1.101562 53.460937 7.542969 94.574219 53.46875 94.574219 109.011719zm0 0" fill="#0a66ea"/><path d="m511.835938 401.703125c0 55.542969-41.113282 101.476563-94.574219 109.023437-53.460938-7.546874-94.566407-53.480468-94.566407-109.023437s41.105469-101.46875 94.566407-109.011719c53.460937 7.542969 94.574219 53.46875 94.574219 109.011719zm0 0" fill="#2476ed"/><path d="m321.371094 227.808594v39.539062h-275.070313v-39.539062c0-75.554688 61.242188-136.800782 136.796875-136.800782h1.472656c5.710938 0 11.328126.355469 16.851563 1.027344 67.609375 8.300782 119.949219 65.929688 119.949219 135.773438zm0 0" fill="#b9b9be"/><path d="m321.371094 227.808594v39.539062h-239.90625v-39.539062c0-69.855469 52.363281-127.472656 119.957031-135.773438 67.609375 8.300782 119.949219 65.929688 119.949219 135.773438zm0 0" fill="#d2d2d7"/><path d="m50.765625 256.976562h266.140625c9.402344 0 17.027344 7.625 17.027344 17.03125v.550782c0 9.40625-7.625 17.027344-17.027344 17.027344h-266.140625c-9.402344 0-17.027344-7.621094-17.027344-17.027344v-.550782c0-9.40625 7.625-17.03125 17.027344-17.03125zm0 0" fill="#7d8287"/><path d="m457.191406 386.15625h-39.925781v-39.925781c0-8.585938-6.960937-15.542969-15.546875-15.542969s-15.546875 6.957031-15.546875 15.542969v39.925781h-39.925781c-8.585938 0-15.546875 6.960938-15.546875 15.546875s6.960937 15.546875 15.546875 15.546875h39.925781v39.925781c0 8.585938 6.960937 15.546875 15.546875 15.546875s15.546875-6.960937 15.546875-15.546875v-39.925781h39.925781c8.582032 0 15.542969-6.960938 15.542969-15.546875s-6.960937-15.546875-15.542969-15.546875zm0 0" fill="#0a3575"/></svg>