<?xml version="1.0"?>
<svg xmlns="http://www.w3.org/2000/svg" xmlns:xlink="http://www.w3.org/1999/xlink" version="1.1" id="Layer_1" x="0px" y="0px" viewBox="0 0 512 512" style="enable-background:new 0 0 512 512;" xml:space="preserve" width="512px" height="512px" class=""><g><circle style="fill:#5F7D95" cx="255.997" cy="255.997" r="255.997" data-original="#FFD630" class="" data-old_color="#FFD630"/><path style="fill:#577184" d="M512,257.418C511.212,397.083,398.66,510.266,259.311,512L133.832,386.522l262.463-244.808  L512,257.418z" data-original="#F5BE18" class="" data-old_color="#F5BE18"/><polygon style="fill:#E84F4F" points="321.98,132.356 379.015,186.532 230.913,342.003 173.877,287.829 " data-original="#E84F4F" class="" data-old_color="#E84F4F"/><path style="fill:#C94545" d="M350.424,159.369l28.69,27.271L230.936,342.068l-28.69-27.271L350.424,159.369z" data-original="#C94545" class="" data-old_color="#C94545"/><path style="fill:#FFF094" d="M173.872,287.842l57.064,54.226l-57.064,25.221l-22.227-21.123l22.384-58.168L173.872,287.842z" data-original="#FFF094" class=""/><path style="fill:#F0DD85" d="M202.246,314.798l28.69,27.271l-57.064,25.221l-11.192-10.72l39.724-41.774h-0.158V314.798z" data-original="#F0DD85" class=""/><path style="fill:#00CC96" d="M366.502,113.498l29.793,28.216c7.724,7.251,6.148,21.438-3.31,31.369l-13.084,13.714l-0.158,0.158  l-57.537-54.7l0.158-0.158l13.084-13.714c9.458-9.931,23.646-12.296,31.212-4.887h-0.158V113.498z" data-original="#00CC96" class="" data-old_color="#00CC96"/><path style="fill:#12B589" d="M381.321,127.369l14.975,14.345c7.724,7.251,6.148,21.438-3.31,31.369l-13.084,13.714l-0.158,0.158  l-29.005-27.429L381.321,127.369z" data-original="#12B589" class="active-path" data-old_color="#12B589"/><path style="fill:#9D9E9E" d="M173.872,367.291L133.99,386.68l17.655-40.512L173.872,367.291z" data-original="#9D9E9E" class="" data-old_color="#9D9E9E"/><path style="fill:#727271" d="M173.872,367.291L133.99,386.68l28.69-30.109L173.872,367.291z" data-original="#727271" class="" data-old_color="#727271"/></g> </svg>
