<svg height="463pt" viewBox="0 -5 463.73009 463" width="463pt" xmlns="http://www.w3.org/2000/svg"><path d="m110.867188 315.441406v101.734375c0 18.878907 15.308593 34.1875 34.1875 34.1875 18.882812 0 34.1875-15.308593 34.1875-34.1875v-101.734375zm0 0" fill="#fce8cb"/><path d="m179.242188 312.441406h-68.375c-1.65625 0-3 1.34375-3 3v101.734375c0 20.507813 16.683593 37.191407 37.1875 37.191407 20.507812 0 37.191406-16.683594 37.191406-37.191407v-101.734375c-.003906-1.65625-1.34375-3-3.003906-3zm-3 104.734375c0 17.195313-13.988282 31.1875-31.1875 31.1875-17.199219 0-31.191407-13.992187-31.191407-31.1875v-98.734375h62.378907zm0 0" fill="#3a312a"/><path d="m321.007812 332.953125c-18.882812 0-34.191406 15.304687-34.191406 34.1875v50.035156c0 18.882813 15.304688 34.191407 34.191406 34.191407 18.878907 0 34.1875-15.308594 34.1875-34.191407v-50.035156c0-18.878906-15.308593-34.1875-34.1875-34.1875zm0 0" fill="#fce8cb"/><path d="m321.003906 329.953125c-20.503906 0-37.1875 16.679687-37.1875 37.1875v50.035156c0 20.503907 16.683594 37.1875 37.1875 37.1875 20.507813 0 37.191406-16.683593 37.191406-37.1875v-50.035156c0-20.503906-16.683593-37.1875-37.191406-37.1875zm31.191406 87.222656c0 17.195313-13.992187 31.1875-31.191406 31.1875-17.199218 0-31.1875-13.992187-31.1875-31.1875v-50.035156c0-17.199219 13.988282-31.1875 31.1875-31.1875 17.199219 0 31.191406 13.992187 31.191406 31.1875zm0 0" fill="#3a312a"/><path d="m450.371094 200.363281c-20.121094-8.339843-36.121094 31.859375-62.5 58.242188-1.261719 1.257812-2.5 2.539062-3.722656 3.800781-.21875-.34375-.4375-.683594-.699219-1.023438-9.679688-14.160156-28.519531-23.71875-49.519531-30.160156-8.179688-2.5-16.679688-4.539062-25.097657-6.199218-18.183593-3.558594-35.980469-5.339844-49.222656-6.257813-13.277344-.882813-22-.882813-22-.882813l-91.160156 17.242188c-21.460938 4.058594-37.800781 21.738281-39.917969 43.480469-4.441406 45.617187 10.617188 80.519531 26.019531 100.878906v37.699219c0 18.878906 15.300781 34.179687 34.179688 34.179687 18.878906 0 34.199219-15.300781 34.199219-34.179687v-17c13.285156.164062 28.597656.347656 44.515624.507812l28.558594.253906c11.792969.089844 23.472656.152344 34.484375.179688v16.058594c0 18.878906 15.320313 34.179687 34.203125 34.179687 18.878906 0 34.179688-15.300781 34.179688-34.179687v-18.039063c6.898437-5.582031 18.960937-46.621093 17-90.839843 7.597656-5.519532 15.617187-12.339844 23.480468-20.21875 26.378907-26.382813 59.839844-76.621094 33.019532-87.722657zm0 0" fill="#fce8cb"/><path d="m462.796875 211.039062c-1.246094-6.257812-5.148437-10.910156-11.277344-13.445312-15.453125-6.40625-27.828125 10.441406-42.164062 29.949219-6.929688 9.429687-14.789063 20.121093-23.605469 28.9375-.414062.414062-.828125.832031-1.238281 1.25-9.316407-12.238281-26.023438-22.113281-49.707031-29.375-7.753907-2.371094-16.296876-4.484375-25.398438-6.273438-15.042969-2.949219-31.726562-5.070312-49.597656-6.308593-13.226563-.878907-22.113282-.890626-22.199219-.890626-.1875 0-.375.019532-.558594.054688l-91.160156 17.242188c-22.703125 4.292968-40.117187 23.265624-42.347656 46.132812-5.167969 53.113281 15.96875 88.621094 26.003906 102.171875v36.703125c0 20.5 16.679687 37.179688 37.179687 37.179688 20.515626 0 37.203126-16.679688 37.203126-37.179688v-13.964844c12.5625.15625 26.765624.324219 41.488281.472656 1.679687-.070312 3.011719-1.316406 3.027343-2.972656.015626-1.65625-1.3125-3.011718-2.96875-3.027344-15.914062-.160156-31.222656-.34375-44.507812-.507812-.757812.019531-1.578125.304688-2.144531.867188-.570313.5625-.890625 1.332031-.890625 2.132812v17c0 17.195312-13.996094 31.179688-31.203125 31.179688-17.195313 0-31.179688-13.988282-31.179688-31.179688v-37.699219c0-.652343-.210937-1.289062-.609375-1.808593-9.332031-12.34375-30.496094-46.675782-25.425781-98.78125 1.972656-20.234376 17.390625-37.023438 37.492187-40.824219l90.875-17.1875c1.578126.011719 9.804688.097656 21.519532.875 17.617187 1.222656 34.050781 3.3125 48.847656 6.210937 8.894531 1.75 17.242188 3.8125 24.800781 6.125 23.597657 7.238282 39.722657 16.988282 48.015625 29.113282.207032.269531.378906.546874.566406.832031.5.765625 1.316407 1.261719 2.226563 1.351562.929687.089844 1.8125-.246093 2.445313-.898437 1.210937-1.25 2.4375-2.519532 3.683593-3.765625 9.140625-9.140625 17.140625-20.027344 24.203125-29.628907 13.371094-18.191406 23.941406-32.5625 35.03125-27.960937 4.3125 1.785156 6.828125 4.753906 7.6875 9.074219 3.332032 16.742187-18.574218 50.648437-41.683594 73.757812-7.488281 7.507813-15.269531 14.210938-23.121093 19.910156-.8125.59375-1.277344 1.554688-1.230469 2.5625.855469 19.292969-.957031 40.292969-5.113281 59.132813-4.039063 18.320313-8.65625 27.527344-10.78125 29.238281-.703125.570313-1.113281 1.429688-1.113281 2.335938v18.039062c0 17.195313-13.984376 31.179688-31.179688 31.179688-17.203125 0-31.199219-13.988282-31.199219-31.179688v-16.058594c0-1.65625-1.339843-2.996093-2.992187-3-11.011719-.027343-22.683594-.089843-34.472656-.179687h-.023438c-1.644531 0-2.988281 1.328125-3 2.980469-.011719 1.65625 1.320312 3.007812 2.976562 3.019531 10.738282.082031 21.378907.144531 31.511719.171875v13.070312c0 20.5 16.6875 37.179688 37.199219 37.179688 20.5 0 37.179688-16.679688 37.179688-37.179688v-16.796874c8.207031-9.355469 18.5625-49.699219 17.0625-90.609376 7.664062-5.675781 15.242187-12.253906 22.539062-19.574218 11.457031-11.453125 23.050781-26.164063 31.011719-39.351563 6.945312-11.507812 14.71875-27.746093 12.316406-39.824219zm0 0" fill="#3a312a"/><path d="m64.820312 321.96875c-1.949218 23.128906-26.050781 26.777344-26.050781 26.777344 20.695313.972656 25.851563 28.117187 25.851563 28.117187.441406-19.351562 26.644531-28.402343 26.644531-28.402343-19.628906-1.171876-26.445313-26.492188-26.445313-26.492188zm0 0" fill="#d7e057"/><path d="m91.445312 345.464844c-17.210937-1.027344-23.664062-24.046875-23.726562-24.28125-.378906-1.402344-1.695312-2.320313-3.167969-2.203125-1.449219.132812-2.597656 1.285156-2.71875 2.734375-1.71875 20.429687-22.625 23.925781-23.511719 24.066406-1.523437.230469-2.625 1.578125-2.542968 3.121094.078125 1.539062 1.3125 2.769531 2.855468 2.84375 18.054688.847656 22.996094 25.433594 23.046876 25.683594.273437 1.421874 1.519531 2.433593 2.945312 2.433593.082031 0 .167969-.003906.25-.011719 1.53125-.128906 2.714844-1.386718 2.75-2.917968.386719-17.015625 24.382812-25.554688 24.628906-25.636719 1.351563-.46875 2.183594-1.828125 1.984375-3.246094s-1.367187-2.5-2.792969-2.585937zm-27.132812 20.695312c-2.710938-6.261718-7.417969-13.816406-15.175781-17.753906 5.863281-2.808594 12.820312-7.828125 16.40625-16.546875 3.101562 6.144531 8.398437 13.761719 16.667969 17.445313-6.015626 3.28125-13.847657 8.8125-17.898438 16.855468zm0 0" fill="#3a312a"/><path d="m21.421875 355.929688c-1.378906 16.359374-18.421875 18.941406-18.421875 18.941406 14.632812.6875 18.28125 19.890625 18.28125 19.890625.3125-13.691407 18.84375-20.089844 18.84375-20.089844-13.882812-.832031-18.703125-18.742187-18.703125-18.742187zm0 0" fill="#d7e057"/><path d="m40.304688 371.675781c-11.53125-.691406-15.941407-16.375-15.984376-16.53125-.378906-1.402343-1.742187-2.324219-3.164062-2.203125-1.453125.128906-2.601562 1.285156-2.722656 2.734375-1.15625 13.742188-15.292969 16.132813-15.882813 16.230469-1.523437.226562-2.6249998 1.578125-2.54687475 3.121094.08203125 1.539062 1.31249975 2.765625 2.85546875 2.839844 12.070313.570312 15.445313 17.289062 15.476563 17.449218.273437 1.429688 1.519531 2.441406 2.945312 2.441406.082031 0 .167969 0 .25-.007812 1.53125-.128906 2.71875-1.390625 2.753906-2.921875.257813-11.417969 16.660156-17.269531 16.824219-17.324219 1.351563-.46875 2.183594-1.828125 1.992187-3.246094-.199218-1.414062-1.367187-2.496093-2.796874-2.582031zm-19.167969 13.589844c-1.847657-3.769531-4.679688-7.894531-8.894531-10.5625 3.710937-2.082031 7.394531-5.257813 9.742187-9.832031 2.113281 3.746094 5.308594 7.910156 9.882813 10.449218-3.699219 2.199219-7.980469 5.476563-10.730469 9.945313zm0 0" fill="#3a312a"/><path d="m21.421875 302.613281c-1.378906 16.359375-18.421875 18.941407-18.421875 18.941407 14.632812.691406 18.28125 19.890624 18.28125 19.890624.3125-13.691406 18.84375-20.089843 18.84375-20.089843-13.882812-.832031-18.703125-18.742188-18.703125-18.742188zm0 0" fill="#d7e057"/><path d="m40.304688 318.359375c-11.53125-.691406-15.941407-16.371094-15.984376-16.527344-.378906-1.40625-1.742187-2.324219-3.164062-2.207031-1.453125.132812-2.601562 1.289062-2.722656 2.738281-1.15625 13.742188-15.292969 16.132813-15.882813 16.226563-1.523437.226562-2.6249998 1.578125-2.54687475 3.121094.08203125 1.539062 1.31249975 2.765624 2.85546875 2.839843 12.070313.570313 15.445313 17.289063 15.476563 17.453125.273437 1.425782 1.519531 2.441406 2.945312 2.441406.082031 0 .167969-.003906.25-.011718 1.53125-.128906 2.71875-1.386719 2.753906-2.921875.257813-11.417969 16.660156-17.265625 16.824219-17.324219 1.351563-.46875 2.183594-1.824219 1.992187-3.242188-.199218-1.417968-1.367187-2.5-2.796874-2.585937zm-19.167969 13.589844c-1.847657-3.769531-4.679688-7.894531-8.894531-10.558594 3.710937-2.082031 7.394531-5.261719 9.742187-9.832031 2.113281 3.746094 5.308594 7.90625 9.878906 10.445312-3.695312 2.199219-7.976562 5.480469-10.726562 9.945313zm0 0" fill="#3a312a"/><path d="m106.367188 44.460938c-19.21875-34.957032-69.824219-44.039063-76.582032-40.324219-5.53125 3.039062-26.210937 51.308593-6.996094 86.265625 19.21875 34.957031 45.734376 38.875 68.8125 26.191406 23.078126-12.6875 33.980469-37.175781 14.765626-72.132812zm0 0" fill="#87796f"/><path d="m108.992188 43.015625c-10.816407-19.679687-30.171876-30.449219-44.503907-36.015625-14.90625-5.792969-31.125-8.253906-36.148437-5.492188-4.550782 2.5-11.085938 17.699219-14.273438 33.1875-3.144531 15.292969-4.640625 37.625 6.09375 57.152344 9.457032 17.203125 21.125 28.09375 34.683594 32.378906 4.1875 1.320313 8.503906 1.980469 12.898438 1.980469 8.300781 0 16.871093-2.34375 25.304687-6.984375 12.898437-7.089844 21.441406-17.316406 24.695313-29.574218 3.652343-13.742188.707031-29.429688-8.75-46.632813zm2.953124 45.09375c-2.824218 10.632813-10.359374 19.574219-21.789062 25.855469-11.429688 6.285156-23.015625 7.851562-33.507812 4.542968-12.035157-3.804687-22.539063-13.746093-31.226563-29.546874-18.1875-33.078126 1.339844-78.917969 5.804687-82.191407.5-.257812 1.539063-.398437 3.007813-.398437 11.992187 0 52.90625 9.347656 69.5 39.539062 8.691406 15.800782 11.453125 30 8.210937 42.199219zm0 0" fill="#3a312a"/><path d="m86.398438 51.414062c-10.8125-19.675781-39.296876-24.789062-43.101563-22.695312-3.113281 1.710938-14.753906 28.878906-3.9375 48.554688 10.816406 19.675781 25.742187 21.882812 38.730469 14.738281 12.992187-7.140625 19.125-20.921875 8.308594-40.597657zm0 0" fill="#f16c7a"/><path d="m89.027344 49.96875c-6.277344-11.421875-17.453125-17.652344-25.722656-20.863281-7.65625-2.972657-17.777344-5.042969-21.453126-3.015625-4.964843 2.730468-16.445312 32.027344-5.121093 52.625 7.226562 13.148437 17.128906 20.042968 27.976562 20.042968 4.808594 0 9.800781-1.351562 14.828125-4.117187 16.371094-9 19.921875-25.699219 9.492188-44.671875zm-12.382813 39.414062c-13.464843 7.40625-25.777343 2.59375-34.65625-13.554687-9.519531-17.320313-.207031-41.0625 2.835938-44.480469 4.644531-1.078125 29.527343 4.371094 38.949219 21.511719 8.875 16.148437 6.34375 29.117187-7.128907 36.523437zm0 0" fill="#3a312a"/><path d="m283.726562 4.136719c-6.761718-3.714844-57.367187 5.367187-76.582031 40.324219-19.214843 34.957031-8.316406 59.445312 14.761719 72.132812 23.078125 12.683594 49.597656 8.765625 68.8125-26.191406 19.21875-34.957032-1.460938-83.222656-6.992188-86.265625zm0 0" fill="#87796f"/><path d="m299.441406 34.699219c-3.1875-15.492188-9.722656-30.6875-14.269531-33.1875-5.023437-2.765625-21.242187-.300781-36.152344 5.492187-14.328125 5.566406-33.683593 16.332032-44.503906 36.015625-9.457031 17.199219-12.398437 32.890625-8.75 46.628907 3.253906 12.257812 11.792969 22.484374 24.695313 29.574218 8.5 4.671875 16.945312 6.960938 25.089843 6.960938 18.496094 0 35.417969-11.816406 47.796875-34.335938 10.738282-19.527344 9.238282-41.855468 6.09375-57.148437zm-11.351562 54.257812c-16.253906 29.574219-39.847656 38.691407-64.738282 25.007813-11.429687-6.28125-18.960937-15.222656-21.789062-25.855469-3.238281-12.199219-.476562-26.398437 8.210938-42.199219 16.625-30.246094 57.648437-39.570312 69.507812-39.570312 1.429688 0 2.4375.132812 2.925781.382812 4.539063 3.320313 24.066407 49.160156 5.882813 82.234375zm0 0" fill="#3a312a"/><path d="m270.214844 28.71875c-3.804688-2.09375-32.289063 3.019531-43.105469 22.695312-10.816406 19.675782-4.679687 33.457032 8.3125 40.597657 12.988281 7.140625 27.914063 4.933593 38.726563-14.738281 10.816406-19.675782-.824219-46.84375-3.933594-48.554688zm0 0" fill="#f16c7a"/><path d="m271.660156 26.089844c-3.679687-2.023438-13.800781.042968-21.453125 3.015625-8.269531 3.210937-19.445312 9.4375-25.726562 20.863281-10.425781 18.972656-6.875 35.671875 9.496093 44.671875 4.945313 2.71875 9.980469 4.097656 14.871094 4.097656 2.605469 0 5.171875-.390625 7.660156-1.179687 7.960938-2.515625 14.78125-8.851563 20.273438-18.839844 11.324219-20.605469-.15625-49.898438-5.121094-52.628906zm-.140625 49.738281c-4.71875 8.589844-10.378906 13.972656-16.824219 16.007813-5.550781 1.757812-11.71875.90625-17.828124-2.453126-13.472657-7.40625-16.003907-20.375-7.128907-36.527343 9.492188-17.265625 34.710938-22.664063 38.910157-21.546875 3.011718 3.277344 12.429687 27.128906 2.871093 44.519531zm0 0" fill="#3a312a"/><path d="m286.695312 167.351562c-1.347656-21.476562-7.742187-42.703124-18.042968-61.808593-12.441406-23.125-30.5625-43.089844-52.222656-56.410157-7.742188-4.761718-15.9375-8.664062-24.496094-11.585937-1.800782-.609375-3.617188-1.183594-5.457032-1.695313-9.542968-2.71875-19.492187-4.1875-29.726562-4.1875-12.199219 0-24.011719 2.085938-35.1875 5.882813-8.539062 2.921875-16.753906 6.824219-24.476562 11.585937-21.675782 13.320313-39.796876 33.28125-52.238282 56.410157-11.648437 21.636719-18.328125 46.035156-18.328125 70.390625 0 71.9375 59.085938 116.214844 131.007813 116.214844 71.9375 0 129.453125-44.277344 129.453125-116.214844 0-2.863282-.082031-5.722656-.285157-8.582032zm0 0" fill="#fce8cb"/><path d="m289.691406 167.164062c-1.34375-21.410156-7.707031-43.210937-18.394531-63.042968-13.027344-24.214844-31.457031-44.113282-53.292969-57.542969-8.015625-4.929687-16.457031-8.921875-25.101562-11.871094-1.976563-.675781-3.816406-1.246093-5.601563-1.742187-21.96875-6.253906-44.992187-5.636719-66.703125 1.742187-8.679687 2.96875-17.121094 6.964844-25.078125 11.871094-21.847656 13.425781-40.285156 33.324219-53.316406 57.542969-12.222656 22.714844-18.683594 47.546875-18.683594 71.808594 0 35.292968 13.691407 65.507812 39.597657 87.378906 24.316406 20.53125 57.847656 31.835937 94.410156 31.835937 77.988281 0 132.453125-49.023437 132.453125-119.214843 0-3.167969-.09375-6.046876-.289063-8.765626zm-132.164062 121.980469c-35.148438 0-67.300782-10.800781-90.542969-30.421875-24.511719-20.691406-37.464844-49.324218-37.464844-82.789062 0-23.277344 6.210938-47.125 17.964844-68.96875 12.53125-23.289063 30.226563-42.402344 51.175781-55.277344 7.585938-4.675781 15.621094-8.476562 23.875-11.300781 11.167969-3.796875 22.679688-5.722657 34.214844-5.722657 9.6875 0 19.410156 1.371094 28.925781 4.082032 1.691407.46875 3.421875 1.007812 5.289063 1.640625 8.21875 2.808593 16.257812 6.609375 23.890625 11.304687 20.941406 12.875 38.625 31.992188 51.15625 55.277344 10.28125 19.078125 16.398437 40.023438 17.691406 60.597656.1875 2.605469.277344 5.339844.277344 8.367188 0 66.65625-52 113.210937-126.453125 113.210937zm0 0" fill="#3a312a"/><path d="m268.652344 105.542969c-12.441406-23.125-30.5625-43.089844-52.222656-56.410157-7.742188-4.761718-15.9375-8.664062-24.496094-11.585937-1.800782-.609375-3.617188-1.183594-5.457032-1.695313-18.183593 15.179688-29.75 38.003907-29.75 63.542969 0 45.707031 37.042969 82.746094 82.75 82.746094 17.550782 0 33.832032-5.453125 47.21875-14.789063-1.347656-21.476562-7.742187-42.707031-18.042968-61.808593zm0 0" fill="#87796f"/><path d="m271.296875 104.121094c-13.027344-24.214844-31.457031-44.113282-53.292969-57.542969-8.015625-4.929687-16.457031-8.921875-25.101562-11.871094-1.976563-.675781-3.816406-1.246093-5.621094-1.75-.949219-.261719-1.96875-.042969-2.722656.589844-19.59375 16.351563-30.828125 40.351563-30.828125 65.84375 0 47.285156 38.464843 85.75 85.746093 85.75 17.636719 0 34.558594-5.300781 48.9375-15.332031.859376-.597656 1.34375-1.601563 1.277344-2.648438-1.34375-21.40625-7.707031-43.207031-18.394531-63.039062zm-31.820313 75.019531c-43.96875 0-79.746093-35.773437-79.746093-79.746094 0-23.183593 9.988281-45.035156 27.46875-60.214843 1.207031.363281 2.453125.761718 3.765625 1.207031 8.222656 2.808593 16.261718 6.609375 23.894531 11.304687 20.9375 12.875 38.625 31.992188 51.15625 55.277344 9.996094 18.550781 16.054687 38.871094 17.570313 58.875-13.058594 8.703125-28.273438 13.296875-44.109376 13.296875zm0 0" fill="#3a312a"/><path d="m156.804688 171.644531c-10.609376-.042969-19.238282 5.078125-19.265626 11.449219-.027343 6.367188 8.53125 16.691406 19.144532 16.738281 10.609375.042969 19.261718-10.203125 19.289062-16.570312.027344-6.371094-8.554687-11.570313-19.167968-11.617188zm0 0" fill="#3a312a"/><path d="m156.757812 194.109375c0 13.707031-10.390624 24.96875-23.722656 26.355469.25 16.515625 10.777344 29.792968 23.722656 29.792968 12.945313 0 23.46875-13.273437 23.71875-29.792968-13.335937-1.386719-23.71875-12.648438-23.71875-26.355469zm0 0" fill="#f16c7a"/><g fill="#3a312a"><path d="m180.789062 217.484375c-11.992187-1.246094-21.035156-11.296875-21.035156-23.375 0-1.660156-1.34375-3-3-3s-3 1.339844-3 3c0 12.078125-9.042968 22.125-21.035156 23.375-1.542969.160156-2.710938 1.472656-2.6875 3.027344.277344 18.363281 12.015625 32.746093 26.722656 32.746093 14.707032 0 26.445313-14.382812 26.71875-32.746093.027344-1.554688-1.140625-2.867188-2.683594-3.027344zm-24.035156 29.773437c-10.539062 0-19.390625-10.65625-20.589844-24.238281 9.152344-1.84375 16.652344-7.847656 20.589844-15.890625 3.9375 8.042969 11.4375 14.046875 20.589844 15.890625-1.195312 13.582031-10.046875 24.238281-20.589844 24.238281zm0 0"/><path d="m156.753906 191.109375c-1.65625 0-3 1.339844-3 3 0 12.078125-9.042968 22.125-21.074218 23.378906-.757813.089844-1.578126.132813-2.441407.132813-12.964843 0-23.515625-10.546875-23.515625-23.511719 0-1.660156-1.34375-3-3-3s-3 1.339844-3 3c0 16.273437 13.242188 29.511719 29.515625 29.511719 1.101563 0 2.15625-.058594 3.105469-.171875 15.054688-1.566407 26.410156-14.179688 26.410156-29.339844 0-1.65625-1.34375-3-3-3zm0 0"/><path d="m209.785156 191.109375c-1.65625 0-3 1.339844-3 3 0 12.964844-10.550781 23.511719-23.515625 23.511719-.863281 0-1.679687-.042969-2.480469-.140625-11.992187-1.246094-21.035156-11.292969-21.035156-23.375 0-1.65625-1.34375-3-3-3s-3 1.34375-3 3c0 15.160156 11.355469 27.777343 26.371094 29.339843.988281.117188 2.046875.175782 3.144531.175782 16.273438 0 29.515625-13.242188 29.515625-29.515625 0-1.652344-1.34375-2.996094-3-2.996094zm0 0"/><path d="m116.203125 138.742188c-6.027344 0-10.917969 4.886718-10.917969 10.917968 0 6.027344 4.890625 10.917969 10.917969 10.917969 6.03125 0 10.917969-4.890625 10.917969-10.917969 0-6.03125-4.886719-10.917968-10.917969-10.917968zm0 0"/><path d="m197.304688 138.742188c-6.027344 0-10.917969 4.886718-10.917969 10.917968 0 6.027344 4.890625 10.917969 10.917969 10.917969 6.03125 0 10.917968-4.890625 10.917968-10.917969 0-6.03125-4.886718-10.917968-10.917968-10.917968zm0 0"/><path d="m270.613281 187.757812h-45.09375c-1.65625 0-3 1.34375-3 3 0 1.660157 1.34375 3 3 3h45.09375c1.65625 0 3-1.339843 3-3 0-1.65625-1.34375-3-3-3zm0 0"/><path d="m263.378906 218.644531-38.363281-19.039062c-1.488281-.734375-3.289063-.132813-4.023437 1.355469-.734376 1.484374-.128907 3.285156 1.355468 4.019531l38.363282 19.039062c.429687.210938.882812.3125 1.332031.3125 1.105469 0 2.167969-.613281 2.691406-1.667969.734375-1.480468.128906-3.285156-1.355469-4.019531zm0 0"/><path d="m264.734375 158.851562c-.734375-1.488281-2.535156-2.09375-4.023437-1.355468l-38.363282 19.039062c-1.484375.734375-2.089844 2.535156-1.355468 4.019532.523437 1.054687 1.585937 1.667968 2.691406 1.667968.445312 0 .902344-.101562 1.332031-.3125l38.363281-19.039062c1.484375-.738282 2.089844-2.535156 1.355469-4.019532zm0 0"/><path d="m89.832031 185.796875h-44.140625c-1.65625 0-3 1.34375-3 3 0 1.660156 1.34375 3 3 3h44.140625c1.65625 0 3-1.339844 3-3 0-1.65625-1.34375-3-3-3zm0 0"/><path d="m94.320312 198.757812c-.734374-1.484374-2.53125-2.089843-4.019531-1.355468l-37.554687 18.636718c-1.484375.734376-2.089844 2.539063-1.355469 4.019532.527344 1.058594 1.585937 1.667968 2.691406 1.667968.449219 0 .902344-.097656 1.332031-.3125l37.554688-18.636718c1.484375-.734375 2.089844-2.535156 1.351562-4.019532zm0 0"/><path d="m92.96875 174.816406-37.554688-18.632812c-1.484374-.738282-3.285156-.132813-4.023437 1.355468-.734375 1.484376-.128906 3.285157 1.355469 4.019532l37.554687 18.632812c.429688.214844.882813.316406 1.332031.316406 1.101563 0 2.164063-.613281 2.6875-1.667968.738282-1.484375.132813-3.285156-1.351562-4.023438zm0 0"/></g><path d="m386.730469 306.363281c-5.140625 0-10.160157.542969-15 1.601563 7.257812 1.558594 14.121093 4.238281 20.378906 7.859375h1.5625c1.617187 0 2.917969 1.261719 2.976563 2.859375 5.339843 3.640625 10.160156 7.980468 14.300781 12.902344 1.761719.578124 3.441406 1.277343 5.039062 2.058593 1.28125.621094 1.941407 2.058594 1.601563 3.441407l-.679688 2.660156c6.859375 10.917968 10.820313 23.816406 10.820313 37.617187 0 24.660157-12.640625 46.421875-31.78125 59.160157v.480468c0 1.660156-1.339844 3-3 3h-2.820313c-5.71875 3.058594-11.898437 5.359375-18.398437 6.761719 4.839843 1.058594 9.859375 1.597656 15 1.597656 39.160156 0 71-31.859375 71-71s-31.839844-71-71-71zm0 0" fill="#b9c239"/><path d="m460.730469 377.363281c0 40.871094-33.132813 74-74 74-40.871094 0-74-33.128906-74-74 0-40.867187 33.128906-74 74-74 40.867187 0 74 33.132813 74 74zm0 0" fill="#d7e057"/><path d="m386.730469 300.363281c-42.457031 0-77 34.542969-77 77 0 42.460938 34.542969 77 77 77s77-34.539062 77-77c0-42.457031-34.542969-77-77-77zm0 148c-39.148438 0-71-31.847656-71-71 0-39.148437 31.851562-71 71-71 39.148437 0 71 31.851563 71 71 0 39.152344-31.851563 71-71 71zm0 0" fill="#3a312a"/><path d="m394.542969 368.351562c-12.3125-4.632812-17.382813-7.675781-17.382813-12.457031 0-4.050781 3.042969-8.109375 12.457032-8.109375 10.429687 0 17.09375 3.332032 20.859374 4.925782l4.203126-16.367188c-4.785157-2.316406-11.300782-4.347656-21.003907-4.78125v-12.746094h-14.195312v13.761719c-15.5 3.039063-24.480469 13.035156-24.480469 25.78125 0 14.054687 10.574219 21.296875 26.070312 26.507813 10.722657 3.625 15.355469 7.101562 15.355469 12.601562 0 5.796875-5.648437 8.980469-13.90625 8.980469-9.414062 0-17.960937-3.039063-24.042969-6.371094l-4.347656 16.945313c5.503906 3.1875 14.921875 5.792968 24.625 6.230468v13.757813h14.195313v-14.773438c16.65625-2.894531 25.78125-13.902343 25.78125-26.796875 0-13.035156-6.953125-21.003906-24.1875-27.089844zm0 0" fill="#87796f"/><path d="m395.597656 365.542969c-11.253906-4.234375-15.441406-6.847657-15.441406-9.648438 0-4.445312 5.929688-5.109375 9.460938-5.109375 8.890624 0 14.738281 2.539063 18.605468 4.222656l1.082032.464844c.804687.335938 1.714843.3125 2.5-.074218.785156-.386719 1.359374-1.097657 1.574218-1.941407l4.203125-16.367187c.355469-1.382813-.3125-2.820313-1.597656-3.445313-5.546875-2.691406-11.886719-4.300781-19.308594-4.898437v-9.933594c0-1.65625-1.34375-3-3-3h-14.199219c-1.65625 0-3 1.34375-3 3v11.359375c-15.167968 3.816406-24.476562 14.441406-24.476562 28.1875 0 17.632813 15.023438 24.945313 28.109375 29.347656 11.050781 3.734375 13.316406 6.601563 13.316406 9.757813 0 5.550781-8.347656 5.984375-10.90625 5.984375-10.125 0-18.507812-3.761719-22.601562-6.007813-.8125-.441406-1.789063-.488281-2.636719-.117187-.851562.367187-1.480469 1.109375-1.710938 2.003906l-4.347656 16.945313c-.332031 1.304687.242188 2.667968 1.40625 3.34375 5.691406 3.292968 14.347656 5.683593 23.125 6.4375v10.953124c0 1.65625 1.34375 3 3 3h14.195313c1.65625 0 3-1.34375 3-3v-12.324218c15.75-3.636719 25.785156-14.902344 25.785156-29.246094-.003906-14.488281-7.835937-23.433594-26.136719-29.894531zm-3.164062 53.738281c-1.441406.25-2.488282 1.496094-2.488282 2.957031v11.773438h-8.195312v-10.757813c0-1.605468-1.261719-2.925781-2.867188-3-7.695312-.34375-15.742187-2.179687-21.261718-4.789062l2.832031-11.039063c5.136719 2.359375 12.957031 5.023438 22.0625 5.023438 10.429687 0 16.90625-4.589844 16.90625-11.980469 0-8.410156-8.363281-12.390625-17.398437-15.445312-16.84375-5.664063-24.03125-12.742188-24.03125-23.664063 0-11.589844 8.246093-20.128906 22.058593-22.839844 1.40625-.273437 2.421875-1.507812 2.421875-2.941406v-10.761719h8.199219v9.746094c0 1.609375 1.261719 2.929688 2.867187 3 6.804688.300781 12.59375 1.449219 17.597657 3.492188l-2.699219 10.523437c-4.160156-1.710937-10.316406-3.792969-18.824219-3.792969-14.339843 0-15.457031 8.507813-15.457031 11.113282 0 7.417968 8.011719 11.007812 19.382812 15.285156 15.964844 5.636718 22.1875 12.4375 22.1875 24.257812.003907 12.207032-8.925781 21.339844-23.292968 23.839844zm0 0" fill="#3a312a"/><path d="m386.730469 306.363281c-5.140625 0-10.160157.542969-15 1.601563 7.257812 1.558594 14.121093 4.238281 20.378906 7.859375h1.5625c1.617187 0 2.917969 1.261719 2.976563 2.859375 5.339843 3.640625 10.160156 7.980468 14.300781 12.902344 1.761719.578124 3.441406 1.277343 5.039062 2.058593 1.28125.621094 1.941407 2.058594 1.601563 3.441407l-.679688 2.660156c6.859375 10.917968 10.820313 23.816406 10.820313 37.617187 0 24.660157-12.640625 46.421875-31.78125 59.160157v.480468c0 1.660156-1.339844 3-3 3h-2.820313c-5.71875 3.058594-11.898437 5.359375-18.398437 6.761719 4.839843 1.058594 9.859375 1.597656 15 1.597656 39.160156 0 71-31.859375 71-71s-31.839844-71-71-71zm0 0" fill="#b9c239"/><path d="m371.070312 119.332031 11.808594-5.46875 18.097656 39.066407-11.804687 5.46875zm0 0" fill="#87796f"/><path d="m403.675781 151.679688-18.101562-39.0625c-.695313-1.503907-2.476563-2.160157-3.980469-1.460938l-11.808594 5.46875c-1.5.699219-2.15625 2.480469-1.460937 3.984375l18.101562 39.066406c.335938.71875.941407 1.28125 1.6875 1.554688.335938.125.683594.183593 1.035157.183593.433593 0 .863281-.089843 1.261718-.277343l11.804688-5.46875c1.5-.703125 2.15625-2.484375 1.460937-3.988281zm-13.070312 2.75-15.574219-33.625 6.363281-2.945313 15.574219 33.617187zm0 0" fill="#3a312a"/><path d="m417.980469 152.285156c-9.386719-9.183594-24.445313-9.015625-33.628907.378906-9.183593 9.386719-9.015624 24.445313.375 33.628907 9.390626 9.183593 24.449219 9.015625 33.632813-.375s9.015625-24.449219-.378906-33.632813zm-7.46875 25.960938c-4.945313 5.054687-13.054688 5.144531-18.109375.199218-5.058594-4.945312-5.148438-13.054687-.203125-18.109374 4.945312-5.058594 13.054687-5.148438 18.109375-.203126 5.058594 4.945313 5.148437 13.054688.203125 18.113282zm0 0" fill="#f16c7a" fill-rule="evenodd"/><path d="m412.40625 157.992188c-6.230469-6.097657-16.261719-5.984376-22.355469.246093-2.953125 3.019531-4.550781 7.007813-4.503906 11.226563.046875 4.222656 1.734375 8.171875 4.753906 11.128906 2.976563 2.910156 6.890625 4.503906 11.046875 4.503906h.183594c4.222656-.046875 8.171875-1.734375 11.121094-4.753906 2.957031-3.015625 4.554687-7.003906 4.507812-11.226562-.046875-4.226563-1.734375-8.175782-4.753906-11.125zm-4.039062 18.152343c-1.832032 1.875-4.285157 2.921875-6.902344 2.953125-2.542969.09375-5.089844-.964844-6.964844-2.796875-1.871094-1.832031-2.921875-4.28125-2.953125-6.902343-.027344-2.621094.964844-5.09375 2.796875-6.964844 1.917969-1.964844 4.464844-2.945313 7.015625-2.945313 2.472656 0 4.949219.925781 6.855469 2.789063 1.875 1.832031 2.917968 4.285156 2.949218 6.902344.027344 2.621093-.964843 5.09375-2.796874 6.964843zm11.714843-26.003906c-10.558593-10.324219-27.546875-10.132813-37.875.421875-10.324219 10.558594-10.136719 27.550781.421875 37.875 5.203125 5.085938 11.964844 7.621094 18.722656 7.621094 6.960938 0 13.914063-2.6875 19.152344-8.042969 10.324219-10.558594 10.136719-27.546875-.421875-37.875zm-3.867187 33.679687c-8.015625 8.195313-21.199219 8.339844-29.390625.328126-8.191407-8.011719-8.339844-21.195313-.324219-29.386719 8.011719-8.195313 21.195312-8.339844 29.386719-.328125 8.191406 8.011718 8.339843 21.195312.328125 29.386718zm0 0" fill="#3a312a"/><path d="m339.160156 3.769531c-7.3125 3.390625-10.828125 11.792969-8.109375 19.378907l40.667969 113.433593 23.847656-11.050781zm0 0" fill="#8ac6dd"/><path d="m398.289062 124.269531-56.40625-121.757812c-.335937-.722657-.941406-1.285157-1.6875-1.558594-.746093-.273437-1.570312-.242187-2.296874.09375-8.78125 4.070313-12.941407 14.007813-9.671876 23.117187l40.667969 113.429688c.285157.789062.886719 1.429688 1.664063 1.753906.375.15625.765625.234375 1.160156.234375.429688 0 .863281-.09375 1.261719-.28125l23.851562-11.046875c1.5-.699218 2.152344-2.480468 1.457031-3.984375zm-24.855468 8.210938-39.558594-110.34375c-1.863281-5.191407-.160156-10.78125 3.972656-14.058594l53.738282 115.992187zm0 0" fill="#3a312a"/><path d="m342.457031 153.230469 17.652344-39.269531 11.867187 5.335937-17.652343 39.269531zm0 0" fill="#87796f"/><path d="m373.199219 116.558594-11.867188-5.335938c-.726562-.328125-1.550781-.347656-2.296875-.066406-.742187.28125-1.34375.847656-1.671875 1.574219l-17.652343 39.269531c-.324219.726562-.351563 1.550781-.066407 2.296875.285157.742187.847657 1.34375 1.574219 1.671875l11.871094 5.335938c.386718.175781.808594.261718 1.226562.261718.363282 0 .722656-.0625 1.066406-.195312.742188-.28125 1.34375-.847656 1.671876-1.574219l17.648437-39.269531c.683594-1.511719.007813-3.285156-1.503906-3.96875zm-20.386719 38.042968-6.394531-2.878906 15.191406-33.792968 6.394531 2.871093zm0 0" fill="#3a312a"/><path d="m359.046875 152.761719c-9.289063-9.285157-24.347656-9.28125-33.636719.007812-9.285156 9.289063-9.28125 24.347657.011719 33.632813 9.289063 9.285156 24.347656 9.28125 33.632813-.007813 9.285156-9.289062 9.28125-24.347656-.007813-33.632812zm-7.753906 25.875c-5 5-13.109375 5.003906-18.113281.003906-5.003907-5-5.003907-13.109375-.003907-18.113281 5-5 13.109375-5.003906 18.113281-.003906 5 5 5.003907 13.109374.003907 18.113281zm0 0" fill="#f16c7a" fill-rule="evenodd"/><path d="m353.410156 158.402344c-2.984375-2.984375-6.953125-4.628906-11.175781-4.628906h-.003906c-4.21875.003906-8.191407 1.648437-11.175781 4.632812-2.984376 2.984375-4.628907 6.957031-4.625 11.179688 0 4.21875 1.644531 8.191406 4.628906 11.171874 2.984375 2.988282 6.957031 4.628907 11.175781 4.628907h.003906c4.222657 0 8.191407-1.644531 11.175781-4.628907 6.160157-6.164062 6.160157-16.195312-.003906-22.355468zm-4.238281 18.113281c-1.855469 1.851563-4.316406 2.871094-6.9375 2.875 0 0 0 0-.003906 0-2.617188 0-5.078125-1.019531-6.929688-2.871094-1.855469-1.851562-2.875-4.316406-2.875-6.933593 0-2.621094 1.019531-5.082032 2.871094-6.9375 1.851563-1.851563 4.3125-2.871094 6.933594-2.875h.003906c2.621094 0 5.078125 1.019531 6.933594 2.871093 3.824219 3.824219 3.824219 10.046875.003906 13.871094zm11.996094-25.875c-5.058594-5.054687-11.785157-7.839844-18.9375-7.839844h-.003907c-7.15625 0-13.878906 2.789063-18.9375 7.847657-10.4375 10.445312-10.433593 27.4375.007813 37.875 5.058594 5.058593 11.785156 7.839843 18.933594 7.839843h.007812c7.152344 0 13.878907-2.789062 18.9375-7.847656 5.054688-5.058594 7.84375-11.785156 7.839844-18.9375 0-7.15625-2.789063-13.882813-7.847656-18.9375zm-4.234375 33.632813c-3.925782 3.925781-9.144532 6.089843-14.695313 6.089843h-.007812c-5.546875 0-10.765625-2.160156-14.691407-6.082031-8.105468-8.101562-8.105468-21.285156-.007812-29.390625 3.925781-3.925781 9.144531-6.089844 14.695312-6.089844h.003907c5.550781 0 10.769531 2.160157 14.695312 6.082031 3.925781 3.925782 6.089844 9.144532 6.089844 14.695313.003906 5.550781-2.160156 10.769531-6.082031 14.695313zm0 0" fill="#3a312a"/><path d="m402.539062 3.363281-55.015624 122.398438 23.976562 10.773437 39.371094-113.886718c2.632812-7.613282-.984375-15.980469-8.332032-19.285157zm0 0" fill="#8ac6dd"/><path d="m403.769531.628906c-.730469-.328125-1.554687-.351562-2.296875-.070312-.742187.285156-1.34375.851562-1.671875 1.578125l-55.015625 122.394531c-.679687 1.511719-.003906 3.285156 1.507813 3.96875l23.972656 10.773438c.390625.175781.808594.265624 1.230469.265624.402344 0 .808594-.082031 1.191406-.246093.773438-.335938 1.371094-.980469 1.644531-1.773438l39.371094-113.886719c3.164063-9.148437-1.109375-19.035156-9.933594-23.003906zm4.265625 21.042969-38.300781 110.785156-18.246094-8.203125 52.410157-116.597656c4.167968 3.230469 5.9375 8.800781 4.136718 14.015625zm0 0" fill="#3a312a"/><path d="m377.585938 98.160156c-1.464844-3.15625-5.210938-4.53125-8.371094-3.070312-3.15625 1.464844-4.53125 5.210937-3.070313 8.367187 1.464844 3.160157 5.210938 4.535157 8.371094 3.070313 3.15625-1.464844 4.53125-5.210938 3.070313-8.367188zm0 0" fill="#f16c7a" fill-rule="evenodd"/><path d="m380.308594 96.898438c-2.160156-4.652344-7.699219-6.6875-12.355469-4.53125-2.253906 1.046874-3.964844 2.90625-4.820313 5.238281-.859374 2.332031-.753906 4.859375.292969 7.113281 1.570313 3.394531 4.941407 5.394531 8.453125 5.394531 1.304688 0 2.632813-.277343 3.894532-.863281 4.65625-2.15625 6.6875-7.699219 4.535156-12.351562zm-7.054688 6.90625c-1.652344.765624-3.621094.042968-4.386718-1.609376-.371094-.800781-.40625-1.695312-.101563-2.523437.300781-.832031.910156-1.492187 1.710937-1.863281.449219-.207032.917969-.300782 1.382813-.300782 1.246094 0 2.441406.707032 3 1.914063.769531 1.652344.042969 3.617187-1.605469 4.382813zm0 0" fill="#3a312a"/></svg>