<svg id="Capa_1" enable-background="new 0 0 512 512" height="512" viewBox="0 0 512 512" width="512" xmlns="http://www.w3.org/2000/svg"><g><g><path d="m256 466c-65.698 0-165 0-165-105 0-90.981 74.019-165 165-165s165 74.019 165 165c0 105-99.302 105-165 105z" fill="#407580"/></g><path d="m421 361c0-90.981-74.019-165-165-165v270c65.698 0 165 0 165-105z" fill="#335e73"/><g id="Veterinary_2_"><g><path d="m60 256c-33.091 0-60-26.909-60-60s26.909-60 60-60 60 26.909 60 60-26.909 60-60 60z" fill="#407580"/></g><g><path d="m181 166c-33.091 0-60-26.909-60-60s26.909-60 60-60 60 26.909 60 60-26.909 60-60 60z" fill="#407580"/></g><g><g><path d="m331 166c-33.091 0-60-26.909-60-60s26.909-60 60-60 60 26.909 60 60-26.909 60-60 60z" fill="#335e73"/></g></g><g><g><path d="m452 256c-33.091 0-60-26.909-60-60s26.909-60 60-60 60 26.909 60 60-26.909 60-60 60z" fill="#335e73"/></g></g><path d="m301 316h-30v-30h-30v30h-30v30h30v30h30v-30h30z" fill="#ff7366"/></g><g id="Veterinary_3_"><path d="m271 286h-15v90h15v-30h30v-30h-30z" fill="#e6455a"/></g></g></svg>