<svg id="Capa_1" enable-background="new 0 0 512 512" height="512" viewBox="0 0 512 512" width="512" xmlns="http://www.w3.org/2000/svg"><g><g><path d="m181 181h-90c-16.569 0-30-13.431-30-30v-60h150v60c0 16.569-13.431 30-30 30z" fill="#e6f2f2"/></g><path d="m211 91h-75v90h45c16.569 0 30-13.433 30-30z" fill="#cfe6e6"/><path d="m181 0-12.995 17.005-17.005-17.005h-30l-12.479 17.521-17.521-17.521h-60v121h210v-121zm-90 61 11.201-11.201 18.799 11.201zm60 0 12.264-12.264 17.736 12.264z" fill="#407580"/><path d="m136 121h105v-121h-60l-12.995 17.005-17.005-17.005h-15zm27.264-72.264 17.736 12.264h-30z" fill="#335e73"/><g><g><path d="m211 241v151l-42.128 30-47.872-30-30-75 30-76 48.83-30z" fill="#e6f2f2"/></g></g><path d="m136 401.401 32.873 20.599 42.127-30v-151l-41.169-30-33.831 20.784z" fill="#cfe6e6"/><g id="Blood_Test_2_"><g><path d="m211 241v-90h-150v286c0 41.4 33.6 75 75 75s75-33.6 75-75v-45h-90v-151z" fill="#ff7366"/></g><g><path d="m211 241v-90h-150v286c0 41.4 33.6 75 75 75s75-33.6 75-75v-45h-90v-151z" fill="#ff7366"/></g><g><g><path d="m91 0h30v61h-30z" fill="#678d98"/></g></g></g><g><g><path d="m151 0h30v61h-30z" fill="#407580"/></g></g><g><g fill="#e6455a"><path d="m136 151h75v90h-75z"/><path d="m211 437v-45h-75v120c41.4 0 75-33.6 75-75z"/></g></g><g><path d="m421 181h-90c-16.569 0-30-13.431-30-30v-60h150v60c0 16.569-13.431 30-30 30z" fill="#e6f2f2"/></g><path d="m451 91h-75v90h45c16.569 0 30-13.433 30-30z" fill="#cfe6e6"/><path d="m421 0-12.995 17.005-17.005-17.005h-30l-12.479 17.521-17.521-17.521h-60v121h210v-121zm-90 61 11.201-11.201 18.799 11.201zm60 0 12.264-12.264 17.736 12.264z" fill="#407580"/><path d="m376 121h105v-121h-60l-12.995 17.005-17.005-17.005h-15zm27.264-72.264 17.736 12.264h-30z" fill="#335e73"/><g><g><path d="m451 241v151l-42.128 30-47.872-30-30-75 30-76 48.83-30z" fill="#e6f2f2"/></g></g><path d="m376 401.401 32.873 20.599 42.127-30v-151l-41.169-30-33.831 20.784z" fill="#cfe6e6"/><g id="Blood_Test_4_"><g><path d="m451 241v-90h-150v286c0 41.4 33.6 75 75 75s75-33.6 75-75v-45h-90v-151z" fill="#ff7366"/></g><g><path d="m451 241v-90h-150v286c0 41.4 33.6 75 75 75s75-33.6 75-75v-45h-90v-151z" fill="#ff7366"/></g><g><g><path d="m331 0h30v61h-30z" fill="#678d98"/></g></g></g><g><g><path d="m391 0h30v61h-30z" fill="#407580"/></g></g><g><g fill="#e6455a"><path d="m376 151h75v90h-75z"/><path d="m451 437v-45h-75v120c41.4 0 75-33.6 75-75z"/></g></g></g></svg>