<svg id="Gradient" height="512" viewBox="0 0 512 512" width="512" xmlns="http://www.w3.org/2000/svg" xmlns:xlink="http://www.w3.org/1999/xlink"><linearGradient id="linear-gradient" gradientUnits="userSpaceOnUse" x1="256" x2="256" y1="496" y2="16"><stop offset="0" stop-color="#12c2e9"/><stop offset=".5" stop-color="#c471ed"/><stop offset="1" stop-color="#f64f59"/></linearGradient><path d="m144 64c0-26.916-14.056-48-32-48s-32 21.084-32 48 14.056 48 32 48 32-21.084 32-48zm-48 0c0-18.315 8.447-32 16-32s16 13.685 16 32-8.447 32-16 32-16-13.685-16-32zm-80 64c0 26.916 14.056 48 32 48s32-21.084 32-48-14.056-48-32-48-32 21.084-32 48zm32-32c7.553 0 16 13.685 16 32s-8.447 32-16 32-16-13.685-16-32 8.447-32 16-32zm144-80c-17.944 0-32 21.084-32 48s14.056 48 32 48 32-21.084 32-48-14.056-48-32-48zm0 80c-7.553 0-16-13.685-16-32s8.447-32 16-32 16 13.685 16 32-8.447 32-16 32zm64-16c-17.944 0-32 21.084-32 48s14.056 48 32 48 32-21.084 32-48-14.056-48-32-48zm0 80c-7.553 0-16-13.685-16-32s8.447-32 16-32 16 13.685 16 32-8.447 32-16 32zm-200 64a48 48 0 0 0 95.883 3.371q.117 0 .234 0a48 48 0 1 0 55.006-50.844 41.655 41.655 0 0 0 .877-8.527c0-26.467-25.121-48-56-48s-56 21.533-56 48a41.655 41.655 0 0 0 .877 8.527 48.076 48.076 0 0 0 -40.877 47.473zm48-32a32.549 32.549 0 0 1 3.3.169 8 8 0 0 0 7.876-11.72 26.238 26.238 0 0 1 -3.176-12.449c0-17.645 17.944-32 40-32s40 14.355 40 32a26.238 26.238 0 0 1 -3.18 12.449 8 8 0 0 0 7.876 11.72 32.549 32.549 0 0 1 3.304-.169 32 32 0 1 1 -32 32c0-7.318-6.729-12.63-16-12.63s-16 5.312-16 12.63a32 32 0 1 1 -32-32zm216 144c17.944 0 32-21.084 32-48s-14.056-48-32-48-32 21.084-32 48 14.056 48 32 48zm0-80c7.553 0 16 13.685 16 32s-8.447 32-16 32-16-13.685-16-32 8.447-32 16-32zm-64 144c17.944 0 32-21.084 32-48s-14.056-48-32-48-32 21.084-32 48 14.056 48 32 48zm0-80c7.553 0 16 13.685 16 32s-8.447 32-16 32-16-13.685-16-32 8.447-32 16-32zm144-80c-17.944 0-32 21.084-32 48s14.056 48 32 48 32-21.084 32-48-14.056-48-32-48zm0 80c-7.553 0-16-13.685-16-32s8.447-32 16-32 16 13.685 16 32-8.447 32-16 32zm64-16c-17.944 0-32 21.084-32 48s14.056 48 32 48 32-21.084 32-48-14.056-48-32-48zm0 80c-7.553 0-16-13.685-16-32s8.447-32 16-32 16 13.685 16 32-8.447 32-16 32zm-152 112a48.062 48.062 0 0 0 47.883-44.629q.117 0 .234 0a48 48 0 1 0 55.006-50.844 41.655 41.655 0 0 0 .877-8.527c0-26.467-25.121-48-56-48s-56 21.533-56 48a41.655 41.655 0 0 0 .877 8.527 48 48 0 0 0 7.123 95.473zm0-80a32.549 32.549 0 0 1 3.3.169 8 8 0 0 0 7.876-11.72 26.238 26.238 0 0 1 -3.176-12.449c0-17.645 17.944-32 40-32s40 14.355 40 32a26.238 26.238 0 0 1 -3.18 12.449 8 8 0 0 0 7.876 11.72 32.549 32.549 0 0 1 3.304-.169 32 32 0 1 1 -32 32c0-7.318-6.729-12.63-16-12.63s-16 5.312-16 12.63a32 32 0 1 1 -32-32z" fill="url(#linear-gradient)"/></svg>