<?xml version="1.0" encoding="iso-8859-1"?>
<!-- Generator: Adobe Illustrator 19.0.0, SVG Export Plug-In . SVG Version: 6.00 Build 0)  -->
<svg version="1.1" id="Capa_1" xmlns="http://www.w3.org/2000/svg" xmlns:xlink="http://www.w3.org/1999/xlink" x="0px" y="0px"
	 viewBox="0 0 512 512" style="enable-background:new 0 0 512 512;" xml:space="preserve">
<path style="fill:#4D7C90;" d="M319.878,80.41c0.197-2.049,0.306-4.125,0.306-6.226C320.184,38.736,291.448,10,256,10
	s-64.184,28.736-64.184,64.184c0,2.101,0.108,4.176,0.306,6.226h-56.617v82.824h240.99V80.41H319.878z"/>
<polygon style="fill:#96C8EF;" points="376.495,80.41 376.495,163.233 135.505,163.233 135.505,80.41 78.696,80.41 78.696,502 
	433.305,502 433.305,80.41 "/>
<g>
	<path style="fill:#FF7956;" d="M305.692,286.44c-2.57-25.177-23.836-44.82-49.692-44.82c-25.855,0-47.122,19.643-49.692,44.82
		c-19.116,7.009-32.757,25.368-32.757,46.914c0,27.588,22.365,49.953,49.953,49.953c12.413,0,23.759-4.538,32.496-12.032
		c8.737,7.494,20.083,12.032,32.496,12.032c27.588,0,49.953-22.365,49.953-49.953C338.449,311.809,324.809,293.449,305.692,286.44z"
		/>
	<path style="fill:#FF7956;" d="M250.819,220.879c0.026,15.534-12.477,28.242-28.022,28.022
		c-14.953-0.212-27.581-12.603-28.022-28.022c-0.443-15.47,12.546-28.022,28.022-28.022S250.793,205.403,250.819,220.879z"/>
	<path style="fill:#FF7956;" d="M317.224,220.879c-0.291,15.262-12.893,27.746-28.022,28.022
		c-15.5,0.283-28.032-12.537-28.022-28.022c0.01-15.476,12.546-28.022,28.022-28.022
		C304.679,192.857,317.52,205.406,317.224,220.879z"/>
	<path style="fill:#FF7956;" d="M345.813,260.022c0,12.986-10.527,23.522-23.512,23.512c-12.944-0.01-23.402-10.555-23.512-23.512
		c-0.111-12.985,10.527-23.512,23.512-23.512C335.285,236.51,345.813,247.036,345.813,260.022z"/>
	<path style="fill:#FF7956;" d="M213.213,260.022c-0.099,12.957-10.563,23.502-23.512,23.512
		c-12.986,0.01-23.512-10.527-23.512-23.512s10.527-23.512,23.512-23.512C202.686,236.51,213.313,247.037,213.213,260.022z"/>
</g>
<path d="M345.997,283.722c6.329-6.331,9.815-14.747,9.815-23.699c0-16.996-12.721-31.068-29.14-33.218
	c0.326-1.873,0.514-3.788,0.551-5.735c0.191-10.021-3.608-19.52-10.697-26.745c-7.149-7.287-17.108-11.467-27.323-11.467
	c-14.255,0-26.701,7.898-33.208,19.547c-6.512-11.648-18.955-19.547-33.197-19.547c-10.318,0-20.356,4.24-27.541,11.633
	c-7.041,7.245-10.762,16.719-10.477,26.675c0.055,1.913,0.253,3.795,0.582,5.635c-16.435,2.136-29.173,16.215-29.173,33.222
	c0,8.952,3.485,17.368,9.814,23.699c3.98,3.981,8.784,6.834,14.027,8.404c-10.329,10.928-16.479,25.604-16.479,41.228
	c0,33.059,26.895,59.953,59.953,59.953c11.575,0,22.858-3.361,32.496-9.583c9.639,6.222,20.922,9.583,32.496,9.583
	c33.058,0,59.953-26.895,59.953-59.953c0-15.624-6.15-30.3-16.479-41.228C337.214,290.555,342.017,287.702,345.997,283.722z
	 M335.813,260.022c0,3.61-1.406,7.006-3.958,9.559c-2.549,2.55-5.935,3.953-9.535,3.953c-0.003,0-0.007,0-0.01,0
	c-5.08-0.004-9.533-2.887-11.843-7.121c-0.209-0.456-0.42-0.911-0.64-1.36c-0.65-1.581-1.023-3.306-1.038-5.116
	c-0.03-3.529,1.337-6.868,3.849-9.401c2.574-2.597,6.006-4.026,9.664-4.026C329.75,246.51,335.813,252.571,335.813,260.022z
	 M289.203,202.857c4.951,0,9.584,1.944,13.047,5.474c3.297,3.36,5.064,7.749,4.976,12.357c-0.101,5.321-2.538,10.136-6.295,13.483
	c-0.226,0.187-0.444,0.385-0.666,0.578c-3.109,2.521-7.019,4.076-11.245,4.154c-2.303,0.041-4.551-0.378-6.644-1.216
	c-0.565-0.276-1.134-0.545-1.709-0.804c-1.456-0.78-2.817-1.77-4.038-2.968c-3.517-3.456-5.452-8.083-5.449-13.03
	C271.188,210.944,279.271,202.857,289.203,202.857z M209.6,208.429c3.44-3.541,8.25-5.571,13.197-5.571
	c9.92,0,18.005,8.092,18.022,18.038c0.008,4.929-1.899,9.531-5.372,12.961c-1.236,1.22-2.619,2.231-4.106,3.023
	c-0.557,0.25-1.108,0.511-1.655,0.777c-2.115,0.853-4.398,1.283-6.747,1.246c-9.732-0.138-17.882-8.352-18.167-18.309
	C204.643,216.085,206.357,211.765,209.6,208.429z M189.701,246.51c3.653,0,7.081,1.427,9.652,4.019
	c2.516,2.536,3.887,5.88,3.86,9.418c-0.014,1.785-0.378,3.486-1.011,5.049c-0.239,0.485-0.466,0.977-0.692,1.47
	c-2.315,4.205-6.753,7.065-11.817,7.069c-0.004,0-0.007,0-0.011,0c-3.601,0-6.987-1.403-9.536-3.953
	c-2.553-2.553-3.958-5.948-3.958-9.559C176.189,252.571,182.25,246.51,189.701,246.51z M288.497,373.308
	c-9.523,0-18.752-3.417-25.986-9.622c-1.873-1.607-4.192-2.41-6.511-2.41s-4.638,0.804-6.511,2.41
	c-7.233,6.205-16.462,9.622-25.985,9.622c-22.03,0-39.953-17.923-39.953-39.953c0-16.699,10.529-31.78,26.2-37.525
	c3.592-1.316,6.118-4.567,6.506-8.373c0.456-4.462,1.627-8.685,3.394-12.56c0.127-0.253,0.25-0.509,0.37-0.766
	c3.837-7.958,10.206-14.386,18.044-18.302c0.611-0.265,1.214-0.547,1.81-0.845c4.939-2.165,10.396-3.363,16.124-3.363
	c5.693,0,11.116,1.184,16.031,3.324c0.665,0.336,1.339,0.652,2.021,0.946c7.875,3.968,14.258,10.471,18.061,18.517
	c0.049,0.101,0.097,0.202,0.146,0.302c1.815,3.926,3.021,8.212,3.484,12.747c0.388,3.806,2.914,7.057,6.506,8.373
	c15.671,5.745,26.2,20.826,26.2,37.525C328.449,355.385,310.526,373.308,288.497,373.308z"/>
<path d="M384.112,427.89c-0.65,0-1.31-0.07-1.96-0.2c-0.64-0.13-1.27-0.319-1.87-0.569s-1.18-0.56-1.72-0.92
	c-0.55-0.36-1.06-0.78-1.53-1.24c-0.46-0.46-0.87-0.97-1.24-1.52c-0.36-0.54-0.67-1.12-0.92-1.73c-0.25-0.601-0.44-1.23-0.57-1.87
	c-0.13-0.64-0.19-1.3-0.19-1.95c0-0.649,0.06-1.309,0.19-1.96c0.13-0.63,0.32-1.26,0.57-1.87c0.25-0.6,0.56-1.18,0.92-1.72
	c0.37-0.55,0.78-1.06,1.24-1.521c0.47-0.46,0.98-0.88,1.53-1.25c0.54-0.359,1.12-0.67,1.72-0.92c0.61-0.25,1.23-0.439,1.87-0.569
	c1.29-0.261,2.62-0.261,3.91,0c0.64,0.13,1.27,0.319,1.87,0.569s1.19,0.561,1.73,0.92c0.55,0.37,1.06,0.79,1.52,1.25
	c0.46,0.461,0.88,0.971,1.24,1.521c0.36,0.54,0.67,1.12,0.92,1.72c0.25,0.61,0.44,1.24,0.57,1.87c0.13,0.65,0.2,1.311,0.2,1.96
	c0,0.65-0.07,1.311-0.2,1.95c-0.13,0.64-0.32,1.27-0.57,1.87c-0.25,0.609-0.56,1.189-0.92,1.73c-0.36,0.551-0.78,1.06-1.24,1.52
	s-0.97,0.88-1.52,1.24c-0.54,0.359-1.13,0.67-1.73,0.92s-1.23,0.44-1.87,0.569C385.422,427.819,384.762,427.89,384.112,427.89z"/>
<path d="M128.692,468.93c-0.65,0-1.31-0.07-1.95-0.2c-0.64-0.12-1.27-0.319-1.87-0.569c-0.61-0.25-1.19-0.561-1.73-0.92
	c-0.55-0.36-1.06-0.78-1.52-1.24s-0.88-0.97-1.24-1.521c-0.36-0.54-0.67-1.12-0.92-1.729c-0.25-0.601-0.44-1.23-0.57-1.87
	c-0.13-0.64-0.2-1.3-0.2-1.95c0-0.649,0.07-1.31,0.2-1.95s0.32-1.27,0.57-1.88c0.25-0.6,0.56-1.18,0.92-1.72
	c0.36-0.55,0.78-1.061,1.24-1.521s0.97-0.88,1.52-1.239c0.54-0.36,1.12-0.681,1.73-0.931c0.6-0.25,1.23-0.44,1.87-0.569
	c1.29-0.261,2.62-0.261,3.91,0c0.63,0.13,1.26,0.319,1.87,0.569c0.6,0.25,1.18,0.57,1.72,0.931c0.55,0.359,1.06,0.779,1.52,1.239
	c0.46,0.46,0.88,0.971,1.25,1.521c0.36,0.54,0.67,1.12,0.92,1.72c0.25,0.61,0.44,1.24,0.57,1.88c0.13,0.641,0.19,1.301,0.19,1.95
	c0,0.65-0.06,1.311-0.19,1.95c-0.13,0.64-0.32,1.27-0.57,1.87c-0.25,0.609-0.56,1.19-0.92,1.729c-0.37,0.551-0.79,1.061-1.25,1.521
	s-0.97,0.88-1.52,1.24c-0.54,0.359-1.12,0.67-1.72,0.92c-0.61,0.25-1.24,0.449-1.87,0.569
	C130.002,468.859,129.342,468.93,128.692,468.93z"/>
<path d="M433.305,70.41h-56.81h-46.406C328.117,31.252,295.641,0,256,0c-39.639,0-72.117,31.252-74.089,70.41h-46.406h-56.81
	c-5.523,0-10,4.478-10,10V502c0,5.522,4.477,10,10,10h354.609c5.523,0,10-4.478,10-10V80.41
	C443.305,74.888,438.828,70.41,433.305,70.41z M192.122,90.41c2.819,0,5.507-1.189,7.402-3.276c1.896-2.086,2.822-4.876,2.552-7.682
	c-0.172-1.79-0.26-3.563-0.26-5.269C201.816,44.307,226.123,20,256,20s54.184,24.307,54.184,54.184c0,1.705-0.087,3.479-0.26,5.269
	c-0.27,2.806,0.657,5.596,2.552,7.682c1.895,2.087,4.583,3.276,7.402,3.276h46.617v62.823h-220.99V90.41H192.122z M88.695,492
	v-64.111H345.57c5.523,0,10-4.478,10-10s-4.477-10-10-10H88.695V90.41h36.81v72.823c0,5.523,4.477,10,10,10h240.99
	c5.523,0,10-4.477,10-10V90.41h36.81v358.52H167.233c-5.523,0-10,4.478-10,10s4.477,10,10,10h256.071V492H88.695z"/>
<circle style="fill:#FFDE75;" cx="256.4" cy="73.02" r="27.759"/>
<path d="M256.402,110.777c-20.82,0-37.759-16.938-37.759-37.759s16.939-37.76,37.759-37.76s37.759,16.938,37.759,37.76
	C294.162,93.839,277.223,110.777,256.402,110.777z M256.402,55.259c-9.792,0-17.759,7.967-17.759,17.76
	c0,9.792,7.967,17.759,17.759,17.759c9.793,0,17.759-7.967,17.759-17.759C274.162,63.226,266.195,55.259,256.402,55.259z"/>
<g>
</g>
<g>
</g>
<g>
</g>
<g>
</g>
<g>
</g>
<g>
</g>
<g>
</g>
<g>
</g>
<g>
</g>
<g>
</g>
<g>
</g>
<g>
</g>
<g>
</g>
<g>
</g>
<g>
</g>
</svg>
