<svg width="48" height="48" xmlns="http://www.w3.org/2000/svg">
 <title/>

 <g>
  <title>background</title>
  <rect fill="none" id="canvas_background" height="402" width="582" y="-1" x="-1"/>
 </g>
 <g>
  <title>Layer 1</title>
  <path transform="rotate(45 26.82858657836915,25.414653778076165) " id="Path" fill-rule="nonzero" fill="#d31010" d="m33.500957,15.05124l0.04054,0.07273c0.14612,0.32086 -0.08575,0.70462 -0.45657,0.70462l-5.5,-0.001l0,19.501l-0.00806,0.08988c-0.04233,0.23324 -0.24648,0.41012 -0.49194,0.41012l-10.5,-0.001l0,14.501c0,0.27614 -0.22386,0.5 -0.5,0.5l-4,0c-0.27614,0 -0.5,-0.22386 -0.5,-0.5l0,-19l0.00806,-0.08988c0.04233,-0.23324 0.24648,-0.41012 0.49194,-0.41012l10.5,-0.001l0,-15l-5.5,0.001c-0.39935,0 -0.63754,-0.44507 -0.41603,-0.77735l8,-12c0.19792,-0.29687 0.63414,-0.29687 0.83206,0l8,12z"/>
 </g>
</svg>