<?xml version="1.0" encoding="iso-8859-1"?>
<!-- Generator: Adobe Illustrator 19.0.0, SVG Export Plug-In . SVG Version: 6.00 Build 0)  -->
<svg version="1.1" id="Layer_1" xmlns="http://www.w3.org/2000/svg" xmlns:xlink="http://www.w3.org/1999/xlink" x="0px" y="0px"
	 viewBox="0 0 512 512" style="enable-background:new 0 0 512 512;" xml:space="preserve">
<path style="fill:#4ACFD9;" d="M464.713,34.786H121.206c-4.504,0-8.153,3.65-8.153,8.153v417.427c0,4.503,3.649,8.153,8.153,8.153
	h343.507c4.504,0,8.153-3.65,8.153-8.153V42.938C472.866,38.436,469.217,34.786,464.713,34.786z"/>
<path style="fill:#0295AA;" d="M121.206,34.786c-4.504,0-8.153,3.65-8.153,8.153v417.427c0,4.503,3.649,8.153,8.153,8.153h173.928
	V34.786H121.206z"/>
<path style="fill:#CDD4D5;" d="M369.053,108.705H47.287c-4.504,0-8.153,3.65-8.153,8.153v304.374c0,2.162,0.859,4.236,2.387,5.765
	l82.616,82.616c1.529,1.53,3.602,2.388,5.766,2.388h239.151c4.504,0,8.153-3.65,8.153-8.153V116.858
	C377.206,112.355,373.557,108.705,369.053,108.705z"/>
<path style="fill:#E6EAEA;" d="M47.287,108.705c-4.504,0-8.153,3.65-8.153,8.153v304.374c0,2.162,0.859,4.236,2.387,5.765
	l82.616,82.616c1.529,1.53,3.602,2.388,5.766,2.388h78.268V108.705H47.287z"/>
<g>
	<path style="fill:#365558;" d="M316.875,181.537H103.813c-4.504,0-8.153-3.65-8.153-8.153c0-4.503,3.649-8.153,8.153-8.153h213.062
		c4.504,0,8.153,3.65,8.153,8.153C325.028,177.887,321.378,181.537,316.875,181.537z"/>
	<path style="fill:#365558;" d="M316.875,251.108H103.813c-4.504,0-8.153-3.65-8.153-8.153c0-4.503,3.649-8.153,8.153-8.153h213.062
		c4.504,0,8.153,3.65,8.153,8.153C325.028,247.458,321.378,251.108,316.875,251.108z"/>
	<path style="fill:#365558;" d="M316.875,320.679H103.813c-4.504,0-8.153-3.65-8.153-8.153s3.649-8.153,8.153-8.153h213.062
		c4.504,0,8.153,3.65,8.153,8.153S321.378,320.679,316.875,320.679z"/>
	<path style="fill:#365558;" d="M316.875,390.251H103.813c-4.504,0-8.153-3.65-8.153-8.153s3.649-8.153,8.153-8.153h213.062
		c4.504,0,8.153,3.65,8.153,8.153S321.378,390.251,316.875,390.251z"/>
</g>
<path style="fill:#9BAAAB;" d="M39.148,421.231c0,2.121,0.814,4.206,2.373,5.765l82.616,82.616c1.56,1.56,3.644,2.387,5.766,2.388
	v-82.616c0-4.503-3.65-8.153-8.153-8.153H39.148z"/>
<path style="fill:#F0353D;" d="M264.153,29.894C264.153,13.41,250.742,0,234.259,0h-34.786c-16.483,0-29.894,13.41-29.894,29.894
	v143.49c0,16.484,13.411,29.894,29.894,29.894h13.045c16.483,0,29.894-13.41,29.894-29.894V69.028c0-4.503-3.649-8.153-8.153-8.153
	s-8.153,3.65-8.153,8.153v104.357c0,7.493-6.095,13.588-13.588,13.588h-13.045c-7.493,0-13.588-6.095-13.588-13.588V29.894
	c0-7.493,6.095-13.588,13.588-13.588h34.786c7.493,0,13.588,6.095,13.588,13.588v4.348h16.306V29.894z"/>
<g>
</g>
</svg>
