<?xml version="1.0" encoding="iso-8859-1"?>
<!-- Generator: Adobe Illustrator 19.0.0, SVG Export Plug-In . SVG Version: 6.00 Build 0)  -->
<svg version="1.1" id="Layer_1" xmlns="http://www.w3.org/2000/svg" xmlns:xlink="http://www.w3.org/1999/xlink" x="0px" y="0px"
	 viewBox="0 0 512 512" style="enable-background:new 0 0 512 512;" xml:space="preserve">
<circle style="fill:#FF3D62;" cx="255.996" cy="256" r="255.996"/>
<path style="fill:#C2001B;" d="M512,256.003c0-18.233-1.921-36.015-5.544-53.169l-78.367-78.367h-66.997v113.325
	c0,15.627-12.714,28.341-28.342,28.341h-80.583v-7.16l-57.238-57.237L50.415,299.632L262.7,511.918
	C400.987,508.363,512,395.149,512,256.003z"/>
<path style="fill:#FFFFFF;" d="M361.092,124.467v113.325c0,15.627-12.714,28.341-28.342,28.341H194.928v-64.396L50.415,299.632
	l144.514,97.895V333.13h137.821c52.57,0,95.338-42.769,95.338-95.337V124.467H361.092z"/>
<path style="fill:#E1E1E3;" d="M361.092,124.467v113.325c0,15.627-12.714,28.341-28.342,28.341h-76.767v66.997h76.767
	c52.57,0,95.338-42.769,95.338-95.337V124.467H361.092z"/>
<g>
</g>
<g>
</g>
<g>
</g>
<g>
</g>
<g>
</g>
<g>
</g>
<g>
</g>
<g>
</g>
<g>
</g>
<g>
</g>
<g>
</g>
<g>
</g>
<g>
</g>
<g>
</g>
<g>
</g>
</svg>
