<svg height="443pt" viewBox="0 -13 443.27702 443" width="443pt" xmlns="http://www.w3.org/2000/svg"><path d="m434.449219 37.679688v79.589843h-75.070313v-79.589843c0-19.898438 15.527344-36.339844 35.390625-37.480469.710938-.039063 1.421875-.0625 2.140625-.0625 20.734375 0 37.539063 16.808593 37.539063 37.542969zm0 0" fill="#cc7350"/><path d="m418.28125 214.117188c28.890625 28.902343 33.25 74.226562 10.398438 108.105468-22.855469 33.875-66.511719 46.808594-104.128907 30.839844-37.621093-15.964844-58.648437-56.351562-50.152343-96.328125 8.492187-39.972656 44.121093-68.320313 84.980468-67.617187 22.132813.382812 43.25 9.347656 58.902344 25zm0 0" fill="#f8ec7d"/><path d="m394.769531.136719v.0625c-19.863281 1.140625-35.390625 17.582031-35.390625 37.480469v151.4375c-30.839844-.546876-59.578125 15.578124-75.175781 42.1875-15.597656 26.609374-15.632813 59.566406-.089844 86.207031s44.246094 42.832031 75.085938 42.347656c-2.339844 31.808594-28.339844 56.878906-60.058594 56.878906h-.039063c-1.242187 0-2.472656-.039062-3.691406-.121093-31.539062-1.9375-56.539062-28.71875-56.539062-61.449219v-39.871094h-178.441406l2.230468-272.6875c.234375-23.527344 19.375-42.472656 42.898438-42.472656zm0 0" fill="#e48e66"/><path d="m295.410156 416.617188-.011718.121093h-235.160157c-33.269531 0-60.238281-27.570312-60.238281-61.570312v-39.871094h238.871094v39.871094c0 32.730469 25 59.511719 56.539062 61.449219zm0 0" fill="#cc7350"/><g fill="#f8ec7d"><path d="m157.25 106.449219h-50.140625c-3.3125 0-6-2.6875-6-6s2.6875-6 6-6h50.140625c3.3125 0 6 2.6875 6 6s-2.6875 6-6 6zm0 0"/><path d="m306.570312 177.089844h-74.640624c-3.3125 0-6-2.6875-6-6 0-3.316406 2.6875-6 6-6h74.640624c3.3125 0 6 2.683594 6 6 0 3.3125-2.6875 6-6 6zm0 0"/><path d="m206.558594 177.089844h-23.378906c-3.3125 0-6-2.6875-6-6 0-3.316406 2.6875-6 6-6h23.378906c3.316406 0 6 2.683594 6 6 0 3.3125-2.683594 6-6 6zm0 0"/><path d="m157.390625 177.089844h-50.28125c-3.3125 0-6-2.6875-6-6 0-3.316406 2.6875-6 6-6h50.28125c3.3125 0 6 2.683594 6 6 0 3.3125-2.6875 6-6 6zm0 0"/><path d="m267.320312 247.738281h-29.550781c-3.3125 0-6-2.6875-6-6s2.6875-6 6-6h29.550781c3.3125 0 6 2.6875 6 6s-2.6875 6-6 6zm0 0"/><path d="m212.378906 247.738281h-105.269531c-3.3125 0-6-2.6875-6-6s2.6875-6 6-6h105.269531c3.316406 0 6 2.6875 6 6s-2.683594 6-6 6zm0 0"/><path d="m306.570312 106.449219h-14.398437c-3.316406 0-6-2.6875-6-6s2.683594-6 6-6h14.398437c3.3125 0 6 2.6875 6 6s-2.6875 6-6 6zm0 0"/><path d="m266.878906 106.449219h-84.6875c-3.316406 0-6-2.6875-6-6s2.683594-6 6-6h84.6875c3.316406 0 6 2.6875 6 6s-2.683594 6-6 6zm0 0"/></g><path d="m357.898438 268.039062c-7.730469 0-14-6.269531-14-14 0-7.734374 6.269531-14 14-14 7.734374 0 14 6.265626 14 14 0 3.3125 2.6875 6 6 6 3.316406 0 6-2.6875 6-6-.015626-12.042968-8.285157-22.5-20-25.292968v-5.703125c0-3.3125-2.683594-6-6-6-3.3125 0-6 2.6875-6 6v5.703125c-12.824219 3.050781-21.335938 15.21875-19.804688 28.3125s12.621094 22.972656 25.804688 22.980468c7.734374-.027343 14.023437 6.21875 14.050781 13.949219.027343 7.730469-6.21875 14.023438-13.949219 14.050781-.03125 0-.0625-.003906-.101562-.003906-.035157 0-.0625 0-.097657.003906-7.691406-.0625-13.894531-6.3125-13.902343-14 0-3.3125-2.683594-6-6-6-3.3125 0-6 2.6875-6 6 .019531 12.039063 8.289062 22.5 20 25.292969v6.597657c0 3.316406 2.6875 6 6 6 3.316406 0 6-2.683594 6-6v-6.597657c12.824218-3.054687 21.335937-15.222656 19.804687-28.3125-1.53125-13.09375-12.621094-22.96875-25.804687-22.980469zm0 0" fill="#e48e66"/></svg>