<?xml version="1.0" encoding="iso-8859-1"?>
<!-- Generator: Adobe Illustrator 19.0.0, SVG Export Plug-In . SVG Version: 6.00 Build 0)  -->
<svg version="1.1" id="Layer_1" xmlns="http://www.w3.org/2000/svg" xmlns:xlink="http://www.w3.org/1999/xlink" x="0px" y="0px"
	 viewBox="0 0 496.246 496.246" style="enable-background:new 0 0 496.246 496.246;" xml:space="preserve">
<g>
	<path style="fill:#768989;" d="M137.035,477.393c0,4.939-4.009,8.956-8.956,8.956H89.246c-4.947,0-8.972-4.017-8.972-8.956V456.48
		c0-4.939,4.025-8.964,8.972-8.964h38.833c4.947,0,8.956,4.025,8.956,8.964V477.393z"/>
	<path style="fill:#768989;" d="M479.067,477.393c0,4.939-4.009,8.956-8.964,8.956h-38.833c-4.939,0-8.956-4.017-8.956-8.956V456.48
		c0-4.939,4.017-8.964,8.956-8.964h38.833c4.955,0,8.964,4.025,8.964,8.964V477.393z"/>
</g>
<path style="fill:#C17E52;" d="M421.329,398.096c0,6.262-5.081,11.343-11.351,11.343H222.09c-6.286,0-11.351-5.081-11.351-11.343
	V210.2c0-6.27,5.073-11.351,11.351-11.351h187.888c6.278,0,11.351,5.081,11.351,11.351V398.096z"/>
<path style="fill:#B56841;" d="M421.329,210.2v187.896c0,6.262-5.081,11.343-11.351,11.343H222.09"/>
<path style="fill:#A86743;" d="M210.739,210.2c0-6.27,5.073-11.351,11.351-11.351h187.888c6.278,0,11.351,5.081,11.351,11.351
	v187.896c0,6.262-5.081,11.343-11.351,11.343"/>
<path style="fill:#FF7F00;" d="M96.327,175.691c-7.412,0-13.43,6.018-13.43,13.438v216.576c0,7.42,6.018,13.438,13.43,13.438
	c7.428,0,13.446-6.018,13.446-13.438V189.129C109.781,181.709,103.763,175.691,96.327,175.691z"/>
<path style="fill:#E56505;" d="M96.327,175.691c-7.412,0-13.43,6.018-13.43,13.438v84.393c0,7.42,6.018,13.446,13.43,13.446
	c7.428,0,13.446-6.018,13.446-13.446v-84.393C109.781,181.709,103.763,175.691,96.327,175.691z"/>
<path style="fill:#93A4A5;" d="M496.246,456.85c0,4.939-4.017,8.964-8.956,8.964H72.066c-4.947,0-8.964-4.025-8.964-8.964v-43.307
	c0-4.955,4.017-8.964,8.964-8.964H487.29c4.939-0.008,8.956,4.001,8.956,8.964V456.85z"/>
<path style="fill:#A9BFBF;" d="M487.29,404.571H72.066c-4.947,0-8.964,4.009-8.964,8.964v4.466c0,4.939,4.017,8.964,8.964,8.964
	H487.29c4.939,0,8.956-4.025,8.956-8.964v-4.458C496.246,408.58,492.229,404.571,487.29,404.571z"/>
<circle style="fill:#D3C794;" cx="96.335" cy="106.24" r="82.889"/>
<path style="fill:#EAE0B7;" d="M179.232,106.24c0,45.773-37.116,82.889-82.897,82.889s-82.881-37.116-82.881-82.889
	c0-45.781,37.108-47.049,82.881-47.049C142.115,59.199,179.232,60.459,179.232,106.24z"/>
<g>
	<path style="fill:#FFA300;" d="M96.327,202.575C43.221,202.575,0,159.354,0,106.24S43.221,9.897,96.327,9.897
		c53.13,0,96.327,43.221,96.327,96.343C192.662,159.354,149.465,202.575,96.327,202.575z M96.327,36.789
		c-38.282,0-69.443,31.161-69.443,69.451s31.161,69.451,69.443,69.451c38.298,0,69.459-31.161,69.459-69.451
		S134.632,36.789,96.327,36.789z"/>
	<path style="fill:#FFA300;" d="M103.613,99.237c0,3.868-3.119,7.01-6.995,7.01s-7.018-3.135-7.018-7.01
		c0-3.86,3.143-59.085,7.018-59.085S103.613,95.37,103.613,99.237z"/>
</g>
<path style="fill:#E56505;" d="M96.626,40.153c3.868,0,6.995,55.225,6.995,59.085c0,3.868-3.119,7.01-6.995,7.01"/>
<circle style="fill:#768989;" cx="96.343" cy="106.24" r="12.32"/>
<g>
	<path style="fill:#FFA300;" d="M280.875,110.415l28.396-33.296c1.126-1.331,1.394-3.198,0.646-4.773
		c-0.725-1.599-2.316-2.607-4.057-2.607h-13.548c-1.339,0-2.631,0.599-3.474,1.638l-24.915,30.602V74.205
		c0-2.458-1.993-4.466-4.458-4.466h-10.925c-2.465,0-4.482,2.009-4.482,4.466v84.543c0,2.465,2.016,4.474,4.482,4.474h10.925
		c2.465,0,4.458-2.001,4.458-4.474v-30.562l3.111-3.592l24.56,36.643c0.835,1.237,2.229,1.977,3.734,1.977h12.918
		c1.662,0,3.174-0.914,3.954-2.379c0.78-1.473,0.677-3.23-0.244-4.6L280.875,110.415z"/>
	<path style="fill:#FFA300;" d="M389.971,109.879h-27.837c-2.481,0-4.466,1.993-4.466,4.474v8.775c0,2.473,1.985,4.482,4.466,4.482
		h12.705v17.558c-2.261,0.536-5.624,0.961-10.075,0.961c-17.605,0-28.136-11.083-28.136-29.649
		c0-18.464,11.043-29.515,29.515-29.515c8.483,0,13.47,1.749,16.88,3.261c1.174,0.52,2.505,0.512,3.686-0.024
		c1.174-0.544,2.056-1.56,2.418-2.788l2.655-8.901c0.614-2.111-0.37-4.364-2.355-5.309c-4.348-2.095-12.666-4.34-23.016-4.34
		c-29.909,0-50.113,19.33-50.263,48.128c0,13.982,4.797,26.624,13.17,34.721c8.751,8.342,20.102,12.398,34.698,12.398
		c11.382,0,21.228-2.655,27.467-4.899c1.788-0.638,2.97-2.324,2.97-4.214v-40.645C394.445,111.872,392.444,109.879,389.971,109.879z
		"/>
</g>
</svg>
