<svg id="Capa_1" enable-background="new 0 0 508.21 508.21" height="512" viewBox="0 0 508.21 508.21" width="512" xmlns="http://www.w3.org/2000/svg"><path d="m508.186 277.836c-3.543 51.322-27.847 96.93-64.583 128.482-4.444 3.817-11.163 3.186-14.749-1.446l-106.71-137.841h175.871c5.869 0 10.575 4.95 10.171 10.805z" fill="#ff9100"/><path d="m488.166 217.677h-200.097v-202.526c0-5.795 4.831-10.468 10.619-10.179 108.119 5.388 195.532 92.588 199.663 202.198.217 5.747-4.433 10.507-10.185 10.507z" fill="#f00"/><path d="m364.37 462.001c-37.05 25.69-81.93 40.87-130.35 41.24-.6 0-1.2.01-1.79.01-.62 0-1.23 0-1.84-.01-128.09-.99-230.58-104.47-230.39-232.57.18-124.52 98.38-226.07 221.58-231.63 5.8-.26 10.65 4.38 10.65 10.19v224.58l1.79 2.31 132.58 171.28c3.57 4.611 2.56 11.281-2.23 14.6z" fill="#0095ff"/><path d="m364.37 462.001c-37.05 25.69-81.93 40.87-130.35 41.24-.6 0-1.2.01-1.79.01v-229.44l1.79 2.31 132.58 171.28c3.57 4.611 2.56 11.281-2.23 14.6z" fill="#005fe4"/><path d="m393.865 269.122c0 89.133-72.512 161.635-161.635 161.635-89.133 0-161.645-72.502-161.645-161.635s72.512-161.645 161.645-161.645c89.123 0 161.635 72.512 161.635 161.645z" fill="#fcfafa"/><path d="m393.865 269.122c0 89.133-72.512 161.635-161.635 161.635v-323.28c89.123 0 161.635 72.512 161.635 161.645z" fill="#ebe2df"/><path d="m363.312 269.122c0 72.278-58.794 131.071-131.082 131.082h-.01c-72.278 0-131.082-58.804-131.082-131.082 0-72.288 58.804-131.092 131.082-131.092h.01c72.288.01 131.082 58.804 131.082 131.092z" fill="#444"/><path d="m363.312 269.122c0 72.278-58.794 131.071-131.082 131.082v-262.175c72.288.011 131.082 58.805 131.082 131.093z" fill="#292929"/><path d="m292.26 298.052c0 23.013-17.971 43.93-45.03 43.93v13.07c0 8.28-6.72 15-15 15-8.29 0-15-6.72-15-15v-13.07c-11.267 0-20.938-1.97-31.5-9.3-6.81-4.73-8.5-14.07-3.78-20.88 4.72-6.8 14.07-8.5 20.88-3.77 3.61 2.51 7.74 3.91 11.63 3.95h33.88c7.717 0 13.92-6.24 13.92-13.93 0-7.68-6.25-13.93-13.93-13.93h-32.21c-24.22 0-43.93-19.71-43.93-43.93 0-23.038 17.987-43.93 45.04-43.93v-13.07c0-8.28 6.71-15 15-15 8.28 0 15 6.72 15 15v13.07c13.001 0 26.751 5.561 36.78 16.27 5.67 6.05 5.36 15.54-.68 21.21-6.05 5.66-15.54 5.35-21.21-.69-3.99-4.26-9.43-6.74-14.94-6.79h-31.07c-7.707 0-13.92 6.242-13.92 13.93 0 7.68 6.25 13.93 13.93 13.93h32.21c24.23 0 43.93 19.71 43.93 43.93z" fill="#fcfafa"/><g fill="#ebe2df"><path d="m247.18 226.262h-14.95v-58.07c8.28 0 15 6.72 15 15v13.07c13.001 0 26.751 5.561 36.78 16.27 5.67 6.05 5.36 15.54-.68 21.21-6.05 5.66-15.54 5.35-21.21-.69-3.99-4.261-9.43-6.741-14.94-6.79z"/><path d="m292.26 298.052c0 23.013-17.971 43.93-45.03 43.93v13.07c0 8.28-6.72 15-15 15v-58.07h16.11c7.717 0 13.92-6.24 13.92-13.93 0-7.68-6.25-13.93-13.93-13.93h-16.1v-30h16.1c24.23 0 43.93 19.71 43.93 43.93z"/></g></svg>