<svg height="512" viewBox="0 0 512 512" width="512" xmlns="http://www.w3.org/2000/svg"><path d="m80 33h360v456h-360z" fill="#ebebeb"/><circle cx="176" cy="129" fill="#fdb62f" r="64"/><path d="m81.488 194.639h48v200h-48z" fill="#cdcdcd" transform="matrix(.944 -.33 .33 .944 -91.336 51.328)"/><path d="m56.561 153.587h16a16 16 0 0 1 16 16v32a0 0 0 0 1 0 0h-48a0 0 0 0 1 0 0v-32a16 16 0 0 1 16-16z" fill="#4298d1" transform="matrix(.944 -.33 .33 .944 -54.996 31.26)"/><path d="m38.1 279.586a8.01 8.01 0 0 1 -7.555-5.359l-13.2-37.758a24 24 0 0 1 14.742-30.578l60.413-21.125a8 8 0 0 1 5.281 15.109l-60.414 21.125a7.994 7.994 0 0 0 -4.914 10.188l13.2 37.757a7.995 7.995 0 0 1 -7.553 10.641z" fill="#a8a8a8"/><path d="m103.931 326.828h48v64h-48z" fill="#4298d1" transform="matrix(.944 -.33 .33 .944 -111.264 62.333)"/><path d="m84.156 314.336a8 8 0 0 1 -2.64-15.555l45.3-15.843a8 8 0 1 1 5.282 15.109l-45.298 15.844a8.031 8.031 0 0 1 -2.644.445z" fill="#a8a8a8"/><path d="m187.008 125.562-14.86-7.437a7.448 7.448 0 0 1 -4.148-6.7 8.06 8.06 0 0 1 2.695-5.8 7.517 7.517 0 0 1 10.61 0l5.039 5.039a8 8 0 0 0 11.312-11.312l-5.039-5.039a23.051 23.051 0 0 0 -8.617-5.4v-7.913h-16v8.028a24.861 24.861 0 0 0 -9.117 5.777 23.658 23.658 0 0 0 -6.883 16.617 23.373 23.373 0 0 0 12.992 21.016l14.86 7.437a7.448 7.448 0 0 1 4.148 6.7 8.06 8.06 0 0 1 -2.695 5.805 7.517 7.517 0 0 1 -10.61 0l-5.039-5.039a8 8 0 0 0 -11.312 11.312l5.039 5.039a23.028 23.028 0 0 0 8.617 5.389v7.919h16v-8.027a24.872 24.872 0 0 0 9.117-5.778 23.658 23.658 0 0 0 6.883-16.617 23.373 23.373 0 0 0 -12.992-21.016z" fill="#dc9315"/><path d="m200 225h72v264h-72z" fill="#6a9876"/><path d="m232 257h40v200h-40z" fill="#8bc89c"/><path d="m200 225h72a0 0 0 0 1 0 0 72 72 0 0 1 -72 72 0 0 0 0 1 0 0v-72a0 0 0 0 1 0 0z" fill="#6a9876"/><path d="m200 417a72 72 0 0 1 72 72 0 0 0 0 1 0 0h-72a0 0 0 0 1 0 0v-72a0 0 0 0 1 0 0z" fill="#6a9876"/><path d="m232 353a32 32 0 0 0 32 32v-64a32 32 0 0 0 -32 32z" fill="#6a9876"/><g fill="#b9b9b9"><path d="m336 81h64v16h-64z"/><path d="m336 113h64v16h-64z"/><path d="m160 225h16v16h-16z"/><path d="m160 257h16v16h-16z"/><path d="m160 289h16v32h-16z"/><path d="m304 113h16v16h-16z"/><path d="m304 81h16v16h-16z"/></g><path d="m264 169h208v320h-208z" fill="#ff9201"/><path d="m296 193h16v16h-16z" fill="#dd7f04"/><path d="m328 193h16v16h-16z" fill="#dd7f04"/><path d="m360 193h16v16h-16z" fill="#dd7f04"/><path d="m296 313h144v144h-144z" fill="#fdb62f"/><path d="m344 409h96v48h-96z" fill="#fdb62f"/><path d="m392 193h56v16h-56z" fill="#dd7f04"/><path d="m296 233h144v48h-144z" fill="#b1e4e9"/><path d="m296 233h136v40h-136z" fill="#bef5fa"/><path d="m336.005 313h7.995v144h-7.995z" fill="#ec9e15"/><path d="m384.005 313h7.995v96h-7.995z" fill="#ec9e15"/><path d="m296 353h144v8h-144z" fill="#ec9e15"/><path d="m296 401h144v8h-144z" fill="#ec9e15"/><path d="m160 458.547a8.011 8.011 0 0 1 -7.555-5.359l-5.664-16.2a8 8 0 0 1 15.11-5.281l5.664 16.2a7.995 7.995 0 0 1 -7.555 10.64z" fill="#a8a8a8"/><path d="m115.838 396.956 30.946 40.029 15.104-5.281-.74-50.591z" fill="#cdcdcd"/></svg>