<?xml version="1.0" encoding="iso-8859-1"?>
<!-- Generator: Adobe Illustrator 19.0.0, SVG Export Plug-In . SVG Version: 6.00 Build 0)  -->
<svg version="1.1" id="Layer_1" xmlns="http://www.w3.org/2000/svg" xmlns:xlink="http://www.w3.org/1999/xlink" x="0px" y="0px"
	 viewBox="0 0 460 460" style="enable-background:new 0 0 460 460;" xml:space="preserve">
<g id="XMLID_784_">
	<polygon id="XMLID_785_" style="fill:#DAE0E7;" points="0,100 0,360 230,360 240,230 230,100 	"/>
	<polygon id="XMLID_786_" style="fill:#8BC0FF;" points="115,320 30,330 30,130 115,130 125,225 	"/>
	<polygon id="XMLID_787_" style="fill:#3897FF;" points="200,130 200,330 115,320 115,130 	"/>
	<path id="XMLID_788_" style="fill:#233145;" d="M115,150v85c-23.473,0-42.5-19.027-42.5-42.5S91.527,150,115,150z"/>
	<path id="XMLID_789_" style="fill:#233145;" d="M115,263.755l10,27.609L115,330H30c0-33.444,19.31-62.375,47.391-76.245
		L115,263.755z"/>
	<polygon id="XMLID_790_" style="fill:#FFFFFF;" points="77.391,253.755 115,291.364 125,272.559 115,253.755 	"/>
	<rect id="XMLID_791_" x="230" y="100" style="fill:#BEC8D6;" width="230" height="260"/>
	<rect id="XMLID_792_" x="230" y="154.7" style="fill:#6B81A1;" width="200" height="30"/>
	<rect id="XMLID_793_" x="230" y="214.7" style="fill:#6B81A1;" width="200" height="30"/>
	<rect id="XMLID_794_" x="230" y="274.7" style="fill:#6B81A1;" width="200" height="30"/>
	<path id="XMLID_795_" style="fill:#121923;" d="M115,150c23.473,0,42.5,19.027,42.5,42.5S138.473,235,115,235V150z"/>
	<path id="XMLID_796_" style="fill:#121923;" d="M200,330h-85v-38.636l37.609-37.609C180.69,267.625,200,296.556,200,330z"/>
	<polygon id="XMLID_797_" style="fill:#DAE0E7;" points="115,291.364 152.609,253.755 115,253.755 	"/>
</g>
<g>
</g>
<g>
</g>
<g>
</g>
<g>
</g>
<g>
</g>
<g>
</g>
<g>
</g>
<g>
</g>
<g>
</g>
<g>
</g>
<g>
</g>
<g>
</g>
<g>
</g>
<g>
</g>
<g>
</g>
</svg>
