<svg id="Capa_1" enable-background="new 0 0 512 512" height="512" viewBox="0 0 512 512" width="512" xmlns="http://www.w3.org/2000/svg"><circle cx="255.765" cy="255.997" fill="#fd4755" r="255.765"/><path d="m511.536 255.997c0 141.252-114.518 255.771-255.771 255.771-69.91 0-133.268-28.053-179.432-73.516 42.424 31.277 94.862 49.77 151.616 49.77 141.252 0 255.771-114.508 255.771-255.76 0-71.363-29.227-135.905-76.38-182.296 63.194 46.565 104.196 121.513 104.196 206.031z" fill="#fb2b3a"/><circle cx="255.765" cy="255.997" fill="#f9f3f1" r="197.057"/><g fill="#01998d"><path d="m355.529 308.673c-.075-.855-.158-1.704-.249-2.547-11.699-108.047-187.334-108.047-199.033 0-.091.844-.174 1.693-.249 2.547-5.352 61.358 29.227 87.208 99.763 89.103h.001.002.001c70.537-1.895 105.117-27.745 99.764-89.103z"/><circle cx="153.521" cy="194.659" r="35.569"/><circle cx="358.01" cy="194.659" r="35.569"/><circle cx="255.765" cy="149.788" r="35.569"/></g><path d="m356.067 320.561c0 52.84-34.502 75.442-100.301 77.215-39.941-1.071-68.354-9.828-84.508-28.362 15.793 7.222 36.294 10.92 61.329 11.59 65.789-1.772 100.301-24.375 100.301-77.194 0-3.812-.175-7.778-.536-11.909-.072-.855-.155-1.7-.247-2.545-2.359-21.758-11.353-39.127-24.334-52.118 24.941 12.816 43.928 35.779 47.513 68.89.093.845.175 1.69.247 2.545.361 4.12.536 8.086.536 11.888z" fill="#008b81"/><circle cx="411.91" cy="411.673" fill="#ffefd2" r="100.09"/><path d="m512 411.673c0 55.281-44.814 100.085-100.085 100.085-37.325 0-69.879-20.429-87.094-50.717 17.441 14.773 40.003 23.685 64.646 23.685 55.271 0 100.085-44.814 100.085-100.095 0-17.957-4.728-34.811-13.011-49.378 21.685 18.347 35.459 45.781 35.459 76.42z" fill="#fedba6"/><path d="m464.461 367.189c-7.881-7.104-20.028-6.474-27.132 1.407l-37.185 41.942c-2.617 2.904-7.172 2.904-9.79 0l-4.327-4.698c-7.005-7.772-18.985-8.393-26.757-1.387-7.933 7.151-8.39 19.443-1.01 27.163l21.924 22.625c8.908 9.319 23.855 9.112 32.502-.449l53.16-59.447c7.126-7.879 6.505-20.044-1.385-27.156z" fill="#01998d"/></svg>