<svg id="Icons" height="512" viewBox="0 0 74 74" width="512" xmlns="http://www.w3.org/2000/svg"><path d="m37.729 51.918-23.663-7.581v-27.693l23.663 7.581z" fill="#fed19a"/><path d="m37.729 52.418a.5.5 0 0 1 -.152-.024l-23.663-7.581a.5.5 0 0 1 -.348-.476v-27.692a.5.5 0 0 1 .653-.477l23.663 7.582a.5.5 0 0 1 .347.476v27.692a.5.5 0 0 1 -.5.5zm-23.163-8.446 22.663 7.261v-26.643l-22.663-7.26z" fill="#323c6b"/><path d="m37.729 51.918 23.664-7.581v-27.693l-23.664 7.581z" fill="#f4bb87"/><path d="m37.729 52.418a.5.5 0 0 1 -.5-.5v-27.692a.5.5 0 0 1 .348-.476l23.663-7.582a.5.5 0 0 1 .653.477v27.692a.5.5 0 0 1 -.348.476l-23.663 7.581a.5.5 0 0 1 -.153.024zm.5-27.828v26.643l22.664-7.261v-26.642z" fill="#323c6b"/><path d="m14.066 16.644 23.663-7.581 23.664 7.581-23.664 7.581z" fill="#e6b17d"/><path d="m37.729 24.726a.5.5 0 0 1 -.152-.024l-23.663-7.581a.5.5 0 0 1 0-.953l23.663-7.581a.5.5 0 0 1 .3 0l23.663 7.581a.5.5 0 0 1 0 .953l-23.658 7.579a.5.5 0 0 1 -.153.026zm-22.024-8.081 22.024 7.055 22.025-7.056-22.025-7.056z" fill="#323c6b"/><path d="m44.393 62.643a.5.5 0 0 1 -.354-.853l3.561-3.565-4.127-3.012a.5.5 0 1 1 .589-.808l4.6 3.357a.5.5 0 0 1 .059.757l-3.975 3.981a.5.5 0 0 1 -.353.143z" fill="#323c6b"/><path d="m37.729 59.359c-19.023 0-34.5-6.944-34.5-15.479 0-3.072 1.959-6.028 5.664-8.547a.5.5 0 0 1 .562.827c-3.419 2.324-5.226 4.994-5.226 7.72 0 7.984 15.029 14.479 33.5 14.479a74.443 74.443 0 0 0 10.571-.688.5.5 0 1 1 .144.989 75.279 75.279 0 0 1 -10.715.699z" fill="#323c6b"/><path d="m56.546 56.855a.5.5 0 0 1 -.141-.98c9.283-2.722 14.824-7.207 14.824-11.995 0-3.015-2.172-5.919-6.284-8.4a.5.5 0 0 1 .516-.857c4.428 2.67 6.768 5.871 6.768 9.255 0 5.257-5.81 10.1-15.542 12.955a.5.5 0 0 1 -.141.022z" fill="#323c6b"/><path d="m17.74 32.345s3.653-3.545 8.16-2.478 8.158 6.35 8.158 6.35-3.658 3.547-8.158 2.483-8.16-6.355-8.16-6.355z" fill="#eeefee"/><path d="m27.635 39.4a7.965 7.965 0 0 1 -1.853-.217c-4.638-1.1-8.3-6.329-8.453-6.552a.5.5 0 0 1 .063-.643c.156-.152 3.895-3.726 8.621-2.605 4.639 1.1 8.3 6.329 8.454 6.552a.5.5 0 0 1 -.063.643 10.664 10.664 0 0 1 -6.769 2.822zm-9.218-6.98c.9 1.184 4 4.935 7.6 5.788 3.449.816 6.406-1.278 7.367-2.065-.9-1.184-4-4.936-7.6-5.789-3.443-.817-6.404 1.278-7.367 2.066z" fill="#323c6b"/><path d="m27.94 35.051a2.892 2.892 0 0 1 -2.124-3.359 1.939 1.939 0 0 0 -2.436 1.991 3.424 3.424 0 0 0 2.52 3.172 1.933 1.933 0 0 0 2.507-1.739 2.447 2.447 0 0 1 -.467-.065z" fill="#69b0ee"/><g fill="#323c6b"><path d="m26.472 37.424a2.954 2.954 0 0 1 -.689-.083 3.9 3.9 0 0 1 -2.9-3.657 2.435 2.435 0 0 1 3.032-2.484.5.5 0 0 1 .389.595 2.389 2.389 0 0 0 1.752 2.767 1.984 1.984 0 0 0 .371.053.5.5 0 0 1 .476.546 2.464 2.464 0 0 1 -.995 1.813 2.435 2.435 0 0 1 -1.436.45zm-1.211-5.282a1.421 1.421 0 0 0 -.856.308 1.547 1.547 0 0 0 -.525 1.234 2.945 2.945 0 0 0 2.134 2.685 1.588 1.588 0 0 0 1.311-.2 1.372 1.372 0 0 0 .477-.632 3.4 3.4 0 0 1 -2.541-3.395z"/><path d="m26.031 51.82a.473.473 0 0 1 -.152-.024l-6.279-2.012a.5.5 0 1 1 .3-.952l6.282 2.012a.5.5 0 0 1 -.153.976z"/><path d="m17 48.927a.5.5 0 0 1 -.152-.024l-.436-.139a.5.5 0 1 1 .3-.952l.435.139a.5.5 0 0 1 -.152.976z"/><path d="m45.906 9.033a.5.5 0 0 1 -.152-.024l-.906-.291a.5.5 0 1 1 .3-.952l.907.291a.5.5 0 0 1 -.153.976z"/><path d="m54.875 11.906a.5.5 0 0 1 -.152-.024l-6.623-2.122a.5.5 0 1 1 .3-.952l6.625 2.122a.5.5 0 0 1 -.152.976z"/></g><path d="m41.062 33.916a.65.65 0 0 1 -.65-.65v-.521a.651.651 0 0 1 1.3 0v.521a.65.65 0 0 1 -.65.65z" fill="#fff"/><path d="m41.062 43.922a.65.65 0 0 1 -.65-.65v-7.19a.651.651 0 0 1 1.3 0v7.19a.65.65 0 0 1 -.65.65z" fill="#fff"/></svg>