<?xml version="1.0"?>
<svg xmlns="http://www.w3.org/2000/svg" id="Capa_1" enable-background="new 0 0 512.287 512.287" height="512px" viewBox="0 0 512.287 512.287" width="512px" class=""><g><g><g><path d="m491.578 155.014h-470.869v322.464c0 15.082 12.226 27.308 27.308 27.308h416.253c15.082 0 27.308-12.226 27.308-27.308z" fill="#fef1da" data-original="#FEF1DA" class="" style="fill:#FEF1DA"/></g><g><path d="m491.578 155.014h-470.869v-81.077c0-15.082 12.226-27.308 27.308-27.308h416.253c15.082 0 27.308 12.226 27.308 27.308z" fill="#fd6930" data-original="#FD6930" class="" style="fill:#FD6930"/></g><g><path d="m491.576 155.015v322.371c0 15.13-12.261 27.401-27.401 27.401h-20.067c15.14 0 27.401-12.271 27.401-27.401v-322.371z" fill="#fddeb0" data-original="#FDDEB0" class="" style="fill:#FDDEB0"/></g><g><path d="m491.576 74.026v80.989h-20.067v-80.989c0-15.13-12.261-27.401-27.401-27.401h20.067c15.14 0 27.401 12.271 27.401 27.401z" fill="#fd5426" data-original="#FD5426" style="fill:#FD5426" class=""/></g><g><g><path d="m130.411 94.829h-.123c-10.171 0-18.417-8.246-18.417-18.417v-50.495c0-10.171 8.246-18.417 18.417-18.417h.123c10.171 0 18.417 8.246 18.417 18.417v50.495c0 10.171-8.245 18.417-18.417 18.417z" fill="#554e56" data-original="#554E56" class="" style="fill:#554E56" data-old_color="#554e56"/></g><g><path d="m381.998 94.829h-.123c-10.171 0-18.417-8.246-18.417-18.417v-50.495c0-10.171 8.245-18.417 18.417-18.417h.123c10.171 0 18.417 8.246 18.417 18.417v50.495c0 10.171-8.245 18.417-18.417 18.417z" fill="#554e56" data-original="#554E56" class="" style="fill:#554E56" data-old_color="#554e56"/></g></g><g><g><path d="m148.827 25.977v50.377c0 10.204-8.267 18.471-18.481 18.471-3.09 0-6.01-.763-8.578-2.107 5.879-3.09 9.893-9.261 9.893-16.364v-50.377c0-5.097-2.067-9.722-5.408-13.063-1.314-1.314-2.819-2.428-4.485-3.301 2.568-1.344 5.488-2.107 8.578-2.107 5.107 0 9.732 2.067 13.073 5.408s5.408 7.966 5.408 13.063z" fill="#433f43" data-original="#433F43" class="" style="fill:#433F43" data-old_color="#433f43"/></g><g><path d="m400.413 25.977v50.377c0 10.204-8.267 18.471-18.471 18.471-3.1 0-6.02-.763-8.589-2.107 5.879-3.09 9.893-9.261 9.893-16.364v-50.377c0-5.097-2.067-9.722-5.408-13.063-1.314-1.314-2.829-2.428-4.485-3.301 2.568-1.344 5.488-2.107 8.589-2.107 5.097 0 9.722 2.067 13.063 5.408s5.408 7.966 5.408 13.063z" fill="#433f43" data-original="#433F43" class="" style="fill:#433F43" data-old_color="#433f43"/></g></g><g><g><g><g><path d="m173.671 452.691c-12.799 0-23.173-10.375-23.173-23.173v-174.146h-19.002c-12.799 0-23.173-10.375-23.173-23.173 0-12.799 10.375-23.173 23.173-23.173h42.175c12.799 0 23.173 10.375 23.173 23.173v197.32c0 12.797-10.375 23.172-23.173 23.172z" fill="#554e56" data-original="#554E56" class="" style="fill:#554E56" data-old_color="#554e56"/></g></g></g><g><g><g><path d="m294.04 450.781c-3.114.001-6.279-.631-9.313-1.965-11.716-5.151-17.039-18.823-11.889-30.539l72.453-164.82h-73.051c-12.799 0-23.173-10.375-23.173-23.173s10.375-23.173 23.173-23.173h108.551c7.828 0 15.126 3.952 19.405 10.507 4.279 6.554 4.959 14.826 1.809 21.992l-86.739 197.319c-3.817 8.681-12.314 13.852-21.226 13.852z" fill="#554e56" data-original="#554E56" class="" style="fill:#554E56" data-old_color="#554e56"/></g></g></g></g><g><g><g><g><path d="m196.846 232.202v197.316c0 12.803-10.375 23.177-23.177 23.177-3.983 0-7.736-1.003-11.007-2.769 7.234-3.933 12.15-11.599 12.15-20.408v-197.316c0-12.803-10.374-23.177-23.167-23.177h22.023c12.804 0 23.178 10.374 23.178 23.177z" fill="#433f43" data-original="#433F43" class="" style="fill:#433F43" data-old_color="#433f43"/></g></g></g><g><g><g><path d="m402.008 239.607-86.738 197.325c-3.823 8.679-12.321 13.846-21.231 13.846-3.11 0-6.281-.632-9.311-1.967-.582-.251-1.144-.532-1.686-.823 4.385-2.368 8.037-6.15 10.194-11.057l86.738-197.326c3.15-7.164 2.468-15.431-1.806-21.993-4.284-6.552-11.578-10.505-19.404-10.505h22.023c7.836 0 15.13 3.953 19.405 10.505 4.284 6.563 4.967 14.831 1.816 21.995z" fill="#433f43" data-original="#433F43" class="" style="fill:#433F43" data-old_color="#433f43"/></g></g></g></g><g><path d="m464.269 39.128h-56.354v-13.211c.001-14.291-11.625-25.917-25.916-25.917h-.124c-14.29 0-25.916 11.626-25.916 25.917v13.211h-199.631v-13.211c0-14.291-11.626-25.917-25.916-25.917h-.124c-14.291 0-25.917 11.626-25.917 25.917v13.211h-56.354c-19.193 0-34.809 15.615-34.809 34.808v15.708c0 4.142 3.357 7.5 7.5 7.5s7.5-3.358 7.5-7.5v-15.707c0-10.922 8.886-19.808 19.809-19.808h56.354v22.283c0 14.291 11.626 25.917 25.917 25.917h.124c14.29 0 25.916-11.626 25.916-25.917v-22.284h199.631v22.283c0 14.291 11.626 25.917 25.916 25.917h.124c14.291 0 25.917-11.626 25.917-25.917v-22.283h56.354c10.923 0 19.809 8.886 19.809 19.808v73.578h-455.87v-23.204c0-4.142-3.357-7.5-7.5-7.5s-7.5 3.358-7.5 7.5v353.167c0 19.193 15.615 34.809 34.809 34.809h416.252c19.193 0 34.809-15.615 34.809-34.809v-403.54c-.001-19.194-15.616-34.809-34.81-34.809zm-322.941 37.284c0 6.02-4.896 10.917-10.916 10.917h-.124c-6.02 0-10.917-4.897-10.917-10.917v-50.495c0-6.02 4.897-10.917 10.917-10.917h.124c6.02 0 10.916 4.897 10.916 10.917zm251.588 0c0 6.02-4.897 10.917-10.917 10.917h-.124c-6.02 0-10.916-4.897-10.916-10.917v-50.495c0-6.02 4.896-10.917 10.916-10.917h.124c6.02 0 10.917 4.897 10.917 10.917zm91.162 401.066c0 10.922-8.886 19.809-19.809 19.809h-416.252c-10.923 0-19.809-8.886-19.809-19.809v-314.963h455.869v314.963z" data-original="#000000" class="active-path" style="fill:#000000"/><path d="m131.495 262.872h11.502v166.646c0 16.914 13.76 30.673 30.674 30.673 16.913 0 30.673-13.76 30.673-30.673v-197.32c0-16.914-13.76-30.673-30.673-30.673h-42.176c-16.913 0-30.673 13.76-30.673 30.673s13.76 30.674 30.673 30.674zm0-46.347h42.176c8.642 0 15.673 7.031 15.673 15.673v197.32c0 8.642-7.031 15.673-15.673 15.673-8.643 0-15.674-7.031-15.674-15.673v-174.146c0-4.142-3.357-7.5-7.5-7.5h-19.002c-8.642 0-15.673-7.031-15.673-15.673s7.031-15.674 15.673-15.674z" data-original="#000000" class="active-path" style="fill:#000000"/><path d="m272.24 260.957h61.563l-23.689 53.887c-1.667 3.792.056 8.217 3.848 9.884 3.796 1.668 8.218-.056 9.885-3.848l28.313-64.405c1.02-2.319.799-4.996-.586-7.118s-3.747-3.4-6.28-3.4h-73.054c-8.642 0-15.673-7.031-15.673-15.673s7.031-15.673 15.673-15.673h108.552c5.313 0 10.22 2.656 13.124 7.107 2.905 4.449 3.362 10.009 1.224 14.874l-86.74 197.318c-2.502 5.693-8.139 9.372-14.361 9.372-.001 0-.002 0-.003 0-2.166 0-4.283-.448-6.291-1.331-7.911-3.478-11.519-12.745-8.041-20.656l30.023-68.297c1.667-3.792-.056-8.217-3.848-9.884-3.794-1.667-8.217.056-9.885 3.848l-30.023 68.298c-6.805 15.482.255 33.616 15.736 40.423 3.923 1.725 8.07 2.599 12.327 2.599h.005c12.17 0 23.196-7.197 28.093-18.335l86.739-197.319c4.186-9.52 3.29-20.402-2.396-29.109-5.684-8.708-15.285-13.908-25.685-13.908h-108.55c-16.913 0-30.673 13.76-30.673 30.673s13.76 30.673 30.673 30.673z" data-original="#000000" class="active-path" style="fill:#000000"/></g></g></g> </svg>
