<?xml version="1.0"?>
<svg xmlns="http://www.w3.org/2000/svg" xmlns:xlink="http://www.w3.org/1999/xlink" xmlns:svgjs="http://svgjs.com/svgjs" version="1.1" width="512" height="512" x="0" y="0" viewBox="0 0 511.99975 511" style="enable-background:new 0 0 512 512" xml:space="preserve" class=""><g><path xmlns="http://www.w3.org/2000/svg" d="m391.941406 120.480469v166.976562l-104.984375 104.984375h-271.960937c-8.398438 0-14.996094-6.601562-14.996094-14.996094v-256.964843l27.296875-29.992188h328.050781zm0 0" fill="#deecf1" data-original="#deecf1" style="" class=""/><path xmlns="http://www.w3.org/2000/svg" d="m391.941406 120.480469v166.976562l-104.984375 104.984375h-89.984375v-301.953125h158.375zm0 0" fill="#c6e2e7" data-original="#c6e2e7" style=""/><path xmlns="http://www.w3.org/2000/svg" d="m391.941406 45.492188v74.988281h-391.941406v-74.988281c0-8.398438 6.597656-14.996094 14.996094-14.996094h361.949218c8.398438 0 14.996094 6.597656 14.996094 14.996094zm0 0" fill="#ff6c6c" data-original="#ff6c6c" style="" class=""/><path xmlns="http://www.w3.org/2000/svg" d="m391.941406 45.492188v74.988281h-194.96875v-89.984375h179.972656c8.398438 0 14.996094 6.597656 14.996094 14.996094zm0 0" fill="#ff4949" data-original="#ff4949" style=""/><path xmlns="http://www.w3.org/2000/svg" d="m74.988281 90.488281c-8.289062 0-14.996093-6.710937-14.996093-15v-59.992187c0-8.289063 6.707031-14.996094 14.996093-14.996094 8.289063 0 15 6.707031 15 14.996094v59.992187c0 8.289063-6.710937 15-15 15zm0 0" fill="#5a5a5a" data-original="#5a5a5a" style=""/><path xmlns="http://www.w3.org/2000/svg" d="m211.96875 15.496094v59.992187c0 8.398438-6.597656 15-14.996094 15-8.402344 0-15-6.601562-15-15v-59.992187c0-8.398438 6.597656-14.996094 15-14.996094 8.398438 0 14.996094 6.597656 14.996094 14.996094zm0 0" fill="#5a5a5a" data-original="#5a5a5a" style=""/><path xmlns="http://www.w3.org/2000/svg" d="m316.953125 90.488281c-8.289063 0-14.996094-6.710937-14.996094-15v-59.992187c0-8.289063 6.707031-14.996094 14.996094-14.996094s14.996094 6.707031 14.996094 14.996094v59.992187c0 8.289063-6.707031 15-14.996094 15zm0 0" fill="#444444" data-original="#444444" style="" class=""/><g xmlns="http://www.w3.org/2000/svg" fill="#ff6c6c"><path d="m136.980469 212.46875h-61.992188c-8.289062 0-14.996093-6.707031-14.996093-15 0-8.289062 6.707031-14.996094 14.996093-14.996094h61.992188c8.289062 0 14.996093 6.707032 14.996093 14.996094 0 8.292969-6.707031 15-14.996093 15zm0 0" fill="#ff6c6c" data-original="#ff6c6c" style="" class=""/><path d="m136.980469 272.460938h-61.992188c-8.289062 0-14.996093-6.710938-14.996093-15 0-8.289063 6.707031-14.996094 14.996093-14.996094h61.992188c8.289062 0 14.996093 6.707031 14.996093 14.996094 0 8.289062-6.707031 15-14.996093 15zm0 0" fill="#ff6c6c" data-original="#ff6c6c" style="" class=""/><path d="m136.980469 332.449219h-61.992188c-8.289062 0-14.996093-6.707031-14.996093-14.996094s6.707031-15 14.996093-15h61.992188c8.289062 0 14.996093 6.710937 14.996093 15s-6.707031 14.996094-14.996093 14.996094zm0 0" fill="#ff6c6c" data-original="#ff6c6c" style="" class=""/></g><path xmlns="http://www.w3.org/2000/svg" d="m402.4375 402.9375c-5.699219 6-15.292969 6-20.992188 0l-41.394531-41.390625c-6-5.699219-6-15.296875 0-20.996094 5.699219-6 15.296875-6 20.996094 0l41.390625 41.390625c6 5.703125 6 15.296875 0 20.996094zm0 0" fill="#c6e2e7" data-original="#c6e2e7" style=""/><path xmlns="http://www.w3.org/2000/svg" d="m402.4375 402.9375c-5.699219 6-15.292969 6-20.992188 0l-41.394531-41.390625c-6-5.699219-6-15.296875 0-20.996094zm0 0" fill="#8ebac5" data-original="#8ebac5" style=""/><path xmlns="http://www.w3.org/2000/svg" d="m498.726562 435.636719-74.988281-74.992188c-5.699219-5.996093-15.300781-5.996093-21.300781 0l-20.992188 21.300781-21.296874 20.992188c-6 6-6 15.601562 0 21.300781l74.988281 74.988281c17.398437 17.699219 46.191406 17.398438 63.589843 0 17.699219-17.398437 17.699219-46.191406 0-63.589843zm0 0" fill="#6e6e6e" data-original="#6e6e6e" style=""/><path xmlns="http://www.w3.org/2000/svg" d="m498.726562 499.226562c-17.398437 17.398438-46.191406 17.699219-63.589843 0l-74.988281-74.988281c-6-5.699219-6-15.300781 0-21.300781l21.296874-20.996094zm0 0" fill="#444444" data-original="#444444" style="" class=""/><path xmlns="http://www.w3.org/2000/svg" d="m361.046875 361.546875c-40.796875 41.09375-107.382813 41.09375-148.175781 0-41.097656-40.796875-41.097656-107.382813 0-148.175781 40.792968-41.097656 107.382812-41.097656 148.175781 0 41.09375 40.792968 41.09375 107.382812 0 148.175781zm0 0" fill="#5a5a5a" data-original="#5a5a5a" style=""/><path xmlns="http://www.w3.org/2000/svg" d="m361.046875 361.546875c-40.796875 41.09375-107.382813 41.09375-148.175781 0-41.097656-40.796875-41.097656-107.382813 0-148.175781zm0 0" fill="#444444" data-original="#444444" style="" class=""/><path xmlns="http://www.w3.org/2000/svg" d="m340.050781 340.550781c-29.398437 29.09375-76.789062 29.09375-106.183593 0-29.097657-29.398437-29.097657-76.789062 0-106.1875 29.394531-29.09375 76.785156-29.09375 106.183593 0 29.09375 29.398438 29.09375 76.789063 0 106.1875zm0 0" fill="#deecf1" data-original="#deecf1" style="" class=""/><path xmlns="http://www.w3.org/2000/svg" d="m340.050781 340.550781c-29.398437 29.09375-76.789062 29.09375-106.183593 0-29.097657-29.398437-29.097657-76.789062 0-106.1875zm0 0" fill="#c6e2e7" data-original="#c6e2e7" style=""/><path xmlns="http://www.w3.org/2000/svg" d="m211.96875 15.496094v59.992187c0 8.398438-6.597656 15-14.996094 15v-89.988281c8.398438 0 14.996094 6.597656 14.996094 14.996094zm0 0" fill="#444444" data-original="#444444" style="" class=""/></g></svg>
