<?xml version="1.0" encoding="iso-8859-1"?>
<!-- Generator: Adobe Illustrator 19.0.0, SVG Export Plug-In . SVG Version: 6.00 Build 0)  -->
<svg version="1.1" id="Layer_1" xmlns="http://www.w3.org/2000/svg" xmlns:xlink="http://www.w3.org/1999/xlink" x="0px" y="0px"
	 viewBox="0 0 512.001 512.001" style="enable-background:new 0 0 512.001 512.001;" xml:space="preserve">
<path style="fill:#F2F2F2;" d="M229.99,62.392l-4.96,25.135c-9.823-3.893-18.633-9.726-25.955-17.048
	c-7.332-7.322-13.166-16.131-17.059-25.965l25.135-4.949h0.011c1.057,5.467,3.709,10.664,7.936,14.891
	C219.326,58.682,224.534,61.324,229.99,62.392z"/>
<path style="fill:#F95428;" d="M235.608,33.946l-5.618,28.446c-5.456-1.068-10.664-3.709-14.891-7.936
	c-4.227-4.227-6.88-9.424-7.936-14.891L235.608,33.946z"/>
<path style="fill:#999999;" d="M225.03,87.527v0.011l-97.834,97.845l-16.304,16.304l-0.733-0.733
	c-7.548-7.548-16.627-12.659-26.235-15.323L199.075,70.479C206.397,77.801,215.207,83.634,225.03,87.527z"/>
<g>
	<path style="fill:#CCCCCC;" d="M199.075,70.479L83.924,185.631c-20.1-5.586-42.539-0.485-58.347,15.323l156.44-156.44
		C185.909,54.347,191.743,63.157,199.075,70.479z"/>
	<polygon style="fill:#CCCCCC;" points="272.378,181.177 272.389,218.982 272.378,218.982 244.396,218.174 244.396,218.044 
		244.396,181.986 	"/>
</g>
<polygon style="fill:#F95428;" points="244.396,218.044 244.396,218.174 123.875,214.669 110.892,201.687 127.196,185.383 
	244.396,181.986 "/>
<path style="fill:#F7B239;" d="M396.081,199.228l9.608-4.637c0,0-46.874,79.525-133.3,24.391l-0.011-37.805l9.36-5.877
	c19.593-12.303,45.332-7.634,59.35,10.761c8.691,11.398,21.976,17.609,35.584,17.609
	C383.228,203.671,389.859,202.226,396.081,199.228z"/>
<rect x="355.613" y="425.918" style="fill:#2197D8;" width="26.472" height="52.136"/>
<path style="fill:#F7B239;" d="M365.371,285.535l21.383-21.383l21.393-21.393l21.393-21.383l26.979-26.979l47.391,47.391
	L319.78,425.919l-34.624,34.624c11.678-11.678,17.522-26.979,17.522-42.291s-5.844-30.613-17.522-42.291l-5.1-5.111l21.145-21.145
	l21.393-21.383l21.383-21.393L365.371,285.535z"/>
<path style="fill:#2BA5F7;" d="M431.007,425.919c14.395,0,26.063,11.667,26.063,26.073c0,7.192-2.911,13.716-7.634,18.428
	c-4.712,4.723-11.236,7.634-18.428,7.634h-22.461v-52.136L431.007,425.919L431.007,425.919z"/>
<rect x="382.086" y="425.918" style="fill:#2197D8;" width="26.462" height="52.136"/>
<path style="fill:#2BA5F7;" d="M355.612,425.919v52.136H245.701v-0.054v-0.011c14.341-0.679,28.499-6.491,39.455-17.447
	l34.624-34.624L355.612,425.919L355.612,425.919z"/>
<path style="fill:#F95428;" d="M285.156,375.962c11.678,11.678,17.522,26.979,17.522,42.291s-5.844,30.613-17.522,42.291
	c-10.956,10.956-25.114,16.768-39.455,17.447c-16.239,0.766-32.726-5.046-45.127-17.447L25.577,285.535
	c-11.678-11.678-17.512-26.979-17.512-42.291s5.834-30.613,17.512-42.291c15.808-15.808,38.247-20.908,58.347-15.323
	c9.608,2.663,18.687,7.775,26.235,15.323l0.733,0.733l12.983,12.983L280.056,370.85L285.156,375.962z"/>
<g>
	<path style="fill:#333333;" d="M271.817,447.197c7.722-7.723,11.975-18.003,11.975-28.949c0-10.945-4.253-21.226-11.975-28.948
		c-3.159-3.158-8.279-3.158-11.438,0c-3.158,3.158-3.158,8.278,0,11.436c4.668,4.668,7.239,10.887,7.239,17.512
		c0,6.625-2.571,12.845-7.238,17.512c-4.679,4.678-10.897,7.254-17.512,7.254c-6.616,0-12.835-2.576-17.512-7.254L91.144,301.547
		c-3.159-3.157-8.279-3.158-11.438,0c-3.158,3.158-3.158,8.278,0,11.436l134.213,134.214c7.732,7.732,18.013,11.992,28.95,11.992
		C253.802,459.189,264.083,454.93,271.817,447.197z"/>
	<path style="fill:#333333;" d="M67.866,218.481c6.616,0,12.835,2.576,17.512,7.254L216.74,357.098
		c1.58,1.58,3.65,2.369,5.719,2.369c2.069,0,4.14-0.789,5.719-2.369c3.158-3.158,3.158-8.278,0-11.436L96.815,214.298
		c-7.732-7.732-18.013-11.992-28.95-11.992c-10.935,0-21.216,4.258-28.949,11.992c-7.722,7.723-11.975,18.003-11.975,28.948
		c0,10.945,4.253,21.226,11.975,28.948c3.159,3.158,8.279,3.158,11.438,0c3.158-3.158,3.158-8.278,0-11.436
		c-4.668-4.668-7.239-10.887-7.239-17.512s2.571-12.844,7.238-17.512C55.032,221.058,61.251,218.481,67.866,218.481z"/>
	<path style="fill:#333333;" d="M512.001,241.789c0-2.145-0.852-4.202-2.368-5.718l-47.397-47.397c-3.16-3.159-8.28-3.158-11.438,0
		L280.056,359.415l-136.07-136.07l125.993,3.655c20.966,12.998,41.43,19.55,61.1,19.55c6.867,0,13.639-0.797,20.3-2.393
		c39.697-9.511,60.415-44,61.278-45.463c1.809-3.07,1.396-6.962-1.016-9.583c-2.412-2.62-6.257-3.357-9.466-1.806l-9.608,4.639
		c-15.603,7.533-34.549,2.997-45.05-10.785c-16.663-21.873-46.792-27.337-70.076-12.712l-7.491,4.706l-122.646,3.554l83.449-83.45
		c1.134-1.134,1.905-2.58,2.216-4.154l10.574-53.594c0.521-2.646-0.309-5.377-2.216-7.284c-1.909-1.906-4.635-2.737-7.285-2.216
		l-53.593,10.573c-1.573,0.311-3.02,1.082-4.155,2.216L19.854,195.236c-26.472,26.473-26.472,69.548,0,96.022L194.857,466.26
		c13.236,13.236,30.624,19.855,48.01,19.855c0.604,0,188.139,0.029,188.139,0.029c16.047,0,29.537-11.127,33.179-26.068h7.985
		c4.467,0,8.087-3.621,8.087-8.087s-3.62-8.087-8.087-8.087h-7.985c-3.642-14.941-17.132-26.068-33.179-26.068h-91.701
		l170.326-170.326C511.149,245.991,512.001,243.933,512.001,241.789z M334.65,190.961c10.906,14.314,28.12,21.711,45.323,20.666
		c-8.218,6.904-19.059,13.615-32.364,16.802c-20.803,4.985-43.374,0.283-67.137-13.961l-0.005-28.821l5.576-3.502
		C302.194,171.999,323.091,175.789,334.65,190.961z M264.296,210.655l-11.815-0.343v-20.47l11.812-0.342L264.296,210.655z
		 M236.307,190.309v19.532l-108.986-3.163l-4.996-4.996l8.314-8.314L236.307,190.309z M209.38,60.171
		c3.285,3.285,7.105,5.89,11.284,7.725l-1.541,7.81c-10.49-6.041-19.24-14.791-25.281-25.281l7.81-1.541
		C203.488,53.064,206.094,56.886,209.38,60.171z M199.371,81.617c3.719,3.072,7.707,5.824,11.915,8.231L110.628,190.506
		c-3.844-3.122-7.958-5.744-12.248-7.899L199.371,81.617z M223.94,51.292c-1.111-0.748-2.161-1.596-3.123-2.559
		c-0.963-0.963-1.812-2.013-2.56-3.124l7.079-1.396L223.94,51.292z M179.702,58.264c2.408,4.209,5.159,8.196,8.232,11.915
		L81.373,176.738c-6.267-1.263-12.677-1.631-19.029-1.117L179.702,58.264z M31.293,279.82c-20.166-20.166-20.166-52.98-0.001-73.147
		c10.085-10.084,23.328-15.125,36.575-15.125c13.243,0,26.491,5.043,36.573,15.124l175.002,175.003
		c9.771,9.769,15.15,22.758,15.15,36.574c0,13.815-5.38,26.804-15.15,36.574c-9.769,9.769-22.756,15.149-36.573,15.149
		s-26.803-5.381-36.573-15.149L31.293,279.82z M373.995,469.969h-10.293v-35.961h10.293V469.969z M390.17,434.008h10.293v35.961
		H390.17V434.008z M448.987,451.988c0,9.915-8.066,17.981-17.981,17.981h-14.368v-35.961h14.368
		C440.921,434.008,448.987,442.073,448.987,451.988z M347.527,434.008v35.961h-60.699c1.385-1.179,2.742-2.402,4.05-3.709
		l32.252-32.252H347.527z M310.494,423.769c1.529-18.908-4.808-38.328-19.017-52.901l9.724-9.724l8.136,8.136
		c1.58,1.58,3.65,2.369,5.719,2.369s4.14-0.789,5.719-2.369c3.158-3.158,3.158-8.279,0-11.438l-8.136-8.136l9.952-9.952l8.136,8.136
		c1.58,1.58,3.65,2.369,5.719,2.369c2.069,0,4.14-0.789,5.719-2.369c3.158-3.158,3.158-8.279,0-11.438l-8.136-8.136l9.952-9.952
		l8.136,8.136c1.58,1.58,3.65,2.369,5.719,2.369c2.069,0,4.14-0.789,5.719-2.369c3.158-3.158,3.158-8.279,0-11.438l-8.136-8.136
		l9.952-9.952l8.136,8.136c1.58,1.58,3.65,2.369,5.719,2.369c2.069,0,4.14-0.789,5.719-2.369c3.158-3.158,3.158-8.279,0-11.438
		l-8.136-8.136l9.952-9.952l8.136,8.136c1.58,1.58,3.65,2.369,5.719,2.369c2.069,0,4.14-0.789,5.719-2.369
		c3.158-3.158,3.158-8.279,0-11.438l-8.136-8.136l9.952-9.952l8.136,8.136c1.58,1.58,3.65,2.369,5.719,2.369
		c2.069,0,4.14-0.789,5.719-2.369c3.158-3.158,3.158-8.279,0-11.438l-8.136-8.136l9.952-9.952l8.136,8.136
		c1.58,1.58,3.65,2.369,5.719,2.369c2.069,0,4.14-0.789,5.719-2.369c3.158-3.158,3.158-8.279,0-11.438l-8.136-8.136l15.543-15.543
		l35.96,35.959L310.494,423.769z"/>
</g>
<g>
</g>
<g>
</g>
<g>
</g>
<g>
</g>
<g>
</g>
<g>
</g>
<g>
</g>
<g>
</g>
<g>
</g>
<g>
</g>
<g>
</g>
<g>
</g>
<g>
</g>
<g>
</g>
<g>
</g>
</svg>
