<?xml version="1.0" encoding="iso-8859-1"?>
<!-- Generator: Adobe Illustrator 19.0.0, SVG Export Plug-In . SVG Version: 6.00 Build 0)  -->
<svg version="1.1" id="Capa_1" xmlns="http://www.w3.org/2000/svg" xmlns:xlink="http://www.w3.org/1999/xlink" x="0px" y="0px"
	 viewBox="0 0 468.293 468.293" style="enable-background:new 0 0 468.293 468.293;" xml:space="preserve">
<rect x="29.652" y="199.561" style="fill:#3A556A;" width="21.473" height="32.918"/>
<path style="fill:#E56353;" d="M459.819,292.148H44.37l-0.79-92.58l27.514-75.152h216.486l42.572,75.152l106.523,8.831
	c9.435,0.976,16.871,8.505,17.661,17.986L459.819,292.148z"/>
<g>
	<polygon style="fill:#27A2DB;" points="84.897,137.011 173.109,137.011 173.109,194.827 63.75,194.827 	"/>
	<polygon style="fill:#27A2DB;" points="304.853,194.827 191.714,194.827 191.714,137.011 271.376,137.011 	"/>
</g>
<g>
	<path style="fill:#D5D6DB;" d="M66.553,268.498h-23.27c-2.659,0-4.833,2.175-4.833,4.833v13.943c0,2.658,2.175,4.833,4.833,4.833
		h23.27V268.498z"/>
	<path style="fill:#D5D6DB;" d="M433.993,262.143v36.507l0,0h27.653c3.671,0,6.646-2.976,6.646-6.646V268.79
		c0-3.671-2.976-6.646-6.646-6.646H433.993z"/>
</g>
<path style="fill:#64798A;" d="M185.704,292.148H67.422c0.93-31.789,27.095-57.351,59.117-57.351
	C158.608,234.797,184.774,260.359,185.704,292.148z"/>
<path style="fill:#2F4859;" d="M76.649,293.973c0,27.578,22.325,49.903,49.908,49.903c27.573,0,49.898-22.325,49.898-49.903
	c0-27.578-22.325-49.9-49.898-49.9C98.975,244.073,76.649,266.395,76.649,293.973z"/>
<path style="fill:#64798A;" d="M94.705,293.791c0,17.663,14.357,32.016,32.02,32.016c17.295,0,31.643-14.352,31.643-32.016
	s-14.348-31.647-31.643-31.647C109.062,262.143,94.705,276.127,94.705,293.791z"/>
<path style="fill:#EBF0F3;" d="M94.707,293.783c0,2.511,0.229,4.908,0.911,7.191c4.339-0.913,8.79,0.343,11.186,4.452
	c2.282,3.996,1.257,8.675-1.825,11.872c3.425,3.196,7.533,5.593,12.1,7.077c1.254-4.223,4.793-7.534,9.475-7.534
	c4.679,0,8.216,3.311,9.472,7.648c4.568-1.484,8.675-3.881,12.1-7.191c-3.082-3.197-4.111-7.763-1.825-11.872
	c2.397-4.109,6.847-5.365,11.186-4.452c0.683-2.282,0.911-4.68,0.911-7.191c0-2.397-0.229-4.681-0.8-6.849
	c-4.336,1.028-8.901-0.342-11.298-4.338c-2.399-4.109-1.257-8.903,1.825-12.1c-3.425-3.082-7.533-5.479-12.1-6.963
	c-1.368,4.338-4.793,7.648-9.472,7.648c-4.682,0-8.107-3.31-9.475-7.534c-4.682,1.484-8.79,3.881-12.215,6.963
	c3.196,3.31,4.222,7.991,1.94,11.985c-2.282,3.881-6.962,5.251-11.301,4.338C94.935,289.103,94.707,291.386,94.707,293.783z"/>
<path style="fill:#64798A;" d="M422.313,292.148H303.985c0.93-31.789,27.142-57.351,59.164-57.351
	C395.171,234.797,421.384,260.359,422.313,292.148z"/>
<path style="fill:#2F4859;" d="M313.244,293.973c0,27.578,22.325,49.903,49.908,49.903c27.573,0,49.898-22.325,49.898-49.903
	c0-27.578-22.325-49.9-49.898-49.9C335.57,244.073,313.244,266.395,313.244,293.973z"/>
<path style="fill:#64798A;" d="M331.3,293.791c0,17.663,14.357,32.016,32.02,32.016c17.295,0,31.643-14.352,31.643-32.016
	s-14.348-31.647-31.643-31.647C345.657,262.143,331.3,276.127,331.3,293.791z"/>
<path style="fill:#EBF0F3;" d="M331.302,293.783c0,2.511,0.229,4.908,0.911,7.191c4.339-0.913,8.79,0.343,11.186,4.452
	c2.282,3.996,1.257,8.675-1.825,11.872c3.425,3.196,7.533,5.593,12.1,7.077c1.254-4.223,4.793-7.534,9.475-7.534
	c4.679,0,8.216,3.311,9.472,7.648c4.568-1.484,8.675-3.881,12.1-7.191c-3.082-3.197-4.111-7.763-1.825-11.872
	c2.397-4.109,6.847-5.365,11.186-4.452c0.683-2.282,0.911-4.68,0.911-7.191c0-2.397-0.229-4.681-0.8-6.849
	c-4.336,1.028-8.901-0.342-11.298-4.338c-2.399-4.109-1.257-8.903,1.825-12.1c-3.425-3.082-7.533-5.479-12.1-6.963
	c-1.368,4.338-4.793,7.648-9.472,7.648c-4.682,0-8.107-3.31-9.475-7.534c-4.682,1.484-8.79,3.881-12.215,6.963
	c3.197,3.31,4.222,7.991,1.94,11.985c-2.282,3.881-6.961,5.251-11.301,4.338C331.53,289.103,331.302,291.386,331.302,293.783z"/>
<path style="fill:#E56353;" d="M433.993,225.368v4.648h20.682l-0.325-3.672c-0.233-3.021-1.208-5.856-2.695-8.366h-10.272
	C437.293,217.979,433.993,221.278,433.993,225.368z"/>
<path style="fill:#FFFFFF;" d="M433.993,230.016v17.103c0,4.09,3.3,7.39,7.39,7.39h15.337l-2.045-24.493H433.993z"/>
<path style="fill:#2F4859;" d="M0,162.021v88.304c0,4.415,3.579,7.994,7.994,7.994h20.914c4.416,0,7.994-3.579,7.994-7.994v-88.304
	c0-4.415-3.579-7.994-7.994-7.994H7.994C3.579,154.028,0,157.606,0,162.021z"/>
<polygon style="fill:#D15241;" points="43.641,199.408 330.073,199.408 325.286,190.95 46.755,190.95 "/>
<rect x="43.595" y="199.411" style="fill:#CE412D;" width="22.959" height="38.113"/>
<path style="fill:#D15241;" d="M413.994,236.702c-12.92-5.252-26.538-7.947-40.248-8.133c-13.71-0.511-103.688,7.576-103.688,7.576
	c-6.971,0.372-13.989,0.465-20.961,0.511c-13.989-0.046-69.668-2.882-83.517-4.09c-27.746-2.231-55.399-5.159-83.006-8.645
	c27.839-0.093,55.632,0.418,83.424,1.441c27.746,0.976,55.446,2.231,83.053,1.998c6.925,0,13.804,0,20.728-0.279
	c0,0,55.214-3.067,62.185-3.439c13.943-0.883,28.071-1.255,42.107,0.418C388.06,225.78,402.003,229.498,413.994,236.702z"/>
<g>
</g>
<g>
</g>
<g>
</g>
<g>
</g>
<g>
</g>
<g>
</g>
<g>
</g>
<g>
</g>
<g>
</g>
<g>
</g>
<g>
</g>
<g>
</g>
<g>
</g>
<g>
</g>
<g>
</g>
</svg>
