<?xml version="1.0" encoding="iso-8859-1"?>
<!-- Generator: Adobe Illustrator 19.0.0, SVG Export Plug-In . SVG Version: 6.00 Build 0)  -->
<svg version="1.1" id="Capa_1" xmlns="http://www.w3.org/2000/svg" xmlns:xlink="http://www.w3.org/1999/xlink" x="0px" y="0px"
	 viewBox="0 0 512 512" style="enable-background:new 0 0 512 512;" xml:space="preserve">
<g transform="matrix(1.25 0 0 -1.25 0 45)">
	<g>
		<g>
			<path style="fill:#77B255;" d="M409.6-328.089c0-25.134-20.378-45.511-45.511-45.511H45.511C20.378-373.6,0-353.222,0-328.089
				V-9.511C0,15.622,20.378,36,45.511,36h318.578C389.222,36,409.6,15.622,409.6-9.511V-328.089z"/>
			<path style="fill:#FFFFFF;" d="M153.6-293.956c-7.282,0-14.564,2.776-20.116,8.329l-73.956,73.956
				c-11.105,11.116-11.105,29.116,0,40.232c11.105,11.105,29.127,11.105,40.232,0l53.84-53.851L309.84-69.04
				c11.116,11.105,29.116,11.105,40.232,0c11.105-11.116,11.105-29.116,0-40.232L173.716-285.627
				C168.164-291.179,160.882-293.956,153.6-293.956"/>
		</g>
	</g>
</g>
<g>
</g>
<g>
</g>
<g>
</g>
<g>
</g>
<g>
</g>
<g>
</g>
<g>
</g>
<g>
</g>
<g>
</g>
<g>
</g>
<g>
</g>
<g>
</g>
<g>
</g>
<g>
</g>
<g>
</g>
</svg>
