<?xml version="1.0" encoding="iso-8859-1"?>
<!-- Generator: Adobe Illustrator 19.0.0, SVG Export Plug-In . SVG Version: 6.00 Build 0)  -->
<svg version="1.1" id="Capa_1" xmlns="http://www.w3.org/2000/svg" xmlns:xlink="http://www.w3.org/1999/xlink" x="0px" y="0px"
	 viewBox="0 0 512 512" style="enable-background:new 0 0 512 512;" xml:space="preserve">
<path style="fill:#00B39E;" d="M51.201,426.998H6.181c-3.414,0-6.181-2.767-6.181-6.181V194.246c0-3.414,2.767-6.181,6.181-6.181
	h45.02V426.998z"/>
<path style="fill:#EEEEEF;" d="M512,239.265v181.334c0,3.535-2.865,6.399-6.4,6.399H51.198V188.065h190.936h63.502h155.162
	L512,239.265z"/>
<g>
	<path style="fill:#C1C1C1;" d="M467.199,239.266H512l-51.201-51.201v44.801C460.799,236.401,463.665,239.266,467.199,239.266z"/>
	<path style="fill:#C1C1C1;" d="M358.401,400.867H102.4c-4.418,0-8-3.581-8-8c0-4.418,3.582-8,8-8h256.001c4.418,0,8,3.581,8,8
		C366.4,397.286,362.819,400.867,358.401,400.867z"/>
	<path style="fill:#C1C1C1;" d="M460.801,400.867h-68.267c-4.418,0-8-3.581-8-8c0-4.418,3.582-8,8-8h68.267c4.418,0,8,3.581,8,8
		C468.8,397.286,465.218,400.867,460.801,400.867z"/>
	<path style="fill:#C1C1C1;" d="M460.801,358.198H324.267c-4.418,0-8-3.581-8-8v-25.602c0-4.418,3.582-8,8-8h136.534
		c4.418,0,8,3.581,8,8v25.602C468.8,354.617,465.218,358.198,460.801,358.198z M332.266,342.199h120.535v-9.602H332.266V342.199z"/>
</g>
<g>
	<path style="fill:#2A4752;" d="M363.838,171.656c-2.047,0-4.095-0.781-5.657-2.343l-18.101-18.101
		c-3.125-3.125-3.125-8.19,0-11.314c3.124-3.122,8.19-3.122,11.313,0l18.101,18.101c3.125,3.125,3.125,8.19,0,11.314
		C367.932,170.875,365.885,171.656,363.838,171.656z"/>
	<path style="fill:#2A4752;" d="M339.702,195.792c-2.047,0-4.095-0.781-5.657-2.343l-18.101-18.101
		c-3.125-3.125-3.125-8.19,0-11.314c3.124-3.124,8.19-3.124,11.313,0l18.101,18.101c3.125,3.125,3.125,8.19,0,11.314
		C343.797,195.011,341.749,195.792,339.702,195.792z"/>
</g>
<path style="fill:#2E4F5A;" d="M303.499,231.998c-2.047,0-4.095-0.781-5.657-2.343c-3.125-3.125-3.125-8.19,0-11.315l72.409-72.408
	c3.124-3.122,8.19-3.122,11.313,0c3.125,3.126,3.125,8.19,0,11.314l-72.408,72.408C307.594,231.217,305.546,231.998,303.499,231.998
	z"/>
<path style="fill:#A8A8A8;" d="M119.462,349.659c-2.048,0-4.095-0.781-5.657-2.343c-3.125-3.125-3.125-8.19,0-11.315l39.261-39.261
	c3.124-3.122,8.19-3.122,11.313,0c3.125,3.125,3.125,8.19,0,11.315l-39.261,39.261C123.557,348.878,121.51,349.659,119.462,349.659z
	"/>
<rect x="297.245" y="91.331" transform="matrix(-0.7071 -0.7071 0.7071 -0.7071 443.0663 468.5854)" style="fill:#00A7CC;" width="42.67" height="102.399"/>
<path style="fill:#F4B641;" d="M339.703,91.249c8.331-8.331,21.839-8.331,30.17,0s8.331,21.839,0,30.17L339.703,91.249z"/>
<path style="fill:#0095C2;" d="M267.294,163.658l30.169,30.169L178.083,313.208c-0.848,0.848-1.917,1.441-3.086,1.71l-27.454,6.336
	c-4.608,1.063-8.739-3.067-7.675-7.675l6.336-27.453c0.27-1.169,0.862-2.239,1.71-3.086L267.294,163.658z"/>
<path style="fill:#D9D9D9;" d="M486.401,239.265v187.734H505.6c3.535,0,6.4-2.865,6.4-6.399V239.265H486.401z"/>
<g>
	<path style="fill:#00AA96;" d="M25.602,341.131c-4.418,0-8-3.581-8-8v-51.199c0-4.418,3.582-8,8-8s8,3.581,8,8v51.199
		C33.603,337.549,30.021,341.131,25.602,341.131z"/>
	<path style="fill:#00AA96;" d="M17.601,188.066v17.066c0,4.418,3.582,8,8,8s8-3.581,8-8v-17.066l0,0H17.601L17.601,188.066z"/>
	<path style="fill:#00AA96;" d="M25.601,401.932c-4.418,0-8,3.581-8,8v17.066h16v-17.066
		C33.6,405.514,30.019,401.932,25.601,401.932z"/>
</g>
<g>
</g>
<g>
</g>
<g>
</g>
<g>
</g>
<g>
</g>
<g>
</g>
<g>
</g>
<g>
</g>
<g>
</g>
<g>
</g>
<g>
</g>
<g>
</g>
<g>
</g>
<g>
</g>
<g>
</g>
</svg>
