<?xml version="1.0" encoding="iso-8859-1"?>
<!-- Generator: Adobe Illustrator 19.0.0, SVG Export Plug-In . SVG Version: 6.00 Build 0)  -->
<svg xmlns="http://www.w3.org/2000/svg" xmlns:xlink="http://www.w3.org/1999/xlink" version="1.1" id="Capa_1" x="0px" y="0px" viewBox="0 0 512 512" style="enable-background:new 0 0 512 512;" xml:space="preserve" width="512px" height="512px">
<g>
	<g>
		<path d="M391,256c0-8.291,6.709-15,15-15h14.24C413.075,161.979,350.021,98.925,271,91.76V106c0,8.291-6.709,15-15,15    c-8.291,0-15-6.709-15-15V91.76C161.979,98.925,98.925,161.979,91.76,241H106c8.291,0,15,6.709,15,15s-6.709,15-15,15H91.76    c7.165,79.021,70.219,142.075,149.24,149.24V406c0-8.291,6.709-15,15-15s15,6.709,15,15v14.24    c79.021-7.165,142.075-70.219,149.24-149.24H406C397.709,271,391,264.291,391,256z M356.605,176.605l-90,90    C263.793,269.418,259.984,271,256,271h-90c-8.291,0-15-6.709-15-15c0-8.291,6.709-15,15-15h83.789l85.605-85.605    c5.859-5.859,15.352-5.859,21.211,0C362.464,161.254,362.465,170.746,356.605,176.605z" fill="#FFFFFF"/>
	</g>
</g>
<g>
	<g>
		<path d="M256,0C115.39,0,0,115.39,0,256s115.39,256,256,256s256-115.39,256-256S396.61,0,256,0z M256,451    c-107.52,0-195-87.48-195-195S148.48,61,256,61s195,87.48,195,195S363.52,451,256,451z" fill="#FFFFFF"/>
	</g>
</g>
<g>
</g>
<g>
</g>
<g>
</g>
<g>
</g>
<g>
</g>
<g>
</g>
<g>
</g>
<g>
</g>
<g>
</g>
<g>
</g>
<g>
</g>
<g>
</g>
<g>
</g>
<g>
</g>
<g>
</g>
</svg>
