<?xml version="1.0" encoding="iso-8859-1"?>
<!-- Generator: Adobe Illustrator 19.0.0, SVG Export Plug-In . SVG Version: 6.00 Build 0)  -->
<svg version="1.1" id="Layer_1" xmlns="http://www.w3.org/2000/svg" xmlns:xlink="http://www.w3.org/1999/xlink" x="0px" y="0px"
	 viewBox="0 0 508.13 508.13" style="enable-background:new 0 0 508.13 508.13;" xml:space="preserve">
<polygon style="fill:#4CDBC4;" points="331.8,65.765 331.8,1.365 280.7,1.365 280.7,65.765 241.2,65.765 306.3,130.865 
	371.4,65.765 "/>
<path style="fill:#ACB3BA;" d="M485.5,439.365H146.6c-18.3,0-33.2-14.9-33.2-33.2c0-18.3,14.9-33.2,33.2-33.2h11
	c5.9,0,11.5-2.6,15.3-7.2s5.3-10.6,4.2-16.4l-56.7-295.3c-1.8-9.4-10-16.1-19.5-16.1h-81c-11,0-19.9,8.9-19.9,19.9
	s8.9,19.9,19.9,19.9h64.6l49.3,256.8c-34.1,6.1-60.1,36-60.1,71.8c0,40.2,32.7,72.9,72.9,72.9h338.9c11,0,19.9-8.9,19.9-19.9
	C505.3,448.265,496.5,439.365,485.5,439.365z"/>
<g>
	<path style="fill:#40596B;" d="M210.2,506.765c-26.2,0-47.5-21.3-47.5-47.5s21.3-47.5,47.5-47.5s47.5,21.3,47.5,47.5
		C257.7,485.465,236.4,506.765,210.2,506.765z"/>
	<path style="fill:#40596B;" d="M385.6,506.765c-26.2,0-47.5-21.3-47.5-47.5s21.3-47.5,47.5-47.5s47.5,21.3,47.5,47.5
		C433,485.465,411.8,506.765,385.6,506.765z"/>
</g>
<g>
	<path style="fill:#FFFFFF;" d="M385.6,439.065c-11.2,0-20.2,9.1-20.2,20.2c0,11.2,9.1,20.2,20.2,20.2c11.2,0,20.2-9.1,20.2-20.2
		C405.8,448.165,396.7,439.065,385.6,439.065z"/>
	<path style="fill:#FFFFFF;" d="M210.2,439.065c-11.2,0-20.2,9.1-20.2,20.2c0,11.2,9.1,20.2,20.2,20.2s20.2-9.1,20.2-20.2
		C230.5,448.165,221.4,439.065,210.2,439.065z"/>
</g>
<path style="fill:#CDD6E0;" d="M486.9,158.865H125.6c-13.2,0-23.1,12-20.7,24.9l33.3,177.9c3,16.1,17.1,27.8,33.5,27.8h280.1
	c10.1,0,18.8-7.2,20.7-17.2l35.3-188.5C510.1,170.765,500.1,158.865,486.9,158.865z M240.4,332.465c0,9-7.9,16.3-17.7,16.3
	s-17.7-7.3-17.7-16.3v-116.6c0-9,7.9-16.3,17.7-16.3s17.7,7.3,17.7,16.3V332.465z M324,332.465c0,9-7.9,16.3-17.7,16.3
	c-9.8,0-17.7-7.3-17.7-16.3v-116.6c0-9,7.9-16.3,17.7-16.3c9.8,0,17.7,7.3,17.7,16.3V332.465z M407.5,332.465
	c0,9-7.9,16.3-17.7,16.3s-17.7-7.3-17.7-16.3v-116.6c0-9,7.9-16.3,17.7-16.3s17.7,7.3,17.7,16.3V332.465z"/>
<g>
</g>
<g>
</g>
<g>
</g>
<g>
</g>
<g>
</g>
<g>
</g>
<g>
</g>
<g>
</g>
<g>
</g>
<g>
</g>
<g>
</g>
<g>
</g>
<g>
</g>
<g>
</g>
<g>
</g>
</svg>
