<svg id="Layer_35" enable-background="new 0 0 64 64" height="512" viewBox="0 0 64 64" width="512" xmlns="http://www.w3.org/2000/svg"><path d="m46 42h-40c-2.209 0-4-1.791-4-4v-24h44z" fill="#e6e9ed"/><path d="m52 18v6h-6-15v-6h15z" fill="#fcd770"/><path d="m59 18c1.66 0 3 1.34 3 3 0 .83-.34 1.58-.88 2.12s-1.29.88-2.12.88h-3v-6z" fill="#aab2bd"/><path d="m52 18h4v6h-4z" fill="#e6e9ed"/><path d="m31 18v6l-4.07-1.63c-.56-.22-.93-.77-.93-1.37s.37-1.15.93-1.37z" fill="#aab2bd"/><path d="m46 8v6h-44v-6c0-1.1.9-2 2-2h6v2c0 1.1.9 2 2 2h2c1.1 0 2-.9 2-2v-2h16v2c0 1.1.9 2 2 2h2c1.1 0 2-.9 2-2v-2h6c1.1 0 2 .9 2 2z" fill="#ff826e"/><path d="m38 6v2c0 1.1-.9 2-2 2h-2c-1.1 0-2-.9-2-2v-2-2c0-1.1.9-2 2-2h2c1.1 0 2 .9 2 2z" fill="#ccd1d9"/><path d="m16 6v2c0 1.1-.9 2-2 2h-2c-1.1 0-2-.9-2-2v-2-2c0-1.1.9-2 2-2h2c1.1 0 2 .9 2 2z" fill="#ccd1d9"/><path d="m46.01 34.01-2.01-2.01 2-2 3-3 12 12-5 5-2.01-2z" fill="#4fc1e9"/><g fill="#f0d0b4"><path d="m44.78 42.48c-.82.34-1.7.52-2.61.52h-1.17l-1.41 1.41c-.38.38-.89.59-1.42.59h-3.76c-.78 0-1.41-.63-1.41-1.41 0-.38.15-.74.41-1l5.59-5.59.51-.51c.8-.8 1.74-1.42 2.76-1.85 1.01-.42 2.11-.64 3.24-.64.17 0 .33 0 .5.01l7.98 7.99c.01.16.01.32.01.49 0 2.25-.89 4.4-2.49 6l-.01.01-6-6z"/><path d="m49.38 52.38c.4.4.62.94.62 1.5 0 .58-.24 1.12-.62 1.5s-.92.62-1.5.62c-.56 0-1.1-.22-1.5-.62.4.4.62.94.62 1.5 0 .58-.24 1.12-.62 1.5s-.92.62-1.5.62c-.56 0-1.1-.22-1.5-.62.4.4.62.94.62 1.5 0 .58-.24 1.12-.62 1.5s-.92.62-1.5.62c-.56 0-1.1-.22-1.5-.62l-.88-.88-.01-.01c.33-.38.51-.87.51-1.37 0-.58-.24-1.12-.62-1.5s-.92-.62-1.5-.62c-.56 0-1.1.22-1.5.62.4-.4.62-.94.62-1.5 0-.58-.24-1.12-.62-1.5s-.92-.62-1.5-.62c-.56 0-1.1.22-1.5.62.4-.4.62-.94.62-1.5 0-.58-.24-1.12-.62-1.5s-.92-.62-1.5-.62c-.56 0-1.1.22-1.5.62.4-.4.62-.94.62-1.5 0-.58-.24-1.12-.62-1.5s-.92-.62-1.5-.62c-.56 0-1.1.22-1.5.62l-.38.38-.51-.51c-1.6-1.6-2.49-3.75-2.49-6 0-.17 0-.33.01-.5l7.98-7.98c.17-.01.33-.01.5-.01 1.13 0 2.23.22 3.24.64 1.02.43 1.96 1.05 2.76 1.85l.51.51-5.59 5.59c-.26.26-.41.62-.41 1 0 .78.63 1.41 1.41 1.41h3.76c.53 0 1.04-.21 1.42-.59l1.41-1.41h1.17c.91 0 1.79-.18 2.61-.52l.72.02 6 6 .88.88c.4.4.62.94.62 1.5 0 .58-.24 1.12-.62 1.5s-.92.62-1.5.62c-.56 0-1.1-.22-1.5-.62z"/><path d="m39.38 57.62c.38.38.62.92.62 1.5 0 .5-.18.99-.51 1.37-.03.05-.07.09-.11.13l-.76.76c-.4.4-.94.62-1.5.62-.58 0-1.12-.24-1.5-.62s-.62-.92-.62-1.5c0-.56.22-1.1.62-1.5l.76-.76c.4-.4.94-.62 1.5-.62.58 0 1.12.24 1.5.62z"/><path d="m36.38 54.62c.38.38.62.92.62 1.5 0 .56-.22 1.1-.62 1.5l-.76.76c-.4.4-.94.62-1.5.62-.58 0-1.12-.24-1.5-.62s-.62-.92-.62-1.5c0-.56.22-1.1.62-1.5l.76-.76c.4-.4.94-.62 1.5-.62.58 0 1.12.24 1.5.62z"/></g><path d="m31.99 34.01-7.98 7.98-2.01 2.01-2-2-3-3 11-11 1-1 5 5z" fill="#4fc1e9"/><path d="m33.38 51.62c.38.38.62.92.62 1.5 0 .56-.22 1.1-.62 1.5l-.76.76c-.4.4-.94.62-1.5.62-.58 0-1.12-.24-1.5-.62s-.62-.92-.62-1.5c0-.56.22-1.1.62-1.5l.76-.76c.4-.4.94-.62 1.5-.62.58 0 1.12.24 1.5.62z" fill="#f0d0b4"/><path d="m30.38 48.62c.38.38.62.92.62 1.5 0 .56-.22 1.1-.62 1.5l-.76.76c-.4.4-.94.62-1.5.62-.58 0-1.12-.24-1.5-.62s-.62-.92-.62-1.5c0-.56.22-1.1.62-1.5l.38-.38.38-.38c.4-.4.94-.62 1.5-.62.58 0 1.12.24 1.5.62z" fill="#f0d0b4"/><path d="m26 21v5h-8v-8h8z" fill="#fcd770"/><path d="m6 30h8v8h-8z" fill="#ff826e"/><path d="m6 18h8v8h-8z" fill="#ff826e"/><path d="m47 27.586v-2.586h12c2.206 0 4-1.794 4-4s-1.794-4-4-4h-12v-9c0-1.654-1.346-3-3-3h-5v-1c0-1.654-1.346-3-3-3h-2c-1.654 0-3 1.346-3 3v1h-14v-1c0-1.654-1.346-3-3-3h-2c-1.654 0-3 1.346-3 3v1h-5c-1.654 0-3 1.346-3 3v32c0 1.654 1.346 3 3 3h15.586l2.414 2.414 1.167-1.167c.334 1.789 1.179 3.436 2.458 4.776-.399.536-.625 1.176-.625 1.856 0 1.684 1.342 3.051 3.011 3.11.058 1.632 1.368 2.942 3 3 .058 1.632 1.368 2.942 3 3 .059 1.669 1.427 3.011 3.11 3.011.834 0 1.618-.325 2.207-.914l.172-.172.172.172c.589.589 1.373.914 2.207.914 1.684 0 3.051-1.342 3.11-3.011 1.632-.058 2.942-1.368 3-3 1.632-.058 2.942-1.368 3-3 1.669-.059 3.011-1.427 3.011-3.11 0-.834-.325-1.618-.914-2.207l-.208-.208c1.001-1.228 1.666-2.671 1.955-4.217l1.167 1.167 6.414-6.414-13.414-13.414zm-22-2.586h-6v-6h6zm5-2.477-2.7-1.08c-.182-.073-.3-.247-.3-.443s.118-.37.3-.443l2.7-1.08zm2-3.523h19v4h-19zm21 0h2v4h-2zm8 2c0 1.103-.897 2-2 2h-2v-4h2c1.103 0 2 .897 2 2zm-28-17c0-.551.449-1 1-1h2c.551 0 1 .449 1 1v4c0 .551-.449 1-1 1h-2c-.551 0-1-.449-1-1zm-22 0c0-.551.449-1 1-1h2c.551 0 1 .449 1 1v4c0 .551-.449 1-1 1h-2c-.551 0-1-.449-1-1zm-7 3h5v1c0 1.654 1.346 3 3 3h2c1.654 0 3-1.346 3-3v-1h14v1c0 1.654 1.346 3 3 3h2c1.654 0 3-1.346 3-3v-1h5c.551 0 1 .449 1 1v5h-42v-5c0-.551.449-1 1-1zm0 34c-.551 0-1-.449-1-1v-25h42v2h-14.192l-3.808 1.523v-1.523h-10v10h10v-3.523l3.808 1.523h14.192v4.586l-2.414 2.414 1.167 1.167c-1.779.333-3.417 1.171-4.754 2.438-1.335-1.263-2.989-2.098-4.758-2.432l1.173-1.173-6.414-6.414-13.414 13.414 2 2zm14.414-2 10.586-10.586 3.586 3.586-10.586 10.586zm8.586 11.879c0-.3.117-.581.328-.793l.758-.758c.212-.211.493-.328.793-.328.618 0 1.121.503 1.121 1.121 0 .3-.117.581-.328.793l-.758.758c-.212.211-.493.328-.793.328-.618 0-1.121-.503-1.121-1.121zm3 3c0-.3.117-.581.328-.793l.758-.758c.212-.211.493-.328.793-.328.618 0 1.121.503 1.121 1.121 0 .3-.117.581-.328.793l-.758.758c-.212.211-.493.328-.793.328-.618 0-1.121-.503-1.121-1.121zm3 3c0-.3.117-.581.328-.793l.758-.758c.212-.211.493-.328.793-.328.618 0 1.121.503 1.121 1.121 0 .3-.117.581-.328.793l-.758.758c-.212.211-.493.328-.793.328-.618 0-1.121-.503-1.121-1.121zm4.914 3.793c-.212.211-.493.328-.793.328-.618 0-1.121-.503-1.121-1.121 0-.3.117-.581.328-.793l.758-.758c.212-.211.493-.328.793-.328.618 0 1.121.503 1.121 1.121 0 .3-.117.581-.328.793zm12.965-8.672c-.3 0-.581-.117-.793-.328l-2.379-2.379-1.414 1.414 2.379 2.379c.211.212.328.493.328.793 0 .618-.503 1.121-1.121 1.121-.3 0-.581-.117-.793-.328l-2.379-2.379-1.414 1.414 2.379 2.379c.211.212.328.493.328.793 0 .618-.503 1.121-1.121 1.121-.3 0-.581-.117-.793-.328l-2.379-2.379-1.414 1.414 2.379 2.379c.211.212.328.493.328.793 0 .618-.503 1.121-1.121 1.121-.3 0-.581-.117-.793-.328l-.334-.334c.161-.38.248-.791.248-1.217 0-1.684-1.342-3.051-3.011-3.11-.058-1.632-1.368-2.942-3-3-.058-1.632-1.368-2.942-3-3-.059-1.669-1.427-3.011-3.11-3.011-.673 0-1.307.22-1.838.611-1.314-1.394-2.041-3.202-2.041-5.126 0-.025.002-.049.002-.073l7.401-7.401c1.904-.017 3.761.688 5.173 1.999l-4.869 4.869c-.456.456-.707 1.062-.707 1.707 0 1.331 1.083 2.414 2.414 2.414h3.757c.801 0 1.555-.312 2.122-.879l1.121-1.121h.757c.999 0 1.967-.191 2.869-.546l6.632 6.632c.211.212.328.493.328.793 0 .618-.503 1.121-1.121 1.121zm2.121-9.515c0 1.669-.549 3.25-1.55 4.55l-4.598-4.598c.298-.224.587-.462.856-.73l-1.414-1.414c-1.102 1.101-2.565 1.707-4.123 1.707h-1.585l-1.707 1.707c-.189.189-.441.293-.708.293h-3.757c-.228 0-.414-.186-.414-.414 0-.109.044-.216.121-.293l6.101-6.101c1.433-1.432 3.386-2.196 5.376-2.181l7.4 7.4c0 .026.002.05.002.074zm3 .101-10.586-10.586 3.586-3.586 10.586 10.586z"/><path d="m5 27h10v-10h-10zm2-8h6v6h-6z"/><path d="m5 39h10v-10h-10zm2-8h6v6h-6z"/></svg>