<?xml version="1.0" encoding="iso-8859-1"?>
<!-- Generator: Adobe Illustrator 19.0.0, SVG Export Plug-In . SVG Version: 6.00 Build 0)  -->
<svg version="1.1" id="Capa_1" xmlns="http://www.w3.org/2000/svg" xmlns:xlink="http://www.w3.org/1999/xlink" x="0px" y="0px"
	 viewBox="0 0 512 512" style="enable-background:new 0 0 512 512;" xml:space="preserve">
<path style="fill:#EBEEF2;" d="M511.51,154.024c-0.983-3.669-3.335-6.734-6.625-8.633l0,0L320.192,38.758
	c-3.289-1.9-7.122-2.405-10.789-1.422c-3.668,0.983-6.734,3.336-8.632,6.624L141.243,320.273c-1.899,3.289-2.404,7.12-1.421,10.788
	c0.983,3.669,3.335,6.734,6.624,8.633l184.695,106.635c2.233,1.288,4.674,1.9,7.083,1.9c4.917,0,9.707-2.55,12.337-7.105
	L510.09,164.811C511.988,161.523,512.492,157.692,511.51,154.024z"/>
<path style="fill:#D1D6DE;" d="M296.507,82.502h-17.989L141.242,320.274c-1.899,3.289-2.404,7.12-1.421,10.788
	c0.983,3.669,3.335,6.734,6.624,8.633l181.419,104.743V113.86C327.864,96.57,313.797,82.502,296.507,82.502z"/>
<path style="fill:#1B3D66;" d="M427.194,169.173c-1.272,0-2.562-0.324-3.743-1.006l-82.267-47.497
	c-3.587-2.071-4.816-6.658-2.745-10.245c2.071-3.588,6.657-4.816,10.245-2.745l82.267,47.497c3.587,2.071,4.816,6.658,2.745,10.245
	C432.307,167.828,429.786,169.173,427.194,169.173z"/>
<g>
	<path style="fill:#656D88;" d="M417.971,245.292c-1.272,0-2.562-0.324-3.743-1.006l-134.354-77.569
		c-3.587-2.071-4.816-6.658-2.745-10.245c2.071-3.588,6.658-4.816,10.245-2.745l134.354,77.569
		c3.587,2.071,4.816,6.658,2.745,10.245C423.084,243.947,420.563,245.292,417.971,245.292z"/>
	<path style="fill:#656D88;" d="M400.421,275.691c-1.272,0-2.562-0.324-3.743-1.006l-134.355-77.57
		c-3.587-2.071-4.816-6.658-2.745-10.245c2.071-3.588,6.658-4.815,10.245-2.745l134.355,77.57c3.587,2.071,4.816,6.658,2.745,10.245
		C405.534,274.346,403.013,275.691,400.421,275.691z"/>
	<path style="fill:#656D88;" d="M382.87,306.088c-1.272,0-2.562-0.324-3.743-1.006l-134.354-77.569
		c-3.587-2.071-4.816-6.658-2.745-10.245c2.071-3.588,6.658-4.816,10.245-2.745l134.354,77.569
		c3.587,2.071,4.816,6.658,2.745,10.245C387.983,304.743,385.462,306.088,382.87,306.088z"/>
	<path style="fill:#656D88;" d="M365.32,336.487c-1.272,0-2.562-0.324-3.743-1.006l-134.355-77.569
		c-3.587-2.071-4.816-6.658-2.745-10.245c2.071-3.589,6.658-4.816,10.245-2.745l134.355,77.569
		c3.587,2.071,4.816,6.658,2.745,10.245C370.433,335.142,367.912,336.487,365.32,336.487z"/>
</g>
<path style="fill:#48CFB7;" d="M282.507,65.502H61.047c-17.29,0-31.357,14.067-31.357,31.357v346.939
	c0,17.291,14.067,31.357,31.357,31.357h221.46c17.29,0,31.357-14.066,31.357-31.357V96.86
	C313.864,79.57,299.797,65.502,282.507,65.502z"/>
<path style="fill:#35B5A0;" d="M282.507,65.502h-26.943c17.29,0,31.357,14.067,31.357,31.357v346.939
	c0,17.291-14.067,31.357-31.357,31.357h26.943c17.29,0,31.357-14.066,31.357-31.357V96.86
	C313.864,79.57,299.797,65.502,282.507,65.502z"/>
<g>
	<path style="fill:#F2DF33;" d="M0,121.198v23.516c0,2.165,1.755,3.919,3.919,3.919h64.014c2.165,0,3.919-1.755,3.919-3.919v-23.516
		c0-2.165-1.755-3.919-3.919-3.919H3.919C1.755,117.279,0,119.033,0,121.198z"/>
	<path style="fill:#F2DF33;" d="M0,243.741v23.516c0,2.165,1.755,3.919,3.919,3.919h64.014c2.165,0,3.919-1.755,3.919-3.919v-23.516
		c0-2.165-1.755-3.919-3.919-3.919H3.919C1.755,239.821,0,241.576,0,243.741z"/>
	<path style="fill:#F2DF33;" d="M0,366.284V389.8c0,2.165,1.755,3.919,3.919,3.919h64.014c2.165,0,3.919-1.755,3.919-3.919v-23.516
		c0-2.165-1.755-3.919-3.919-3.919H3.919C1.755,362.365,0,364.12,0,366.284z"/>
</g>
<path style="fill:#FCD0AE;" d="M227.029,191.992H116.526c-2.981,0-5.398-2.417-5.398-5.398v-38.978c0-2.981,2.417-5.398,5.398-5.398
	h110.503c2.981,0,5.398,2.417,5.398,5.398v38.978C232.428,189.575,230.011,191.992,227.029,191.992z"/>
<g>
</g>
<g>
</g>
<g>
</g>
<g>
</g>
<g>
</g>
<g>
</g>
<g>
</g>
<g>
</g>
<g>
</g>
<g>
</g>
<g>
</g>
<g>
</g>
<g>
</g>
<g>
</g>
<g>
</g>
</svg>
