<svg height="465pt" viewBox="0 -7 465.998 465" width="465pt" xmlns="http://www.w3.org/2000/svg"><path d="m209.453125 361.734375h47.09375v52.644531h-47.09375zm0 0" fill="#87796f"/><path d="m256.546875 358.734375h-47.097656c-1.65625 0-3 1.339844-3 3v52.644531c0 1.65625 1.34375 3 3 3h47.097656c1.660156 0 3-1.34375 3-3v-52.644531c0-1.65625-1.339844-3-3-3zm-3 52.644531h-41.097656v-46.644531h41.097656zm0 0" fill="#3a312a"/><path d="m268.109375 414.378906h-70.21875c-19.261719 0-34.878906 15.617188-34.878906 34.878906h139.980469c-.003907-19.261718-15.617188-34.878906-34.882813-34.878906zm0 0" fill="#87796f"/><path d="m268.109375 411.378906h-70.21875c-20.882813 0-37.878906 16.992188-37.878906 37.878906 0 1.660157 1.34375 3 3 3h139.976562c1.660157 0 3-1.339843 3-3 0-20.886718-16.992187-37.878906-37.878906-37.878906zm-101.960937 34.878906c1.519531-16.175781 15.175781-28.878906 31.742187-28.878906h70.21875c16.566406 0 30.21875 12.703125 31.738281 28.878906zm0 0" fill="#3a312a"/><path d="m426.441406 3.5h-386.882812c-20.191406 0-36.558594 16.367188-36.558594 36.558594v285.117187c0 20.1875 16.367188 36.558594 36.558594 36.558594h386.882812c20.191406 0 36.554688-16.371094 36.554688-36.558594v-285.117187c.003906-20.191406-16.363282-36.558594-36.554688-36.558594zm0 0" fill="#87796f"/><path d="m426.441406.5h-93.167968c-1.660157 0-3 1.339844-3 3 0 1.65625 1.339843 3 3 3h93.167968c18.503906 0 33.558594 15.054688 33.558594 33.558594v285.117187c0 18.503907-15.054688 33.558594-33.558594 33.558594h-386.882812c-18.503906 0-33.558594-15.054687-33.558594-33.558594v-285.117187c0-18.503906 15.054688-33.558594 33.558594-33.558594h265.164062c1.660156 0 3-1.34375 3-3 0-1.660156-1.339844-3-3-3h-265.164062c-21.8125 0-39.558594 17.746094-39.558594 39.558594v285.117187c0 21.8125 17.746094 39.558594 39.558594 39.558594h386.882812c21.8125 0 39.554688-17.746094 39.554688-39.558594v-285.117187c.003906-21.8125-17.742188-39.558594-39.554688-39.558594zm0 0" fill="#3a312a"/><path d="m410.101562 30.546875h-354.203124c-13.796876 0-24.976563 11.199219-24.976563 25v254.136719c0 2.820312.457031 5.542968 1.339844 8.082031 3.339843 9.839844 12.660156 16.917969 23.636719 16.917969h354.203124c13.796876 0 24.976563-11.199219 24.976563-25v-254.136719c0-13.800781-11.179687-25-24.976563-25zm0 0" fill="#d7e057"/><path d="m410.101562 27.546875h-354.203124c-15.425782 0-27.976563 12.558594-27.976563 28v66.957031c0 1.65625 1.339844 3 3 3 1.65625 0 3-1.34375 3-3v-66.957031c0-12.132813 9.859375-22 21.976563-22h354.203124c12.117188 0 21.976563 9.867187 21.976563 22v254.136719c0 12.132812-9.859375 22-21.976563 22h-354.203124c-9.417969 0-17.777344-5.980469-20.804688-14.902344-.78125-2.25-1.171875-4.636719-1.171875-7.097656v-157.429688c0-1.65625-1.34375-3-3-3-1.660156 0-3 1.34375-3 3v157.433594c0 3.128906.503906 6.179688 1.496094 9.042969 3.847656 11.335937 14.488281 18.957031 26.480469 18.957031h354.203124c15.425782 0 27.976563-12.558594 27.976563-28v-254.140625c0-15.441406-12.550781-28-27.976563-28zm0 0" fill="#3a312a"/><path d="m410.078125 33.539062h-29.976563c12.117188 0 21.976563 9.878907 21.976563 22v254.140626c0 12.140624-9.859375 22-21.976563 22h30c12.117188 0 21.976563-9.859376 21.976563-22v-254.140626c0-12.101562-9.898437-22-22-22zm0 0" fill="#b9c239"/><path d="m235.398438 364.738281h18.140624v46.640625h-18.140624zm0 0" fill="#695b51"/><path d="m268.101562 417.378906h-18.140624c16.578124 0 30.238281 12.699219 31.738281 28.878906h18.140625c-1.5-16.179687-15.160156-28.878906-31.738282-28.878906zm0 0" fill="#695b51"/><path d="m124.890625 137.390625v139.488281c0 8.503906 6.890625 15.386719 15.386719 15.386719h189.445312c8.492188 0 15.386719-6.882813 15.386719-15.386719v-139.488281zm0 0" fill="#fce8cb"/><path d="m345.109375 134.390625h-220.21875c-1.660156 0-3 1.34375-3 3v139.488281c0 10.136719 8.246094 18.386719 18.386719 18.386719h189.445312c10.140625 0 18.386719-8.25 18.386719-18.386719v-139.488281c0-1.65625-1.34375-3-3-3zm-3 142.488281c0 6.832032-5.554687 12.386719-12.386719 12.386719h-189.445312c-6.832032 0-12.386719-5.554687-12.386719-12.386719v-136.488281h214.21875zm0 0" fill="#3a312a"/><path d="m329.0625 96.078125h-188.125c-8.863281 0-16.046875 7.183594-16.046875 16.050781v25.261719h220.21875v-25.261719c0-8.867187-7.183594-16.050781-16.046875-16.050781zm0 0" fill="#f16c7a"/><path d="m329.0625 93.078125h-188.125c-10.5 0-19.046875 8.542969-19.046875 19.050781v25.261719c0 1.660156 1.339844 3 3 3h220.21875c1.65625 0 3-1.339844 3-3v-25.261719c0-10.503906-8.546875-19.050781-19.046875-19.050781zm13.046875 41.3125h-214.21875v-22.261719c0-7.195312 5.851563-13.050781 13.046875-13.050781h188.125c7.195312 0 13.046875 5.855469 13.046875 13.050781zm0 0" fill="#3a312a"/><path d="m299.085938 72.378906c-6.171876 0-11.171876 5.003906-11.171876 11.171875v24.234375c0 6.171875 5 11.175782 11.171876 11.175782 6.171874 0 11.171874-5.003907 11.171874-11.175782v-24.234375c0-6.167969-5-11.171875-11.171874-11.171875zm0 0" fill="#8ac6dd"/><path d="m299.085938 69.378906c-7.8125 0-14.171876 6.359375-14.171876 14.171875v24.234375c0 7.816406 6.359376 14.175782 14.171876 14.175782s14.171874-6.359376 14.171874-14.175782v-24.234375c0-7.8125-6.359374-14.171875-14.171874-14.171875zm8.171874 38.40625c0 4.507813-3.664062 8.175782-8.171874 8.175782-4.507813 0-8.171876-3.667969-8.171876-8.175782v-24.234375c0-4.503906 3.664063-8.171875 8.171876-8.171875 4.507812 0 8.171874 3.667969 8.171874 8.171875zm0 0" fill="#3a312a"/><path d="m170.914062 72.378906c-6.171874 0-11.171874 5.003906-11.171874 11.171875v24.234375c0 6.171875 5 11.175782 11.171874 11.175782 6.171876 0 11.171876-5.003907 11.171876-11.175782v-24.234375c0-6.167969-5-11.171875-11.171876-11.171875zm0 0" fill="#8ac6dd"/><path d="m170.914062 69.378906c-7.8125 0-14.171874 6.359375-14.171874 14.171875v24.234375c0 7.816406 6.359374 14.175782 14.171874 14.175782s14.171876-6.359376 14.171876-14.175782v-24.234375c0-7.8125-6.359376-14.171875-14.171876-14.171875zm8.171876 38.40625c0 4.507813-3.664063 8.175782-8.171876 8.175782-4.507812 0-8.171874-3.667969-8.171874-8.175782v-24.234375c0-4.503906 3.664062-8.171875 8.171874-8.171875 4.507813 0 8.171876 3.667969 8.171876 8.171875zm0 0" fill="#3a312a"/><path d="m233.546875 211.617188c-23.316406 0-42.214844 22.953124-42.214844 42.304687 0 19.355469 18.898438 22.730469 42.214844 22.730469 23.3125 0 42.214844-3.375 42.214844-22.730469 0-19.351563-18.902344-42.304687-42.214844-42.304687zm0 0" fill="#87796f"/><path d="m233.542969 208.617188c-25.046875 0-45.214844 24.785156-45.214844 45.304687 0 22.671875 22.859375 25.730469 45.214844 25.730469 22.359375 0 45.214843-3.054688 45.214843-25.730469 0-20.519531-20.167968-45.304687-45.214843-45.304687zm0 65.035156c-28.21875 0-39.214844-5.535156-39.214844-19.730469 0-17.804687 17.492187-39.304687 39.214844-39.304687 21.722656 0 39.214843 21.5 39.214843 39.304687 0 14.199219-10.992187 19.730469-39.214843 19.730469zm0 0" fill="#3a312a"/><path d="m233.546875 154.4375c-9.132813 0-16.53125 9.5-16.53125 21.214844 0 11.71875 7.398437 21.214844 16.53125 21.214844 9.128906 0 16.53125-9.496094 16.53125-21.214844 0-11.714844-7.402344-21.214844-16.53125-21.214844zm0 0" fill="#87796f"/><path d="m233.542969 151.4375c-10.769531 0-19.53125 10.863281-19.53125 24.214844 0 13.355468 8.761719 24.214844 19.53125 24.214844s19.53125-10.863282 19.53125-24.214844c.003906-13.351563-8.757813-24.214844-19.53125-24.214844zm0 42.433594c-7.460938 0-13.53125-8.171875-13.53125-18.214844 0-10.046875 6.070312-18.21875 13.53125-18.21875 7.464843 0 13.53125 8.171875 13.53125 18.21875 0 10.042969-6.066407 18.214844-13.53125 18.214844zm0 0" fill="#3a312a"/><path d="m201.109375 184.734375c-5.476563-10.359375-16.457031-15.300781-24.53125-11.035156-8.070313 4.265625-10.179687 16.121093-4.703125 26.480469 5.472656 10.363281 16.453125 15.304687 24.527344 11.039062 8.070312-4.265625 10.179687-16.121094 4.707031-26.484375zm0 0" fill="#87796f"/><path d="m203.761719 183.335938c-2.960938-5.597657-7.472657-9.980469-12.710938-12.339844-5.496093-2.472656-11.132812-2.453125-15.871093.050781-9.527344 5.03125-12.199219 18.730469-5.960938 30.535156 2.960938 5.597657 7.472656 9.980469 12.710938 12.339844 2.726562 1.226563 5.492187 1.839844 8.164062 1.839844 2.707031 0 5.320312-.628907 7.707031-1.894531 4.742188-2.503907 7.933594-7.148438 8.988281-13.082032 1.003907-5.652344-.070312-11.851562-3.027343-17.449218zm-2.882813 16.402343c-.722656 4.074219-2.8125 7.207031-5.878906 8.828125-3.070312 1.621094-6.839844 1.578125-10.605469-.117187-4.027343-1.808594-7.53125-5.246094-9.867187-9.667969-4.691406-8.878906-3.144532-18.941406 3.453125-22.429688 1.496093-.789062 3.160156-1.183593 4.910156-1.183593 1.835937 0 3.765625.433593 5.699219 1.304687 4.023437 1.808594 7.53125 5.246094 9.867187 9.667969 2.335938 4.421875 3.195313 9.25 2.421875 13.597656zm0 0" fill="#3a312a"/><path d="m167.085938 216.265625c-9.332032-7.089844-21.375-6.941406-26.898438.328125s-2.441406 18.910156 6.890625 26c9.328125 7.089844 21.371094 6.941406 26.894531-.328125 5.523438-7.269531 2.441406-18.910156-6.886718-26zm0 0" fill="#87796f"/><path d="m168.898438 213.878906c-10.632813-8.078125-24.582032-7.675781-31.097657.898438-6.515625 8.578125-3.167969 22.125 7.460938 30.207031 5.109375 3.878906 10.980469 5.800781 16.429687 5.800781 5.894532 0 11.285156-2.246094 14.671875-6.703125 6.515625-8.574219 3.167969-22.125-7.464843-30.203125zm2.6875 26.574219c-4.515626 5.941406-14.695313 5.828125-22.695313-.25-7.996094-6.074219-10.828125-15.855469-6.316406-21.792969 2.226562-2.925781 5.824219-4.386718 9.859375-4.386718 4.15625 0 8.777344 1.550781 12.835937 4.632812 7.996094 6.078125 10.832031 15.855469 6.316407 21.796875zm0 0" fill="#3a312a"/><path d="m290.769531 173.699219c-8.074219-4.265625-19.054687.675781-24.53125 11.035156-5.472656 10.359375-3.363281 22.21875 4.707031 26.484375 8.074219 4.265625 19.058594-.679688 24.527344-11.039062 5.476563-10.359376 3.371094-22.214844-4.703125-26.480469zm0 0" fill="#87796f"/><path d="m301.15625 184.132812c-1.054688-5.933593-4.246094-10.582031-8.984375-13.085937-4.742187-2.507813-10.378906-2.523437-15.875-.050781-5.238281 2.359375-9.753906 6.742187-12.707031 12.339844-2.960938 5.597656-4.035156 11.796874-3.03125 17.453124 1.054687 5.933594 4.246094 10.578126 8.988281 13.082032 2.386719 1.261718 5 1.890625 7.707031 1.890625 2.671875 0 5.4375-.613281 8.160156-1.839844 5.242188-2.355469 9.757813-6.738281 12.710938-12.335937 2.960938-5.601563 4.035156-11.800782 3.03125-17.453126zm-8.332031 14.648438c-2.335938 4.421875-5.84375 7.859375-9.867188 9.667969-3.769531 1.699219-7.535156 1.738281-10.605469.117187-3.070312-1.621094-5.160156-4.753906-5.882812-8.828125-.773438-4.347656.089844-9.175781 2.425781-13.597656 2.335938-4.425781 5.839844-7.859375 9.867188-9.671875 1.929687-.871094 3.859375-1.304688 5.695312-1.304688 1.75 0 3.414063.398438 4.914063 1.1875 3.070312 1.621094 5.15625 4.753907 5.882812 8.828126.769532 4.347656-.09375 9.175781-2.429687 13.601562zm0 0" fill="#3a312a"/><path d="m326.320312 216.59375c-5.523437-7.269531-17.566406-7.417969-26.894531-.328125-9.332031 7.089844-12.414062 18.730469-6.890625 26 5.523438 7.269531 17.566406 7.417969 26.894532.328125 9.332031-7.089844 12.414062-18.730469 6.890624-26zm0 0" fill="#87796f"/><path d="m328.707031 214.777344c-3.242187-4.265625-8.347656-6.660156-14.371093-6.730469-5.667969-.027344-11.6875 2-16.726563 5.832031-5.042969 3.832032-8.628906 9-10.101563 14.550782-1.542968 5.824218-.605468 11.382812 2.636719 15.652343 3.242188 4.269531 8.347657 6.660157 14.375 6.734375h.28125c5.65625 0 11.484375-2.066406 16.445313-5.832031 5.042968-3.832031 8.628906-9 10.101562-14.554687 1.539063-5.824219.605469-11.382813-2.640625-15.652344zm-3.164062 14.117187c-1.128907 4.265625-3.945313 8.285157-7.929688 11.308594-3.980469 3.03125-8.582031 4.710937-13.019531 4.613281-4.136719-.050781-7.570312-1.601562-9.667969-4.367187-2.101562-2.761719-2.671875-6.484375-1.617187-10.480469 1.132812-4.269531 3.949218-8.289062 7.929687-11.3125h.003907c3.917968-2.980469 8.460937-4.613281 12.8125-4.613281.070312 0 .140624.003906.210937.003906 4.132813.046875 7.566406 1.597656 9.667969 4.363281 2.097656 2.761719 2.671875 6.484375 1.609375 10.484375zm0 0" fill="#3a312a"/></svg>