<svg id="Capa_1" enable-background="new 0 0 512 512" height="512" viewBox="0 0 512 512" width="512" xmlns="http://www.w3.org/2000/svg"><path d="m265.332 86.544h-189.86c-7.455 0-13.499-6.039-13.499-13.488v-49.568c0-7.449 6.043-13.488 13.499-13.488h189.86c7.455 0 13.499 6.039 13.499 13.488v49.568c0 7.449-6.044 13.488-13.499 13.488z" fill="#a0c8ff"/><path d="m282.339 390.087c-5.99 5.985-8.99 13.829-8.99 21.672 0 7.844 3 15.687 8.99 21.672l31.45 31.424c-.66 6.375-2.78 12.33-6.01 17.516-2.23 3.607-5.04 6.864-8.25 9.632-7.95 6.825-17.92 9.992-28.29 9.992-4.05 0-199.66.01-202.72 0-14.34-.05-27.91-7.394-35.5-19.624-3.95-6.345-6.24-13.839-6.24-21.862v-13.179c0-5.566 4.52-10.082 10.09-10.082v-214.625c-3.92 0-7.31-2.238-8.98-5.506-.71-1.369-1.11-2.928-1.11-4.576v-11.79c0-10.032 3.64-19.734 10.25-27.288l35.4-40.467c6.61-7.554 10.26-17.256 10.26-27.298v-19.144h175.42v19.144c0 10.042 3.65 19.744 10.26 27.298l35.4 40.467c6.61 7.554 10.25 17.256 10.25 27.288v11.79c0 1.649-.4 3.207-1.11 4.576-1.67 3.267-5.06 5.506-8.98 5.506v158.491c-7.82.03-15.63 3.018-21.59 8.973z" fill="#eaf0f0"/><path d="m282.339 390.087c-5.99 5.985-8.99 13.829-8.99 21.672 0 7.844 3 15.687 8.99 21.672l3.82 3.817h-249.29v-48.95l-.01-165.665h267.07v158.481c-7.82.03-15.63 3.018-21.59 8.973z" fill="#a0c8ff"/><path d="m485.221 450.807c0 28.277-22.93 51.188-51.22 51.188-16.93 0-31.95-8.213-41.27-20.863 3.6-10.681 1.14-22.941-7.38-31.454l-2.45-2.448c1.83-26.598 24.01-47.601 51.1-47.601 28.29 0 51.22 22.911 51.22 51.178z" fill="#ff7a7a"/><path d="m355.532 419.881-29.819-29.796c-11.978-11.969-31.398-11.969-43.377 0l-.001.001c-11.978 11.968-11.978 31.372 0 43.341l29.82 29.797z" fill="#eaf0f0"/><path d="m385.351 493.019.001-.001c11.978-11.968 11.978-31.372 0-43.341l-29.82-29.797-43.377 43.342 29.819 29.796c11.978 11.97 31.399 11.97 43.377.001z" fill="#a0c8ff"/><g fill="#ff7a7a"><path d="m217.344 352.089c-12.067-12.19-28.513-19.05-45.673-19.05h-.303-.51c-17.037 0-33.377 6.763-45.424 18.8l-12.594 12.431c-3.653 3.606-5.709 8.523-5.709 13.654v.347c0 10.6 8.6 19.192 19.208 19.192h45.03 45.03c10.608 0 19.208-8.593 19.208-19.192 0-5.094-2.027-9.979-5.634-13.579z"/><path d="m171.722 296.01c-10.642 0-19.269-8.62-19.269-19.253 0-10.633 8.627-19.253 19.269-19.253 10.642 0 19.269 8.62 19.269 19.253-.001 10.633-8.628 19.253-19.269 19.253z"/><path d="m247.023 314.685c-10.642 0-19.269-8.62-19.269-19.253 0-10.633 8.627-19.253 19.269-19.253 10.642 0 19.269 8.62 19.269 19.253 0 10.633-8.627 19.253-19.269 19.253z"/><path d="m96.42 314.584c-10.642 0-19.269-8.62-19.269-19.253 0-10.633 8.627-19.253 19.269-19.253 10.642 0 19.269 8.62 19.269 19.253 0 10.633-8.627 19.253-19.269 19.253z"/></g><path d="m434.052 389.63c-.018 0-.036-.003-.055-.003-.02 0-.039.003-.059.003-25.314.026-47.347 15.649-56.559 37.944l-44.598-44.563c-5.394-5.39-11.94-8.941-18.853-10.664v-142.373c3.305-1.894 6.055-4.727 7.857-8.252 1.46-2.816 2.232-5.991 2.232-9.18v-11.79c0-12.466-4.519-24.496-12.724-33.872l-35.401-40.469c-5.021-5.738-7.786-13.093-7.786-20.712v-9.324c11.653-1.378 20.722-11.307 20.722-23.318v-49.569c.003-12.951-10.538-23.488-23.496-23.488h-189.86c-12.958 0-23.499 10.537-23.499 23.488v49.568c0 12.01 9.066 21.937 20.716 23.317v9.325c0 7.619-2.765 14.975-7.787 20.713l-35.398 40.466c-8.206 9.376-12.725 21.406-12.725 33.874v11.79c0 3.189.772 6.364 2.206 9.128 1.815 3.551 4.569 6.395 7.874 8.295l.01 199.954c-6.025 3.471-10.089 9.976-10.089 17.413v13.179c0 9.616 2.68 19.003 7.743 27.135 9.282 14.958 26.127 24.289 43.965 24.351.926.003 18.599.004 52.787.004 32.359 0 149.965-.004 149.965-.004 13.315 0 25.35-4.289 34.821-12.418 4.035-3.48 7.475-7.5 10.208-11.919.802-1.288 1.529-2.622 2.213-3.978l16.426 16.413c7.929 7.923 18.341 11.883 28.757 11.883 10.413 0 20.829-3.962 28.756-11.882l.001-.001c.784-.784 1.523-1.6 2.235-2.434 10.924 9.133 24.866 14.336 39.338 14.338h.005.001.002c33.757 0 61.22-27.449 61.22-61.188-.002-33.72-27.437-61.152-61.171-61.18zm-92.667 30.251-29.229 29.206-22.751-22.734c-3.903-3.899-6.052-9.083-6.052-14.597 0-2.639.506-5.197 1.447-7.58 3.086-7.8 10.841-13.058 19.226-13.058 5.294 0 10.589 2.014 14.62 6.042zm-74.989 7.367h-219.527v-194.615h247.06v139.74c-7.016 1.783-13.545 5.526-18.662 10.639-4.38 4.377-7.634 9.578-9.626 15.251-1.504 4.28-2.292 8.827-2.292 13.496 0 5.29 1.03 10.596 3.047 15.489zm-229.617-226.497c0-7.621 2.761-14.973 7.776-20.704l35.399-40.466c8.212-9.385 12.734-21.417 12.734-33.883v-19.144c0-.002 0-.003 0-.005s0-.003 0-.005c0-5.523-4.477-10-10-10h-7.217c-1.929 0-3.499-1.564-3.499-3.488v-49.568c0-1.923 1.57-3.488 3.499-3.488h189.86c1.929 0 3.499 1.565 3.499 3.488v49.568c0 1.923-1.57 3.488-3.499 3.488h-94.415c-5.523 0-10 4.477-10 10v.005s0 .003 0 .005c0 5.523 4.477 10 10 10h77.191v9.145c0 12.465 4.522 24.498 12.734 33.881l35.401 40.469c5.014 5.73 7.775 13.083 7.775 20.703l.013 11.763c-.009.018-.094.091-.103.109-.065 0-.128.009-.193.01h-266.675c-.071-.001-.141-.011-.213-.011l-.005.012c-.034 0-.068.005-.102.005l.04-.098zm262.494 276.362c-1.675 2.71-3.787 5.172-6.257 7.303-5.777 4.958-13.307 7.58-21.777 7.58 0 0-201.463.004-202.685 0-11-.039-21.36-5.747-27.046-14.909-3.094-4.969-4.729-10.701-4.729-16.577l.001-13.202c0-.001.024-.059.088-.059h245.15l21.038 21.021c-.784 3.099-2.048 6.057-3.783 8.843zm49.769 8.832-22.74-22.722 29.229-29.206 20.287 20.271c3.596 3.596 6.764 7.2 7.967 12.314 1.623 6.9-.487 14.331-5.503 19.342-8.061 8.056-21.178 8.056-29.24.001zm54.632-7.244c2.341-12.553-1.552-25.769-10.272-35.081 2.832-16.06 15.042-28.841 30.596-32.747v79.869c-7.753-1.953-14.855-6.123-20.324-12.041zm40.324 12.063v-79.904c17.913 4.476 31.223 20.685 31.223 39.947 0 19.267-13.31 35.481-31.223 39.957z"/><path d="m224.429 345.033c-13.848-13.978-33.075-21.993-52.758-21.993h-.813c-19.829 0-38.471 7.716-52.449 21.683l-12.594 12.43c-5.52 5.447-8.685 13.018-8.685 20.771v.347c0 16.097 13.103 29.192 29.208 29.192h90.059c16.105 0 29.208-13.095 29.208-29.192 0-7.805-3.043-15.141-8.57-20.657zm-8.032 42.43h-90.059c-5.077 0-9.208-4.124-9.208-9.192v-.347c0-2.439.997-4.822 2.734-6.537l12.638-12.474c10.245-10.236 23.866-15.874 38.355-15.874h.813c14.39 0 28.446 5.863 38.565 16.085l.043.043 12.627 12.602c1.74 1.737 2.698 4.045 2.698 6.501.002 5.069-4.128 9.193-9.206 9.193z"/><path d="m171.722 306.01c16.139 0 29.269-13.123 29.269-29.253s-13.13-29.253-29.269-29.253-29.269 13.123-29.269 29.253 13.13 29.253 29.269 29.253zm0-38.506c5.111 0 9.269 4.151 9.269 9.253 0 5.103-4.158 9.253-9.269 9.253s-9.269-4.151-9.269-9.253 4.158-9.253 9.269-9.253z"/><path d="m276.292 295.432c0-16.13-13.13-29.253-29.269-29.253s-29.269 13.123-29.269 29.253 13.13 29.253 29.269 29.253 29.269-13.123 29.269-29.253zm-29.269 9.253c-5.111 0-9.269-4.151-9.269-9.253s4.158-9.253 9.269-9.253 9.269 4.151 9.269 9.253-4.158 9.253-9.269 9.253z"/><path d="m125.689 295.331c0-16.13-13.13-29.253-29.269-29.253s-29.269 13.123-29.269 29.253 13.13 29.253 29.269 29.253 29.269-13.123 29.269-29.253zm-29.269 9.253c-5.111 0-9.269-4.151-9.269-9.253 0-5.103 4.158-9.253 9.269-9.253s9.269 4.151 9.269 9.253-4.158 9.253-9.269 9.253z"/><path d="m121.36 94.64c3.728 2.443 8.693 2.17 12.083-.748 2.995-2.577 4.203-6.81 3.008-10.578-1.277-4.026-5.062-6.878-9.29-6.983-4.246-.106-8.186 2.587-9.641 6.571-1.575 4.31.077 9.162 3.84 11.738z"/></svg>