<svg id="Capa_1" enable-background="new 0 0 512 512" height="512" viewBox="0 0 512 512" width="512" xmlns="http://www.w3.org/2000/svg"><path d="m381 512h-360c-8.284 0-15-6.716-15-15v-482c0-8.284 6.716-15 15-15h360c8.284 0 15 6.716 15 15v482c0 8.284-6.716 15-15 15z" fill="#e3f5ff"/><path d="m381 0h-180v512h180c8.284 0 15-6.716 15-15v-482c0-8.284-6.716-15-15-15z" fill="#c6e1f5"/><g fill="#6e7382"><path d="m321 330h-240c-8.284 0-15-6.716-15-15s6.716-15 15-15h240c8.284 0 15 6.716 15 15s-6.716 15-15 15z"/><path d="m321 390h-240c-8.284 0-15-6.716-15-15s6.716-15 15-15h240c8.284 0 15 6.716 15 15s-6.716 15-15 15z"/><path d="m201 450h-120c-8.284 0-15-6.716-15-15s6.716-15 15-15h120c8.284 0 15 6.716 15 15s-6.716 15-15 15z"/></g><path d="m221 270h-140c-8.284 0-15-6.716-15-15v-20c0-46.869 38.131-85 85-85s85 38.131 85 85v20c0 8.284-6.716 15-15 15z" fill="#6496f7"/><path d="m201 166.322v103.678h20c8.284 0 15-6.716 15-15v-20c0-28.191-13.806-53.206-35-68.678z" fill="#507be9"/><path d="m321 300h-120v30h120c8.284 0 15-6.716 15-15s-6.716-15-15-15z" fill="#4f5561"/><path d="m321 360h-120v30h120c8.284 0 15-6.716 15-15s-6.716-15-15-15z" fill="#4f5561"/><path d="m216 435c0-8.284-6.716-15-15-15v30c8.284 0 15-6.716 15-15z" fill="#4f5561"/><circle cx="381" cy="165" fill="#ffee78" r="110"/><path d="m491 165c0-60.751-49.249-110-110-110v220c60.751 0 110-49.249 110-110z" fill="#fcd232"/><path d="m381 290c-68.925 0-125-56.075-125-125s56.075-125 125-125 125 56.075 125 125-56.075 125-125 125zm0-220c-52.383 0-95 42.617-95 95s42.617 95 95 95 95-42.617 95-95-42.617-95-95-95z" fill="#fcd232"/><path d="m476 165c0 52.383-42.617 95-95 95v30c68.925 0 125-56.075 125-125s-56.075-125-125-125v30c52.383 0 95 42.617 95 95z" fill="#f7b90f"/><path d="m421 190c0-22.056-17.944-40-40-40-5.514 0-10-4.486-10-10s4.486-10 10-10c4.736 0 8.856 3.358 9.796 7.985 1.649 8.119 9.57 13.36 17.686 11.715 8.118-1.649 13.363-9.567 11.715-17.686-2.721-13.396-12.075-24.137-24.196-29.073v-2.941c0-8.284-6.716-15-15-15s-15 6.716-15 15v2.929c-14.643 5.947-25 20.318-25 37.071 0 22.056 17.944 40 40 40 5.514 0 10 4.486 10 10s-4.486 10-10 10c-4.736 0-8.856-3.358-9.796-7.985-1.648-8.119-9.566-13.361-17.686-11.714-8.118 1.648-13.363 9.566-11.715 17.685 2.721 13.396 12.075 24.137 24.196 29.073v2.941c0 8.284 6.716 15 15 15s15-6.716 15-15v-2.929c14.643-5.947 25-20.318 25-37.071z" fill="#fcd232"/><path d="m381 150v30c5.514 0 10 4.486 10 10s-4.486 10-10 10v45c8.284 0 15-6.716 15-15v-2.929c14.643-5.947 25-20.318 25-37.071 0-22.056-17.944-40-40-40z" fill="#f7b90f"/><path d="m390.796 137.985c1.649 8.119 9.57 13.36 17.686 11.715 8.118-1.649 13.363-9.567 11.715-17.686-2.721-13.396-12.075-24.137-24.196-29.073v-2.941c0-8.284-6.716-15-15-15v45c4.735 0 8.855 3.358 9.795 7.985z" fill="#f7b90f"/><path d="m151 180c-33.084 0-60-26.916-60-60s26.916-60 60-60 60 26.916 60 60-26.916 60-60 60z" fill="#ffd2aa"/><path d="m201 153.116c6.312-9.498 10-20.883 10-33.116s-3.688-23.619-10-33.116z" fill="#fabe8c"/></svg>