<?xml version="1.0" encoding="iso-8859-1"?>
<!-- Generator: Adobe Illustrator 19.0.0, SVG Export Plug-In . SVG Version: 6.00 Build 0)  -->
<svg version="1.1" id="Capa_1" xmlns="http://www.w3.org/2000/svg" xmlns:xlink="http://www.w3.org/1999/xlink" x="0px" y="0px"
	 viewBox="0 0 455.111 455.111" style="enable-background:new 0 0 455.111 455.111;" xml:space="preserve">
<path style="fill:#E24C4B;" d="M227.556,0C102.4,0,0,102.4,0,227.556s102.4,227.556,227.556,227.556s227.556-102.4,227.556-227.556
	S352.711,0,227.556,0z M227.556,412.444c-102.4,0-184.889-82.489-184.889-184.889S125.156,42.667,227.556,42.667
	s184.889,82.489,184.889,184.889S329.956,412.444,227.556,412.444z"/>
<path style="fill:#3F4448;" d="M183.467,183.467c5.689,7.111,5.689,22.756,5.689,22.756c0,15.644,18.489,24.178,41.244,24.178
	s41.244-8.533,41.244-24.178c0,0,0-15.644,5.689-22.756l0,0l0,0c-4.267,1.422-5.689,1.422-8.533,1.422c0,0-9.956,1.422-15.644,7.111
	c-2.844,2.844-7.111,4.267-11.378,4.267h-25.6c-4.267,0-8.533-1.422-11.378-4.267c-4.267-5.689-15.644-7.111-15.644-7.111
	C187.733,184.889,186.311,184.889,183.467,183.467L183.467,183.467z"/>
<path style="fill:#FFFFFF;" d="M230.4,230.4c-25.6,0-42.667-9.956-42.667-25.6c0,0,0-14.222-4.267-21.333l0,0
	c0-1.422,0-1.422,0-2.844c0,0,1.422,0,2.844,0c1.422,1.422,4.267,1.422,5.689,1.422c0,0,11.378,1.422,17.067,8.533
	c1.422,2.844,5.689,4.267,9.956,4.267h22.756c4.267,0,7.111-1.422,9.956-4.267c5.689-7.111,15.644-8.533,17.067-8.533
	c2.844,0,4.267,0,7.111-1.422c0,0,1.422,0,2.844,0c1.422,0,1.422,1.422,0,2.844l0,0l0,0c-4.267,4.267-4.267,17.067-4.267,21.333
	C273.067,220.444,256,230.4,230.4,230.4z M187.733,186.311c2.844,7.111,2.844,18.489,2.844,18.489
	c0,15.644,21.333,21.333,38.4,21.333c18.489,0,38.4-5.689,38.4-21.333c0,0,0-11.378,2.844-18.489c-1.422,0-1.422,0-2.844,0
	c0,0-8.533,1.422-14.222,5.689c-1.422,4.267-5.689,7.111-11.378,7.111h-25.6c-5.689,0-9.956-1.422-12.8-5.689
	c-4.267-5.689-14.222-5.689-14.222-5.689C190.578,186.311,189.156,186.311,187.733,186.311z"/>
<path id="SVGCleanerId_0" style="fill:#FFFFFF;" d="M230.4,216.178c-24.178,0-28.444-8.533-28.444-15.644
	c0-2.844,0-9.956-2.844-12.8c0,0,0,0,0-1.422c0-1.422,0-1.422,1.422-2.844h1.422c2.844,1.422,5.689,2.844,7.111,5.689
	c1.422,2.844,5.689,4.267,9.956,4.267h22.756c4.267,0,7.111-1.422,9.956-4.267c1.422-2.844,4.267-4.267,7.111-5.689
	c1.422,0,1.422,0,2.844,0c1.422,1.422,1.422,1.422,0,2.844c-2.844,2.844-2.844,9.956-2.844,12.8
	C258.844,207.644,253.156,216.178,230.4,216.178z M204.8,193.422c1.422,4.267,1.422,7.111,1.422,8.533
	c0,8.533,12.8,11.378,24.178,11.378c11.378,0,24.178-1.422,24.178-11.378c0,0,0-4.267,1.422-8.533l0,0
	c-4.267,2.844-8.533,5.689-14.222,5.689h-25.6C211.911,199.111,207.644,196.267,204.8,193.422L204.8,193.422z"/>
<g>
	<path id="SVGCleanerId_0_1_" style="fill:#FFFFFF;" d="M230.4,216.178c-24.178,0-28.444-8.533-28.444-15.644
		c0-2.844,0-9.956-2.844-12.8c0,0,0,0,0-1.422c0-1.422,0-1.422,1.422-2.844h1.422c2.844,1.422,5.689,2.844,7.111,5.689
		c1.422,2.844,5.689,4.267,9.956,4.267h22.756c4.267,0,7.111-1.422,9.956-4.267c1.422-2.844,4.267-4.267,7.111-5.689
		c1.422,0,1.422,0,2.844,0c1.422,1.422,1.422,1.422,0,2.844c-2.844,2.844-2.844,9.956-2.844,12.8
		C258.844,207.644,253.156,216.178,230.4,216.178z M204.8,193.422c1.422,4.267,1.422,7.111,1.422,8.533
		c0,8.533,12.8,11.378,24.178,11.378c11.378,0,24.178-1.422,24.178-11.378c0,0,0-4.267,1.422-8.533l0,0
		c-4.267,2.844-8.533,5.689-14.222,5.689h-25.6C211.911,199.111,207.644,196.267,204.8,193.422L204.8,193.422z"/>
</g>
<g>
	<path style="fill:#3F4448;" d="M295.822,116.622c0,29.867-29.867,54.044-66.844,54.044s-66.844-24.178-66.844-54.044
		S192,69.689,228.978,69.689C265.956,69.689,295.822,86.756,295.822,116.622z"/>
	<path style="fill:#3F4448;" d="M285.867,110.933L285.867,110.933c2.844,9.956,1.422,18.489-2.844,27.022
		c-2.844,4.267-5.689,12.8-2.844,19.911c0,0,11.378,25.6-11.378,27.022c0,0-9.956,1.422-15.644,7.111
		c-2.844,2.844-7.111,4.267-11.378,4.267h-25.6c-4.267,0-8.533-1.422-11.378-4.267c-4.267-5.689-15.644-7.111-15.644-7.111
		c-21.333-1.422-11.378-27.022-11.378-27.022c2.844-8.533,0-15.644-2.844-19.911c-4.267-8.533-5.689-18.489-4.267-27.022l0,0"/>
</g>
<g>
	<path style="fill:#FFFFFF;" d="M241.778,199.111h-25.6c-5.689,0-9.956-1.422-12.8-5.689c-4.267-5.689-14.222-5.689-14.222-5.689
		c-5.689,0-9.956-2.844-12.8-5.689c-5.689-8.533,0-21.333,0-22.756c2.844-7.111,0-14.222-2.844-18.489
		c-4.267-8.533-5.689-18.489-4.267-28.444l0,0c0-1.422,1.422-1.422,2.844-1.422c1.422,0,1.422,1.422,1.422,2.844l0,0
		c-1.422,8.533-1.422,17.067,2.844,25.6c2.844,5.689,5.689,14.222,2.844,22.756l0,0c0,0-5.689,12.8-1.422,19.911
		c1.422,2.844,5.689,4.267,9.956,4.267c0,0,11.378,1.422,17.067,8.533c1.422,2.844,5.689,4.267,9.956,4.267H241.778
		c4.267,0,7.111-1.422,9.956-4.267c5.689-7.111,15.644-8.533,17.067-8.533c4.267,0,8.533-1.422,9.956-4.267
		c4.267-5.689,0-15.644-1.422-19.911l0,0c-2.844-8.533,0-17.067,2.844-22.756c4.267-7.111,5.689-17.067,2.844-25.6l0,0
		c0-1.422,0-2.844,1.422-2.844c1.422,0,2.844,0,2.844,1.422l0,0c2.844,9.956,1.422,19.911-4.267,28.444
		c-2.844,4.267-5.689,11.378-2.844,18.489c0,1.422,5.689,14.222,0,22.756c-2.844,4.267-7.111,5.689-12.8,5.689
		c0,0-8.533,1.422-14.222,5.689C251.733,196.267,247.467,199.111,241.778,199.111z"/>
	<path style="fill:#FFFFFF;" d="M263.111,126.578c5.689,5.689,5.689,12.8,0,18.489c-5.689,5.689-12.8,5.689-18.489,0
		c-5.689-5.689-9.956-18.489-4.267-22.756C244.622,118.044,257.422,122.311,263.111,126.578z"/>
	<path style="fill:#FFFFFF;" d="M196.267,126.578c-5.689,5.689-5.689,12.8,0,18.489c5.689,5.689,12.8,5.689,18.489,0
		c5.689-5.689,9.956-18.489,4.267-22.756C213.333,118.044,200.533,122.311,196.267,126.578z"/>
	<path style="fill:#FFFFFF;" d="M228.978,152.178c-4.267,2.844-9.956,11.378-9.956,17.067c-1.422,5.689,1.422,9.956,7.111,9.956
		c1.422,0,4.267-1.422,4.267-5.689v-21.333H228.978z"/>
	<path style="fill:#FFFFFF;" d="M231.822,152.178c4.267,2.844,9.956,11.378,9.956,17.067c1.422,5.689-1.422,9.956-7.111,9.956
		c-1.422,0-4.267-1.422-4.267-5.689v-21.333H231.822z"/>
	<path style="fill:#FFFFFF;" d="M251.733,194.844v15.644c0,1.422-1.422,1.422-1.422,1.422c-1.422,0-1.422-1.422-1.422-1.422V204.8
		c-1.422,0-1.422,1.422-2.844,1.422v7.111c0,1.422-1.422,1.422-1.422,1.422c-2.844,0-2.844,0-2.844-1.422v-5.689
		c-1.422,0-2.844,0-4.267,0v5.689c0,1.422-1.422,1.422-1.422,1.422c-1.422,0-1.422-1.422-1.422-1.422v-5.689
		c-1.422,0-1.422,0-2.844,0c-1.422,0-1.422,0-2.844,0v5.689c0,1.422-1.422,1.422-1.422,1.422c-1.422,0-1.422-1.422-1.422-1.422
		v-5.689c-1.422,0-2.844,0-4.267,0v5.689c0,1.422-1.422,1.422-1.422,1.422c-1.422,0-1.422-1.422-1.422-1.422v-7.111
		c-1.422,0-2.844,0-2.844-1.422v5.689c0,1.422-1.422,1.422-1.422,1.422c-1.422,0-1.422-1.422-1.422-1.422v-15.644
		c0-1.422,1.422-1.422,1.422-1.422c1.422,0,1.422,1.422,1.422,1.422v5.689c1.422,0,1.422,1.422,2.844,1.422v-5.689
		c0-1.422,1.422-1.422,1.422-1.422c1.422,0,1.422,1.422,1.422,1.422v5.689c1.422,0,2.844,0,4.267,0v-7.111
		c0-1.422,1.422-1.422,1.422-1.422c1.422,0,1.422,1.422,1.422,1.422v7.111c1.422,0,1.422,0,2.844,0c1.422,0,1.422,0,2.844,0v-7.111
		c0-1.422,1.422-1.422,1.422-1.422c1.422,0,1.422,1.422,1.422,1.422v7.111c1.422,0,2.844,0,4.267,0v-5.689
		c0-1.422,1.422-1.422,1.422-1.422c1.422,0,1.422,1.422,1.422,1.422v5.689c1.422,0,2.844-1.422,2.844-1.422v-5.689
		c0-1.422,1.422-1.422,1.422-1.422C251.733,193.422,251.733,193.422,251.733,194.844z"/>
</g>
<path style="fill:#3F4448;" d="M318.578,342.756c-1.422,0-4.267,0-5.689-1.422c-7.111-2.844-11.378-11.378-8.533-19.911l1.422-4.267
	l-78.222-31.289l-78.222,32.711l1.422,4.267c2.844,7.111,0,15.644-8.533,19.911c-1.422,1.422-4.267,1.422-5.689,1.422
	c-5.689,0-11.378-4.267-14.222-9.956c-1.422-4.267-1.422-9.956,1.422-14.222l2.844-4.267l-5.689-2.844
	c-4.267-1.422-8.533-4.267-11.378-8.533c-1.422-4.267-1.422-8.533,0-11.378c1.422-4.267,4.267-7.111,8.533-8.533
	c1.422-1.422,4.267-1.422,5.689-1.422c5.689,0,11.378,2.844,14.222,8.533l1.422,4.267l55.467-22.756l-55.467-22.756l-1.422,4.267
	c-2.844,5.689-8.533,8.533-14.222,8.533c-1.422,0-4.267,0-5.689-1.422c-4.267-1.422-7.111-4.267-8.533-8.533
	c-1.422-4.267-1.422-8.533,0-11.378c1.422-4.267,5.689-8.533,11.378-8.533l5.689-1.422l-2.844-4.267
	c-2.844-4.267-2.844-9.956-1.422-14.222c2.844-5.689,8.533-9.956,14.222-9.956c1.422,0,4.267,0,5.689,1.422
	c7.111,2.844,11.378,11.378,8.533,19.911l-1.422,4.267l78.222,32.711l78.222-32.711l-1.422-4.267
	c-2.844-7.111,1.422-15.644,8.533-19.911c1.422-1.422,4.267-1.422,5.689-1.422c5.689,0,11.378,4.267,14.222,9.956
	c1.422,4.267,1.422,9.956-1.422,14.222l-2.844,4.267l5.689,1.422c4.267,1.422,8.533,4.267,11.378,8.533
	c1.422,4.267,1.422,8.533,0,11.378c-1.422,4.267-4.267,7.111-8.533,8.533c-1.422,1.422-4.267,1.422-5.689,1.422
	c-5.689,0-11.378-2.844-14.222-8.533l-1.422-4.267l-55.467,22.756l55.467,22.756l1.422-4.267c2.844-5.689,8.533-8.533,14.222-8.533
	c1.422,0,4.267,0,5.689,1.422c4.267,1.422,7.111,4.267,8.533,8.533c1.422,4.267,1.422,8.533,0,11.378
	c-1.422,4.267-5.689,8.533-11.378,8.533l-5.689,1.422l2.844,4.267c2.844,4.267,2.844,9.956,1.422,14.222
	C329.956,338.489,324.267,342.756,318.578,342.756z"/>
<g>
</g>
<g>
</g>
<g>
</g>
<g>
</g>
<g>
</g>
<g>
</g>
<g>
</g>
<g>
</g>
<g>
</g>
<g>
</g>
<g>
</g>
<g>
</g>
<g>
</g>
<g>
</g>
<g>
</g>
</svg>
