<svg height="512pt" viewBox="-66 0 512 512" width="512pt" xmlns="http://www.w3.org/2000/svg"><path d="m296.257812 512h-212.644531c-34.207031 0-61.9375-27.730469-61.9375-61.933594v-334.453125h336.515625v334.453125c0 34.203125-27.726562 61.933594-61.933594 61.933594zm0 0" fill="#d8d8d8"/><path d="m21.675781 115.613281v24.773438h289.035157c11.398437 0 20.644531 9.242187 20.644531 20.644531v282.839844c0 22.804687-18.488281 41.289062-41.292969 41.289062h-233.289062c-10.183594 0-19.789063-2.472656-28.265626-6.832031 10.273438 19.988281 31.085938 33.671875 55.105469 33.671875h212.644531c34.207032 0 61.933594-27.730469 61.933594-61.9375v-334.449219zm0 0" fill="#bababa"/><path d="m359.226562 45.417969h-90.183593l-14.863281-29.726563c-4.839844-9.679687-14.570313-15.691406-25.390626-15.691406h-77.707031c-10.824219 0-20.550781 6.011719-25.390625 15.691406l-14.863281 29.726563h-90.183594c-11.402343 0-20.644531 9.242187-20.644531 20.644531v28.90625c0 11.398438 9.242188 20.644531 20.644531 20.644531h338.582031c11.402344 0 20.644532-9.246093 20.644532-20.644531v-28.902344c0-11.40625-9.242188-20.648437-20.644532-20.648437zm-219.6875-22.800781c2.199219-4.402344 6.621094-7.132813 11.542969-7.132813h77.707031c4.917969 0 9.339844 2.730469 11.539063 7.132813l11.402344 22.800781h-123.589844zm0 0" fill="#757575"/><path d="m359.226562 45.417969h-33.035156c11.402344 0 20.648438 9.242187 20.648438 20.644531v28.90625c0 11.398438-9.246094 20.644531-20.648438 20.644531h33.035156c11.402344 0 20.644532-9.246093 20.644532-20.644531v-28.902344c0-11.40625-9.242188-20.648437-20.644532-20.648437zm0 0" fill="#595959"/><g fill="#757575"><path d="m284.902344 448c-11.402344 0-20.644532-9.242188-20.644532-20.644531v-193.03125c0-11.402344 9.242188-20.644531 20.644532-20.644531s20.644531 9.242187 20.644531 20.644531v193.03125c0 11.402343-9.242187 20.644531-20.644531 20.644531zm0 0"/><path d="m94.96875 448c11.398438 0 20.644531-9.242188 20.644531-20.644531v-193.03125c0-11.402344-9.246093-20.644531-20.644531-20.644531-11.402344 0-20.648438 9.242187-20.648438 20.644531v193.03125c0 11.402343 9.246094 20.644531 20.648438 20.644531zm0 0"/><path d="m189.933594 448c-11.402344 0-20.644532-9.242188-20.644532-20.644531v-193.03125c0-11.402344 9.242188-20.644531 20.644532-20.644531s20.644531 9.242187 20.644531 20.644531v193.03125c0 11.402343-9.242187 20.644531-20.644531 20.644531zm0 0"/></g></svg>