<svg height="512pt" viewBox="-95 0 512 512.00017" width="512pt" xmlns="http://www.w3.org/2000/svg"><path d="m124.039062 511.527344c-13.453124-2.160156-22.609374-14.8125-20.449218-28.265625l17.191406-107.144531-24.023438-95.75c-3.3125-13.214844 4.710938-26.613282 17.925782-29.929688s26.613281 4.710938 29.929687 17.925781l25.253907 100.660157c.8125 3.242187.960937 6.613281.429687 9.910156l-17.996094 112.144531c-2.15625 13.449219-14.8125 22.609375-28.261719 20.449219zm0 0" fill="#414b82"/><path d="m13.519531 509.332031c-12.148437-6.160156-17.007812-21.003906-10.847656-33.15625l51.992187-102.578125-13.714843-70.710937c-2.59375-13.375 6.148437-26.316407 19.523437-28.910157 13.378906-2.597656 26.320313 6.144532 28.910156 19.519532l15.324219 79.011718c1.042969 5.382813.265625 10.957032-2.210937 15.847657l-55.820313 110.125c-6.175781 12.183593-21.03125 16.996093-33.15625 10.851562zm0 0" fill="#5f6e9b"/><path d="m145.660156 178.875-67.160156-24.863281c-10.921875-4.042969-16.496094-16.175781-12.453125-27.097657 4.042969-10.921874 16.171875-16.5 27.097656-12.457031l61.042969 22.601563 71.328125-17.832032c11.300781-2.824218 22.75 4.042969 25.574219 15.34375 2.824218 11.300782-4.042969 22.75-15.34375 25.574219l-77.652344 19.410157c-4.117188 1.03125-8.449219.792968-12.433594-.679688zm0 0" fill="#ffb69e"/><path d="m151.539062 295.753906h-110.910156v-161.773437c0-15.988281 12.960938-28.949219 28.949219-28.949219h53.011719c15.988281 0 28.949218 12.960938 28.949218 28.949219zm0 0" fill="#55c7a6"/><path d="m306.082031 230.386719h-122.988281c-8.601562 0-15.574219-6.96875-15.574219-15.570313v-102.539062c0-8.601563 6.972657-15.570313 15.574219-15.570313h122.988281c8.597657 0 15.570313 6.96875 15.570313 15.570313v102.539062c0 8.601563-6.972656 15.570313-15.570313 15.570313zm0 0" fill="#965028"/><path d="m303.101562 189.757812-17.632812-17.632812c-1.316406-1.316406-3.449219-1.316406-4.765625 0l-17.632813 17.632812c-2.121093 2.125-.621093 5.75 2.382813 5.75h.851563c1.863281 0 3.371093 1.507813 3.371093 3.371094v28.140625c0 1.863281 1.507813 3.371094 3.367188 3.371094h20.085937c1.859375 0 3.367188-1.507813 3.367188-3.371094v-28.140625c0-1.863281 1.507812-3.371094 3.367187-3.371094h.855469c3 0 4.503906-3.625 2.382812-5.75zm0 0" fill="#fa503c"/><path d="m148.910156 44.039062c0 24.316407-19.714844 44.03125-44.03125 44.03125s-44.027344-19.714843-44.027344-44.03125c0-24.316406 19.710938-44.0273432 44.027344-44.0273432s44.03125 19.7109372 44.03125 44.0273432zm0 0" fill="#ffb69e"/><path d="m148.863281 46.136719c.3125-6.527344-.816406-13.222657-3.59375-19.621094-9.675781-22.304687-35.605469-32.546875-57.914062-22.867187-17.273438 7.496093-27.300781 24.734374-26.457031 42.488281zm0 0" fill="#fa503c"/><path d="m174.652344 46.308594-59.5625-.171875c.050781-11.734375 9.605468-21.210938 21.339844-21.160157l38.3125.164063c5.847656.023437 10.5625 4.785156 10.539062 10.628906-.027344 5.84375-4.785156 10.5625-10.628906 10.539063zm0 0" fill="#e83e29"/><path d="m199.589844 258.128906-71.746094-35.484375c-3.007812-1.488281-5.617188-3.671875-7.613281-6.367187l-51.367188-69.507813c-6.921875-9.367187-4.941406-22.570312 4.425781-29.492187 9.367188-6.921875 22.570313-4.941406 29.492188 4.425781l48.335938 65.398437 67.167968 33.222657c10.4375 5.164062 14.71875 17.808593 9.554688 28.25-5.136719 10.386719-17.765625 14.742187-28.25 9.554687zm0 0" fill="#ffb69e"/><path d="m130.128906 158.707031-27.347656-37.003906c-6.921875-9.367187-20.125-11.347656-29.492188-4.425781-9.367187 6.921875-11.347656 20.125-4.425781 29.492187 9.054688 12.253907 18.097657 24.488281 27.21875 36.832031zm0 0" fill="#39ae96"/></svg>