<?xml version="1.0" encoding="iso-8859-1"?>
<!-- Generator: Adobe Illustrator 19.0.0, SVG Export Plug-In . SVG Version: 6.00 Build 0)  -->
<svg version="1.1" id="Capa_1" xmlns="http://www.w3.org/2000/svg" xmlns:xlink="http://www.w3.org/1999/xlink" x="0px" y="0px"
	 viewBox="0 0 464 464" style="enable-background:new 0 0 464 464;" xml:space="preserve">
<g>
	<polygon style="fill:#E9ECCF;" points="176,0 192,32 232,32 232,0 	"/>
	<polygon style="fill:#E9ECCF;" points="231.279,48 232,48 232,32 	"/>
</g>
<g>
	<polygon style="fill:#DADDA4;" points="288,0 232,0 232,32 232,48 264,48 	"/>
	<path style="fill:#DADDA4;" d="M314.56,200.64L272,152h-40v208h66.64c3.04-2.24,6-4.8,8.8-7.44
		C350.24,312,353.36,244.96,314.56,200.64z"/>
</g>
<path style="fill:#E9ECCF;" d="M192,152l-42.56,48.64c-18.16,20.8-27.2,46.56-27.2,72.24c0,29.12,11.6,58.16,34.32,79.68
	c11.28,10.64,24.16,18.48,37.92,23.44H232v-16V152H192z"/>
<polygon style="fill:#D89868;" points="312,408 216,424 120,360 120,376 216,448 288,432 304,448 326.154,422.154 "/>
<polygon style="fill:#DFB28B;" points="312,408 326.154,422.154 352,392 320,360 232,360 232,376 192,376 152,360 120,360 216,424 
	"/>
<polygon style="fill:#FBF7ED;" points="342.588,438.588 368.941,408.941 352,392 326.154,422.154 "/>
<polygon style="fill:#E5E2D8;" points="326.154,422.154 304,448 320,464 342.588,438.588 "/>
<polygon style="fill:#A8C8CC;" points="320,464 368,464 342.588,438.588 "/>
<polygon style="fill:#BADDE2;" points="368.941,408.941 342.588,438.588 368,464 424,464 "/>
<g>
	<path style="fill:#76B82B;" d="M232,200c13.234,0,24,10.766,24,24h16c0-19.315-13.766-35.474-32-39.191V168h-16v16.809
		c-18.234,3.717-32,19.876-32,39.191c0,22.055,17.945,40,40,40c13.234,0,24,10.766,24,24s-10.766,24-24,24s-24-10.766-24-24h-16
		c0,19.315,13.766,35.474,32,39.191V344h16v-16.809c18.234-3.717,32-19.876,32-39.191c0-22.055-17.945-40-40-40
		c-13.234,0-24-10.766-24-24S218.766,200,232,200z"/>
	<rect x="160" y="248" style="fill:#76B82B;" width="16" height="16"/>
	<rect x="288" y="248" style="fill:#76B82B;" width="16" height="16"/>
</g>
<path style="fill:#D89868;" d="M264,400h-24c-13.234,0-24-10.766-24-24h16c0,4.414,3.586,8,8,8h24V400z"/>
<polygon style="fill:#DFB28B;" points="272,112 272,48 231.279,48 232,32 192,32 160,64 136,64 136,112 "/>
<polygon style="fill:#D89868;" points="272,48 272,112 136,112 136,152 296,152 296,48 "/>
<rect x="88" y="64" style="fill:#FBF7ED;" width="48" height="48"/>
<rect x="88" y="112" style="fill:#E5E2D8;" width="48" height="40"/>
<rect x="40" y="64" style="fill:#BADDE2;" width="48" height="48"/>
<rect x="40" y="112" style="fill:#A8C8CC;" width="48" height="40"/>
</svg>
