<svg height="480pt" viewBox="0 0 480 480" width="480pt" xmlns="http://www.w3.org/2000/svg"><path d="m8 96h432v336h-432zm0 0" fill="#ffeb99"/><path d="m440 48v48h-432v-48c.027344-8.824219 7.175781-15.972656 16-16h400c8.824219.027344 15.972656 7.175781 16 16zm0 0" fill="#ff6243"/><path d="m104 32v16c-.027344 8.824219-7.175781 15.972656-16 16h-16c-8.824219-.027344-15.972656-7.175781-16-16v-24c.027344-8.824219 7.175781-15.972656 16-16h16c8.824219.027344 15.972656 7.175781 16 16zm0 0" fill="#a78966"/><path d="m392 32v16c-.027344 8.824219-7.175781 15.972656-16 16h-16c-8.824219-.027344-15.972656-7.175781-16-16v-24c.027344-8.824219 7.175781-15.972656 16-16h16c8.824219.027344 15.972656 7.175781 16 16zm0 0" fill="#a78966"/><path d="m384 342.800781v25.199219h-32v-25.199219c10.605469 1.597657 21.394531 1.597657 32 0zm0 0" fill="#898890"/><path d="m392 432v16c0 13.253906-10.746094 24-24 24s-24-10.746094-24-24v-80h48zm0 0" fill="#a78966"/><path d="m440 314.960938c-15.355469 14.824218-34.910156 24.546874-56 27.839843-10.605469 1.597657-21.394531 1.597657-32 0-2.480469-.402343-4.960938-.878906-7.359375-1.441406-46.480469-10.636719-79.792969-51.488281-80.867187-99.15625-1.074219-47.667969 30.367187-89.976563 76.316406-102.699219 45.953125-12.722656 94.675781 7.394532 118.269531 48.828125 23.59375 41.433594 16.03125 93.601563-18.359375 126.628907zm0 0" fill="#78b9eb"/><path d="m480 240c.003906-29.265625-11.488281-57.359375-32-78.230469v-113.769531c0-13.253906-10.746094-24-24-24h-24c0-13.253906-10.746094-24-24-24h-16c-13.253906 0-24 10.746094-24 24h-224c0-13.253906-10.746094-24-24-24h-16c-13.253906 0-24 10.746094-24 24h-24c-13.253906 0-24 10.746094-24 24v384c0 4.417969 3.582031 8 8 8h328v8c0 17.671875 14.328125 32 32 32s32-14.328125 32-32v-8h40c4.417969 0 8-3.582031 8-8v-113.769531c20.511719-20.871094 32.003906-48.964844 32-78.230469zm-112 96c-53.019531 0-96-42.980469-96-96s42.980469-96 96-96 96 42.980469 96 96c-.058594 52.996094-43.003906 95.941406-96 96zm-8 15.59375c2.65625.191406 5.296875.40625 8 .40625s5.34375-.214844 8-.40625v8.40625h-16zm-49.390625-15.59375h-54.609375c-4.417969 0-8-3.582031-8-8v-128c0-4.417969 3.582031-8 8-8h10.960938c-24.976563 52.058594-6.027344 114.570312 43.648437 144zm41.390625-312c0-4.417969 3.582031-8 8-8h16c4.417969 0 8 3.582031 8 8v24c0 4.417969-3.582031 8-8 8h-16c-4.417969 0-8-3.582031-8-8zm-288 0c0-4.417969 3.582031-8 8-8h16c4.417969 0 8 3.582031 8 8v24c0 4.417969-3.582031 8-8 8h-16c-4.417969 0-8-3.582031-8-8zm-48 24c0-4.417969 3.582031-8 8-8h24v8c0 13.253906 10.746094 24 24 24h16c13.253906 0 24-10.746094 24-24v-8h224v8c0 13.253906 10.746094 24 24 24h16c13.253906 0 24-10.746094 24-24v-8h24c4.417969 0 8 3.582031 8 8v40h-416zm0 376v-320h416v44.214844c-24.320312-17.042969-54.429688-23.695313-83.664062-18.480469-29.238282 5.214844-55.191407 21.863281-72.121094 46.265625h-20.214844c-13.253906 0-24 10.746094-24 24v128c0 13.253906 10.746094 24 24 24h88v8c-4.417969 0-8 3.582031-8 8v56zm368 24c0 8.835938-7.164062 16-16 16s-16-7.164062-16-16v-72h32zm16-24v-56c0-4.417969-3.582031-8-8-8v-10.65625c14.363281-3.167969 27.960938-9.148438 40-17.601562v92.257812zm0 0"/><path d="m288 240c.046875 44.164062 35.835938 79.953125 80 80v-16c-35.347656 0-64-28.652344-64-64s28.652344-64 64-64v-16c-44.164062.046875-79.953125 35.835938-80 80zm0 0"/><path d="m184 176h-80v16h80c4.417969 0 8 3.582031 8 8v56h-64v16h64v56c0 4.417969-3.582031 8-8 8h-80v16h80c13.253906 0 24-10.746094 24-24v-128c0-13.253906-10.746094-24-24-24zm0 0"/></svg>