<svg height="512pt" viewBox="-9 0 511 512" width="512pt" xmlns="http://www.w3.org/2000/svg"><path d="m411.371094 257c0-90.90625-73.957032-164.867188-164.863282-164.867188-52.878906 0-101.242187 25.242188-131.886718 66.039063l-32.976563 98.828125c0 90.90625 73.957031 164.863281 164.863281 164.863281 52.882813 0 101.246094-25.238281 131.886719-66.035156zm0 0" fill="#ffda2d"/><path d="m246.507812 92.132812v329.730469c52.882813 0 101.246094-25.238281 131.886719-66.035156l32.976563-98.828125c0-90.90625-73.957032-164.867188-164.863282-164.867188zm0 0" fill="#fdbf00"/><path d="m291.472656 286.972656c0 19.535156-12.53125 36.203125-29.976562 42.386719v31.355469h-29.976563v-31.355469c-17.445312-6.183594-29.972656-22.851563-29.972656-42.386719h29.972656c0 8.265625 6.726563 14.988282 14.988281 14.988282 8.261719 0 14.988282-6.722657 14.988282-14.988282 0-8.261718-6.726563-14.984375-14.988282-14.984375-24.789062 0-44.960937-20.175781-44.960937-44.964843 0-19.535157 12.527344-36.199219 29.972656-42.386719v-31.550781h29.976563v31.550781c17.445312 6.1875 29.976562 22.851562 29.976562 42.386719h-29.976562c0-8.261719-6.726563-14.988282-14.988282-14.988282-8.261718 0-14.988281 6.726563-14.988281 14.988282 0 8.261718 6.726563 14.988281 14.988281 14.988281 24.789063 0 44.964844 20.171875 44.964844 44.960937zm0 0" fill="#fdbf00"/><path d="m291.472656 286.972656c0 19.535156-12.53125 36.203125-29.976562 42.386719v31.355469h-14.988282v-58.753906c8.261719 0 14.988282-6.722657 14.988282-14.988282 0-8.261718-6.726563-14.984375-14.988282-14.984375v-29.976562c24.789063 0 44.964844 20.171875 44.964844 44.960937zm0 0" fill="#ff9100"/><path d="m246.507812 212.035156v-58.949218h14.988282v31.550781c17.445312 6.1875 29.976562 22.851562 29.976562 42.386719h-29.976562c0-8.261719-6.726563-14.988282-14.988282-14.988282zm0 0" fill="#ff9100"/><path d="m96.632812 0-96.132812 96.132812h51.167969v179.851563h89.925781v-179.851563h51.167969zm0 0" fill="#57d9ad"/><path d="m441.347656 415.867188v-179.851563h-89.925781v179.851563h-51.167969l96.132813 96.132812.148437-.148438 95.980469-95.984374zm0 0" fill="#ff637b"/><path d="m192.761719 96.132812h-51.167969v179.851563h-44.960938v-275.773437l.046876-.1601568zm0 0" fill="#26bfa6"/><path d="m492.515625 415.867188-95.980469 95.984374c-.101562-.042968-.148437-.0625-.148437-.0625v-275.773437h44.960937v179.851563zm0 0" fill="#e63950"/></svg>