<?xml version="1.0"?>
<svg xmlns="http://www.w3.org/2000/svg" height="512px" viewBox="0 0 512.00004 512.00004" width="512px" class=""><g><path d="m304.425781 331.957031h-97.429687v48.902344l-55.042969.121094 103.515625 131.019531 104.828125-131.019531-55.871094-.121094zm0 0" data-original="#000000" class="active-path" data-old_color="#000000" fill="#FFFFFF"/><path d="m206.996094 180.003906h97.429687v-48.863281l55.871094-.121094-104.828125-131.019531-103.515625 131.019531 55.042969.121094zm0 0" data-original="#000000" class="active-path" data-old_color="#000000" fill="#FFFFFF"/><path d="m380.980469 151.703125-.121094 55.871094h-48.882813v97.429687h48.882813l.121094 55.054688 131.019531-103.527344zm0 0" data-original="#000000" class="active-path" data-old_color="#000000" fill="#FFFFFF"/><path d="m180.023438 207.574219h-48.882813l-.121094-55.871094-131.019531 104.828125 131.019531 103.527344.121094-55.054688h48.882813zm0 0" data-original="#000000" class="active-path" data-old_color="#000000" fill="#FFFFFF"/><path d="m210.015625 209.996094h91.96875v91.96875h-91.96875zm0 0" data-original="#000000" class="active-path" data-old_color="#000000" fill="#FFFFFF"/></g> </svg>
