<svg height="512" viewBox="0 0 64 64" width="512" xmlns="http://www.w3.org/2000/svg"><g id="Layer_19" data-name="Layer 19"><circle cx="17" cy="47" fill="#f2c351" r="15"/><circle cx="17" cy="47" fill="#f7d881" r="11"/><circle cx="47" cy="17" fill="#a0a8b2" r="15"/><path d="m40 8h14v18h-14z" fill="#ebf7fe"/><g fill="#c1c8d1"><path d="m43 12h8v2h-8z"/><path d="m43 16h8v2h-8z"/><path d="m43 20h8v2h-8z"/></g><path d="m17 46a2 2 0 1 1 2-2h2a4 4 0 0 0 -3-3.86v-2.14h-2v2.14a4 4 0 0 0 1 7.86 2 2 0 1 1 -2 2h-2a4 4 0 0 0 3 3.86v2.14h2v-2.14a4 4 0 0 0 -1-7.86z" fill="#fff"/><path d="m32 57v-2c.63 0 1.27 0 1.9-.08l.16 2c-.67.08-1.36.08-2.06.08zm4.11-.34-.32-2c.62-.11 1.25-.24 1.86-.39l.49 1.94c-.66.2-1.34.34-2.02.45zm4-1-.65-1.89q.9-.32 1.77-.69l.8 1.83c-.6.26-1.25.52-1.9.74zm3.8-1.66-.91-1.77c.55-.3 1.1-.63 1.63-1l1.09 1.68c-.61.39-1.21.75-1.81 1.09zm3.45-2.27-1.23-1.57c.5-.39 1-.81 1.45-1.23l1.36 1.47c-.51.45-1.04.9-1.58 1.32zm3-2.8-1.47-1.35c.43-.47.84-1 1.23-1.45l1.58 1.23c-.38.52-.83 1.06-1.3 1.56zm2.54-3.26-1.67-1.09c.34-.53.67-1.08 1-1.63l1.76 1c-.32.54-.67 1.14-1.05 1.71zm2-3.63-1.83-.81c.25-.57.48-1.17.69-1.77l1.89.65c-.22.64-.47 1.29-.74 1.89zm1.34-3.91-1.94-.49c.15-.61.28-1.23.38-1.86l2 .32c-.13.68-.27 1.36-.43 2.02zm.68-4.13-2-.16c0-.62.08-1.25.08-1.88h2c0 .72 0 1.41-.08 2.04z" fill="#a0a8b2"/><path d="m7 32c0-.68 0-1.37.08-2l2 .16c-.08.58-.08 1.21-.08 1.84zm2.31-3.79-2-.32c.12-.69.26-1.37.42-2l1.94.49c-.13.62-.26 1.22-.36 1.85zm.92-3.68-1.89-.63c.23-.65.48-1.3.75-1.93l1.83.81c-.25.57-.48 1.22-.69 1.77zm1.53-3.49-1.76-.93c.32-.59.68-1.19 1.06-1.77l1.67 1.09c-.34.57-.67 1.08-.97 1.63zm2.08-3.18-1.58-1.23c.43-.54.88-1.07 1.34-1.57l1.47 1.35c-.42.48-.84.97-1.23 1.47zm2.58-2.8-1.36-1.47c.5-.46 1-.91 1.58-1.33l1.23 1.57c-.5.41-.99.83-1.45 1.25zm3-2.33-1.09-1.68c.57-.37 1.17-.73 1.77-1.06l.9 1.78c-.51.3-1.06.63-1.59.98zm3.34-1.81-.76-1.82c.63-.27 1.27-.53 1.92-.75l.65 1.89c-.64.21-1.24.44-1.82.7zm3.58-1.22-.49-1.94c.67-.17 1.35-.31 2-.42l.32 2c-.59.08-1.17.21-1.83.36zm3.75-.62-.16-2c.68-.08 1.37-.08 2.07-.08v2c-.64 0-1.28 0-1.91.08z" fill="#a0a8b2"/></g></svg>