<?xml version="1.0"?>
<svg xmlns="http://www.w3.org/2000/svg" xmlns:xlink="http://www.w3.org/1999/xlink" version="1.1" id="Layer_1" x="0px" y="0px" viewBox="0 0 484.8 484.8" style="enable-background:new 0 0 484.8 484.8;" xml:space="preserve" width="512px" height="512px" class=""><g><circle style="fill:#1EB6DD" cx="242.4" cy="242.4" r="242.4" data-original="#0D9B79" class="active-path" data-old_color="#1DB6DD"/><path style="fill:#0091FF" d="M0,242.4C0,376,108,484,242.4,484C376,484,484,376,484,242.4" data-original="#056B5C" class="" data-old_color="#0089FF"/><polygon style="fill:#EBFFF6;" points="394.4,202.4 282.4,202.4 282.4,90.4 202.4,90.4 202.4,202.4 90.4,202.4 90.4,282.4   202.4,282.4 202.4,394.4 282.4,394.4 282.4,282.4 394.4,282.4 " data-original="#EBFFF6" class=""/><polygon style="fill:#D7EDF9" points="282.4,200.8 200.8,282.4 202.4,282.4 202.4,394.4 282.4,394.4 282.4,282.4 394.4,282.4   394.4,202.4 282.4,202.4 " data-original="#D6EAE0" class="" data-old_color="#D6ECF9"/></g> </svg>
