<?xml version="1.0" encoding="iso-8859-1"?>
<!-- Generator: Adobe Illustrator 19.0.0, SVG Export Plug-In . SVG Version: 6.00 Build 0)  -->
<svg version="1.1" id="Capa_1" xmlns="http://www.w3.org/2000/svg" xmlns:xlink="http://www.w3.org/1999/xlink" x="0px" y="0px"
	 viewBox="0 0 512 512" style="enable-background:new 0 0 512 512;" xml:space="preserve">
<polygon style="fill:#FFFFFF;" points="8,504 8,240 172.8,240 236.8,304 236.8,504 "/>
<polygon style="fill:#4FBF9F;" points="40,472 40,272 159.2,272 204.8,317.6 204.8,472 "/>
<polygon style="fill:#E1E6E9;" points="159.2,317.6 204.8,317.6 159.2,272 "/>
<g>
	<rect x="63.2" y="320" style="fill:#193651;" width="16" height="16"/>
	<rect x="95.2" y="320" style="fill:#193651;" width="16" height="16"/>
	<rect x="126.4" y="320" style="fill:#193651;" width="16" height="16"/>
	<rect x="64.8" y="414.4" style="fill:#193651;" width="115.2" height="16"/>
	<rect x="64.8" y="369.6" style="fill:#193651;" width="115.2" height="16"/>
</g>
<polygon style="fill:#FFFFFF;" points="504,272 504,8 339.2,8 275.2,72 275.2,272 "/>
<polygon style="fill:#FDBF5E;" points="472,240 472,40 352.8,40 307.2,85.6 307.2,240 "/>
<polygon style="fill:#E1E6E9;" points="352.8,85.6 307.2,85.6 352.8,40 "/>
<g>
	<rect x="432.8" y="88" style="fill:#193651;" width="16" height="16"/>
	<rect x="400.8" y="88" style="fill:#193651;" width="16" height="16"/>
	<rect x="369.6" y="88" style="fill:#193651;" width="16" height="16"/>
	<rect x="332" y="182.4" style="fill:#193651;" width="115.2" height="16"/>
	<rect x="332" y="137.6" style="fill:#193651;" width="115.2" height="16"/>
	<path style="fill:#193651;" d="M0,232v280h244.8V300L176,232H0z M228.8,496H16V248h153.6l60,59.2V496H228.8z"/>
	<path style="fill:#193651;" d="M336,0l-68.8,68.8V280H512V0H336z M496,264H283.2V75.2L342.4,16H496V264z"/>
	<path style="fill:#193651;" d="M430.4,378.4l11.2,11.2l18.4-18.4C449.6,441.6,388.8,496,316,496v16c83.2,0,152-63.2,160.8-144
		l21.6,21.6l11.2-11.2l-39.2-39.2L430.4,378.4z"/>
	<path style="fill:#193651;" d="M81.6,133.6l-11.2-11.2L52,140.8C61.6,70.4,122.4,16,196,16V0C112.8,0,44,63.2,35.2,144l-21.6-21.6
		L2.4,133.6l39.2,39.2L81.6,133.6z"/>
</g>
<g>
</g>
<g>
</g>
<g>
</g>
<g>
</g>
<g>
</g>
<g>
</g>
<g>
</g>
<g>
</g>
<g>
</g>
<g>
</g>
<g>
</g>
<g>
</g>
<g>
</g>
<g>
</g>
<g>
</g>
</svg>
