<?xml version="1.0" encoding="iso-8859-1"?>
<!-- Generator: Adobe Illustrator 19.0.0, SVG Export Plug-In . SVG Version: 6.00 Build 0)  -->
<svg version="1.1" id="Capa_1" xmlns="http://www.w3.org/2000/svg" xmlns:xlink="http://www.w3.org/1999/xlink" x="0px" y="0px"
	 viewBox="0 0 512 512" style="enable-background:new 0 0 512 512;" xml:space="preserve">
<path style="fill:#455A64;" d="M458.667,117.333h-48.619c-4.589-0.003-8.662-2.942-10.112-7.296L388.267,75.2
	c-4.355-13.046-16.561-21.85-30.315-21.867H239.381c-13.754,0.017-25.959,8.82-30.315,21.867l-11.648,34.837
	c-1.453,4.362-5.536,7.302-10.133,7.296H53.333C23.878,117.333,0,141.211,0,170.667v234.667c0,29.455,23.878,53.333,53.333,53.333
	h405.333c29.455,0,53.333-23.878,53.333-53.333V170.667C512,141.211,488.122,117.333,458.667,117.333z"/>
<circle style="fill:#607D8B;" cx="298.667" cy="288" r="128"/>
<circle style="fill:#00BCD4;" cx="298.667" cy="288" r="85.333"/>
<path style="fill:#455A64;" d="M96,96H53.333c-5.891,0-10.667-4.776-10.667-10.667c0-5.891,4.776-10.667,10.667-10.667H96
	c5.891,0,10.667,4.776,10.667,10.667C106.667,91.224,101.891,96,96,96z"/>
<path style="fill:#FFC107;" d="M96,181.333H53.333c-5.891,0-10.667-4.776-10.667-10.667S47.442,160,53.333,160H96
	c5.891,0,10.667,4.776,10.667,10.667S101.891,181.333,96,181.333z"/>
<g>
</g>
<g>
</g>
<g>
</g>
<g>
</g>
<g>
</g>
<g>
</g>
<g>
</g>
<g>
</g>
<g>
</g>
<g>
</g>
<g>
</g>
<g>
</g>
<g>
</g>
<g>
</g>
<g>
</g>
</svg>
