<svg height="480pt" viewBox="0 -24 480 480" width="480pt" xmlns="http://www.w3.org/2000/svg"><path d="m232 104c0 57.4375-46.5625 104-104 104s-104-46.5625-104-104 46.5625-104 104-104 104 46.5625 104 104zm0 0" fill="#ffc018"/><path d="m86.183594 39.488281c-4.238282-4.238281-14.546875-.804687-23.023438 7.671875-8.476562 8.476563-11.910156 18.78125-7.667968 23.023438 4.238281 4.238281 14.546874.804687 23.023437-7.671875 8.472656-8.476563 11.910156-18.785157 7.667969-23.023438zm0 0" fill="#fbdc5d"/><path d="m64 424v-208l32-96 144-80 144 80 32 96v208zm0 0" fill="#eb4042"/><g fill="#d53332"><path d="m397.359375 160h-314.71875l5.359375-16h304zm0 0"/><path d="m386.640625 128h-293.28125l2.640625-8 14.398438-8h259.203124l14.398438 8zm0 0"/><path d="m340.800781 96h-201.601562l28.800781-16h144zm0 0"/><path d="m408 192h-336l5.359375-16h325.28125zm0 0"/><path d="m416 216v8h-352v-8l2.640625-8h346.71875zm0 0"/><path d="m64 240h352v16h-352zm0 0"/><path d="m64 272h352v16h-352zm0 0"/><path d="m64 304h352v16h-352zm0 0"/><path d="m64 336h352v16h-352zm0 0"/><path d="m64 368h352v16h-352zm0 0"/><path d="m64 400h352v16h-352zm0 0"/><path d="m384 120-144-80-144 80-16 48 160-88 160 88zm0 0"/><path d="m160 296h80v128h-80zm0 0"/><path d="m240 296h80v128h-80zm0 0"/></g><path d="m292.109375 41.496094 7.769531-13.988282 110.695313 61.5-7.769531 13.984376zm0 0" fill="#ccdce5"/><path d="m446.585938 230.273438-32.152344-6.402344c-2.816406-.558594-5.117188-2.585938-6.027344-5.3125l-31.015625-93.078125-137.390625-76.328125-137.390625 76.328125-31.015625 93.046875c-.910156 2.722656-3.210938 4.75-6.027344 5.3125l-32.152344 6.398437c-4.320312.871094-8.53125-1.917969-9.414062-6.238281-.867188-4.332031 1.941406-8.546875 6.273438-9.414062l27.605468-5.523438 30.527344-91.589844c.632812-1.898437 1.957031-3.492187 3.707031-4.464844l144-80c2.417969-1.34375 5.355469-1.34375 7.773438 0l144 80c1.75.972657 3.074219 2.566407 3.707031 4.464844l30.527344 91.589844 27.605468 5.523438c4.332032.867187 7.140626 5.082031 6.273438 9.414062s-5.082031 7.140625-9.414062 6.273438zm0 0" fill="#354f5c"/><path d="m360 288h-240v16h32v120h8l6.785156 4.238281 33.214844-53.140625 33.214844 53.140625 6.785156-4.238281 6.785156 4.238281 33.214844-53.140625 33.214844 53.140625 6.785156-4.238281h8v-120h32zm-54.398438 16-25.601562 40.902344-25.601562-40.902344zm-80 0-25.601562 40.902344-25.601562-40.902344zm-57.601562 92.105469v-72.210938l22.566406 36.105469zm64-72.210938v72.210938l-22.566406-36.105469zm16 72.210938v-72.210938l22.566406 36.105469zm64-72.210938v72.210938l-22.566406-36.105469zm0 0" fill="#ccdce5"/><path d="m136 168h16v16h-16zm0 0" fill="#ccdce5"/><path d="m104 352h16v16h-16zm0 0" fill="#ccdce5"/><path d="m360 352h16v16h-16zm0 0" fill="#ccdce5"/><path d="m328 168h16v16h-16zm0 0" fill="#ccdce5"/><path d="m200 128h80v80h-80zm0 0" fill="#0093b9"/><path d="m280 120h-112v16h24v72c0 4.417969 3.582031 8 8 8h80c4.417969 0 8-3.582031 8-8v-72h24v-16zm-51.3125 48-20.6875 20.6875v-41.375zm-9.375-32h41.375l-20.6875 20.6875zm20.6875 43.3125 20.6875 20.6875h-41.375zm11.3125-11.3125 20.6875-20.6875v41.375zm0 0" fill="#ccdce5"/><path d="m0 416h16v16h-16zm0 0" fill="#354f5c"/><path d="m32 416h448v16h-448zm0 0" fill="#354f5c"/></svg>