<svg id="Capa_1" enable-background="new 0 0 512 512" height="512" viewBox="0 0 512 512" width="512" xmlns="http://www.w3.org/2000/svg"><g><g><g><g><g><g><g><path d="m48.746 406.303c-30.662-42.207-48.746-94.143-48.746-150.303 0-141.385 114.615-256 256-256s256 114.615 256 256c0 56.16-18.084 108.096-48.746 150.303z" fill="#a3d4ff"/></g></g></g></g></g></g><path d="m326.27 406.303h136.984c30.662-42.207 48.746-94.143 48.746-150.303 0-8.216-.387-16.342-1.144-24.36l-144.159-144.158z" fill="#65b1fc"/><g><path d="m198.353 210.863v89.726c0 14.979-5.326 28.986-14.343 39.463-5.124 5.953-11.428 10.779-18.653 13.968l-105.212 46.434c-3.918 1.729-7.722 3.684-11.399 5.849 46.531 64.051 122.029 105.697 207.254 105.697.329 0 .657-.006.986-.008v-301.13h-58.633z" fill="#636978"/></g><g><path d="m451.854 400.454-105.211-46.435c-7.225-3.189-13.53-8.014-18.653-13.968-9.017-10.478-14.343-24.484-14.343-39.463v-89.726h-57.647v301.138c85.225 0 160.723-41.646 207.254-105.697-3.678-2.165-7.482-4.12-11.4-5.849z" fill="#414952"/></g><g><path d="m256 40.558c-83.23 0-150.701 65.347-150.701 145.956v88.043c0 61.36 47.954 111.872 109.546 118.299v-67.464h82.311v67.464c61.591-6.427 109.546-56.94 109.546-118.299v-88.043c-.001-80.61-67.472-145.956-150.702-145.956z" fill="#555a66"/></g><g><path d="m256 40.558c-83.23 0-150.701 65.347-150.701 145.956v88.043c0 61.36 47.954 111.872 109.546 118.299v-67.464h42.142v-284.822c-.33-.002-.657-.012-.987-.012z" fill="#555a66"/></g><g><path d="m256 40.558v284.833h41.155v67.464c61.591-6.427 109.546-56.94 109.546-118.299v-88.043c0-80.609-67.471-145.955-150.701-145.955z" fill="#333940"/></g><g><path d="m256 74.307c-65.149 0-117.962 52.813-117.962 117.962v49.363c0 65.148 52.813 117.962 117.962 117.962.33 0 .657-.01.986-.012v-285.262c-.329-.003-.656-.013-.986-.013z" fill="#333940"/></g><g><path d="m256 74.307v285.286c65.148 0 117.962-52.813 117.962-117.962v-49.363c0-65.148-52.814-117.961-117.962-117.961z" fill="#171a1c"/></g><g><path d="m256 105.645c-44.23 0-80.085 35.855-80.085 80.084v28.078c-13.883 0-25.138 11.255-25.138 25.138s11.255 25.138 25.138 25.138h21.841v52.023h59.229v-210.436c-.329-.004-.654-.025-.985-.025z" fill="#fff"/></g><g><path d="m336.084 213.808v-28.078c0-44.229-35.855-80.084-80.084-80.084v210.461h58.243v-52.023h21.841c13.883 0 25.138-11.255 25.138-25.138 0-13.884-11.254-25.138-25.138-25.138z" fill="#e9edf5"/></g><g><g><path d="m279.326 236.723c7.688 7.688 20.153 7.688 27.841 0s7.688-20.153 0-27.841c-3.181-3.18-7.181-5.024-11.321-5.573l-22.094 22.094c.55 4.138 2.393 8.139 5.574 11.32z" fill="#171a1c"/></g><g><path d="m204.833 208.881c-7.688 7.688-7.688 20.153 0 27.842 7.688 7.688 20.153 7.688 27.841 0 3.181-3.181 5.024-7.181 5.573-11.321l-22.094-22.094c-4.139.549-8.14 2.392-11.32 5.573z" fill="#333940"/></g></g></g></svg>