<svg height="464pt" viewBox="0 0 464 464" width="464pt" xmlns="http://www.w3.org/2000/svg"><path d="m336 224h64v32h-64zm0 0" fill="#ff9419"/><path d="m320 160h64v32h-64zm0 0" fill="#ff9419"/><path d="m320 96h64v32h-64zm0 0" fill="#ff9419"/><g fill="#ffb531"><path d="m336 256h64v32h-64zm0 0"/><path d="m320 192h64v32h-64zm0 0"/><path d="m336 128h64v32h-64zm0 0"/><path d="m384 64c0 17.671875-14.328125 32-32 32s-32-14.328125-32-32 14.328125-32 32-32 32 14.328125 32 32zm0 0"/></g><path d="m336 240v-120c0-39.765625-32.234375-72-72-72l24-48h-112l24 48c-39.765625 0-72 32.234375-72 72v120l-14.71875 9.816406c-5.804688 3.859375-9.289062 10.367188-9.28125 17.335938 0 11.515625 9.332031 20.847656 20.847656 20.847656h214.304688c11.515625 0 20.847656-9.332031 20.847656-20.847656 0-6.96875-3.480469-13.476563-9.28125-17.34375zm0 0" fill="#348fd9"/><path d="m350.71875 249.816406-14.71875-9.816406v-120c0-20.382812-8.667969-39.804688-23.839844-53.414062-28.792968 121.183593-123.433594 189.132812-184.960937 221.414062h212c9.1875.007812 17.296875-6.003906 19.960937-14.796875 2.664063-8.792969-.746094-18.292969-8.390625-23.386719zm0 0" fill="#3086cd"/><path d="m244 160h-24c-6.628906 0-12-5.371094-12-12s5.371094-12 12-12h44v-16h-24v-16h-16v16h-4c-15.464844 0-28 12.535156-28 28s12.535156 28 28 28h24c6.628906 0 12 5.371094 12 12s-5.371094 12-12 12h-44v16h24v16h16v-16h4c15.464844 0 28-12.535156 28-28s-12.535156-28-28-28zm0 0" fill="#2a71ad"/><path d="m64 256h64v32h-64zm0 0" fill="#ff9419"/><path d="m80 224h64v32h-64zm0 0" fill="#ffb531"/><path d="m64 192h64v32h-64zm0 0" fill="#ff9419"/><path d="m64 160h64v32h-64zm0 0" fill="#ffb531"/><path d="m80 128h64v32h-64zm0 0" fill="#ff9419"/><path d="m64 96h64v32h-64zm0 0" fill="#ffb531"/><path d="m240 352h-176c-35.347656 0-64-28.652344-64-64h464c0 35.347656-28.652344 64-64 64h-40" fill="#e0e0de"/><path d="m368 288c0 35.347656-28.652344 64-64 64h96c35.347656 0 64-28.652344 64-64zm0 0" fill="#d6d6d4"/><path d="m247.375 350.886719-2.039062 1.113281h-61.335938c-13.253906 0-24 10.746094-24 24s10.746094 24 24 24h-16l-90.96875-41.664062c-8.09375-3.707032-17.515625-3.042969-25.007812 1.765624-7.492188 4.808594-12.023438 13.101563-12.023438 22.003907v1.734375c.007812 9.894531 5.601562 18.9375 14.457031 23.359375l93.269531 46.640625c13.332032 6.671875 28.03125 10.152344 42.9375 10.160156h169.335938v-112c-34.804688-19.890625-77.433594-20.308594-112.625-1.113281zm0 0" fill="#fec9a3"/><path d="m272 408h-88c-4.417969 0-8-3.582031-8-8s3.582031-8 8-8h88c4.417969 0 8 3.582031 8 8s-3.582031 8-8 8zm0 0" fill="#feb784"/><path d="m360 352h104v112h-104zm0 0" fill="#348fd9"/><path d="m360 408h104v56h-104zm0 0" fill="#3086cd"/><path d="m416 424c0 8.835938-7.164062 16-16 16s-16-7.164062-16-16 7.164062-16 16-16 16 7.164062 16 16zm0 0" fill="#2a71ad"/></svg>