<?xml version="1.0"?>
<svg xmlns="http://www.w3.org/2000/svg" xmlns:xlink="http://www.w3.org/1999/xlink" version="1.1" id="Layer_1" x="0px" y="0px" viewBox="0 0 496.158 496.158" style="enable-background:new 0 0 496.158 496.158;" xml:space="preserve" width="512px" height="512px" class="hovered-paths"><g><path style="fill:#FFFFFF" d="M496.158,248.085c0-137.021-111.07-248.082-248.076-248.082C111.07,0.003,0,111.063,0,248.085  c0,137.002,111.07,248.07,248.083,248.07C385.088,496.155,496.158,385.087,496.158,248.085z" data-original="#E04F5F" class="active-path" data-old_color="#E04F5F"/><g>
	<path style="fill:#004B8E" d="M392.579,226.079h-225.5c-5.523,0-10,4.479-10,10v24c0,5.523,4.477,10,10,10h225.5   c5.523,0,10-4.477,10-10v-24C402.579,230.558,398.102,226.079,392.579,226.079z" data-original="#FFFFFF" class="" data-old_color="#FFFFFF"/>
	<path style="fill:#004B8E" d="M127.579,226.079h-24c-5.523,0-10,4.479-10,10v24c0,5.523,4.477,10,10,10h24c5.523,0,10-4.477,10-10   v-24C137.579,230.558,133.102,226.079,127.579,226.079z" data-original="#FFFFFF" class="" data-old_color="#FFFFFF"/>
	<path style="fill:#004B8E" d="M392.579,157.079h-225.5c-5.523,0-10,4.479-10,10v24c0,5.523,4.477,10,10,10h225.5   c5.523,0,10-4.477,10-10v-24C402.579,161.558,398.102,157.079,392.579,157.079z" data-original="#FFFFFF" class="" data-old_color="#FFFFFF"/>
	<path style="fill:#004B8E" d="M127.579,157.079h-24c-5.523,0-10,4.479-10,10v24c0,5.523,4.477,10,10,10h24c5.523,0,10-4.477,10-10   v-24C137.579,161.558,133.102,157.079,127.579,157.079z" data-original="#FFFFFF" class="" data-old_color="#FFFFFF"/>
	<path style="fill:#004B8E" d="M392.579,295.079h-225.5c-5.523,0-10,4.479-10,10v24c0,5.523,4.477,10,10,10h225.5   c5.523,0,10-4.477,10-10v-24C402.579,299.558,398.102,295.079,392.579,295.079z" data-original="#FFFFFF" class="" data-old_color="#FFFFFF"/>
	<path style="fill:#004B8E" d="M127.579,295.079h-24c-5.523,0-10,4.479-10,10v24c0,5.523,4.477,10,10,10h24c5.523,0,10-4.477,10-10   v-24C137.579,299.558,133.102,295.079,127.579,295.079z" data-original="#FFFFFF" class="" data-old_color="#FFFFFF"/>
</g></g> </svg>
