<svg id="Layer_5" enable-background="new 0 0 64 64" height="512" viewBox="0 0 64 64" width="512" xmlns="http://www.w3.org/2000/svg"><g><g><g><path d="m60.41 5.59c.37.36.59.86.59 1.41 0 1.1-.9 2-2 2h-2v-4h2c.55 0 1.05.22 1.41.59z" fill="#ccd1d9"/></g><g><path d="m47 5v4h-18v-3-1z" fill="#ccd1d9"/></g><g><path d="m29 6h-16v-2c0-1.1.9-2 2-2h12c1.1 0 2 .9 2 2v1z" fill="#969faa"/></g><g><path d="m13 10h16v6h-16z" fill="#969faa"/></g><g><path d="m29 10h-16v-4h16v3z" fill="#aab2bd"/></g><g><path d="m57 5v4 2c0 .55-.45 1-1 1h-4-4c-.55 0-1-.45-1-1v-2-4-2c0-.55.45-1 1-1h8c.55 0 1 .45 1 1z" fill="#aab2bd"/></g><g><circle cx="52" cy="7" fill="#fcd770" r="2"/></g><g><path d="m34 16 4 6h-34l4-6h5 16z" fill="#ccd1d9"/></g><g><path d="m46 38h12v12h-12z" fill="#d3a06c"/></g><g><path d="m28 42h12v12h-12z" fill="#d3a06c"/></g><g><path d="m10 42h12v12h-12z" fill="#d3a06c"/></g><g><path d="m38 22v20h-2-4-4v12h-2-4v-12h-4-4-4v12h-4c-.73 0-1.41.2-2 .54v-32.54z" fill="#e6e9ed"/></g><g><circle cx="32" cy="28" fill="#fcd770" r="2"/></g><g><circle cx="24" cy="28" fill="#fcd770" r="2"/></g><g><path d="m55 29v.06c-.03 1.63-1.36 2.94-3 2.94s-2.97-1.31-3-2.94c0-.02 0-.04 0-.06 0-1.66 1.34-3 3-3s3 1.34 3 3z" fill="#fcd770"/></g><g><g><path d="m58 54h-8c2.21 0 4 1.79 4 4s-1.79 4-4 4h8c1.1 0 2.1-.45 2.83-1.17.72-.73 1.17-1.73 1.17-2.83 0-2.21-1.79-4-4-4z" fill="#ccd1d9"/></g><g><path d="m46 58c0-2.21 1.79-4 4-4h-10-2c2.21 0 4 1.79 4 4s-1.79 4-4 4h12c-2.21 0-4-1.79-4-4z" fill="#ccd1d9"/></g><g><path d="m34 58c0-2.21 1.79-4 4-4h-10-2c2.21 0 4 1.79 4 4s-1.79 4-4 4h12c-2.21 0-4-1.79-4-4z" fill="#ccd1d9"/></g><g><path d="m22 58c0-2.21 1.79-4 4-4h-4-8c2.21 0 4 1.79 4 4s-1.79 4-4 4h12c-2.21 0-4-1.79-4-4z" fill="#ccd1d9"/></g><g><path d="m10 58c0-2.21 1.79-4 4-4h-4-4c-.73 0-1.41.2-2 .54-.3.17-.58.39-.83.63-.72.73-1.17 1.73-1.17 2.83 0 2.21 1.79 4 4 4h8c-2.21 0-4-1.79-4-4z" fill="#ccd1d9"/></g></g><g><circle cx="50" cy="58" fill="#969faa" r="4"/></g><g><circle cx="38" cy="58" fill="#969faa" r="4"/></g><g><circle cx="26" cy="58" fill="#969faa" r="4"/></g><g><circle cx="14" cy="58" fill="#969faa" r="4"/></g><g><path d="m54 38v4h-4v-4h2z" fill="#b27946"/></g><g><path d="m32 42h4v4h-4z" fill="#b27946"/></g><g><path d="m14 42h4v4h-4z" fill="#b27946"/></g><g><path d="m8 26h10v12h-10z" fill="#69d6f4"/></g></g><g><path d="m58 53h-17v-12h-2v-19.303l-4.465-6.697h-4.535v-5h16v1c0 1.103.897 2 2 2h3v12.142c-1.469.382-2.617 1.566-2.92 3.065-4.088.888-7.08 4.534-7.08 8.793 0 2.414 1.721 4.434 4 4.899v9.101h14v-9.101c2.279-.465 4-2.484 4-4.899 0-4.259-2.992-7.905-7.08-8.793-.303-1.499-1.451-2.683-2.92-3.065v-12.142h3c1.103 0 2-.897 2-2v-1h1c1.654 0 3-1.346 3-3s-1.346-3-3-3h-1v-1c0-1.103-.897-2-2-2h-8c-1.103 0-2 .897-2 2v1h-16c0-1.654-1.346-3-3-3h-12c-1.654 0-3 1.346-3 3v11h-4.535l-4.465 6.697v32.328c-1.207.914-2 2.348-2 3.975 0 2.757 2.243 5 5 5h52c2.757 0 5-2.243 5-5s-2.243-5-5-5zm-15-16c0-3.211 2.188-5.967 5.216-6.763.422 1.285 1.466 2.279 2.784 2.621v4.142h-6v2.816c-1.161-.414-2-1.514-2-2.816zm8 2h2v2h-2zm6 10h-10v-10h2v4h6v-4h2zm-1.216-18.763c3.028.795 5.216 3.552 5.216 6.763 0 1.302-.839 2.402-2 2.816v-2.816h-6v-4.142c1.318-.343 2.363-1.336 2.784-2.621zm-1.784-1.237c0 1.103-.897 2-2 2s-2-.897-2-2 .897-2 2-2 2 .897 2 2zm5-23c.551 0 1 .449 1 1s-.449 1-1 1h-1v-2zm-11-3h8l.001 8h-8.001zm5 55c0 1.654-1.346 3-3 3s-3-1.346-3-3 1.346-3 3-3 3 1.346 3 3zm-42 0c0-1.654 1.346-3 3-3s3 1.346 3 3-1.346 3-3 3-3-1.346-3-3zm4-15h2v2h-2zm4 4v-4h2v10h-10v-10h2v4zm-1.026 8h4.051c-.634.838-1.025 1.87-1.025 3s.391 2.162 1.026 3h-4.051c.634-.838 1.025-1.87 1.025-3s-.391-2.162-1.026-3zm5.026 3c0-1.654 1.346-3 3-3s3 1.346 3 3-1.346 3-3 3-3-1.346-3-3zm6.974-3h4.051c-.634.838-1.025 1.87-1.025 3s.391 2.162 1.026 3h-4.051c.634-.838 1.025-1.87 1.025-3s-.391-2.162-1.026-3zm5.026 3c0-1.654 1.346-3 3-3s3 1.346 3 3-1.346 3-3 3-3-1.346-3-3zm6.974-3h4.051c-.634.838-1.025 1.87-1.025 3s.391 2.162 1.026 3h-4.051c.634-.838 1.025-1.87 1.025-3s-.391-2.162-1.026-3zm-12.974-2v-10h2v4h6v-4h2v10zm4-10h2v2h-2zm-5-34h-14v-2h14zm18-3v2h-16v-2zm-31-3h12c.551 0 1 .449 1 1v1h-14v-1c0-.551.449-1 1-1zm-1 8h14v4h-14zm-5.465 6h24.93l2.667 4h-30.264zm-3.535 6h32v18h-10v12h-4v-12h-14v12h-3c-.342 0-.677.035-1 .101zm-2 35c0-1.654 1.346-3 3-3h4.026c-.635.838-1.026 1.87-1.026 3s.391 2.162 1.026 3h-4.026c-1.654 0-3-1.346-3-3zm55 3h-4.026c.635-.838 1.026-1.87 1.026-3s-.391-2.162-1.026-3h4.026c1.654 0 3 1.346 3 3s-1.346 3-3 3z"/><path d="m52 4c-1.654 0-3 1.346-3 3s1.346 3 3 3 3-1.346 3-3-1.346-3-3-3zm0 4c-.551 0-1-.449-1-1s.449-1 1-1 1 .449 1 1-.449 1-1 1z"/><path d="m19 25h-12v14h12zm-2 12h-8v-10h8z"/><path d="m24 31c1.654 0 3-1.346 3-3s-1.346-3-3-3-3 1.346-3 3 1.346 3 3 3zm0-4c.551 0 1 .449 1 1s-.449 1-1 1-1-.449-1-1 .449-1 1-1z"/><path d="m32 31c1.654 0 3-1.346 3-3s-1.346-3-3-3-3 1.346-3 3 1.346 3 3 3zm0-4c.551 0 1 .449 1 1s-.449 1-1 1-1-.449-1-1 .449-1 1-1z"/><path d="m21 33h14v2h-14z"/><path d="m21 37h2v2h-2z"/><path d="m25 37h6v2h-6z"/><path d="m33 37h2v2h-2z"/></g></g></svg>