<?xml version="1.0" encoding="iso-8859-1"?>
<!-- Generator: Adobe Illustrator 19.0.0, SVG Export Plug-In . SVG Version: 6.00 Build 0)  -->
<svg version="1.1" id="Layer_1" xmlns="http://www.w3.org/2000/svg" xmlns:xlink="http://www.w3.org/1999/xlink" x="0px" y="0px"
	 viewBox="0 0 383.47 383.47" style="enable-background:new 0 0 383.47 383.47;" xml:space="preserve">
<g>
	<g>
		<path style="fill:#C3C6C8;" d="M299.651,107.554c0-11.791-9.646-21.438-21.437-21.438H21.438C9.648,86.117,0,95.763,0,107.554
			v160.499c0,11.791,9.648,21.438,21.438,21.438h256.776c11.791,0,21.437-9.646,21.437-21.438V107.554z"/>
		<path style="fill:#E8E8E8;" d="M149.825,166.12L0,261.964v6.089c0,11.791,9.648,21.438,21.438,21.438h256.776
			c11.791,0,21.437-9.646,21.437-21.438v-6.089L149.825,166.12z"/>
		<path style="fill:#E8E8E8;" d="M149.825,209.49l149.826-95.849v-6.087c0-11.791-9.646-21.438-21.437-21.438H21.438
			C9.648,86.117,0,95.763,0,107.554v6.087L149.825,209.49z"/>
		<path style="fill:#005CB9;" d="M298.5,100.659l-148.675,95.108L1.151,100.659C0.409,102.827,0,105.145,0,107.554v6.087
			l149.825,95.849l149.826-95.849v-6.087C299.651,105.145,299.242,102.827,298.5,100.659z"/>
	</g>
	<path style="fill:#005CB9;" d="M378.879,216.676l-54.903-54.903c-6.121-6.12-11.129-4.046-11.129,4.61v24.174h-81.276
		c-8.656,0-15.739,7.082-15.739,15.738v43.02c0,8.656,7.083,15.739,15.739,15.739h81.276v24.173c0,8.657,5.008,10.73,11.129,4.61
		l54.903-54.903C385,232.814,385,222.796,378.879,216.676z"/>
</g>
<g>
</g>
<g>
</g>
<g>
</g>
<g>
</g>
<g>
</g>
<g>
</g>
<g>
</g>
<g>
</g>
<g>
</g>
<g>
</g>
<g>
</g>
<g>
</g>
<g>
</g>
<g>
</g>
<g>
</g>
</svg>
