<?xml version="1.0" encoding="iso-8859-1"?>
<!-- Generator: Adobe Illustrator 19.0.0, SVG Export Plug-In . SVG Version: 6.00 Build 0)  -->
<svg version="1.1" id="Capa_1" xmlns="http://www.w3.org/2000/svg" xmlns:xlink="http://www.w3.org/1999/xlink" x="0px" y="0px"
	 viewBox="0 0 512.001 512.001" style="enable-background:new 0 0 512.001 512.001;" xml:space="preserve">
<path style="fill:#FFB74D;" d="M256,155.476c-19.092,0-39.245-17.509,0-80.088C295.245,137.967,275.093,155.476,256,155.476z"/>
<g>
	<path style="fill:#212121;" d="M256,204.03c-4.267,0-7.726-3.459-7.726-7.726v-66.396c0-4.267,3.459-7.726,7.726-7.726
		s7.726,3.459,7.726,7.726v66.396C263.727,200.57,260.267,204.03,256,204.03z"/>
	<rect x="234.171" y="267.095" style="fill:#212121;" width="43.649" height="151.828"/>
	<rect x="64.201" y="343.009" style="fill:#212121;" width="32.214" height="93.602"/>
	<rect x="137.2" y="343.009" style="fill:#212121;" width="32.214" height="93.602"/>
	<rect x="415.586" y="343.009" style="fill:#212121;" width="32.214" height="93.602"/>
	<rect x="342.577" y="343.009" style="fill:#212121;" width="32.214" height="93.602"/>
</g>
<path style="fill:#EF5350;" d="M176.895,361H50.105L0.228,182.14c-1.069-4.517,1.726-9.047,6.244-10.116l26.887-6.364
	c4.517-1.069,9.047,1.726,10.116,6.244l41.78,144.655h91.64c5.583,0,10.109,4.526,10.109,10.109v24.224
	C187.004,356.475,182.478,361,176.895,361z"/>
<path style="fill:#B3E5FC;" d="M170.768,228.593c0.094-0.482,0.146-0.979,0.146-1.489V196.5c5.488-2.416,9.698-7.334,11.036-13.491
	l6.589-30.316h-50.703l6.589,30.316c1.338,6.157,5.549,11.074,11.036,13.491v30.605c0,0.51,0.053,1.006,0.146,1.489
	c-7.355,2.995-12.546,10.205-12.546,18.637v1.906h40.251v-1.906C183.314,238.798,178.124,231.588,170.768,228.593z"/>
<path style="fill:#EF5350;" d="M335.106,361h126.791l49.876-178.86c1.069-4.517-1.726-9.047-6.244-10.116l-26.887-6.364
	c-4.517-1.069-9.047,1.726-10.116,6.244l-41.78,144.655h-91.64c-5.583,0-10.109,4.526-10.109,10.109v24.224
	C324.997,356.475,329.522,361,335.106,361z"/>
<path style="fill:#B3E5FC;" d="M356.392,228.593c0.094-0.482,0.146-0.979,0.146-1.489V196.5c5.488-2.416,9.698-7.334,11.036-13.491
	l6.589-30.316h-50.703l6.589,30.316c1.338,6.157,5.549,11.074,11.036,13.491v30.605c0,0.51,0.053,1.006,0.146,1.489
	c-7.355,2.995-12.546,10.205-12.546,18.637v1.906h40.251v-1.906C368.938,238.798,363.748,231.588,356.392,228.593z"/>
<rect x="234.171" y="178.819" style="fill:#E0E0E0;" width="43.649" height="70.31"/>
<rect x="234.171" y="267.095" style="fill:#171717;" width="43.649" height="48.872"/>
<path style="fill:#EF5350;" d="M387.975,249.135H124.026c-9.92,0-17.961,8.042-17.961,17.961s8.042,17.961,17.961,17.961h263.948
	c9.92,0,17.961-8.042,17.961-17.961S397.893,249.135,387.975,249.135z"/>
<path style="fill:#D44A47;" d="M147.273,267.096c0-9.92,8.042-17.961,17.961-17.961h-41.207c-9.92,0-17.961,8.042-17.961,17.961
	s8.042,17.961,17.961,17.961h41.207C155.315,285.058,147.273,277.016,147.273,267.096z"/>
<path style="fill:#EF5350;" d="M261.84,396.648h-11.68c-26.435,0-47.865,13.529-47.865,39.965l0,0h107.411l0,0
	C309.706,410.177,288.276,396.648,261.84,396.648z"/>
<path style="fill:#D44A47;" d="M271.453,397.277c-3.106-0.418-6.32-0.629-9.613-0.629h-11.68c-26.435,0-47.865,13.529-47.865,39.965
	l0,0H233.2l0,0C233.2,413.47,249.624,400.219,271.453,397.277z"/>
<g>
</g>
<g>
</g>
<g>
</g>
<g>
</g>
<g>
</g>
<g>
</g>
<g>
</g>
<g>
</g>
<g>
</g>
<g>
</g>
<g>
</g>
<g>
</g>
<g>
</g>
<g>
</g>
<g>
</g>
</svg>
