<svg height="512pt" viewBox="0 -70 512.001 512" width="512pt" xmlns="http://www.w3.org/2000/svg" xmlns:xlink="http://www.w3.org/1999/xlink"><linearGradient id="a"><stop offset="0" stop-color="#ffc738"/><stop offset=".4286" stop-color="#ffbb23"/><stop offset="1" stop-color="#ffa700"/></linearGradient><linearGradient id="b" gradientUnits="userSpaceOnUse" x1="236.9139465048" x2="508.6057589336" xlink:href="#a" y1="82.4002391336" y2="354.0920515624"/><linearGradient id="c"><stop offset="0" stop-color="#e4003d" stop-opacity="0"/><stop offset=".5838" stop-color="#bd294b" stop-opacity=".584314"/><stop offset="1" stop-color="#a64153"/></linearGradient><linearGradient id="d" gradientUnits="userSpaceOnUse" x1="278.4551345506" x2="278.4551345506" xlink:href="#c" y1="221.5075867494" y2="252.0745018444"/><linearGradient id="e"><stop offset="0" stop-color="#ff4974"/><stop offset=".2115" stop-color="#fd4470"/><stop offset=".4685" stop-color="#f83565"/><stop offset=".748" stop-color="#ef1d52"/><stop offset="1" stop-color="#e4003d"/></linearGradient><linearGradient id="f" gradientUnits="userSpaceOnUse" x1="128.9449463864" x2="427.9656238914" xlink:href="#e" y1="-25.5686605926" y2="273.4520169124"/><linearGradient id="g" gradientUnits="userSpaceOnUse" x1="208.9763031278" x2="433.4512544838" xlink:href="#e" y1="130.3473530692" y2="354.8223044252"/><linearGradient id="h" gradientUnits="userSpaceOnUse" x1="284.8610604404" x2="509.3360117964" xlink:href="#e" y1="54.4625957566" y2="278.9375471126"/><linearGradient id="i" gradientUnits="userSpaceOnUse" x1="337.5861403506" x2="139.2395641432" xlink:href="#a" y1="183.0725333716" y2="-15.274143228"/><linearGradient id="j"><stop offset="0" stop-color="#00e7b2"/><stop offset=".2459" stop-color="#05e5b1"/><stop offset=".5301" stop-color="#13ddac"/><stop offset=".8322" stop-color="#2ad1a5"/><stop offset="1" stop-color="#3ac9a0"/></linearGradient><linearGradient id="k" gradientUnits="userSpaceOnUse" x1="206.5769295478" x2="350.3334399456" xlink:href="#j" y1="123.9415275716" y2="123.9415275716"/><linearGradient id="l"><stop offset="0" stop-color="#3ac9a0" stop-opacity="0"/><stop offset=".0351" stop-color="#38c69d" stop-opacity=".035294"/><stop offset=".4167" stop-color="#23aa82" stop-opacity=".415686"/><stop offset=".7511" stop-color="#169971" stop-opacity=".752941"/><stop offset="1" stop-color="#11936b"/></linearGradient><linearGradient id="m" gradientUnits="userSpaceOnUse" x1="310.1442336572" x2="231.7956509722" xlink:href="#l" y1="151.0751298188" y2="91.944224411"/><linearGradient id="n"><stop offset="0" stop-color="#3b395f"/><stop offset=".0633" stop-color="#37355a"/><stop offset=".4033" stop-color="#232543"/><stop offset=".7232" stop-color="#171b35"/><stop offset="1" stop-color="#131830"/></linearGradient><linearGradient id="o" gradientUnits="userSpaceOnUse" x1="272.8167070298" x2="300.598340928" xlink:href="#n" y1="123.9415275716" y2="123.9415275716"/><linearGradient id="p"><stop offset="0" stop-color="#ffa700" stop-opacity="0"/><stop offset=".0206" stop-color="#fea600" stop-opacity=".019608"/><stop offset=".6348" stop-color="#ec8c00" stop-opacity=".635294"/><stop offset="1" stop-color="#e58200"/></linearGradient><linearGradient id="q" gradientUnits="userSpaceOnUse" x1="457.8666375238" x2="389.866081246" xlink:href="#p" y1="342.607485059" y2="289.8824051488"/><linearGradient id="r" gradientUnits="userSpaceOnUse" x1="214.458821562" x2="486.1506339908" xlink:href="#j" y1="144.545219562" y2="416.2370319908"/><linearGradient id="s" gradientUnits="userSpaceOnUse" x1="256.00011" x2="256.00011" xlink:href="#c" y1="283.6525671778" y2="314.2194822728"/><linearGradient id="t" gradientUnits="userSpaceOnUse" x1="106.4898214436" x2="405.5104989486" xlink:href="#n" y1="36.5761190514" y2="335.5967965564"/><linearGradient id="u" gradientUnits="userSpaceOnUse" x1="186.521178185" x2="410.996129541" xlink:href="#a" y1="192.4923334976" y2="416.9672848536"/><linearGradient id="v" gradientUnits="userSpaceOnUse" x1="262.4059354976" x2="486.8808868536" xlink:href="#a" y1="116.607576185" y2="341.082527541"/><linearGradient id="w" gradientUnits="userSpaceOnUse" x1="315.1310154078" x2="116.7844392004" xlink:href="#j" y1="245.2175138" y2="46.8708372004"/><linearGradient id="x" gradientUnits="userSpaceOnUse" x1="184.1219049972" x2="327.8783150028" xlink:href="#n" y1="186.086508" y2="186.086508"/><linearGradient id="y" gradientUnits="userSpaceOnUse" x1="287.6891087144" x2="209.3406264216" y1="213.2201102472" y2="154.0892048394"><stop offset="0" stop-color="#131830" stop-opacity="0"/><stop offset="1" stop-color="#131830"/></linearGradient><linearGradient id="z"><stop offset="0" stop-color="#ffc738"/><stop offset=".4873" stop-color="#ffc636"/><stop offset=".6746" stop-color="#ffc22f"/><stop offset=".8103" stop-color="#ffbb23"/><stop offset=".9203" stop-color="#ffb112"/><stop offset="1" stop-color="#ffa700"/></linearGradient><radialGradient id="A" cx="256.00011" cy="186.086508" gradientUnits="userSpaceOnUse" r="40.3901914728" xlink:href="#z"/><linearGradient id="B" gradientUnits="userSpaceOnUse" x1="477.1828999414" x2="441.2115715438" xlink:href="#l" y1="268.098402063" y2="260.2143014204"/><linearGradient id="C" gradientUnits="userSpaceOnUse" x1="192.0037970114" x2="463.6956094402" xlink:href="#e" y1="206.6901999904" y2="478.3820124192"/><linearGradient id="D" gradientUnits="userSpaceOnUse" x1="233.5449850572" x2="233.5449850572" xlink:href="#c" y1="345.7975476062" y2="376.3644627012"/><linearGradient id="E" gradientUnits="userSpaceOnUse" x1="83.9827937334" x2="383.1073771654" xlink:href="#a" y1="98.6690963202" y2="397.7936797522"/><linearGradient id="F" gradientUnits="userSpaceOnUse" x1="164.0661536344" x2="388.5411049904" xlink:href="#n" y1="254.637313926" y2="479.112265282"/><linearGradient id="G" gradientUnits="userSpaceOnUse" x1="239.950910947" x2="464.425862303" xlink:href="#n" y1="178.7525566134" y2="403.2275079694"/><linearGradient id="H" gradientUnits="userSpaceOnUse" x1="292.6759908572" x2="94.3294146498" xlink:href="#e" y1="307.3624942284" y2="109.0158176288"/><radialGradient id="I" cx="233.5449850572" cy="248.2314884284" gradientUnits="userSpaceOnUse" r="71.8782050028" xlink:href="#z"/><linearGradient id="J" gradientUnits="userSpaceOnUse" x1="265.2340841638" x2="186.8855014788" xlink:href="#p" y1="275.3650906756" y2="216.2341852678"/><linearGradient id="K" gradientUnits="userSpaceOnUse" x1="227.9064571442" x2="255.6881914346" xlink:href="#n" y1="248.2314884284" y2="248.2314884284"/><path d="m484.863281 247.882812h-412.816406c-14.988281 0-27.136719-12.148437-27.136719-27.136718v-193.609375c0-14.988281 12.148438-27.136719 27.136719-27.136719h412.816406c14.988281 0 27.136719 12.148438 27.136719 27.136719v193.609375c0 14.988281-12.148438 27.136718-27.136719 27.136718zm0 0" fill="url(#b)"/><path d="m44.910156 195.820312v24.925782c0 14.988281 12.148438 27.136718 27.136719 27.136718h412.816406c14.988281 0 27.136719-12.148437 27.136719-27.136718v-24.925782zm0 0" fill="url(#d)"/><path d="m471.976562 222.953125h-387.042968c-8.648438 0-15.683594-7.03125-15.683594-15.679687v-166.664063c0-8.644531 7.035156-15.679687 15.683594-15.679687h387.042968c8.648438 0 15.683594 7.035156 15.683594 15.679687v166.664063c0 8.648437-7.035156 15.679687-15.683594 15.679687zm-387.042968-190.140625c-4.300782 0-7.800782 3.5-7.800782 7.796875v166.664063c0 4.296874 3.5 7.796874 7.800782 7.796874h387.042968c4.300782 0 7.796876-3.5 7.796876-7.796874v-166.664063c0-4.296875-3.496094-7.796875-7.796876-7.796875zm0 0" fill="url(#f)"/><path d="m92.457031 45.796875h80.28125v16.347656h-80.28125zm0 0" fill="url(#g)"/><path d="m384.171875 185.738281h80.28125v16.347657h-80.28125zm0 0" fill="url(#h)"/><path d="m364.6875 123.941406c0 47.625-38.609375 86.234375-86.234375 86.234375s-86.230469-38.609375-86.230469-86.234375 38.605469-86.234375 86.230469-86.234375 86.234375 38.609375 86.234375 86.234375zm0 0" fill="url(#i)"/><path d="m350.332031 123.941406c0 39.695313-32.179687 71.878906-71.878906 71.878906-39.695313 0-71.875-32.183593-71.875-71.878906 0-39.695312 32.179687-71.878906 71.875-71.878906 39.699219 0 71.878906 32.183594 71.878906 71.878906zm0 0" fill="url(#k)"/><path d="m350.777344 134c-7.492188 18.628906-19.792969 34.933594-35.707032 47.285156-6.550781 5.082032-13.480468 10.558594-21.707031 17.144532l-37.917969-37.921876c-2.933593-2.460937-4.402343-4.960937-4.402343-7.492187 0-1.546875.566406-3.09375 1.703125-4.644531 1.132812-1.546875 2.433594-2.316406 3.890625-2.316406.96875 0 2.242187.707031 3.816406 2.136718 1.578125 1.421875 3.738281 2.949219 6.492187 4.574219 2.753907 1.632813 5.9375 2.570313 9.550782 2.8125v-20.476563l-15.648438-15.683593c-.0625-.054688-.132812-.113281-.195312-.171875-1.183594-1.097656-2.433594-2.425782-3.734375-3.972656-1.308594-1.542969-2.246094-3.359376-2.816407-5.433594-.570312-2.074219-.855468-4.375-.855468-6.898438 0-7.085937 2.222656-12.46875 6.667968-16.140625 4.449219-3.671875 9.972657-5.871093 16.582032-6.609375v-3.546875c0-.734375.34375-1.386719 1.042968-1.960937.691407-.566406 1.527344-.855469 2.507813-.855469.894531 0 1.730469.289063 2.503906.855469.675781.5 1.039063 1.0625 1.128907 1.683594l4.394531 3.917968c3.324219.394532 6.464843 1.113282 9.410156 2.171875 2.871094 1.035157 4.761719 2.339844 5.667969 3.921875zm0 0" fill="url(#m)"/><path d="m251.042969 153.011719c0-1.546875.566406-3.09375 1.703125-4.640625 1.132812-1.546875 2.429687-2.320313 3.890625-2.320313.96875 0 2.238281.710938 3.816406 2.136719 1.574219 1.425781 3.738281 2.953125 6.492187 4.578125 2.753907 1.628906 5.9375 2.5625 9.550782 2.808594v-28.699219c-2.445313-.894531-4.324219-1.609375-5.628906-2.136719-1.304688-.527343-3.039063-1.300781-5.199219-2.320312-2.164063-1.015625-3.835938-2.074219-5.019531-3.175781-1.183594-1.097657-2.429688-2.421876-3.730469-3.96875-1.308594-1.546876-2.246094-3.359376-2.816407-5.433594-.570312-2.078125-.855468-4.378906-.855468-6.902344 0-7.085938 2.222656-12.464844 6.667968-16.136719 4.445313-3.671875 9.972657-5.875 16.582032-6.609375v-3.546875c0-.734375.347656-1.386719 1.042968-1.960937.691407-.570313 1.527344-.855469 2.507813-.855469.894531 0 1.730469.289063 2.507813.855469.773437.574218 1.160156 1.226562 1.160156 1.960937v3.300781c4.976562.167969 9.566406 1 13.769531 2.511719 4.199219 1.507813 6.300781 3.609375 6.300781 6.300781 0 1.46875-.492187 3-1.480468 4.589844-.988282 1.589844-2.304688 2.386719-3.949219 2.386719-.648438 0-2.4375-.695313-5.359375-2.082031-2.925782-1.386719-6.015625-2.203125-9.28125-2.445313v24.796875c3.246094 1.222656 5.945312 2.382813 8.09375 3.484375 2.148437 1.097657 4.421875 2.625 6.816406 4.578125s4.199219 4.417969 5.414062 7.390625c1.21875 2.96875 1.828126 6.453125 1.828126 10.441407 0 7.289062-1.988282 13.082031-5.964844 17.378906-3.976563 4.300781-9.371094 6.941406-16.1875 7.921875v4.089843c0 .71875-.386719 1.359376-1.160156 1.921876-.777344.5625-1.613282.84375-2.507813.84375-.980469 0-1.816406-.28125-2.507813-.839844-.695312-.5625-1.042968-1.203125-1.042968-1.925782v-3.722656c-7.097656-.082031-13.113282-1.703125-18.050782-4.871094-4.933593-3.164062-7.402343-6.394531-7.402343-9.683593zm14.320312-51.292969c0 3.175781.988281 5.597656 2.964844 7.265625 1.976563 1.671875 4.945313 3.238281 8.902344 4.703125v-22.25c-7.914063.980469-11.867188 4.40625-11.867188 10.28125zm17.621094 53.613281c7.175781-1.304687 10.769531-5.332031 10.769531-12.089843 0-3.582032-.941406-6.390626-2.816406-8.425782-1.878906-2.035156-4.527344-3.785156-7.953125-5.253906zm0 0" fill="url(#o)"/><path d="m439.953125 124.289062h-395.042969v96.457032c0 11.707031 7.414063 21.683594 17.804688 25.488281.832031.304687 1.683594.570313 2.550781.792969 1.300781.335937 2.636719.574218 4.007813.714844.910156.089843 1.835937.140624 2.773437.140624h412.820313c1.597656 0 3.15625-.148437 4.679687-.410156 3.171875-.554687 6.15625-1.65625 8.847656-3.210937.023438-.011719.046875-.023438.070313-.039063.3125-.179687.621094-.367187.925781-.5625.035156-.019531.066406-.042968.097656-.0625.304688-.191406.597657-.390625.890625-.59375.027344-.019531.054688-.039062.082032-.058594 1.546874-1.085937 2.972656-2.328124 4.253906-3.707031.027344-.027343.054687-.054687.082031-.085937.203125-.21875.402344-.445313.597656-.675782.074219-.082031.148438-.167968.21875-.25.175781-.207031.347657-.421874.519531-.636718.085938-.109375.171876-.21875.257813-.328125.15625-.203125.308594-.410157.460937-.617188.089844-.128906.183594-.253906.273438-.386719.140625-.199218.277344-.402343.414062-.609374.09375-.140626.183594-.285157.277344-.425782.125-.203125.25-.402344.371094-.605468.09375-.15625.183594-.3125.273438-.472657.113281-.199219.226562-.394531.335937-.597656.09375-.175781.179687-.351563.269531-.527344.097656-.191406.199219-.382812.289063-.574219.171875-.359374.335937-.722656.492187-1.089843.066406-.15625.125-.3125.1875-.46875.09375-.234375.191406-.46875.28125-.707031.0625-.167969.117188-.34375.179688-.511719.078125-.230469.15625-.457031.230468-.6875.058594-.179688.109376-.355469.160157-.535157.066406-.230468.136719-.460937.195312-.691406.050781-.179687.09375-.363281.140625-.546875.054688-.234375.109375-.46875.160156-.707031.039063-.183594.078126-.363281.113282-.550781.046875-.242188.089844-.488281.132812-.734375.03125-.179688.058594-.355469.085938-.539063.039062-.257812.070312-.519531.097656-.777343.023438-.171876.042969-.34375.058594-.515626.03125-.289062.046875-.582031.066406-.875.011719-.144531.023438-.289062.03125-.433593.019531-.441407.03125-.882813.03125-1.328125v-35.613282l-52.03125-52.03125c-4.960938-5.414062-12.089844-8.8125-20.015625-8.8125zm0 0" fill="url(#q)"/><path d="m462.410156 310.027344h-412.820312c-14.984375 0-27.132813-12.148438-27.132813-27.136719v-193.609375c0-14.988281 12.148438-27.136719 27.132813-27.136719h412.820312c14.988282 0 27.136719 12.148438 27.136719 27.136719v193.609375c0 14.988281-12.152344 27.136719-27.136719 27.136719zm0 0" fill="url(#r)"/><path d="m22.453125 257.964844v24.925781c0 14.988281 12.148437 27.136719 27.136719 27.136719h412.820312c14.984375 0 27.132813-12.148438 27.132813-27.136719v-24.925781zm0 0" fill="url(#s)"/><path d="m449.523438 285.097656h-387.046876c-8.644531 0-15.679687-7.03125-15.679687-15.679687v-166.660157c0-8.648437 7.035156-15.683593 15.679687-15.683593h387.046876c8.644531 0 15.679687 7.035156 15.679687 15.683593v166.660157c0 8.648437-7.035156 15.679687-15.679687 15.679687zm-387.046876-190.140625c-4.296874 0-7.796874 3.5-7.796874 7.800781v166.660157c0 4.296875 3.5 7.796875 7.796874 7.796875h387.046876c4.296874 0 7.796874-3.5 7.796874-7.796875v-166.660157c0-4.300781-3.5-7.800781-7.796874-7.800781zm0 0" fill="url(#t)"/><path d="m70.003906 107.941406h80.28125v16.347656h-80.28125zm0 0" fill="url(#u)"/><path d="m361.714844 247.886719h80.28125v16.34375h-80.28125zm0 0" fill="url(#v)"/><path d="m342.234375 186.085938c0 47.625-38.609375 86.234374-86.234375 86.234374s-86.234375-38.609374-86.234375-86.234374 38.609375-86.230469 86.234375-86.230469 86.234375 38.605469 86.234375 86.230469zm0 0" fill="url(#w)"/><path d="m327.878906 186.085938c0 39.699218-32.183594 71.878906-71.878906 71.878906s-71.878906-32.179688-71.878906-71.878906c0-39.695313 32.183594-71.878907 71.878906-71.878907s71.878906 32.183594 71.878906 71.878907zm0 0" fill="url(#x)"/><path d="m328.324219 196.144531c-7.492188 18.628907-19.792969 34.933594-35.707031 47.285157-6.550782 5.082031-13.480469 10.558593-21.707032 17.144531l-37.921875-37.921875c-2.929687-2.460938-4.402343-4.960938-4.402343-7.492188 0-1.546875.566406-3.09375 1.703124-4.644531 1.136719-1.546875 2.433594-2.316406 3.894532-2.316406.964844 0 2.238281.707031 3.8125 2.136719 1.578125 1.421874 3.738281 2.949218 6.492187 4.574218 2.753907 1.632813 5.9375 2.570313 9.550781 2.8125v-20.476562l-15.648437-15.683594c-.0625-.054688-.132813-.113281-.195313-.171875-1.183593-1.097656-2.429687-2.425781-3.734374-3.972656-1.304688-1.542969-2.242188-3.359375-2.8125-5.433594-.574219-2.074219-.859376-4.375-.859376-6.898437 0-7.085938 2.222657-12.46875 6.671876-16.140626 4.445312-3.671874 9.972656-5.871093 16.578124-6.609374v-3.546876c0-.734374.347657-1.390624 1.042969-1.960937.691407-.566406 1.53125-.855469 2.511719-.855469.894531 0 1.726562.289063 2.503906.855469.675782.496094 1.039063 1.0625 1.125 1.679687l4.394532 3.921876c3.328124.394531 6.464843 1.113281 9.410156 2.171874 2.875 1.035157 4.761718 2.339844 5.671875 3.921876zm0 0" fill="url(#y)"/><path d="m228.589844 215.15625c0-1.546875.5625-3.09375 1.699218-4.640625 1.136719-1.546875 2.433594-2.320313 3.894532-2.320313.96875 0 2.238281.710938 3.8125 2.136719 1.578125 1.425781 3.738281 2.953125 6.492187 4.578125 2.753907 1.628906 5.9375 2.5625 9.554688 2.808594v-28.699219c-2.449219-.894531-4.324219-1.609375-5.628907-2.136719-1.308593-.527343-3.042968-1.300781-5.203124-2.320312-2.160157-1.015625-3.832032-2.074219-5.015626-3.175781-1.183593-1.097657-2.429687-2.421875-3.734374-3.96875-1.304688-1.546875-2.242188-3.359375-2.8125-5.433594-.574219-2.078125-.859376-4.378906-.859376-6.902344 0-7.085937 2.222657-12.464843 6.671876-16.136719 4.445312-3.671874 9.972656-5.875 16.582031-6.609374v-3.546876c0-.734374.347656-1.386718 1.039062-1.960937.691407-.570313 1.53125-.855469 2.507813-.855469.898437 0 1.734375.289063 2.507812.855469.777344.574219 1.164063 1.226563 1.164063 1.960937v3.300782c4.976562.167968 9.566406 1 13.769531 2.511718 4.199219 1.507813 6.300781 3.609376 6.300781 6.300782 0 1.46875-.496093 3-1.480469 4.589844-.988281 1.589843-2.304687 2.386718-3.949218 2.386718-.652344 0-2.4375-.695312-5.359375-2.082031-2.925781-1.386719-6.019531-2.203125-9.28125-2.445313v24.800782c3.246093 1.21875 5.941406 2.378906 8.09375 3.480468 2.148437 1.097657 4.421875 2.625 6.816406 4.578126 2.394531 1.953124 4.199219 4.417968 5.414063 7.390624 1.214843 2.972657 1.824218 6.453126 1.824218 10.441407 0 7.289062-1.984375 13.082031-5.960937 17.378906-3.980469 4.300781-9.371094 6.941406-16.1875 7.921875v4.089844c0 .71875-.390625 1.359375-1.164063 1.921875-.773437.5625-1.609375.84375-2.507812.84375-.976563 0-1.816406-.28125-2.507813-.839844-.691406-.5625-1.039062-1.203125-1.039062-1.925781v-3.722656c-7.097657-.082032-13.117188-1.703126-18.050781-4.871094-4.9375-3.164063-7.402344-6.394532-7.402344-9.683594zm14.316406-51.292969c0 3.175781.988281 5.597657 2.96875 7.265625 1.976562 1.671875 4.945312 3.238282 8.902344 4.703125v-22.25c-7.914063.980469-11.871094 4.40625-11.871094 10.28125zm17.621094 53.613281c7.179687-1.300781 10.769531-5.332031 10.769531-12.089843 0-3.582031-.9375-6.390625-2.816406-8.425781-1.875-2.035157-4.527344-3.785157-7.953125-5.253907zm0 0" fill="url(#A)"/><path d="m49.589844 310.027344h412.820312c7.492188 0 14.277344-3.035156 19.1875-7.949219 4.910156-4.910156 7.949219-11.691406 7.949219-19.1875v-35.417969c12.753906-2.21875 22.453125-13.335937 22.453125-26.726562v-35.609375l-52.03125-52.035157c-4.960938-5.414062-12.089844-8.8125-20.015625-8.8125h-412.816406c-1.597657 0-3.160157.148438-4.683594.410157v158.191406c0 7.496094 3.039063 14.277344 7.949219 19.1875s11.695312 7.949219 19.1875 7.949219zm0 0" fill="url(#B)"/><path d="m439.953125 372.171875h-412.816406c-14.988281 0-27.136719-12.148437-27.136719-27.132813v-193.613281c0-14.984375 12.148438-27.136719 27.136719-27.136719h412.816406c14.988281 0 27.136719 12.152344 27.136719 27.136719v193.613281c0 14.984376-12.148438 27.132813-27.136719 27.132813zm0 0" fill="url(#C)"/><path d="m0 320.109375v24.929687c0 14.984376 12.148438 27.132813 27.136719 27.132813h412.816406c14.988281 0 27.136719-12.148437 27.136719-27.132813v-24.929687zm0 0" fill="url(#D)"/><path d="m427.066406 347.316406h-387.042968c-8.6875 0-15.757813-7.066406-15.757813-15.753906v-166.660156c0-8.6875 7.070313-15.757813 15.757813-15.757813h387.042968c8.6875 0 15.757813 7.070313 15.757813 15.757813v166.660156c0 8.6875-7.070313 15.753906-15.757813 15.753906zm-387.042968-190.140625c-4.257813 0-7.726563 3.464844-7.726563 7.726563v166.660156c0 4.257812 3.46875 7.722656 7.726563 7.722656h387.042968c4.261719 0 7.726563-3.464844 7.726563-7.722656v-166.660156c0-4.261719-3.46875-7.726563-7.726563-7.726563zm0 0" fill="url(#E)"/><path d="m47.546875 170.085938h80.285156v16.347656h-80.285156zm0 0" fill="url(#F)"/><path d="m339.261719 310.03125h80.28125v16.34375h-80.28125zm0 0" fill="url(#G)"/><path d="m319.777344 248.230469c0 47.625-38.605469 86.234375-86.230469 86.234375s-86.234375-38.609375-86.234375-86.234375 38.609375-86.230469 86.234375-86.230469 86.230469 38.605469 86.230469 86.230469zm0 0" fill="url(#H)"/><path d="m305.421875 248.230469c0 39.699219-32.179687 71.878906-71.875 71.878906-39.699219 0-71.878906-32.179687-71.878906-71.878906 0-39.695313 32.179687-71.878907 71.878906-71.878907 39.695313 0 71.875 32.183594 71.875 71.878907zm0 0" fill="url(#I)"/><path d="m305.867188 258.289062c-7.488282 18.628907-19.789063 34.933594-35.707032 47.285157-6.546875 5.082031-13.480468 10.558593-21.707031 17.144531l-37.917969-37.917969c-2.929687-2.464843-4.402344-4.964843-4.402344-7.496093 0-1.546876.566407-3.09375 1.703126-4.644532 1.132812-1.546875 2.433593-2.316406 3.890624-2.316406.96875 0 2.242188.707031 3.816407 2.136719 1.578125 1.421875 3.738281 2.949219 6.492187 4.574219 2.753906 1.632812 5.9375 2.570312 9.550782 2.8125v-20.472657l-15.648438-15.6875c-.0625-.054687-.132812-.113281-.195312-.171875-1.183594-1.097656-2.429688-2.425781-3.734376-3.972656-1.308593-1.542969-2.242187-3.355469-2.816406-5.433594-.570312-2.074218-.855468-4.375-.855468-6.898437 0-7.085938 2.222656-12.46875 6.667968-16.140625 4.449219-3.671875 9.972656-5.871094 16.582032-6.609375v-3.546875c0-.734375.347656-1.386719 1.042968-1.960938.691406-.566406 1.527344-.855468 2.507813-.855468.894531 0 1.730469.289062 2.507812.855468.671875.496094 1.035157 1.0625 1.125 1.683594l4.394531 3.917969c3.324219.394531 6.464844 1.113281 9.410157 2.171875 2.871093 1.035156 4.761719 2.339844 5.671875 3.921875zm0 0" fill="url(#J)"/><path d="m206.132812 277.300781c0-1.546875.566407-3.09375 1.699219-4.640625 1.136719-1.546875 2.433594-2.320312 3.894531-2.320312.96875 0 2.238282.710937 3.816407 2.136718 1.574219 1.425782 3.738281 2.953126 6.492187 4.578126 2.75 1.628906 5.933594 2.566406 9.550782 2.808593v-28.699219c-2.445313-.894531-4.324219-1.605468-5.628907-2.136718-1.304687-.527344-3.039062-1.300782-5.199219-2.316406-2.164062-1.019532-3.835937-2.078126-5.019531-3.179688-1.183593-1.097656-2.429687-2.421875-3.730469-3.96875-1.308593-1.546875-2.246093-3.355469-2.816406-5.433594-.570312-2.074218-.855468-4.375-.855468-6.902344 0-7.085937 2.21875-12.464843 6.667968-16.136718 4.445313-3.671875 9.972656-5.875 16.582032-6.609375v-3.546875c0-.734375.347656-1.386719 1.039062-1.957032.695312-.570312 1.53125-.855468 2.511719-.855468.894531 0 1.730469.285156 2.507812.855468.773438.570313 1.160157 1.222657 1.160157 1.957032v3.304687c4.976562.164063 9.566406 1 13.769531 2.507813 4.199219 1.511718 6.300781 3.609375 6.300781 6.300781 0 1.46875-.492188 3-1.480469 4.589844-.988281 1.59375-2.304687 2.386719-3.949219 2.386719-.648437 0-2.4375-.691407-5.359374-2.078126-2.925782-1.386718-6.015626-2.203124-9.28125-2.449218v24.800781c3.246093 1.222656 5.945312 2.382813 8.09375 3.480469 2.148437 1.101562 4.421874 2.625 6.816406 4.582031 2.394531 1.953125 4.199218 4.414063 5.414062 7.386719 1.21875 2.972656 1.828125 6.453125 1.828125 10.441406 0 7.289062-1.988281 13.082031-5.964843 17.382812-3.976563 4.296876-9.371094 6.9375-16.1875 7.921876v4.085937c0 .722656-.386719 1.363281-1.160157 1.925781-.777343.558594-1.613281.839844-2.507812.839844-.980469 0-1.816407-.28125-2.511719-.839844-.691406-.5625-1.039062-1.203125-1.039062-1.921875v-3.722656c-7.097657-.085937-13.113282-1.707031-18.050782-4.875-4.933594-3.164063-7.402344-6.394531-7.402344-9.683594zm14.316407-51.292969c0 3.175782.992187 5.597657 2.96875 7.265626 1.976562 1.671874 4.945312 3.238281 8.902343 4.703124v-22.25c-7.914062.980469-11.871093 4.40625-11.871093 10.28125zm17.625 53.613282c7.175781-1.300782 10.769531-5.332032 10.769531-12.089844 0-3.582031-.941406-6.390625-2.816406-8.425781-1.878906-2.035157-4.527344-3.785157-7.953125-5.253907zm0 0" fill="url(#K)"/></svg>