<?xml version="1.0" encoding="iso-8859-1"?>
<!-- Generator: Adobe Illustrator 19.0.0, SVG Export Plug-In . SVG Version: 6.00 Build 0)  -->
<svg version="1.1" id="Capa_1" xmlns="http://www.w3.org/2000/svg" xmlns:xlink="http://www.w3.org/1999/xlink" x="0px" y="0px"
	 viewBox="0 0 320.784 320.784" style="enable-background:new 0 0 320.784 320.784;" xml:space="preserve">
<polygon style="fill:#4DCFE0;" points="222.563,160.531 15.673,301.592 15.673,19.469 "/>
<g>
	<path style="fill:#3A2C51;" d="M15.673,317.265c-2.612,0-5.224-0.522-7.314-1.567C3.135,313.086,0,307.861,0,301.592V19.469
		C0,13.722,3.135,8.498,8.359,5.363c5.224-2.612,11.494-2.612,16.196,1.045l206.89,141.061c4.18,3.135,6.792,7.837,6.792,13.061
		s-2.612,9.927-6.792,13.061L24.555,314.653C21.943,316.22,18.808,317.265,15.673,317.265z M31.347,49.249v222.563l163.527-111.282
		L31.347,49.249z"/>
	<path style="fill:#3A2C51;" d="M305.11,299.502c-8.882,0-15.673-6.792-15.673-15.673V37.233c0-8.882,6.792-15.673,15.673-15.673
		c8.882,0,15.673,6.792,15.673,15.673v246.596C320.784,292.71,313.992,299.502,305.11,299.502z"/>
</g>
<g>
</g>
<g>
</g>
<g>
</g>
<g>
</g>
<g>
</g>
<g>
</g>
<g>
</g>
<g>
</g>
<g>
</g>
<g>
</g>
<g>
</g>
<g>
</g>
<g>
</g>
<g>
</g>
<g>
</g>
</svg>
