<svg height="512pt" viewBox="0 0 512 512" width="512pt" xmlns="http://www.w3.org/2000/svg">
  <path d="m451 304.699219v142.199219l-195 65.101562h-.300781c-8.398438-3-185.699219-62.101562-194.699219-65.101562v-142.199219l16.800781-2.699219 117.597657 40.800781 59.101562-59.101562h3l59.101562 59.101562 117.296876-40.800781h.300781zm0 0" fill="#ffb64c"/>
  <path d="m451 304.699219v142.199219l-195 65.101562v-228.300781h1.5l59.101562 59.101562 117.296876-40.800781h.300781zm0 0" fill="#ff9100"/>
  <path d="m443.5 215.898438-82.5-4.796876-105 57.296876-75-57.296876-111.300781 3.898438c-18.578125 20.6875-58.691407 64.242188-69.699219 76.5 11.019531 3.800781 188.28125 64.597656 199.300781 68.398438 6.855469-6.859376 49.796875-49.796876 56.699219-56.699219 6.859375 6.859375 49.796875 49.796875 56.699219 56.699219 11.019531-3.800782 188.28125-64.597657 199.300781-68.398438-18.277344-20.46875-57.707031-63.515625-68.5-75.601562zm0 0" fill="#ffd396"/>
  <path d="m443.5 215.898438-187.5 52.5-186.300781-53.398438 157.203125-51 29.097656.300781 34.800781.597657zm0 0" fill="#ffb64c"/>
  <path d="m443.5 215.898438-187.5 52.5v-104.097657l34.800781.597657zm0 0" fill="#ff9100"/>
  <path d="m256 0-90 120h45v121.101562h90v-121.101562h45zm0 0" fill="#64e1dc"/>
  <path d="m346 120h-45v121.101562h-45v-241.101562zm0 0" fill="#00c8c8"/>
  <path d="m512 291.5-199.300781 68.398438-56.699219-56.699219v-34.800781l187.5-52.5zm0 0" fill="#ffb64c"/>
</svg>