<svg id="Capa_1" enable-background="new 0 0 512 512" height="512" viewBox="0 0 512 512" width="512" xmlns="http://www.w3.org/2000/svg"><g><g><path clip-rule="evenodd" d="m172.177 370.833c13.258 7.867 27.742 13.928 43.073 17.832v17.541c0 8.362 6.863 15.21 15.244 15.21h25.494c0-152.826 0-230.564 0-383.39h-25.494c-8.381 0-15.244 6.847-15.244 15.21v17.541c-15.331 3.904-29.816 9.965-43.073 17.832l-12.44-12.413c-5.928-5.944-15.652-5.944-21.581 0l-36.036 35.956c-5.928 5.915-5.928 15.589 0 21.503l12.44 12.442c-7.885 13.228-13.959 27.681-17.872 42.978h-17.58c-8.381 0-15.244 6.847-15.244 15.21v50.874c0 8.362 6.863 15.21 15.244 15.21h17.609c3.913 15.297 9.958 29.72 17.843 42.978l-12.44 12.413c-5.928 5.915-5.928 15.618 0 21.533l36.036 35.956c5.928 5.915 15.652 5.915 21.581 0z" fill="#737a93" fill-rule="evenodd"/></g><g><path clip-rule="evenodd" d="m255.987 421.415c106.121 0 192.122-85.839 192.122-191.695 0-105.885-86.001-191.695-192.122-191.695z" fill="#6bd9e7" fill-rule="evenodd"/></g><g><path clip-rule="evenodd" d="m255.987 38.025c44.972 0 84.716 32.459 108.633 82.109 13.55-4.545 25.873-9.878 36.62-15.909-35.218-40.559-87.228-66.2-145.253-66.2z" fill="#00c7dd" fill-rule="evenodd"/></g><g><path clip-rule="evenodd" d="m388.362 229.72h59.748c0-47.989-17.667-91.87-46.87-125.495-10.746 6.031-23.07 11.364-36.62 15.909 14.981 31.061 23.742 68.823 23.742 109.586z" fill="#00c7dd" fill-rule="evenodd"/></g><g><path clip-rule="evenodd" d="m364.62 339.306c13.55 4.516 25.873 9.878 36.62 15.88 29.202-33.625 46.87-77.476 46.87-125.466h-59.748c0 40.735-8.761 78.526-23.742 109.586z" fill="#00c7dd" fill-rule="evenodd"/></g><g><path clip-rule="evenodd" d="m255.987 421.415c58.025 0 110.034-25.67 145.252-66.229-10.746-6.002-23.07-11.364-36.62-15.88-23.916 49.621-63.66 82.109-108.632 82.109z" fill="#00c7dd" fill-rule="evenodd"/></g><g><path clip-rule="evenodd" d="m215.25 145.746c12.323-5.944 26.136-9.295 40.737-9.295v-98.426h-25.494c-8.381 0-15.244 6.847-15.244 15.21v17.541 74.97z" fill="#606b82" fill-rule="evenodd"/></g><g><path clip-rule="evenodd" d="m230.494 421.415h25.494v-98.426c-14.601 0-28.414-3.351-40.737-9.324v75 17.541c-.001 8.362 6.862 15.209 15.243 15.209z" fill="#606b82" fill-rule="evenodd"/></g><g><path clip-rule="evenodd" d="m162.511 229.72c0 51.515 41.847 93.269 93.477 93.269v-93.269-93.269c-51.63.001-93.477 41.755-93.477 93.269z" fill="#e8eaea" fill-rule="evenodd"/></g><g><path clip-rule="evenodd" d="m162.511 229.72c0 51.515 41.847 93.269 93.477 93.269v-93.269-93.269c-51.63.001-93.477 41.755-93.477 93.269z" fill="#e8eaea" fill-rule="evenodd"/></g><g><path clip-rule="evenodd" d="m255.987 322.989v-93.269-93.269c-14.601 0-28.414 3.351-40.737 9.295v167.919c12.324 5.974 26.136 9.324 40.737 9.324z" fill="#d4d6d8" fill-rule="evenodd"/></g><path d="m407.839 100.224c-.474-.782-1.064-1.453-1.739-2-36.654-41.613-90.358-67.925-150.112-67.925-4.267 0-7.726 3.459-7.726 7.726v383.39c0 4.267 3.459 7.726 7.726 7.726 26.562 0 51.017-21.547 68.859-60.672 4.123-9.041 7.792-18.801 10.989-29.14 23.348 5.31 44.403 12.949 61.628 22.598 1.194.669 2.49.987 3.769.987 2.705 0 5.332-1.424 6.747-3.952 2.086-3.723.759-8.431-2.965-10.517-18.272-10.234-40.478-18.343-65.011-23.986 6.713-26.519 10.521-56.154 11.067-87.012h89.129c-1.176 27.873-8.671 55.248-21.892 79.614-2.035 3.751-.645 8.441 3.106 10.476 1.171.636 2.434.937 3.678.937 2.742 0 5.398-1.463 6.798-4.043 15.666-28.871 23.947-61.621 23.947-94.711-.001-49.385-18.092-94.628-47.998-129.496zm-144.126 43.871c21.041-.403 41.614-2.446 61.017-5.976 6.4 25.036 10.313 53.647 10.886 83.874h-71.903zm76.366-9.135c21.991-5.068 42.097-12.123 59.178-20.913 24.184 29.753 39.263 67.153 40.961 107.947h-89.143c-.547-31.601-4.449-61.101-10.996-87.034zm48.566-32.875c-15.385 7.501-33.256 13.568-52.738 18.006-9.167-29.667-22.009-53.676-37.294-69.368 34.87 8.264 65.932 26.442 90.032 51.362zm-68.149 21.123c-18.042 3.192-37.179 5.045-56.783 5.433v-81.988c23.07 5.402 43.608 34.643 56.783 76.555zm-56.783 289.58v-81.988c19.602.388 38.738 2.24 56.783 5.431-13.174 41.913-33.713 71.155-56.783 76.557zm61.018-91.469c-19.405-3.528-39.978-5.57-61.017-5.973v-77.899h71.903c-.574 30.226-4.486 58.836-10.886 83.872z" fill="#e8eaea"/><g><path clip-rule="evenodd" d="m144.143 370.512c-11.155-30.041-40.212-51.573-74.057-51.573-27.012 0-50.958 13.724-65.18 34.528-14.952 21.824 8.673 17.628 12.615 17.628h47.425c16.558 0 30.254 12.966 31.334 29.225-1.08 16.288-14.776 29.254-31.334 29.254h-47.425c-3.942 0-27.567-4.225-12.615 17.599 14.222 20.804 38.167 34.528 65.18 34.528 33.845 0 62.902-21.533 74.057-51.544h223.69c11.185 30.012 40.212 51.544 74.057 51.544 27.012 0 50.958-13.724 65.209-34.528 14.952-21.824-8.702-17.599-12.645-17.599h-47.395c-16.587 0-30.254-12.966-31.363-29.254 1.11-16.259 14.776-29.225 31.363-29.225h47.395c3.942 0 27.596 4.196 12.645-17.628-14.251-20.804-38.197-34.528-65.209-34.528-33.845 0-62.873 21.533-74.057 51.573z" fill="#c1eaf4" fill-rule="evenodd"/></g><g><path clip-rule="evenodd" d="m463.412 445.425c-30.925 0-57.85-9.033-70.757-33.508-5.344-10.111-7.096-7.314-20.179-7.314h-228.158c-8.001 0-9.958-1.486-13.083 5.07-12.44 26.165-40.036 35.752-71.896 35.752-17.93 0-34.488-6.031-47.775-16.171-7.593-.146-17.755 1.719-6.658 17.919 14.222 20.804 38.167 34.528 65.18 34.528 33.845 0 62.902-21.533 74.057-51.544h223.69c11.185 30.012 40.212 51.544 74.057 51.544 27.012 0 50.958-13.724 65.209-34.528 6.717-9.819 5.636-14.365 2.044-16.404-12.937 9.207-28.736 14.656-45.731 14.656z" fill="#99cfe0" fill-rule="evenodd"/></g></g></svg>