<?xml version="1.0" encoding="iso-8859-1"?>
<!-- Generator: Adobe Illustrator 19.0.0, SVG Export Plug-In . SVG Version: 6.00 Build 0)  -->
<svg version="1.1" id="Layer_1" xmlns="http://www.w3.org/2000/svg" xmlns:xlink="http://www.w3.org/1999/xlink" x="0px" y="0px"
	 viewBox="0 0 512 512" style="enable-background:new 0 0 512 512;" xml:space="preserve">
<rect x="4" y="42.28" style="fill:#FFFFFF;" width="504.002" height="427.44"/>
<path style="fill:#CCCCCC;" d="M504,46.28v419.44H8V46.28H504 M512,38.28H0v435.44h512V38.28z"/>
<circle style="fill:#E21B1B;" cx="138.349" cy="187.589" r="62.008"/>
<path style="fill:#FFFFFF;" d="M134.249,224.368v-8.8c-5.157-0.06-10.212-1.438-14.688-4l2.448-8.52
	c4.288,2.544,9.167,3.922,14.152,4c5.712,0,9.6-2.816,9.6-7.2c0-4.088-3.2-6.712-9.888-9.168c-9.52-3.448-15.688-7.8-15.688-16.232
	c0.171-8.131,6.49-14.804,14.6-15.416v-8.856h7.44v8.44c4.342,0.048,8.618,1.07,12.512,2.992l-2.448,8.344
	c-3.807-1.998-8.036-3.058-12.336-3.088c-6.352,0-8.616,3.264-8.616,6.352c0,3.72,3.264,5.808,10.976,8.88
	c10.16,3.816,14.688,8.712,14.688,16.8c-0.176,8.533-6.816,15.53-15.328,16.152v9.336L134.249,224.368z"/>
<g>
	<rect x="76.348" y="382.419" style="fill:#CCCCCC;" width="359.296" height="8"/>
	<rect x="76.348" y="333.636" style="fill:#CCCCCC;" width="359.296" height="8"/>
	<rect x="76.348" y="284.853" style="fill:#CCCCCC;" width="359.296" height="8"/>
	<rect x="240.522" y="236.08" style="fill:#CCCCCC;" width="195.122" height="8"/>
	<rect x="240.522" y="187.297" style="fill:#CCCCCC;" width="195.122" height="8"/>
	<rect x="240.522" y="138.524" style="fill:#CCCCCC;" width="195.122" height="8"/>
</g>
<g>
</g>
<g>
</g>
<g>
</g>
<g>
</g>
<g>
</g>
<g>
</g>
<g>
</g>
<g>
</g>
<g>
</g>
<g>
</g>
<g>
</g>
<g>
</g>
<g>
</g>
<g>
</g>
<g>
</g>
</svg>
