<?xml version="1.0" encoding="iso-8859-1"?>
<!-- Generator: Adobe Illustrator 19.0.0, SVG Export Plug-In . SVG Version: 6.00 Build 0)  -->
<svg version="1.1" id="Layer_1" xmlns="http://www.w3.org/2000/svg" xmlns:xlink="http://www.w3.org/1999/xlink" x="0px" y="0px"
	 viewBox="0 0 493.528 493.528" style="enable-background:new 0 0 493.528 493.528;" xml:space="preserve">
<g>
	<g>
		<path d="M178.064,0L166.04,0.248c-14.876,0-27.236,12.112-27.236,26.992v439.664c0,14.876,13.396,26.624,28.272,26.624h0.084
			l10.976-0.072c14.892,0,26.22-11.92,26.22-26.808V26.996C204.352,12.116,193.028,0,178.064,0z"/>
	</g>
</g>
<g>
	<g>
		<path d="M328.584,0l-12.092,0.248c-14.88,0-27.3,12.112-27.3,26.992v439.664c0,14.876,13.708,26.624,28.58,26.624h0.084
			l10.816-0.072c14.88,0,26.052-11.92,26.052-26.808V26.996C354.72,12.116,343.548,0,328.584,0z"/>
	</g>
</g>
<g>
</g>
<g>
</g>
<g>
</g>
<g>
</g>
<g>
</g>
<g>
</g>
<g>
</g>
<g>
</g>
<g>
</g>
<g>
</g>
<g>
</g>
<g>
</g>
<g>
</g>
<g>
</g>
<g>
</g>
</svg>
