<svg id="Layer_1" enable-background="new 0 0 256 256" height="512" viewBox="0 0 256 256" width="512" xmlns="http://www.w3.org/2000/svg"><path d="m228.172 239.019h-200.616c-10.876 0-19.692-8.817-19.692-19.692v-182.154c0-10.876 8.817-19.692 19.692-19.692h200.615c10.876 0 19.692 8.817 19.692 19.692v182.154c.001 10.876-8.816 19.692-19.691 19.692z" fill="#e0ebfc"/><path d="m228.172 17.481h-200.616c-10.876 0-19.692 8.816-19.692 19.692v36.013h240v-36.013c0-10.876-8.817-19.692-19.692-19.692z" fill="#4671c6"/><circle cx="113.875" cy="210.612" fill="#4671c6" r="13.989"/><path d="m113.875 218.496c-4.348 0-7.885-3.537-7.885-7.885s3.537-7.885 7.885-7.885c4.347 0 7.884 3.537 7.884 7.885.001 4.348-3.537 7.885-7.884 7.885z" fill="#f9cfcf"/><path d="m113.875 226.601c-8.816 0-15.989-7.173-15.989-15.989s7.172-15.988 15.989-15.988 15.989 7.172 15.989 15.988-7.173 15.989-15.989 15.989zm0-27.978c-6.611 0-11.989 5.378-11.989 11.988 0 6.611 5.378 11.989 11.989 11.989s11.989-5.378 11.989-11.989c0-6.61-5.378-11.988-11.989-11.988z" fill="#3762cc"/><circle cx="54.916" cy="210.612" fill="#4671c6" r="13.989"/><path d="m54.916 218.496c-4.348 0-7.885-3.537-7.885-7.885s3.537-7.885 7.885-7.885c4.347 0 7.884 3.537 7.884 7.885.001 4.348-3.536 7.885-7.884 7.885z" fill="#f9cfcf"/><path d="m54.916 226.601c-8.816 0-15.989-7.173-15.989-15.989s7.172-15.988 15.989-15.988 15.989 7.172 15.989 15.988-7.173 15.989-15.989 15.989zm0-27.978c-6.611 0-11.989 5.378-11.989 11.988 0 6.611 5.378 11.989 11.989 11.989s11.989-5.378 11.989-11.989c0-6.61-5.378-11.988-11.989-11.988z" fill="#3762cc"/><path d="m59.03 196.623v10.478c0 1.893-1.535 3.428-3.428 3.428h-.985c-1.462 0-2.763-.927-3.24-2.31l-4.002-11.597h11.655z" fill="#a4c9ff"/><path d="m117.988 196.623v10.478c0 1.893-1.535 3.428-3.428 3.428h-.985c-1.462 0-2.763-.927-3.24-2.31l-4.002-11.597h11.655z" fill="#a4c9ff"/><path d="m55.602 212.529h-.984c-2.314 0-4.376-1.47-5.131-3.658l-4.002-11.596c-.211-.611-.113-1.286.262-1.813.375-.526.982-.839 1.628-.839h11.655c1.104 0 2 .896 2 2v10.478c0 2.993-2.435 5.428-5.428 5.428zm-5.421-13.906 3.086 8.943c.199.576.741.963 1.35.963h.984c.788 0 1.428-.641 1.428-1.429v-8.478h-6.848z" fill="#3762cc"/><path d="m114.561 212.529h-.984c-2.314 0-4.376-1.47-5.131-3.658l-4.001-11.596c-.211-.611-.113-1.287.262-1.813s.982-.839 1.628-.839h11.654c1.104 0 2 .896 2 2v10.478c-.001 2.993-2.436 5.428-5.428 5.428zm-5.421-13.906 3.086 8.943c.199.576.741.963 1.35.963h.984c.787 0 1.428-.641 1.428-1.429v-8.478h-6.848z" fill="#3762cc"/><path d="m171.514 101.102h-25.067c-1.66 0-3.006-1.346-3.006-3.006v-7.515c0-1.66 1.346-3.006 3.006-3.006h25.067c1.66 0 3.006 1.346 3.006 3.006v7.515c0 1.66-1.346 3.006-3.006 3.006z" fill="#f9a7a7"/><path d="m171.514 103.102h-25.067c-2.76 0-5.006-2.246-5.006-5.006v-7.515c0-2.76 2.246-5.006 5.006-5.006h25.067c2.76 0 5.006 2.246 5.006 5.006v7.515c0 2.759-2.246 5.006-5.006 5.006zm-25.067-13.527c-.555 0-1.006.451-1.006 1.006v7.515c0 .555.451 1.006 1.006 1.006h25.067c.555 0 1.006-.451 1.006-1.006v-7.515c0-.555-.451-1.006-1.006-1.006z" fill="#3762cc"/><path d="m135.947 100.976c.227-1.642 1.544-2.88 3.063-2.88h4.431v-7.515h-4.431c-5.252 0-9.769 4.026-10.508 9.365l-.876 6.342h3.159c1.084 0 2.115.468 2.828 1.284.714.816 1.04 1.9.895 2.975z" fill="#a4c9ff"/><path d="m134.512 112.547c-.094 0-.189-.007-.284-.02-1.088-.155-1.847-1.158-1.7-2.247.067-.503-.085-1.01-.418-1.392-.334-.382-.816-.601-1.323-.601h-3.159c-.578 0-1.128-.25-1.508-.687-.38-.436-.553-1.015-.473-1.587l.876-6.342c.874-6.323 6.243-11.092 12.489-11.092h4.431c1.104 0 2 .896 2 2v7.515c0 1.104-.896 2-2 2h-4.431c-.518 0-.993.507-1.082 1.153-.001.008-.002.016-.003.023l-1.438 9.571c-.151.994-1.003 1.706-1.977 1.706zm-4.59-8.259h.864c.896 0 1.767.208 2.552.597l.63-4.195c.368-2.62 2.533-4.594 5.042-4.594h2.431v-3.515h-2.431c-4.259 0-7.924 3.284-8.527 7.64zm6.025-3.312h.01z" fill="#3762cc"/><g fill="#b9befc"><path d="m228.369 128.862h-75.077c-2.209 0-4-1.791-4-4s1.791-4 4-4h75.077c2.209 0 4 1.791 4 4s-1.791 4-4 4z"/><path d="m228.369 146.094h-75.077c-2.209 0-4-1.791-4-4s1.791-4 4-4h75.077c2.209 0 4 1.791 4 4s-1.791 4-4 4z"/><path d="m200.882 163.324h-47.59c-2.209 0-4-1.791-4-4s1.791-4 4-4h47.59c2.209 0 4 1.791 4 4s-1.791 4-4 4z"/><path d="m225.6 198.452h-20.923c-3.739 0-6.769-3.031-6.769-6.769 0-3.739 3.031-6.769 6.769-6.769h20.923c3.739 0 6.769 3.031 6.769 6.769 0 3.738-3.031 6.769-6.769 6.769z"/><path d="m180.873 207.172c-4.202-.634-7.245-3.236-7.59-7.488-.036-.443.323-.82.768-.82h3.324c.38 0 .694.28.758.654.252 1.479.992 2.636 2.279 3.246.514.244 1.109-.122 1.109-.691v-8.029c0-.344-.229-.646-.56-.739-3.777-1.068-7.71-2.463-7.71-8.364 0-4.701 3.093-7.998 7.628-8.703.371-.058.642-.38.642-.755v-2.16c0-.424.344-.768.768-.768h1.025c.424 0 .768.344.768.768v2.113c0 .375.271.7.642.756 3.912.591 6.617 3.027 7.221 7.217.066.46-.298.873-.763.873h-3.293c-.368 0-.673-.263-.753-.622-.246-1.104-.877-2.106-1.852-2.745-.516-.338-1.202.018-1.202.636v7.721c0 .347.233.65.568.741 3.772 1.026 7.664 2.384 7.664 8.28 0 4.086-2.681 8.05-7.59 8.833-.37.059-.642.38-.642.755v2.162c0 .424-.344.768-.768.768h-1.025c-.424 0-.768-.344-.768-.768v-2.115c0-.377-.275-.7-.648-.756zm.648-19.206v-6.752c0-.519-.511-.905-1.001-.733-1.623.57-2.701 1.951-2.701 4.196 0 2.078 1.048 3.221 2.588 3.977.513.251 1.114-.117 1.114-.688zm2.56 7.385v6.743c0 .558.574.924 1.086.702 1.683-.732 2.617-2.333 2.617-4.24 0-2.044-1.05-3.151-2.594-3.895-.513-.247-1.109.121-1.109.69z"/></g><path d="m187.095 51.969h-14.892c-1.495 0-2.708-1.212-2.708-2.708v-14.892c0-1.495 1.212-2.708 2.708-2.708h14.892c1.495 0 2.708 1.212 2.708 2.708v14.892c-.001 1.496-1.213 2.708-2.708 2.708z" fill="#f9cfcf"/><path d="m141.795 55.3h-17.197c-3.517 0-6.369-3.244-6.369-7.246s2.852-7.246 6.369-7.246h17.197c3.517 0 6.369 3.244 6.369 7.246s-2.852 7.246-6.369 7.246z" fill="#f9cfcf"/><path d="m177.998 58.506h-14.892c-1.495 0-2.708-1.212-2.708-2.708v-14.892c0-1.495 1.212-2.708 2.708-2.708h14.892c1.495 0 2.708 1.212 2.708 2.708v14.892c-.001 1.496-1.213 2.708-2.708 2.708z" fill="#e0ebfc"/><path d="m226.447 45.084 4.215-4.352c.994-1.027 1.529-2.378 1.506-3.807s-.601-2.763-1.628-3.757c-1.004-.972-2.325-1.507-3.722-1.507-1.461 0-2.826.578-3.842 1.628l-3.976 4.106-3.976-4.106c-1.017-1.05-2.382-1.628-3.843-1.628-1.396 0-2.718.535-3.721 1.507-1.027.994-1.605 2.328-1.628 3.757s.512 2.78 1.506 3.807l4.215 4.352-4.215 4.352c-.994 1.027-1.529 2.378-1.506 3.807s.601 2.763 1.627 3.757c1.003.971 2.325 1.507 3.721 1.507 1.462 0 2.826-.578 3.843-1.628l3.977-4.106 3.976 4.106c1.017 1.05 2.382 1.628 3.843 1.628 1.398 0 2.719-.535 3.721-1.507 1.027-.994 1.605-2.328 1.628-3.757s-.512-2.78-1.506-3.807z" fill="#f9cfcf"/><path d="m133.614 107.572c-.713-.816-1.744-1.284-2.828-1.284h-98.785c-1.875 0-3.658.81-4.893 2.221s-1.799 3.287-1.549 5.146l7.626 56.633c.614 4.566 4.552 8.009 9.159 8.009h11.417 2.223 1.533 45.011 1.533 2.201 11.046c4.607 0 8.544-3.443 9.159-8.009l8.044-59.742c.143-1.073-.183-2.158-.897-2.974zm-100.453 6.231h14.525l2.164 24.733h-13.358zm9.183 56.98c-.861 0-1.597-.643-1.712-1.497l-3.129-23.236h13.005l2.164 24.732h-10.328zm33.921 0h-16.049l-2.164-24.732h18.212v24.732zm0-32.247h-18.87l-2.164-24.733h21.034zm23.563 32.247h-16.048v-24.733h18.212zm2.821-32.247h-18.869v-24.733h21.033zm16.369 30.751c-.115.853-.851 1.496-1.711 1.496h-9.934l2.164-24.732h12.611zm4.14-30.751h-12.965l2.164-24.733h14.131z" fill="#a4c9ff"/><path d="m121.987 178.298c2.78 0 5.041 2.424 5.041 5.405s-2.261 5.405-5.041 5.405h-84.439c-2.075 0-3.757 1.682-3.757 3.757s1.682 3.757 3.757 3.757h84.439c6.923 0 12.556-5.796 12.556-12.92 0-5.603-3.491-10.371-8.347-12.157-1.103 3.924-4.717 6.752-8.889 6.752z" fill="#a4c9ff"/><path d="m117.307 180.297h-74.963c-5.604 0-10.395-4.188-11.142-9.741l-7.625-56.634c-.327-2.432.412-4.885 2.026-6.729 1.614-1.846 3.946-2.904 6.398-2.904h98.785c1.662 0 3.241.717 4.334 1.968 1.093 1.25 1.593 2.911 1.372 4.558l-8.044 59.742c-.748 5.552-5.537 9.74-11.141 9.74zm-85.306-72.009c-1.298 0-2.533.561-3.387 1.537-.854.978-1.246 2.276-1.072 3.563l7.625 56.634c.481 3.577 3.567 6.274 7.178 6.274h74.962c3.61 0 6.695-2.697 7.177-6.274l8.044-59.742c.067-.503-.085-1.01-.418-1.392-.333-.382-.815-.601-1.323-.601h-98.786zm85.306 64.495h-9.935c-.561 0-1.096-.235-1.475-.648-.379-.414-.567-.967-.518-1.525l2.164-24.732c.09-1.033.955-1.826 1.992-1.826h12.611c.577 0 1.126.249 1.506.684.379.435.553 1.012.476 1.583l-3.128 23.235v.001c-.249 1.841-1.836 3.228-3.693 3.228zm1.711-3.496h.01zm-1.981-.27v.003zm-7.482-.234h7.513l2.792-20.732h-8.491zm-9.727 4h-16.048c-1.104 0-2-.896-2-2v-24.732c0-1.104.896-2 2-2h18.212c.561 0 1.096.235 1.475.648.379.414.567.967.518 1.526l-2.164 24.732c-.092 1.033-.956 1.826-1.993 1.826zm-14.048-4h12.215l1.814-20.732h-14.029zm-9.515 4h-16.049c-1.037 0-1.902-.793-1.992-1.826l-2.164-24.732c-.049-.559.139-1.111.518-1.525.379-.413.914-.648 1.475-.648h18.212c1.104 0 2 .896 2 2v24.732c0 1.104-.896 1.999-2 1.999zm-14.216-4h12.216v-20.732h-14.03zm-9.377 4h-10.328c-1.857 0-3.445-1.389-3.694-3.229l-3.129-23.236c-.077-.571.097-1.148.476-1.583.38-.435.929-.684 1.506-.684h13.005c1.037 0 1.902.793 1.992 1.826l2.164 24.732c.049.559-.139 1.111-.518 1.525-.378.414-.914.649-1.474.649zm-10.058-3.763h.01zm-.031-.237h7.907l-1.813-20.732h-8.885zm80.575-28.248h-12.965c-.561 0-1.096-.235-1.475-.648-.379-.414-.566-.967-.518-1.525l2.164-24.732c.09-1.033.955-1.826 1.992-1.826h14.131c.577 0 1.126.249 1.506.684.379.435.553 1.012.476 1.583l-3.33 24.732c-.132.992-.979 1.732-1.981 1.732zm-10.782-4h9.034l2.792-20.732h-10.012zm-9.727 4h-18.869c-1.104 0-2-.896-2-2v-24.732c0-1.104.896-2 2-2h21.033c.561 0 1.096.235 1.475.648.379.414.566.967.518 1.525l-2.164 24.732c-.091 1.034-.956 1.827-1.993 1.827zm-16.869-4h15.037l1.813-20.732h-16.85zm-9.515 4h-18.87c-1.037 0-1.902-.793-1.992-1.825l-2.164-24.732c-.049-.559.139-1.112.518-1.526.379-.413.914-.648 1.475-.648h21.034c1.104 0 2 .896 2 2v24.732c-.001 1.104-.897 1.999-2.001 1.999zm-17.037-4h15.037v-20.732h-16.851zm-9.377 4h-13.359c-1.001 0-1.849-.74-1.982-1.733l-3.331-24.732c-.077-.571.097-1.148.476-1.583.38-.435.929-.684 1.506-.684h14.525c1.037 0 1.902.793 1.992 1.825l2.164 24.732c.049.56-.139 1.112-.518 1.526-.378.414-.913.649-1.473.649zm-11.611-4h9.428l-1.814-20.732h-10.405z" fill="#3762cc"/><path d="m121.987 198.623h-84.439c-3.175 0-5.757-2.583-5.757-5.758s2.583-5.758 5.757-5.758h84.439c1.677 0 3.041-1.527 3.041-3.404 0-1.878-1.364-3.405-3.041-3.405l-4.681-.001c-1.104 0-2-.896-2-2s.896-2 2-2c3.225 0 6.088-2.177 6.964-5.293.151-.537.519-.986 1.016-1.24s1.077-.287 1.601-.096c5.775 2.125 9.656 7.766 9.656 14.035 0 8.227-6.53 14.92-14.556 14.92zm-84.439-7.516c-.969 0-1.757.788-1.757 1.758s.789 1.758 1.757 1.758h84.439c5.82 0 10.556-4.898 10.556-10.92 0-3.929-2.063-7.516-5.286-9.443-.555 1.057-1.27 2.008-2.109 2.827 2.3 1.22 3.88 3.728 3.88 6.616 0 4.083-3.159 7.404-7.041 7.404z" fill="#3762cc"/><circle cx="80.022" cy="106.339" fill="#6bdddd" r="25.415"/><path d="m80.022 125.252c-10.428 0-18.912-8.484-18.912-18.913s8.484-18.913 18.912-18.913 18.913 8.484 18.913 18.913-8.485 18.913-18.913 18.913z" fill="#ffea92"/><path d="m80.022 133.754c-15.117 0-27.415-12.298-27.415-27.415s12.298-27.415 27.415-27.415 27.415 12.298 27.415 27.415-12.298 27.415-27.415 27.415zm0-50.83c-12.911 0-23.415 10.504-23.415 23.415s10.504 23.415 23.415 23.415 23.415-10.504 23.415-23.415-10.504-23.415-23.415-23.415z" fill="#3762cc"/><path d="m67.072 107.451c-1.104 0-2-.896-2-2 0-8.007 6.514-14.521 14.521-14.521 6.257 0 11.794 3.99 13.778 9.929.35 1.048-.216 2.181-1.263 2.53-1.049.351-2.181-.214-2.531-1.263-1.438-4.305-5.45-7.196-9.984-7.196-5.802 0-10.521 4.72-10.521 10.521 0 1.105-.895 2-2 2z" fill="#6bdddd"/><path d="m91.809 104.204c-.209 0-.419-.044-.615-.132l-4.913-2.208c-.537-.241-.883-.774-.885-1.363s.341-1.125.877-1.369l6.075-2.774c.52-.236 1.13-.159 1.573.203s.641.945.511 1.502l-1.162 4.982c-.102.437-.394.805-.795 1.004-.21.103-.438.155-.666.155z" fill="#6bdddd"/><path d="m80.45 121.146c-6.041 0-11.387-3.853-13.303-9.587-.262-.786.162-1.636.948-1.898.787-.261 1.635.162 1.898.947 1.506 4.509 5.708 7.538 10.458 7.538 6.077 0 11.021-4.944 11.021-11.021 0-.828.671-1.5 1.5-1.5s1.5.672 1.5 1.5c0 7.731-6.29 14.021-14.022 14.021z" fill="#6bdddd"/><path d="m67.073 116.354c-.34 0-.677-.115-.95-.339-.443-.362-.641-.945-.511-1.502l1.162-4.982c.102-.437.394-.805.795-1.004.402-.198.871-.207 1.28-.023l4.913 2.208c.537.241.883.774.885 1.363s-.341 1.125-.877 1.369l-6.075 2.774c-.199.092-.411.136-.622.136z" fill="#6bdddd"/><path d="m228.171 241.02h-200.615c-11.961 0-21.692-9.731-21.692-21.692v-182.155c0-11.961 9.731-21.692 21.692-21.692h200.615c11.961 0 21.692 9.731 21.692 21.692v182.154c.001 11.961-9.73 21.693-21.692 21.693zm-200.615-221.54c-9.755 0-17.692 7.937-17.692 17.692v182.154c0 9.756 7.937 17.692 17.692 17.692h200.615c9.755 0 17.692-7.937 17.692-17.692v-182.153c0-9.756-7.937-17.692-17.692-17.692h-200.615z" fill="#3762cc"/></svg>