<svg id="_x31__x2C_5_px" enable-background="new 0 0 24 24" height="512" viewBox="0 0 24 24" width="512" xmlns="http://www.w3.org/2000/svg">
  <g>
    <path d="m23.25 3.812v.034c0 .817-.32 1.6-.901 2.182l-2.476 2.51-4.423-4.397 2.46-2.493c.581-.59 1.365-.927 2.198-.935.825.025 1.617.32 2.215.91.59.58.927 1.355.927 2.189z" fill="#f44336"/>
  </g>
  <g>
    <path d="m5.159 18.792-2.091-2.092c-.048.057-.089.113-.113.186l-1.922 5.298c-.073.226-.024.468.145.638.113.113.267.178.428.178.073 0 .137-.008.21-.032l5.298-1.922c.073-.024.129-.065.186-.113z" fill="#ffe082"/>
  </g>
  <g>
    <path d="m17.83 6.22h-.01c-.09.04-.18.09-.25.16l-12.38 12.37 2.12 2.12 12.58-12.59z" fill="#ffb300"/>
  </g>
  <g>
    <path d="m15.72 4.11-12.59 12.58 2.09 2.09 12.58-12.58z" fill="#ffc107"/>
  </g>
  <g>
    <path d="m17.5 23.25c-3.171 0-5.75-2.579-5.75-5.75s2.579-5.75 5.75-5.75 5.75 2.579 5.75 5.75-2.579 5.75-5.75 5.75z" fill="#2196f3"/>
  </g>
  <g>
    <path d="m17.5 24c-3.584 0-6.5-2.916-6.5-6.5s2.916-6.5 6.5-6.5 6.5 2.916 6.5 6.5-2.916 6.5-6.5 6.5zm0-11.5c-2.757 0-5 2.243-5 5s2.243 5 5 5 5-2.243 5-5-2.243-5-5-5z"/>
  </g>
  <g>
    <path d="m17.5 21c-.414 0-.75-.336-.75-.75v-5.5c0-.414.336-.75.75-.75s.75.336.75.75v5.5c0 .414-.336.75-.75.75z"/>
  </g>
  <g>
    <path d="m20.25 18.25h-5.5c-.414 0-.75-.336-.75-.75s.336-.75.75-.75h5.5c.414 0 .75.336.75.75s-.336.75-.75.75z"/>
  </g>
  <g>
    <path d="m19.871 9.011c-.192 0-.384-.073-.53-.22l-4.135-4.134c-.293-.293-.293-.768 0-1.061s.768-.293 1.061 0l4.135 4.134c.293.293.293.768 0 1.061-.147.147-.339.22-.531.22z"/>
  </g>
  <g>
    <path d="m.75 24c-.195 0-.387-.076-.53-.22-.206-.206-.274-.513-.175-.786l2.38-6.56c.038-.104.097-.197.175-.274l15.08-15.07c1.392-1.404 3.836-1.406 5.233.002.7.701 1.087 1.628 1.087 2.608 0 .999-.389 1.931-1.094 2.625l-3.135 3.135c-.293.293-.768.293-1.061 0s-.293-.768 0-1.061l3.14-3.14c.421-.414.65-.967.65-1.56 0-.58-.231-1.13-.65-1.55-.833-.84-2.279-.838-3.107-.002l-14.965 14.956-1.776 4.896 4.896-1.776 1.502-1.503c.293-.293.768-.293 1.061 0s.293.768 0 1.061l-1.621 1.619c-.078.078-.171.138-.274.175l-6.56 2.38c-.084.03-.17.045-.256.045z"/>
  </g>
  <g>
    <path d="m7.308 21.62c-.192 0-.384-.073-.53-.22l-4.178-4.177c-.293-.293-.293-.768 0-1.061s.768-.293 1.061 0l4.178 4.178c.293.293.293.768 0 1.061-.147.146-.339.219-.531.219z"/>
  </g>
</svg>