<?xml version="1.0" encoding="iso-8859-1"?>
<!-- Generator: Adobe Illustrator 19.0.0, SVG Export Plug-In . SVG Version: 6.00 Build 0)  -->
<svg version="1.1" id="Capa_1" xmlns="http://www.w3.org/2000/svg" xmlns:xlink="http://www.w3.org/1999/xlink" x="0px" y="0px"
	 viewBox="0 0 512 512" style="enable-background:new 0 0 512 512;" xml:space="preserve">
<polygon style="fill:#007A6E;" points="401.475,53.091 401.475,12.512 379.741,0 311.272,39.53 311.272,103.681 290.842,115.578 
	345.595,166.787 367.23,179.27 421.945,64.912 "/>
<polygon style="fill:#009F5E;" points="367.23,179.27 421.944,64.912 401.475,76.73 401.475,12.512 332.984,52.055 332.984,116.273 
	312.515,128.091 "/>
<g>
	<polygon style="fill:#00D16D;" points="311.272,39.53 379.741,0 401.475,12.512 332.984,52.055 	"/>
	<polygon style="fill:#00D16D;" points="312.515,128.091 290.842,115.578 311.272,103.681 332.984,116.273 	"/>
	<polygon style="fill:#00D16D;" points="421.944,64.912 401.475,53.091 401.475,76.73 	"/>
</g>
<path style="fill:#C40041;" d="M296.229,254.357c-2.588-2.089-5.586-3.845-8.966-5.292l-28.467-16.803
	c-0.236-0.141-0.471-0.283-0.711-0.42l-0.219-0.129h-0.023c-19.006-10.654-43.623-6.139-64.087-4.498
	c7.863-34.59,65.778-44.856,94.529-44.219l21.484-81.009L276.372,82.68c-13.161,0.041-26.3,1.887-38.999,5.32v-0.304l-33.398-19.305
	l-37.372,21.577v32.979c-44.544,31.883-76.549,78.146-76.549,133.985l0,0l0,0c0,20.685,2.089,45.653,22.322,57.188l-0.001,0.004
	l32.653,18.869v-0.002c18.764,11.233,42.485,6.216,63.011,5.182c-8.406,43.711-84.414,53.337-117.623,49.983l0,0v79.92
	l33.398,19.306c13.949,0.01,28.213-2.211,42.79-6.644v11.957L200.001,512l37.373-21.577v-46.459
	c31.641-23.435,56.891-55.391,68.364-93.411C313.775,323.914,321.833,275.032,296.229,254.357
	C293.641,252.268,307.18,263.2,296.229,254.357z"/>
<path style="fill:#FF5331;" d="M237.373,120.194c23.95-12.06,48.083-18.132,72.397-18.208L276.372,82.68
	c-13.052,0.041-26.052,1.822-38.999,5.32V120.194z"/>
<path style="fill:#ED7064;" d="M202.727,350.648L202.727,350.648L202.727,350.648z"/>
<path style="fill:#FF5331;" d="M236.133,369.941c0,0-32.909-18.999-32.912-19.002c-17.222,28.955-77.653,40.375-112.807,37.217
	l33.398,19.306c13.962,1.41,29.126,2.485,45.496-0.629C185.676,403.725,221.844,390.344,236.133,369.941z"/>
<g>
	<path style="fill:#ED7064;" d="M91.591,235.052c-0.024,0.17-0.04,0.343-0.064,0.513c0.023-0.169,0.049-0.338,0.073-0.508
		L91.591,235.052z"/>
	<path style="fill:#ED7064;" d="M91.528,235.565c-0.217,1.571-0.419,3.148-0.588,4.736C91.11,238.714,91.31,237.137,91.528,235.565z
		"/>
</g>
<polygon style="fill:#FF5331;" points="200.001,109.273 166.604,89.968 203.975,68.391 237.373,87.696 "/>
<path style="fill:#F43834;" d="M200.001,466.985c-26.359,13.616-51.756,20.414-76.188,20.396v-79.92
	c29.694,2.999,62.684-2.971,88.646-17.96c13.442-7.76,27.994-18.5,29.463-35.268c1.57-17.919-16.162-16.688-29.325-16.255
	c-27.771,0.914-66.463,10.059-82.121-20.774c-14.084-27.733-7.685-68.681,3.431-96.25c13.105-32.503,37.932-58.545,66.095-78.702
	v-32.979l37.372-21.577v32.498c23.95-12.06,48.083-18.132,72.397-18.208l-21.484,81.009c-25.158-0.558-47.844,4.995-68.065,16.669
	c-11.972,6.911-34.65,24.432-24.651,41.304c6.932,11.697,35.909,5.414,46.496,4.097c18.617-1.958,42.967-2.603,57.143,12.022
	c14.657,15.122,14.49,40.887,12.868,60.342c-4.291,51.462-33.829,96.26-74.704,126.533v46.459L200.001,512V466.985z"/>
<g>
</g>
<g>
</g>
<g>
</g>
<g>
</g>
<g>
</g>
<g>
</g>
<g>
</g>
<g>
</g>
<g>
</g>
<g>
</g>
<g>
</g>
<g>
</g>
<g>
</g>
<g>
</g>
<g>
</g>
</svg>
