<svg enable-background="new 0 0 100 100" height="512" viewBox="0 0 100 100" width="512" xmlns="http://www.w3.org/2000/svg"><path d="m91.364975 49.7208519-43.7193489-40.8619814c-.794857-.7429295-1.9032364-1.0490479-2.966568-.8193579l-19.1010876 4.1248694 14.0850582 19.2108154c1.0857697.0683212 2.0690498.6644707 2.6317711 1.5955086l38.8535843 32.5412178 10.3750763-11.1006012c1.2514191-1.3390341 1.1805267-3.4389792-.1584854-4.6904707z" fill="#ffd25a"/><path d="m48.0939903 13.5809889-26.2455692-1.6512794c-1.3816929-.0869675-2.6722088.693017-3.2375774 1.9567852l-10.7390762 24.0047216c-.4442215.9930458-.3735623 2.1407814.1891561 3.0718231l30.9540176 51.2146339c.9480629 1.5686035 2.9881248 2.0715561 4.5566444 1.1235504l36.984642-22.353447c1.5685654-.9480362 2.0716095-2.9880371 1.1235504-4.5566406l-30.9540204-51.2146358c-.5627174-.9310398-1.5459976-1.5271883-2.6317673-1.5955114zm-19.4828815 13.1945944c-2.1227913 1.2830105-4.8838348.6021366-6.1668453-1.5206547s-.6021709-4.8836956 1.5206203-6.1667061c2.1228352-1.2830372 4.8837299-.6023102 6.1667404 1.5204811s.6023197 4.8838425-1.5205154 6.1668797z" fill="#cd5148"/><path d="m27.882 33.887486h38.237293v46.628223h-38.237293z" fill="#db584d" transform="matrix(.856 -.517 .517 .856 -22.812 32.558)"/><path d="m24.9419155 12.1270695c.1172028.1618071.2315941.3350182.3388786.5125237 1.0986156 1.8177032 1.4026318 3.8925991 1.0204124 5.8103466.8408775-.0041199 1.6711578.2308083 2.3854599.6909714.4978962-2.2397156.2752495-4.6450729-.7633133-6.8285131z" fill="#cd5148"/><path d="m12.8067884 7.7511663c-5.0198745 3.0340014-6.6349744 9.5841761-3.6009464 14.6040945.9913311 1.6401958 2.355629 2.9191265 3.925004 3.7834778l1.0155821-2.2812614c-1.1176214-.6622791-2.0938892-1.6039429-2.8105145-2.7896271-2.3215933-3.8411674-1.0900316-8.8606968 2.7582855-11.1866121 3.6637049-2.214335 8.4021502-1.1909647 10.8477163 2.2458315.1172028.1618071.2315941.3350182.3388786.5125237 1.0986156 1.8177032 1.4026318 3.8925991 1.0204124 5.8103466-.4439964 2.1684437-1.7480412 4.1489391-3.778698 5.3762646-.1846142.1115799-.3735218.216053-.5596199.3091221.1050797.3823738.265646.7603207.4845104 1.1224403.2274551.3763332.5074291.7112217.8171158.9990406.1860962-.0930691.3678989-.1932468.5454044-.3005314 2.5915604-1.5663338 4.2709751-4.0645695 4.8767471-6.8153648.4978962-2.2397156.2752495-4.6450729-.7633133-6.8285131-.1490593-.3268003-.3236923-.6478472-.5124874-.9602156-3.0340287-5.0199176-9.5842034-6.6350175-14.6040771-3.6010162z" fill="#dad7dc"/><path d="m54.6344376 72.1343536-1.3162155-2.1777344c-2.0354996 1.0705109-3.9083977 1.3110809-5.6199799.7216415-1.7118797-.5892487-3.2445679-2.0035782-4.5987892-4.244194l-.3755646-.621376 3.8704605-2.3392982c.0512962.0848694.1231499.2160835.215435.3920555.0916824.1763382.1605415.3019104.2052422.3758698.6804123 1.1257629 1.3836212 1.8818436 2.1105995 2.268486.7267418.3876114 1.5142288.4190216 2.3625259.0950241l-4.3708153-7.2316818c-2.7849579.1180801-4.9778748-.1407089-6.5789261-.7745972s-2.8797646-1.7423515-3.8360748-3.324604c-1.110199-1.8368683-1.4941406-3.60532-1.1518898-5.3061371.3426819-1.6994247 1.3744354-3.1283455 3.096653-4.2851257l-1.3186798-2.1818123 1.7998886-1.0878487 1.3381004 2.2139397c1.8387794-1.082386 3.5382156-1.4134407 5.0970306-.9932251 1.5585136.4203987 2.9125938 1.5809784 4.061264 3.4815025l.2791977.4619446-3.7749748 2.2815895-.201889-.334034c-.5455742-.9026718-1.1449051-1.5046844-1.7979927-1.8060379-.6530228-.3005638-1.2975426-.2809906-1.9325867.05896l3.9373627 6.5145187c3.1783218-.2101555 5.554287-.0148277 7.127533.5853767s2.8733482 1.7495422 3.9003754 3.4487953c1.2640877 2.0914841 1.7210197 4.0409508 1.3703575 5.8469963-.3505936 1.806839-1.4886894 3.3720474-3.4139748 4.6954269l1.3162155 2.1777344zm-10.5589753-17.7941055-3.4430275-5.6603355c-.583683.4256134-.9038124.9634171-.960392 1.6134033-.0565796.6499901.1532326 1.3682442.6280899 2.1539154.3594398.5947075.8478088 1.0494194 1.4660721 1.3643684.6179657.315136 1.3875161.4914742 2.3092575.5286484zm8.9415932 11.3405151c.6340942-.5578918.9878578-1.1954727 1.0615273-1.9137306.072998-.7186813-.1372719-1.4863129-.6315498-2.3041153-.4876823-.8068886-1.048027-1.374527-1.6809731-1.7021255s-1.5160217-.5048447-2.647892-.5308914z" fill="#e6e7e8"/></svg>