<?xml version="1.0" encoding="iso-8859-1"?>
<!-- Generator: Adobe Illustrator 19.0.0, SVG Export Plug-In . SVG Version: 6.00 Build 0)  -->
<svg version="1.1" id="Layer_1" xmlns="http://www.w3.org/2000/svg" xmlns:xlink="http://www.w3.org/1999/xlink" x="0px" y="0px"
	 viewBox="0 0 512 512" style="enable-background:new 0 0 512 512;" xml:space="preserve">
<rect x="79.568" y="311.524" style="fill:#314A5F;" width="373.008" height="100.905"/>
<polyline style="fill:#EAC36E;" points="415.356,179.522 415.356,51.894 384.801,51.894 127.436,51.894 96.87,51.894 96.87,179.522 
	"/>
<path style="fill:#FF6F52;" d="M71.446,179.515v71.563c0,22.857,18.537,41.405,41.394,41.405h286.548
	c22.857,0,41.394-18.548,41.394-41.405v-71.563L71.446,179.515L71.446,179.515z"/>
<g>
	<rect x="47.958" y="446.056" style="fill:#314A5F;" width="48.23" height="30.461"/>
	<rect x="416.035" y="446.056" style="fill:#314A5F;" width="48.23" height="30.461"/>
</g>
<g>
	<path style="fill:#FCD577;" d="M303.076,216.325c10.509,0,19.038,8.529,19.038,19.038c0,10.509-8.529,19.038-19.038,19.038
		c-10.509,0-19.038-8.529-19.038-19.038C284.036,224.854,292.566,216.325,303.076,216.325z"/>
	<path style="fill:#FCD577;" d="M372.881,216.325c10.509,0,19.038,8.529,19.038,19.038c0,10.509-8.529,19.038-19.038,19.038
		c-10.509,0-19.038-8.529-19.038-19.038C353.843,224.854,362.373,216.325,372.881,216.325z"/>
	<path style="fill:#FCD577;" d="M503.611,213.838v232.215H379.863v-52.038h27.301c10.154,0,18.391-8.237,18.391-18.391v-25.41
		c0-10.154-8.237-18.391-18.391-18.391H105.065c-10.154,0-18.391,8.237-18.391,18.391v25.41c0,10.154,8.237,18.391,18.391,18.391
		h27.301v52.038H8.617V213.838c0-18.95,15.37-34.319,34.319-34.319h28.506v71.559c0,22.859,18.543,41.402,41.402,41.402h286.539
		c22.859,0,41.402-18.543,41.402-41.402v-71.559h28.494C488.241,179.519,503.611,194.888,503.611,213.838z"/>
</g>
<g>
	<rect x="127.435" y="21.282" style="fill:#CFDCE5;" width="257.364" height="158.239"/>
	<rect x="127.435" y="331.83" style="fill:#CFDCE5;" width="257.364" height="158.239"/>
</g>
<path d="M503.497,380.462c4.697,0,8.503-3.807,8.503-8.503V214.166c0-23.613-19.215-42.823-42.835-42.823h-45.421V52.223
	c0-4.696-3.806-8.503-8.503-8.503h-22.056V21.611c0-4.696-3.806-8.503-8.503-8.503H127.317c-4.696,0-8.503,3.807-8.503,8.503V43.72
	H96.755c-4.696,0-8.503,3.807-8.503,8.503v119.121l-45.43,0.003C19.209,171.347,0,190.557,0,214.17v232.218
	c0,4.696,3.807,8.503,8.503,8.503h30.842v21.953c0,4.696,3.807,8.503,8.503,8.503h48.23c4.696,0,8.503-3.807,8.503-8.503v-21.953
	h14.232v35.498c0,4.696,3.807,8.503,8.503,8.503h43.972c4.696,0,8.503-3.807,8.503-8.503s-3.807-8.503-8.503-8.503H135.82v-141.23
	h240.358v141.229H199.633c-4.696,0-8.503,3.807-8.503,8.503c0,4.696,3.807,8.503,8.503,8.503h185.048
	c4.697,0,8.503-3.807,8.503-8.503v-35.498h14.233v21.953c0,4.696,3.806,8.503,8.503,8.503h48.23c4.697,0,8.503-3.807,8.503-8.503
	v-21.953h30.838c4.697,0,8.503-3.807,8.503-8.503v-42.698c0-4.696-3.806-8.503-8.503-8.503s-8.503,3.807-8.503,8.503v34.194H393.185
	V402.85h13.86c14.834,0,26.903-12.064,26.903-26.893v-25.419c0-14.828-12.07-26.893-26.903-26.893H104.953
	c-14.83,0-26.893,12.064-26.893,26.893v25.419c0,14.83,12.064,26.893,26.893,26.893h13.861v35.033H17.006V214.169
	c0-14.236,11.58-25.816,25.816-25.816h20.003v63.051c0,27.518,22.387,49.905,49.905,49.905h32.482c4.696,0,8.503-3.807,8.503-8.503
	s-3.807-8.503-8.503-8.503H112.73c-18.14,0-32.898-14.758-32.898-32.898v-63.055h352.335v63.055
	c0,18.14-14.758,32.898-32.898,32.898H176.943c-4.696,0-8.503,3.807-8.503,8.503s3.807,8.503,8.503,8.503h222.325
	c27.518,0,49.905-22.387,49.905-49.905v-63.055h19.992c14.242,0,25.828,11.581,25.828,25.817v157.793
	C494.994,376.655,498.8,380.462,503.497,380.462z M455.649,468.339h-31.224v-13.45h31.224V468.339z M416.942,350.539v25.419
	c0,5.451-4.44,9.886-9.897,9.886h-13.86v-45.192h13.86C412.502,340.652,416.942,345.088,416.942,350.539z M104.953,385.844
	c-5.451,0-9.886-4.435-9.886-9.886v-25.419c0-5.451,4.435-9.886,9.886-9.886h13.861v45.192L104.953,385.844L104.953,385.844z
	 M87.575,468.339H56.351v-13.45h31.224V468.339z M105.259,60.726h13.555v110.618h-13.555V60.726z M135.82,171.343V52.322
	c0-0.033,0.005-0.066,0.005-0.099s-0.005-0.066-0.005-0.099v-22.01h240.358v92.402c0,4.696,3.806,8.503,8.503,8.503
	c4.697,0,8.503-3.807,8.503-8.503v-61.79h13.553v110.618h-13.553V150.86c0-4.696-3.806-8.503-8.503-8.503
	c-4.697,0-8.503,3.807-8.503,8.503v20.484H135.82V171.343z"/>
<path d="M372.767,225.157c4.697,0,8.503-3.807,8.503-8.503s-3.806-8.503-8.503-8.503c-15.187,0-27.541,12.355-27.541,27.541
	s12.355,27.541,27.541,27.541s27.541-12.355,27.541-27.541c0-4.696-3.806-8.503-8.503-8.503c-4.697,0-8.503,3.807-8.503,8.503
	c0,5.809-4.726,10.535-10.535,10.535c-5.809,0-10.535-4.726-10.535-10.535S366.958,225.157,372.767,225.157z"/>
<path d="M330.503,235.692c0-15.187-12.355-27.541-27.541-27.541c-15.187,0-27.541,12.355-27.541,27.541
	c0,15.187,12.355,27.541,27.541,27.541C318.148,263.233,330.503,250.878,330.503,235.692z M292.426,235.692
	c0-5.809,4.726-10.535,10.535-10.535c5.809,0,10.535,4.726,10.535,10.535s-4.726,10.535-10.535,10.535
	C297.152,246.227,292.426,241.5,292.426,235.692z"/>
<path d="M341.599,377.046c4.697,0,8.503-3.807,8.503-8.503s-3.806-8.503-8.503-8.503H238.181c-4.696,0-8.503,3.807-8.503,8.503
	s3.807,8.503,8.503,8.503H341.599z"/>
<path d="M170.4,377.046h39.437c4.696,0,8.503-3.807,8.503-8.503s-3.807-8.503-8.503-8.503H170.4c-4.696,0-8.503,3.807-8.503,8.503
	S165.704,377.046,170.4,377.046z"/>
<path d="M170.4,418.429h171.198c4.697,0,8.503-3.807,8.503-8.503s-3.806-8.503-8.503-8.503H170.4c-4.696,0-8.503,3.807-8.503,8.503
	S165.704,418.429,170.4,418.429z"/>
<path d="M341.599,442.805h-35.392c-4.697,0-8.503,3.807-8.503,8.503c0,4.696,3.806,8.503,8.503,8.503h35.392
	c4.697,0,8.503-3.807,8.503-8.503C350.102,446.612,346.295,442.805,341.599,442.805z"/>
<path d="M170.4,459.811h107.463c4.697,0,8.503-3.807,8.503-8.503c0-4.696-3.806-8.503-8.503-8.503H170.4
	c-4.696,0-8.503,3.807-8.503,8.503C161.897,456.004,165.704,459.811,170.4,459.811z"/>
<g>
</g>
<g>
</g>
<g>
</g>
<g>
</g>
<g>
</g>
<g>
</g>
<g>
</g>
<g>
</g>
<g>
</g>
<g>
</g>
<g>
</g>
<g>
</g>
<g>
</g>
<g>
</g>
<g>
</g>
</svg>
