<?xml version="1.0" encoding="iso-8859-1"?>
<!-- Generator: Adobe Illustrator 19.0.0, SVG Export Plug-In . SVG Version: 6.00 Build 0)  -->
<svg version="1.1" id="Layer_1" xmlns="http://www.w3.org/2000/svg" xmlns:xlink="http://www.w3.org/1999/xlink" x="0px" y="0px"
	 viewBox="0 0 512 512" style="enable-background:new 0 0 512 512;" xml:space="preserve">
<path style="fill:#576D7E;" d="M480,144H32c-17.672,0-32,14.328-32,32v208c0,17.672,14.328,32,32,32h448c17.672,0,32-14.328,32-32
	V176C512,158.328,497.672,144,480,144z"/>
<path style="fill:#748B9E;" d="M32,144h440l0,0l0,0c0,8.84-7.16,16-16,16H48C39.16,160,32,152.84,32,144L32,144L32,144z"/>
<g>
	<circle style="fill:#84BD5A;" cx="72" cy="200" r="8"/>
	<circle style="fill:#84BD5A;" cx="40" cy="200" r="8"/>
</g>
<path style="fill:#123247;" d="M80,280h352c4.416,0,8,3.584,8,8v24c0,4.416-3.584,8-8,8H80c-4.416,0-8-3.584-8-8v-24
	C72,283.584,75.584,280,80,280z"/>
<path style="fill:#35495C;" d="M440,144H72l13.44-67.12c1.512-7.6,8.248-13.032,16-12.88h309.44c7.752-0.152,14.488,5.28,16,12.88
	L440,144z"/>
<path style="fill:#E2E7F0;" d="M408,32c0-8.84-7.16-16-16-16H120c-8.84,0-16,7.16-16,16v112h304V32z"/>
<path style="fill:#C9D5E3;" d="M408,48L408,48L408,48v96l0,0h-16l0,0V64C392,55.16,399.16,48,408,48z"/>
<g>
	<path style="fill:#3F556B;" d="M88,320h16l0,0v16l0,0l0,0C95.16,336,88,328.84,88,320L88,320L88,320z"/>
	<path style="fill:#3F556B;" d="M104,400H48c-8.84,0-16,7.16-16,16h72V400z"/>
	<path style="fill:#3F556B;" d="M496,192v192c0,8.84-7.16,16-16,16h-48c-4.416,0-8-3.584-8-8v-72h-16v96h72
		c17.672,0,32-14.328,32-32V176C503.16,176,496,183.16,496,192z"/>
</g>
<path style="fill:#E2E7F0;" d="M104,480c0,8.84,7.16,16,16,16h272c8.84,0,16-7.16,16-16V320H104V480z"/>
<g>
	<path style="fill:#9DACBA;" d="M144,360h224c4.416,0,8,3.584,8,8l0,0c0,4.416-3.584,8-8,8H144c-4.416,0-8-3.584-8-8l0,0
		C136,363.584,139.584,360,144,360z"/>
	<path style="fill:#9DACBA;" d="M144,440h128c4.416,0,8,3.584,8,8l0,0c0,4.416-3.584,8-8,8H144c-4.416,0-8-3.584-8-8l0,0
		C136,443.584,139.584,440,144,440z"/>
	<path style="fill:#9DACBA;" d="M144,400h224c4.416,0,8,3.584,8,8l0,0c0,4.416-3.584,8-8,8H144c-4.416,0-8-3.584-8-8l0,0
		C136,403.584,139.584,400,144,400z"/>
</g>
<path style="fill:#C9D5E3;" d="M400,320H104c0,8.84,7.16,16,16,16h264c4.416,0,8,3.584,8,8v128c0,4.416-3.584,8-8,8H136
	c-8.84,0-16,7.16-16,16h272c8.84,0,16-7.16,16-16V320H400z"/>
<path style="fill:#35495C;" d="M104,192h48c4.416,0,8,3.584,8,8l0,0c0,4.416-3.584,8-8,8h-48c-4.416,0-8-3.584-8-8l0,0
	C96,195.584,99.584,192,104,192z"/>
<g>
</g>
<g>
</g>
<g>
</g>
<g>
</g>
<g>
</g>
<g>
</g>
<g>
</g>
<g>
</g>
<g>
</g>
<g>
</g>
<g>
</g>
<g>
</g>
<g>
</g>
<g>
</g>
<g>
</g>
</svg>
