<?xml version="1.0" encoding="iso-8859-1"?>
<!-- Generator: Adobe Illustrator 19.0.0, SVG Export Plug-In . SVG Version: 6.00 Build 0)  -->
<svg version="1.1" id="Capa_1" xmlns="http://www.w3.org/2000/svg" xmlns:xlink="http://www.w3.org/1999/xlink" x="0px" y="0px"
	 viewBox="0 0 469.333 469.333" style="enable-background:new 0 0 469.333 469.333;" xml:space="preserve">
<path style="fill:#303C42;" d="M426.667,192h-21.333v-74.667c0-5.896-4.771-10.667-10.667-10.667H384V96
	c0-2.833-1.125-5.542-3.125-7.542L295.542,3.125c-2-2-4.708-3.125-7.542-3.125H128c-23.521,0-42.667,19.135-42.667,42.667v64H74.667
	c-5.896,0-10.667,4.771-10.667,10.667V192H42.667C19.146,192,0,211.135,0,234.667v106.667C0,364.865,19.146,384,42.667,384h17.952
	l-14.764,33.219c-2.104,4.76-3.188,9.823-3.188,15.052c0,20.438,16.625,37.063,37.063,37.063h309.875
	c20.438,0,37.063-16.625,37.063-37.063c0-5.229-1.083-10.292-3.188-15.052L408.715,384h17.952c23.521,0,42.667-19.135,42.667-42.667
	V234.667C469.333,211.135,450.188,192,426.667,192z"/>
<path style="fill:#E6E6E6;" d="M298.667,36.417l48.917,48.917H320c-11.771,0-21.333-9.573-21.333-21.333V36.417z"/>
<path style="fill:#FFFFFF;" d="M106.667,42.667c0-11.76,9.563-21.333,21.333-21.333h149.333V64
	c0,23.531,19.146,42.667,42.667,42.667h42.667V192h-256V42.667z"/>
<linearGradient id="SVGID_1_" gradientUnits="userSpaceOnUse" x1="-56.0365" y1="623.1511" x2="-56.0365" y2="615.1511" gradientTransform="matrix(21.3333 0 0 -21.3333 1430.1112 13315.2227)">
	<stop  offset="0" style="stop-color:#000000;stop-opacity:0"/>
	<stop  offset="0.859" style="stop-color:#000000;stop-opacity:0.06"/>
	<stop  offset="1" style="stop-color:#000000;stop-opacity:0.07"/>
</linearGradient>
<path style="fill:url(#SVGID_1_);" d="M106.667,42.667c0-11.76,9.563-21.333,21.333-21.333h149.333V64
	c0,23.531,19.146,42.667,42.667,42.667h42.667V192h-256V42.667z"/>
<path style="fill:#FFFFFF;" d="M389.604,448H79.729C71.063,448,64,440.948,64,432.271c0-2.219,0.458-4.365,1.354-6.385
	l37.581-84.552h263.464l37.581,84.552c0.896,2.021,1.354,4.167,1.354,6.385C405.333,440.948,398.271,448,389.604,448z"/>
<path style="fill:#455A64;" d="M448,341.333c0,11.76-9.563,21.333-21.333,21.333h-27.435l-9.482-21.333h4.917
	c5.896,0,10.667-4.771,10.667-10.667c0-5.896-4.771-10.667-10.667-10.667h-21.53c-0.009,0-0.017,0-0.017,0H96.206
	c-0.009,0-0.017,0-0.026,0H74.667C68.771,320,64,324.771,64,330.667c0,5.896,4.771,10.667,10.667,10.667h4.917l-9.482,21.333H42.667
	c-11.771,0-21.333-9.573-21.333-21.333V234.667c0-11.76,9.563-21.333,21.333-21.333h32H96h277.333h21.333h32
	c11.771,0,21.333,9.573,21.333,21.333V341.333z"/>
<path style="opacity:0.2;fill:#FFFFFF;enable-background:new    ;" d="M32.889,352.888V246.221c0-11.76,9.563-21.333,21.333-21.333
	h32h21.333h277.333h21.333h32c2.883,0,5.621,0.605,8.132,1.646c-3.206-7.733-10.802-13.201-19.688-13.201h-32h-21.333H96H74.667h-32
	c-11.771,0-21.333,9.573-21.333,21.333v106.667c0,8.88,5.465,16.482,13.202,19.688C33.495,358.509,32.889,355.771,32.889,352.888z"
	/>
<linearGradient id="SVGID_2_" gradientUnits="userSpaceOnUse" x1="-59.1239" y1="611.2385" x2="-49.7527" y2="601.8672" gradientTransform="matrix(21.3333 0 0 -21.3333 1430.1112 13315.2227)">
	<stop  offset="0" style="stop-color:#000000;stop-opacity:0.1"/>
	<stop  offset="1" style="stop-color:#000000;stop-opacity:0"/>
</linearGradient>
<path style="fill:url(#SVGID_2_);" d="M389.604,448c8.667,0,15.729-7.052,15.729-15.729c0-2.219-0.458-4.365-1.354-6.385
	l-37.581-84.552H102.935L209.602,448H389.604z"/>
<g>
	<path style="fill:#303C42;" d="M309.333,362.667H160c-5.896,0-10.667,4.771-10.667,10.667S154.104,384,160,384h149.333
		c5.896,0,10.667-4.771,10.667-10.667S315.229,362.667,309.333,362.667z"/>
	<path style="fill:#303C42;" d="M245.333,405.333H138.667c-5.896,0-10.667,4.771-10.667,10.667c0,5.896,4.771,10.667,10.667,10.667
		h106.667c5.896,0,10.667-4.771,10.667-10.667C256,410.104,251.229,405.333,245.333,405.333z"/>
</g>
<path style="fill:#7CB342;" d="M405.333,234.667C393.563,234.667,384,244.24,384,256c0,11.76,9.563,21.333,21.333,21.333
	s21.333-9.573,21.333-21.333C426.667,244.24,417.104,234.667,405.333,234.667z"/>
<path style="opacity:0.1;enable-background:new    ;" d="M414.039,236.621c1.21,2.674,1.961,5.591,1.961,8.712
	c0,11.76-9.563,21.333-21.333,21.333c-3.12,0-6.034-0.747-8.706-1.954c3.349,7.404,10.725,12.621,19.372,12.621
	c11.771,0,21.333-9.573,21.333-21.333C426.667,247.355,421.451,239.969,414.039,236.621z"/>
<linearGradient id="SVGID_3_" gradientUnits="userSpaceOnUse" x1="-63.736" y1="608.366" x2="-63.3308" y2="607.9619" gradientTransform="matrix(21.3333 0 0 -21.3333 1430.1112 13315.2227)">
	<stop  offset="0" style="stop-color:#000000;stop-opacity:0.1"/>
	<stop  offset="1" style="stop-color:#000000;stop-opacity:0"/>
</linearGradient>
<path style="fill:url(#SVGID_3_);" d="M68.32,339.018l-0.181,0.007l8.633,8.633l2.811-6.324h-4.917
	C72.24,341.333,70.112,340.38,68.32,339.018z"/>
<linearGradient id="SVGID_4_" gradientUnits="userSpaceOnUse" x1="-48.5635" y1="608.3544" x2="-47.0266" y2="606.8174" gradientTransform="matrix(21.3333 0 0 -21.3333 1430.1112 13315.2227)">
	<stop  offset="0" style="stop-color:#000000;stop-opacity:0.1"/>
	<stop  offset="1" style="stop-color:#000000;stop-opacity:0"/>
</linearGradient>
<path style="fill:url(#SVGID_4_);" d="M404.655,327.031l-0.053,0.001c0.418,1.143,0.732,2.345,0.732,3.634
	c0,5.896-4.771,10.667-10.667,10.667h-4.917l9.482,21.333h27.435c3.887,0,7.335-1.327,10.475-3.148L404.655,327.031z"/>
<linearGradient id="SVGID_5_" gradientUnits="userSpaceOnUse" x1="-47.9681" y1="612.0768" x2="-45.3471" y2="609.4477" gradientTransform="matrix(21.3333 0 0 -21.3333 1430.1112 13315.2227)">
	<stop  offset="0" style="stop-color:#000000;stop-opacity:0.1"/>
	<stop  offset="1" style="stop-color:#000000;stop-opacity:0"/>
</linearGradient>
<path style="fill:url(#SVGID_5_);" d="M422.121,243.454c2.668,3.563,4.546,7.763,4.546,12.546c0,11.76-9.563,21.333-21.333,21.333
	c-5.108,0-9.613-2.044-13.289-5.047L392,272.333l56,56v-59L422.121,243.454z"/>
<linearGradient id="SVGID_6_" gradientUnits="userSpaceOnUse" x1="-65.853" y1="616.5543" x2="-45.3661" y2="607.0009" gradientTransform="matrix(21.3333 0 0 -21.3333 1430.1112 13315.2227)">
	<stop  offset="0" style="stop-color:#FFFFFF;stop-opacity:0.2"/>
	<stop  offset="1" style="stop-color:#FFFFFF;stop-opacity:0"/>
</linearGradient>
<path style="fill:url(#SVGID_6_);" d="M426.667,192h-21.333v-74.667c0-5.896-4.771-10.667-10.667-10.667H384V96
	c0-2.833-1.125-5.542-3.125-7.542L295.542,3.125c-2-2-4.708-3.125-7.542-3.125H128c-23.521,0-42.667,19.135-42.667,42.667v64H74.667
	c-5.896,0-10.667,4.771-10.667,10.667V192H42.667C19.146,192,0,211.135,0,234.667v106.667C0,364.865,19.146,384,42.667,384h17.952
	l-14.764,33.219c-2.104,4.76-3.188,9.823-3.188,15.052c0,20.438,16.625,37.063,37.063,37.063h309.875
	c20.438,0,37.063-16.625,37.063-37.063c0-5.229-1.083-10.292-3.188-15.052L408.715,384h17.952c23.521,0,42.667-19.135,42.667-42.667
	V234.667C469.333,211.135,450.188,192,426.667,192z"/>
<g>
</g>
<g>
</g>
<g>
</g>
<g>
</g>
<g>
</g>
<g>
</g>
<g>
</g>
<g>
</g>
<g>
</g>
<g>
</g>
<g>
</g>
<g>
</g>
<g>
</g>
<g>
</g>
<g>
</g>
</svg>
