<?xml version="1.0" encoding="iso-8859-1"?>
<!-- Generator: Adobe Illustrator 19.0.0, SVG Export Plug-In . SVG Version: 6.00 Build 0)  -->
<svg version="1.1" id="Capa_1" xmlns="http://www.w3.org/2000/svg" xmlns:xlink="http://www.w3.org/1999/xlink" x="0px" y="0px"
	 viewBox="0 0 512 512" style="enable-background:new 0 0 512 512;" xml:space="preserve">
<path style="fill:#57555C;" d="M452,165c0,8.291-6.709,15-15,15h-60c-8.291,0-15-6.709-15-15v-60c0-8.291,6.709-15,15-15h33.604
	C433.426,90,452,108.574,452,131.396V165z"/>
<path style="fill:#787780;" d="M135,180H75c-8.291,0-15-6.709-15-15v-33.604C60,108.574,78.574,90,101.396,90H135
	c8.291,0,15,6.709,15,15v60C150,173.291,143.291,180,135,180z"/>
<path style="fill:#4DBBEB;" d="M467,150h-90c-8.401,0-15,6.599-15,15v15H150v-15c0-8.401-6.599-15-15-15H45
	c-24.901,0-45,20.099-45,45v182c0,24.899,20.099,45,45,45h90c8.401,0,15-6.601,15-15v-75h212v75c0,8.399,6.599,15,15,15h90
	c24.901,0,45-20.101,45-45V195C512,170.099,491.901,150,467,150z"/>
<path style="fill:#159CE4;" d="M512,195v182c0,24.899-20.099,45-45,45h-90c-8.401,0-15-6.601-15-15v-75H257V180h105v-15
	c0-8.401,6.599-15,15-15h90C491.901,150,512,170.099,512,195z"/>
<path style="fill:#E5E5E5;" d="M392,317v180c0,8.399-6.599,15-15,15H135c-8.401,0-15-6.601-15-15V317H392z"/>
<path style="fill:#D9D9D9;" d="M392,317v180c0,8.399-6.599,15-15,15H257V317H392z"/>
<path style="fill:#E5E5E5;" d="M386.6,93.3l-1.199-0.899C383,90.901,379.999,90,377,90h-75V15c0-2.999-0.901-6-2.401-8.401
	L298.7,5.4C295.699,2.401,293.3,0,287,0H135c-8.401,0-15,6.599-15,15v180c0,8.399,6.599,15,15,15h242c8.401,0,15-6.601,15-15v-90
	C392,98.699,389.599,96.301,386.6,93.3z"/>
<path style="fill:#AEADB3;" d="M386.6,93.3l-1.199-0.899L299.599,6.599L298.7,5.4C295.692,2.391,293.377,0,287,0h-15v105
	c0,8.401,6.599,15,15,15h105v-15C392,98.59,389.542,96.241,386.6,93.3z"/>
<path style="fill:#0A4EAF;" d="M437,270h-30c-19.773,0-19.854-30,0-30h30C456.773,240,456.854,270,437,270z"/>
<g>
	<path style="fill:#4DBBEB;" d="M317,392H195c-19.799,0-19.799-30,0-30h122C336.799,362,336.799,392,317,392z"/>
	<path style="fill:#4DBBEB;" d="M317,452H195c-19.799,0-19.799-30,0-30h122C336.799,422,336.799,452,317,452z"/>
</g>
<path style="fill:#787780;" d="M407,332H105c-19.799,0-19.799-30,0-30h302C426.799,302,426.799,332,407,332z"/>
<g>
	<path style="fill:#159CE4;" d="M317,452h-60v-30h60C336.799,422,336.799,452,317,452z"/>
	<path style="fill:#159CE4;" d="M317,392h-60v-30h60C336.799,362,336.799,392,317,392z"/>
</g>
<path style="fill:#D9D9D9;" d="M377,210H257V0h30c6.301,0,8.699,2.401,11.7,5.4l0.899,1.199C301.099,9,302,12.001,302,15v75h75
	c2.999,0,6,0.901,8.401,2.401L386.6,93.3c2.999,3.001,5.4,5.4,5.4,11.7v90C392,203.399,385.401,210,377,210z"/>
<path style="fill:#57555C;" d="M407,332H257v-30h150C426.799,302,426.799,332,407,332z"/>
<g>
</g>
<g>
</g>
<g>
</g>
<g>
</g>
<g>
</g>
<g>
</g>
<g>
</g>
<g>
</g>
<g>
</g>
<g>
</g>
<g>
</g>
<g>
</g>
<g>
</g>
<g>
</g>
<g>
</g>
</svg>
