<?xml version="1.0" encoding="iso-8859-1"?>
<!-- Generator: Adobe Illustrator 19.0.0, SVG Export Plug-In . SVG Version: 6.00 Build 0)  -->
<svg version="1.1" id="Layer_1" xmlns="http://www.w3.org/2000/svg" xmlns:xlink="http://www.w3.org/1999/xlink" x="0px" y="0px"
	 viewBox="0 0 512 512" style="enable-background:new 0 0 512 512;" xml:space="preserve">
<path style="fill:#5B5D6E;" d="M256,0C129.763,0,27.429,102.335,27.429,228.571v118.857c0,10.098,8.187,18.286,18.286,18.286H64
	v-91.429H45.714v-45.714c0-115.952,94.334-210.286,210.286-210.286s210.286,94.334,210.286,210.286v45.714H448v91.429h9.143
	c0,65.536-53.321,118.857-118.857,118.857H320v18.286h18.286c75.625,0,137.143-61.518,137.143-137.143v-2.466
	c5.461-3.163,9.143-9.055,9.143-15.819V228.571C484.571,102.335,382.237,0,256,0z"/>
<path style="fill:#959CB3;" d="M100.571,393.143H82.286c-10.099,0-18.286-8.186-18.286-18.286V265.143
	c0-10.099,8.186-18.286,18.286-18.286h18.286c10.099,0,18.286,8.186,18.286,18.286v109.714
	C118.857,384.957,110.671,393.143,100.571,393.143z"/>
<path style="fill:#707487;" d="M118.857,374.857V265.143c0-10.099-8.187-18.286-18.286-18.286h-9.143v146.286h9.143
	C110.67,393.143,118.857,384.955,118.857,374.857z"/>
<path style="fill:#959CB3;" d="M411.429,246.857h18.286c10.099,0,18.286,8.186,18.286,18.286v109.714
	c0,10.099-8.186,18.286-18.286,18.286h-18.286c-10.099,0-18.286-8.186-18.286-18.286V265.143
	C393.143,255.043,401.329,246.857,411.429,246.857z"/>
<g>
	<path style="fill:#707487;" d="M393.143,265.143v109.714c0,10.099,8.187,18.286,18.286,18.286h9.143V246.857h-9.143
		C401.33,246.857,393.143,255.045,393.143,265.143z"/>
	<path style="fill:#707487;" d="M320,512h-27.429c-5.049,0-9.143-4.094-9.143-9.143v-18.286c0-5.049,4.094-9.143,9.143-9.143H320
		c10.099,0,18.286,8.186,18.286,18.286l0,0C338.286,503.814,330.099,512,320,512z"/>
</g>
<path style="fill:#00D2F6;" d="M329.143,237.714H182.857c-15.149,0-27.429,12.28-27.429,27.429v109.714
	c0,15.149,12.28,27.429,27.429,27.429h91.429V432.4c0,5.742,6.942,8.617,11.001,4.557l34.671-34.671h9.185
	c15.149,0,27.429-12.28,27.429-27.429V265.143C356.571,249.994,344.291,237.714,329.143,237.714z M201.143,338.286
	c-10.098,0-18.286-8.187-18.286-18.286c0-10.099,8.187-18.286,18.286-18.286s18.286,8.186,18.286,18.286
	C219.429,330.098,211.241,338.286,201.143,338.286z M256,338.286c-10.098,0-18.286-8.187-18.286-18.286
	c0-10.099,8.187-18.286,18.286-18.286c10.098,0,18.286,8.186,18.286,18.286C274.286,330.098,266.098,338.286,256,338.286z
	 M310.857,338.286c-10.098,0-18.286-8.187-18.286-18.286c0-10.099,8.187-18.286,18.286-18.286c10.098,0,18.286,8.186,18.286,18.286
	C329.143,330.098,320.955,338.286,310.857,338.286z"/>
<g>
</g>
</svg>
