<?xml version="1.0" encoding="iso-8859-1"?>
<!-- Generator: Adobe Illustrator 19.0.0, SVG Export Plug-In . SVG Version: 6.00 Build 0)  -->
<svg version="1.1" id="Capa_1" xmlns="http://www.w3.org/2000/svg" xmlns:xlink="http://www.w3.org/1999/xlink" x="0px" y="0px"
	 viewBox="0 0 512 512" style="enable-background:new 0 0 512 512;" xml:space="preserve">
<rect x="19.773" y="16.016" style="fill:#D0D7DF;" width="32.031" height="40.038"/>
<polygon style="fill:#F1F2F2;" points="123.873,16.016 123.873,56.054 83.835,56.054 51.804,56.054 51.804,16.016 "/>
<path style="fill:#A4B0C0;" d="M163.911,388.372c0,4.164-0.401,8.167-1.201,12.092c-5.605,27.386-29.869,47.966-58.857,47.966
	c-33.152,0-60.057-26.906-60.057-60.057c0-26.105,16.736-48.286,40.038-56.534V56.054h40.038v275.784
	C147.175,340.085,163.911,362.267,163.911,388.372z"/>
<g>
	<path style="fill:#D0D7DF;" d="M449.064,448.829c2.002,4.804,3.123,10.09,3.123,15.615c0,22.101-17.938,40.038-40.038,40.038
		c-22.101,0-40.038-17.938-40.038-40.038c0-5.525,1.121-10.811,3.123-15.615c6.085-14.334,20.339-24.423,36.916-24.423
		C428.725,424.406,442.978,434.495,449.064,448.829z"/>
	<path style="fill:#D0D7DF;" d="M264.728,448.429c2.082,4.885,3.283,10.329,3.283,16.015c0,22.101-17.938,40.038-40.038,40.038
		s-40.038-17.938-40.038-40.038c0-5.525,1.121-10.811,3.123-15.615c6.085-14.334,20.339-24.423,36.916-24.423
		C244.389,424.406,258.482,434.335,264.728,448.429z"/>
</g>
<path style="fill:#768BA0;" d="M492.226,400.383v48.046h-40.038l-3.123,0.4c-6.085-14.334-20.339-24.423-36.916-24.423
	c-16.575,0-30.829,10.09-36.916,24.423l-3.123-0.4H264.728c-6.246-14.093-20.339-24.023-36.755-24.023
	c-16.575,0-30.829,10.09-36.916,24.423l-3.123-0.4h-84.08c28.988,0,53.251-20.58,58.857-47.966l1.201-0.08h32.031h256.245
	L492.226,400.383L492.226,400.383z"/>
<rect x="292.032" y="248.239" style="fill:#A4B0C0;" width="64.061" height="32.031"/>
<rect x="292.032" y="200.195" style="fill:#F1F2F2;" width="64.061" height="48.046"/>
<polygon style="fill:#FFE451;" points="452.187,200.192 452.187,400.383 195.942,400.383 195.942,200.192 292.034,200.192 
	292.034,248.238 292.034,280.269 356.095,280.269 356.095,248.238 356.095,200.192 404.141,200.192 "/>
<polygon style="fill:#FD6149;" points="404.141,40.039 404.141,200.192 356.095,200.192 292.034,200.192 195.942,200.192 
	195.942,40.039 "/>
<rect x="268.015" y="88.089" style="fill:#A4B0C0;" width="64.061" height="32.031"/>
<rect x="268.015" y="40.039" style="fill:#F1F2F2;" width="64.061" height="48.046"/>
<circle style="fill:#768BA0;" cx="103.856" cy="388.371" r="36.034"/>
<rect x="195.944" y="200.195" style="fill:#FFCC51;" width="56.054" height="200.195"/>
<rect x="195.944" y="40.039" style="fill:#DF412D;" width="56.054" height="160.15"/>
<g>
	<path style="fill:#A4B0C0;" d="M219.965,464.444c0-5.525,1.122-10.811,3.123-15.615c3.99-9.398,11.528-16.9,20.894-21.002
		c-4.913-2.157-10.304-3.421-16.009-3.421c-16.576,0-30.829,10.09-36.916,24.423c-2.002,4.804-3.123,10.09-3.123,15.615
		c0,22.101,17.938,40.038,40.038,40.038c5.703,0,11.104-1.233,16.015-3.385C229.864,494.91,219.965,480.843,219.965,464.444z"/>
	<path style="fill:#A4B0C0;" d="M404.141,464.444c0-5.525,1.121-10.811,3.123-15.615c3.99-9.398,11.528-16.9,20.894-21.002
		c-4.913-2.157-10.304-3.421-16.009-3.421c-16.576,0-30.829,10.09-36.916,24.423c-2.002,4.804-3.123,10.09-3.123,15.615
		c0,22.101,17.938,40.038,40.038,40.038c5.703,0,11.104-1.233,16.015-3.385C414.04,494.91,404.141,480.843,404.141,464.444z"/>
</g>
<rect x="235.979" y="328.318" style="fill:#F1F2F2;" width="32.031" height="32.031"/>
<path style="fill:#231F20;" d="M499.743,392.865h-40.038V192.674H411.66v-80.566h-15.036v80.566H203.46V47.556h57.033v80.077h79.097
	V47.556h57.033v40.529h15.036V32.52H188.424V240.23h15.036v-32.52h81.056v80.077h79.097V207.71h81.056v185.156H203.46V264.253
	h-15.036v128.613h-17.153c0.094-1.48,0.158-2.972,0.158-4.494c0-26.71-15.883-50.835-40.038-61.62V8.498h-72.07V0H44.286v8.498
	h-32.03v55.074h32.03v8.498h15.036v-8.498h16.995v72.559h15.036V63.572h25.002v273.58l5.009,1.774
	c20.952,7.416,35.029,27.288,35.029,49.446c0,3.665-0.344,7.128-1.048,10.585c-4.976,24.311-26.63,41.954-51.491,41.954
	c-28.97,0-52.54-23.57-52.54-52.54c0-22.159,14.077-42.031,35.029-49.446l5.009-1.774V160.153H76.316v166.598
	c-24.156,10.786-40.038,34.909-40.038,61.62c0,35.916,28.168,65.366,63.572,67.447v0.128h81.332c-0.5,2.791-0.766,5.626-0.766,8.498
	c0,26.222,21.334,47.556,47.556,47.556s47.556-21.334,47.556-47.556c0-6.535-1.307-12.916-3.885-18.963l-0.043-0.099
	c-7.671-17.31-24.797-28.495-43.627-28.495c-17.263,0-32.945,9.256-41.361,24.023h-40.346c10.383-8.372,18.309-19.772,22.307-33.01
	h316.135v33.01h-31.191c-8.397-14.753-24.09-24.023-41.368-24.023c-17.263,0-32.945,9.256-41.361,24.023h-70.745v15.036h65.316
	c-0.5,2.791-0.766,5.626-0.766,8.498c0,26.222,21.334,47.556,47.556,47.556s47.556-21.334,47.556-47.556
	c0-2.871-0.266-5.707-0.766-8.498h40.805v-63.081H499.743z M275.529,112.597V95.603h49.025v16.994H275.529z M324.554,80.567h-49.025
	V47.556h49.025V80.567z M348.577,207.709v33.01h-49.025v-33.01L348.577,207.709L348.577,207.709z M299.552,272.751v-16.995h49.025
	v16.995H299.552z M27.292,48.536V23.534h16.994v25.002H27.292z M59.322,23.534h57.033v25.002H59.322V23.534z M197.978,451.766
	c5.118-12.054,16.892-19.843,29.995-19.843c12.872,0,24.586,7.654,29.861,19.503c1.765,4.159,2.659,8.538,2.659,13.017
	c0,17.932-14.589,32.52-32.52,32.52s-32.52-14.589-32.52-32.52C195.452,460.054,196.309,455.773,197.978,451.766z M412.149,496.964
	c-17.933,0-32.52-14.589-32.52-32.52c0-4.39,0.856-8.671,2.526-12.677c5.118-12.054,16.892-19.843,29.995-19.843
	c13.094,0,24.862,7.777,29.985,19.818c1.683,4.047,2.535,8.32,2.535,12.702C444.669,482.376,430.081,496.964,412.149,496.964z"/>
<rect x="75.832" y="376.842" transform="matrix(0.7071 -0.7071 0.7071 0.7071 -241.3637 186.0154)" style="fill:#FFFFFF;" width="56.052" height="15.036"/>
<g>
	<rect x="219.961" y="456.923" style="fill:#231F20;" width="16.016" height="15.036"/>
	<rect x="404.138" y="456.923" style="fill:#231F20;" width="16.016" height="15.036"/>
</g>
<rect x="235.979" y="152.632" style="fill:#FFFFFF;" width="16.015" height="15.036"/>
<rect x="268.015" y="152.632" style="fill:#231F20;" width="16.016" height="15.036"/>
<rect x="308.05" y="152.632" style="fill:#FFFFFF;" width="56.054" height="15.036"/>
<g>
	<path style="fill:#231F20;" d="M228.463,320.796v47.067h47.066v-47.067L228.463,320.796L228.463,320.796z M260.493,352.827h-16.994
		v-16.995h16.994V352.827z"/>
	<rect x="292.032" y="320.801" style="fill:#231F20;" width="16.016" height="15.036"/>
</g>
<g>
	<rect x="324.068" y="320.801" style="fill:#FFFFFF;" width="16.016" height="15.036"/>
	<rect x="292.032" y="352.827" style="fill:#FFFFFF;" width="104.097" height="15.036"/>
</g>
<g>
</g>
<g>
</g>
<g>
</g>
<g>
</g>
<g>
</g>
<g>
</g>
<g>
</g>
<g>
</g>
<g>
</g>
<g>
</g>
<g>
</g>
<g>
</g>
<g>
</g>
<g>
</g>
<g>
</g>
</svg>
