<svg height="512" viewBox="0 0 512 512" width="512" xmlns="http://www.w3.org/2000/svg"><g id="Fill_out_line" data-name="Fill out line"><g fill="#4db7e5"><path d="m144 224h32v88h-32z"/><path d="m272 232h32v112h-32z"/><path d="m240 344v-144h-32v128z"/><path d="m336 288v-88h32v80z"/><path d="m400 152h32v120h-32z"/></g><path d="m120 168 24 24 72-72 72 80 120-120v40h32v-96h-96v32h40l-96 96-72-80z" fill="#f35244"/><path d="m80 328h32v136h-32z" fill="#4db7e5"/><path d="m394.46 316.9 5.54 19.1-72 80-8-32 5-10.24 23.74-52.74a26.339 26.339 0 0 1 45.72-4.12z" fill="#ed908b"/><path d="m444.96 315.04-60.96 68.96-56 40v-24s8-4.43 7.98-4.64v-.01l58.48-78.45 9.01-12.09a23.19172 23.19172 0 0 1 41.49 10.23z" fill="#ff9f9b"/><path d="m480 344-87.42993 87.43a193.13723 193.13723 0 0 1 -273.14014 0l-7.42993-7.43v-72a56.571 56.571 0 0 1 80 0l16 16h100a27.88685 27.88685 0 0 1 17 5.76 27.0495 27.0495 0 0 1 2.8 2.44 27.89208 27.89208 0 0 1 8.18 19.15v.01c.02.21.02.42.02.64a27.89344 27.89344 0 0 1 -6.37 17.78h.02a144.02949 144.02949 0 0 0 48.52991-31.96l69.82009-69.82a22.62742 22.62742 0 0 1 32 32z" fill="#ffdad2"/><path d="m16 312h64v176h-64z" fill="#3086cd"/><path d="m184 312v-88a8.00008 8.00008 0 0 0 -8-8h-32a8.00008 8.00008 0 0 0 -8 8v88h16v-80h16v80z"/><path d="m312 344v-112a8.00008 8.00008 0 0 0 -8-8h-32a8.00008 8.00008 0 0 0 -8 8v112h16v-104h16v104z"/><path d="m248 344v-144a8.00008 8.00008 0 0 0 -8-8h-32a8.00008 8.00008 0 0 0 -8 8v128h16v-120h16v136z"/><path d="m376 280v-80a8.00008 8.00008 0 0 0 -8-8h-32a8.00008 8.00008 0 0 0 -8 8v88h16v-80h16v72z"/><path d="m440 272v-120a8.00008 8.00008 0 0 0 -8-8h-32a8.00008 8.00008 0 0 0 -8 8v120h16v-112h16v112z"/><path d="m138.34277 197.65674a8.00122 8.00122 0 0 0 11.31446 0l66.03711-66.0376 66.35937 73.73242a7.99878 7.99878 0 0 0 5.73633 2.64551c.07031.00195.13965.00293.21.00293a8.00105 8.00105 0 0 0 5.65723-2.34326l106.34273-106.34274v20.686a8.00008 8.00008 0 0 0 8 8h32a8.00008 8.00008 0 0 0 8-8v-96a8.00008 8.00008 0 0 0 -8-8h-96a8.00008 8.00008 0 0 0 -8 8v32a8.00008 8.00008 0 0 0 8 8h20.68652l-76.38086 76.38086-66.35937-73.73242a8.00044 8.00044 0 0 0 -11.60352-.30518l-96 96a8 8 0 0 0 0 11.31348zm77.35157-114.0376 66.35937 73.73242a8.00044 8.00044 0 0 0 11.60352.30518l96-96a8.00038 8.00038 0 0 0 -5.65723-13.65674h-32v-16h80v80h-16v-32a8.0001 8.0001 0 0 0 -13.65723-5.65674l-114.03711 114.0376-66.35937-73.73242a7.99878 7.99878 0 0 0 -5.73633-2.64551c-.07031-.002-.13965-.00293-.21-.00293a8.00105 8.00105 0 0 0 -5.65723 2.34326l-66.34273 66.34274-12.68652-12.686z"/><path d="m88 488v-16h24a8.00008 8.00008 0 0 0 8-8v-20.95947a201.12746 201.12746 0 0 0 278.22559-5.9502l87.43164-87.4292a30.62834 30.62834 0 0 0 -37.41773-47.92041 31.17652 31.17652 0 0 0 -51.18677-1.70654l-3.39184 4.55048a34.41184 34.41184 0 0 0 -5.54566-3.47138 34.336 34.336 0 0 0 -46.668 16.62061l-20.167 44.81555a35.79475 35.79475 0 0 0 -13.28023-2.54944h-96.68652l-13.65625-13.65674a64.67459 64.67459 0 0 0 -77.65723-10.41363v-7.92963a8.00008 8.00008 0 0 0 -8-8h-24v-8a8.00008 8.00008 0 0 0 -8-8h-64v16h56v160h-56v16h64a8.00008 8.00008 0 0 0 8-8zm341.86719-182.3501a15.13539 15.13539 0 0 1 6.12817 7.04083l-63.47583 63.47577a135.33848 135.33848 0 0 1 -28.52295 21.8208l65.88428-88.39111a15.13857 15.13857 0 0 1 19.98633-3.94629zm-73.83008 18.64942a18.33677 18.33677 0 0 1 24.92187-8.87549 18.4104 18.4104 0 0 1 3.13623 1.99438l-45.03321 60.41724a36.19223 36.19223 0 0 0 -4.41089-6.01184zm-169.69434 33.35742 16 16a8.00076 8.00076 0 0 0 5.65723 2.34326h100a20 20 0 0 1 0 40h-100v16h100a35.902 35.902 0 0 0 26.35938-11.51617 151.104 151.104 0 0 0 49.47462-33.00383l69.82227-69.82227a14.62931 14.62931 0 0 1 20.68848 20.68946l-87.4336 87.4292a185.13824 185.13824 0 0 1 -261.82324-.00244l-5.08791-5.08795v-65.207a48.62426 48.62426 0 0 1 66.34277 2.17774zm-82.34277-21.65674v120h-16v-120z"/></g></svg>