<?xml version="1.0"?>
<svg xmlns="http://www.w3.org/2000/svg" height="512px" viewBox="0 0 58 59" width="512px" class=""><g><g id="Page-1" fill="none" fill-rule="evenodd"><g id="009---Working" fill-rule="nonzero"><path id="Shape" d="m55 18v4h-10v-5.6c-.0000613-.3003227.1348558-.5847717.3674654-.7747362s.5382796-.2653283.8325346-.2052638l8 1.6c.4656663.0950537.800097.5047314.8.98z" fill="#3f5c6c" data-original="#3F5C6C"/><path id="Rectangle-path" d="m3 43h52v9h-52z" fill="#805333" data-original="#805333" class=""/><path id="Shape" d="m31 36h-28l-2.81-16.84c-.0469897-.2898944.03582596-.5857898.22647287-.809174.1906469-.2233843.46985035-.3516729.76352713-.350826h25.97c.4916162-.001417.9113431.3547149.99.84z" fill="#84b5cb" data-original="#84B5CB" class="" style="fill:#84B5CB"/><path id="Shape" d="m31 36v2c0 1.6568542-1.3431458 3-3 3h-22c-1.65685425 0-3-1.3431458-3-3v-2z" fill="#3b97d3" data-original="#3B97D3" class=""/><path id="Shape" d="m40 37v1c0 1.6568542-1.3431458 3-3 3h-9c1.6568542 0 3-1.3431458 3-3v-2h8c.5522847 0 1 .4477153 1 1z" fill="#2980ba" data-original="#2980BA" class=""/><path id="Shape" d="m57 26-1.77 13.26c-.1303778.9944041-.9770864 1.7384814-1.98 1.74h-6.5c-1.0029136-.0015186-1.8496222-.7455959-1.98-1.74l-1.77-13.26 7-3z" fill="#cbb292" data-original="#CBB292" class=""/><path id="Shape" d="m57.81 24.84c.0469897.2898944-.035826.5857898-.2264729.809174-.1906469.2233843-.4698503.3516729-.7635271.350826h-13.64c-.2936768.0008469-.5728802-.1274417-.7635271-.350826-.1906469-.2233842-.2734626-.5192796-.2264729-.809174l.67-4c.0786569-.4852851.4983838-.841417.99-.84h12.3c.4916162-.001417.9113431.3547149.99.84z" fill="#547580" data-original="#547580" class=""/><circle id="Oval" cx="15" cy="28" fill="#fff" r="4" data-original="#FFF" class="active-path" data-old_color="#fff" style="fill:#84B5CB"/><path id="Shape" d="m15 25c-.5522847 0-1-.4477153-1-1-.0234737-.8026156.2850527-1.5793921.8528303-2.1471697s1.3445541-.876304 2.1471697-.8528303c.5522847-.0027614 1.0022386.4427153 1.005.995s-.4427153 1.0022386-.995 1.005c-.2739117-.0288437-.5463007.0668224-.742023.2606068-.1957222.1937844-.2940938.4652081-.267977.7393932 0 .5522847-.4477153 1-1 1z" fill="#fff" data-original="#FFF" class="active-path" data-old_color="#fff" style="fill:#84B5CB"/><rect id="Rectangle-path" fill="#cf976a" height="4" rx="1" width="58" y="41" data-original="#CF976A" class=""/><path id="Shape" d="m10 45v13c0 .5522847-.44771525 1-1 1h-5c-.55228475 0-1-.4477153-1-1v-13z" fill="#a56a43" data-original="#A56A43" class=""/><path id="Shape" d="m55 45v13c0 .5522847-.4477153 1-1 1h-5c-.5522847 0-1-.4477153-1-1v-13z" fill="#a56a43" data-original="#A56A43" class=""/><g fill="#cb8252"><path id="Shape" d="m46.563 12c-.2797097.0000048-.5466366-.1171384-.736-.323-1.0970484-1.1282918-1.0970484-2.92470821 0-4.053l.873-.951c.1906223-.17180175.2994466-.41638221.2994466-.673s-.1088243-.50119825-.2994466-.673l-.873-.951c-1.0970484-1.12829179-1.0970484-2.92470821 0-4.053.3738968-.40675769 1.0067423-.43339673 1.4135-.05949997.4067577.37389677.4333967 1.00674225.0595 1.41349997-.1906223.17180175-.2994466.41638221-.2994466.673s.1088243.50119825.2994466.673l.873.951c1.0958747 1.12837988 1.0958747 2.92362012 0 4.052l-.873.951c-.1906223.17180175-.2994466.41638221-.2994466.673s.1088243.5011982.2994466.673c.2688138.2922335.3392634.715826.1795095 1.0793366s-.5194439.5980674-.9165095.5976634z" data-original="#CB8252" class="" style="fill:#FD760D" data-old_color="#CB8252"/><path id="Shape" d="m52.563 12c-.2797097.0000048-.5466366-.1171384-.736-.323-1.0970484-1.1282918-1.0970484-2.92470821 0-4.053l.873-.951c.1906223-.17180175.2994466-.41638221.2994466-.673s-.1088243-.50119825-.2994466-.673l-.873-.951c-1.0970484-1.12829179-1.0970484-2.92470821 0-4.053.2418688-.26312611.6057409-.37722919.9545492-.29932771s.6295605.33597242.7365.677.0238196.7132016-.2180492.97632771c-.1906223.17180175-.2994466.41638221-.2994466.673s.1088243.50119825.2994466.673l.873.951c1.0958747 1.12837988 1.0958747 2.92362012 0 4.052l-.873.951c-.1906223.17180175-.2994466.41638221-.2994466.673s.1088243.5011982.2994466.673c.2688138.2922335.3392634.715826.1795095 1.0793366s-.5194439.5980674-.9165095.5976634z" data-original="#CB8252" class="" style="fill:#FD760D" data-old_color="#CB8252"/></g></g></g></g> </svg>
