<svg id="Layer_3" enable-background="new 0 0 64 64" height="512" viewBox="0 0 64 64" width="512" xmlns="http://www.w3.org/2000/svg"><g><path d="m62 37v-10h-4.485c-.678-3.481-2.047-6.716-3.964-9.55l3.449-3.45-7-7-3.45 3.45c-2.834-1.918-6.069-3.286-9.55-3.965v-4.485h-10v4.485c-3.481.678-6.716 2.047-9.55 3.964l-3.45-3.449-7 7 3.45 3.45c-1.918 2.834-3.286 6.069-3.965 9.55h-4.485v10h4.485c.678 3.481 2.047 6.716 3.964 9.55l-3.449 3.45 7 7 3.45-3.45c2.834 1.917 6.069 3.286 9.55 3.964v4.486h10v-4.485c3.481-.678 6.716-2.047 9.55-3.964l3.45 3.449 7-7-3.45-3.45c1.917-2.834 3.286-6.069 3.964-9.55z" fill="#88929f"/><circle cx="32" cy="32" fill="#ebf7fe" r="20"/><path d="m12 32c0 5.972 2.632 11.318 6.783 14.983.239.006.476.017.717.017 14.083 0 25.5-10.969 25.5-24.5 0-2.209-.309-4.347-.88-6.383-3.365-2.572-7.557-4.117-12.12-4.117-11.046 0-20 8.954-20 20z" fill="#f7fcff"/><g fill="#666e77"><path d="m33 12.05c-.333-.016-.662-.05-1-.05s-.667.034-1 .05v4.95h2z"/><path d="m31 51.95c.333.017.662.05 1 .05s.667-.034 1-.05v-4.95h-2z"/><path d="m12.05 33h4.95v-2h-4.95c-.016.333-.05.662-.05 1s.034.667.05 1z"/><path d="m47 33h4.95c.017-.333.05-.662.05-1s-.034-.667-.05-1h-4.95z"/><path d="m45.401 17.185-3.108 3.108 1.414 1.414 3.108-3.108c-.448-.495-.919-.966-1.414-1.414z"/><path d="m17.185 18.599 3.108 3.108 1.414-1.414-3.108-3.108c-.495.448-.966.919-1.414 1.414z"/><path d="m17.185 45.401c.448.495.919.966 1.414 1.414l3.108-3.108-1.414-1.414z"/></g><circle cx="32" cy="32" fill="#88929f" r="3"/><g><path d="m31 19h2v12h-2z" fill="#88929f"/></g><g><path d="m22.55 35.5h9.899v2h-9.899z" fill="#88929f" transform="matrix(.707 -.707 .707 .707 -17.755 30.136)"/></g><path d="m56 40c0 2.209 1.791 4 4 4v-1c0-3.866-3.134-7-7-7-3.866 0-7 3.134-7 7v1h6c2.209 0 4-1.791 4-4z" fill="#976949"/><path d="m56 40c0 2.209-1.791 4-4 4h-4v3c0 2.761 2.239 5 5 5s5-2.239 5-5v-3.555c-1.191-.693-2-1.968-2-3.445z" fill="#efbe9c"/><path d="m48 47v-3h-2c-1.105 0-2 .895-2 2s.895 2 2 2h2.101c-.066-.323-.101-.657-.101-1z" fill="#efbe9c"/><path d="m60 44h-2v3c0 .343-.035.677-.101 1h2.101c1.105 0 2-.895 2-2s-.895-2-2-2z" fill="#efbe9c"/><path d="m44 62v-4c0-3.314 2.686-6 6-6h6c3.314 0 6 2.686 6 6v4z" fill="#3c98f4"/><g><path d="m47 57h2v5h-2z" fill="#63adf6"/></g><g><path d="m57 57h2v5h-2z" fill="#63adf6"/></g><path d="m51 56 2-2 2 2 2.795-3.726c-.567-.178-1.17-.274-1.795-.274h-6c-.625 0-1.228.096-1.795.274z" fill="#e5ebf0"/></g></svg>