<?xml version="1.0" encoding="iso-8859-1"?>
<!-- Generator: Adobe Illustrator 19.0.0, SVG Export Plug-In . SVG Version: 6.00 Build 0)  -->
<svg version="1.1" id="Layer_1" xmlns="http://www.w3.org/2000/svg" xmlns:xlink="http://www.w3.org/1999/xlink" x="0px" y="0px"
	 viewBox="0 0 505 505" style="enable-background:new 0 0 505 505;" xml:space="preserve">
<circle style="fill:#324A5E;" cx="252.5" cy="252.5" r="252.5"/>
<g>
	<path style="fill:#FFFFFF;" d="M391.9,145.7v279.1H138.7V235.3c10.7-1.1,21.1-5.7,29.2-13.8l73.9-73.9c3.9-3.9,3.9-10.1,0-14
		c-3.8-3.8-10.1-3.8-13.9,0L154,207.5c-4.3,4.3-9.7,7-15.3,7.9V92.1h84.5l-65.6,65.6c-3.8,3.8-3.8,10.1,0,13.9
		c3.9,3.9,10.1,3.9,14,0L246,97.2c1.6-1.6,3-3.4,4.2-5.2h88.3v53.6h53.4V145.7z"/>
	<path style="fill:#FFFFFF;" d="M241.8,133.6c3.9,3.9,3.9,10.1,0,14l-73.9,73.9c-8.1,8.1-18.5,12.8-29.2,13.8v-19.8
		c5.6-0.9,11-3.6,15.3-7.9l73.9-73.9C231.7,129.8,238,129.8,241.8,133.6z"/>
	<path style="fill:#FFFFFF;" d="M250.1,92.1c-1.2,1.8-2.6,3.6-4.2,5.2l-74.4,74.3c-3.9,3.9-10.1,3.9-14,0c-3.8-3.8-3.8-10.1,0-13.9
		l65.6-65.6L250.1,92.1L250.1,92.1z"/>
</g>
<polygon style="fill:#E6E9EE;" points="338.3,92.1 391.9,145.6 338.3,145.6 "/>
<g>
	<path style="fill:#FF7058;" d="M241.8,133.6c3.9,3.9,3.9,10.1,0,14l-73.9,73.9c-8.1,8.1-18.5,12.8-29.2,13.8
		c-14,1.4-28.4-3.2-39.1-13.8c-18.8-18.9-18.8-49.5,0-68.3l39.1-39.1V142l-25.2,25.1c-11.2,11.2-11.2,29.3,0,40.4
		c6.8,6.8,16.3,9.5,25.1,7.9c5.6-0.9,11-3.6,15.3-7.9l73.9-73.9C231.7,129.8,238,129.8,241.8,133.6z"/>
	<path style="fill:#FF7058;" d="M250.1,92.1c-1.2,1.8-2.6,3.6-4.2,5.2l-74.4,74.3c-3.9,3.9-10.1,3.9-14,0c-3.8-3.8-3.8-10.1,0-13.9
		l74.4-74.4c4.8-4.8,4.8-12.5,0-17.3c-4.8-4.8-12.5-4.8-17.3,0l-26.1,26.1h-27.9l40-40c12.5-12.5,32.7-12.5,45.2,0
		C256.7,62.9,258.2,79.7,250.1,92.1z"/>
</g>
<g>
	<rect x="175.5" y="280.7" style="fill:#E6E9EE;" width="189.6" height="12.4"/>
	<rect x="175.5" y="311.9" style="fill:#E6E9EE;" width="189.6" height="12.4"/>
	<rect x="175.5" y="343.2" style="fill:#E6E9EE;" width="189.6" height="12.4"/>
	<rect x="175.5" y="374.4" style="fill:#E6E9EE;" width="189.6" height="12.4"/>
</g>
<g>
</g>
<g>
</g>
<g>
</g>
<g>
</g>
<g>
</g>
<g>
</g>
<g>
</g>
<g>
</g>
<g>
</g>
<g>
</g>
<g>
</g>
<g>
</g>
<g>
</g>
<g>
</g>
<g>
</g>
</svg>
