<svg height="512pt" viewBox="0 0 512 512" width="512pt" xmlns="http://www.w3.org/2000/svg"><path d="m512 256c0 141.386719-114.613281 256-256 256s-256-114.613281-256-256 114.613281-256 256-256 256 114.613281 256 256zm0 0" fill="#ffd460"/><path d="m500.8125 331.042969-93.6875-93.6875-151.125-3.855469-134.25 77-16.75 58.144531 143.230469 143.226563c2.582031.078125 5.167969.128906 7.769531.128906 115.269531 0 212.738281-76.191406 244.8125-180.957031zm0 0" fill="#ffbe11"/><path d="m279.125 194.519531c-96.167969 0-174.125 77.957031-174.125 174.125 30.316406-76.707031 109.042969-119.867187 187.265625-108.296875zm0 0" fill="#446080"/><path d="m407 237.230469-127.875-127.875v128.476562c-79.78125-2.574219-153.484375 50.277344-174.125 130.8125 35.335938-64.394531 105.417969-97.597656 174.125-89.085937v85.546875zm0 0" fill="#324860"/></svg>