<svg id="Capa_1" enable-background="new 0 0 512.17 512.17" height="512" viewBox="0 0 512.17 512.17" width="512" xmlns="http://www.w3.org/2000/svg"><path d="m336.714 302.817c0-38.902-31.649-70.55-70.549-70.55h-20.159c-12.635 0-22.915-10.279-22.915-22.914s10.28-22.915 22.915-22.915h20.159c9.234 0 17.525 5.497 21.123 14.002 5.125 12.115 19.105 17.78 31.214 12.659 12.115-5.125 17.782-19.1 12.659-31.214-9.248-21.865-28.578-37.267-51.258-41.743v-18.048c0-13.155-10.663-23.818-23.818-23.818s-23.818 10.663-23.818 23.818v18.053c-32.348 6.41-56.812 35.004-56.812 69.206 0 38.901 31.649 70.549 70.55 70.549h20.159c12.635 0 22.914 10.28 22.914 22.915s-10.279 22.914-22.914 22.914h-20.159c-9.521 0-17.907-5.729-21.364-14.595-4.78-12.255-18.589-18.316-30.844-13.537s-18.315 18.589-13.537 30.844c8.941 22.926 28.584 39.036 52.007 43.603v18.029c0 13.155 10.663 23.818 23.818 23.818s23.818-10.663 23.818-23.818v-18.053c32.347-6.409 56.811-35.004 56.811-69.205z" fill="#78d0b1"/><path d="m301.161 161.884c5.124 12.114-.543 26.09-12.659 31.214-1.582.669-3.197 1.154-4.819 1.465 1.465 1.736 2.688 3.708 3.605 5.877 5.125 12.115 19.105 17.78 31.214 12.659 12.115-5.125 17.782-19.1 12.659-31.214-7.981-18.869-23.469-32.924-42.14-39.298 4.975 5.629 9.102 12.114 12.14 19.297z" fill="#66b49d"/><path d="m288.931 236.036c11.059 12.46 17.783 28.85 17.783 46.781 0 28.998-17.587 53.966-42.655 64.798-8.621 3.726-14.157 12.272-14.157 21.664v.796c0 10.95-7.389 20.174-17.453 22.957 1.484 11.98 11.862 21.201 24.322 20.851 12.976-.365 23.131-11.378 23.131-24.359v-17.502c32.347-6.41 56.812-35.004 56.812-69.205 0-30.939-20.019-57.29-47.783-66.781z" fill="#66b49d"/><path d="m323.158 9.23c-53.04-14.677-110.659-11.473-162.244 9.027-53.611 21.306-97.313 59.043-126.38 109.134-24.619 42.425-36.471 90.645-34.276 139.448 1.799 40.02 13.103 79.437 32.731 114.273l-19.376 19.434c-3.029 3.038-4.218 7.499-3.101 11.642s4.386 7.401 8.532 8.506l112.267 29.899c1.25.333 2.51.496 3.754.496 3.743 0 7.342-1.473 10.088-4.227 3.659-3.67 5.039-8.849 3.691-13.854l-30.225-112.179c-1.116-4.143-4.385-7.402-8.531-8.507s-8.604.096-11.633 3.135l-13.676 13.716c-10.767-25.195-15.914-52.833-14.926-80.426 1.091-30.481 9.668-60.379 24.805-86.464 42.414-73.089 128.922-108.395 210.368-85.856 1.927.532 3.987.274 5.724-.718 1.735-.993 3.003-2.638 3.521-4.569l14.131-52.74c1.066-3.978-1.274-8.071-5.244-9.17z" fill="#938bc6"/><path d="m118.619 320.829c-1.116-4.143-4.385-7.402-8.531-8.507s-8.604.096-11.633 3.135l-12.513 12.55 22.902 85.001c1.348 5.004-.032 10.184-3.691 13.854-2.746 2.754-6.346 4.227-10.088 4.227-1.244 0-2.505-.163-3.754-.496l-81.211-21.628c-.009 1.076.125 2.16.412 3.223 1.117 4.143 4.386 7.401 8.532 8.506l112.267 29.899c1.25.333 2.51.496 3.754.496 3.743 0 7.342-1.473 10.088-4.227 3.659-3.67 5.039-8.849 3.691-13.854z" fill="#8078bc"/><path d="m511.912 245.33c-1.801-40.021-13.104-79.438-32.732-114.273l19.378-19.433c3.028-3.038 4.217-7.499 3.101-11.641-1.117-4.143-4.387-7.402-8.533-8.507l-112.267-29.9c-5.006-1.333-10.183.062-13.843 3.731-3.659 3.67-5.039 8.849-3.691 13.854l30.226 112.18c1.116 4.143 4.386 7.402 8.532 8.506 4.142 1.102 8.603-.097 11.631-3.135l13.676-13.716c10.767 25.195 15.914 52.833 14.927 80.426-1.091 30.481-9.668 60.38-24.806 86.464-42.413 73.09-128.918 108.395-210.367 85.856-1.927-.532-3.987-.274-5.724.718-1.736.993-3.003 2.638-3.521 4.569l-14.132 52.739c-1.066 3.978 1.275 8.071 5.244 9.17 21.917 6.065 44.613 9.077 67.345 9.077 32.281 0 64.63-6.075 94.899-18.104 53.611-21.306 97.313-59.043 126.381-109.134 24.618-42.423 36.471-90.643 34.276-139.447z" fill="#938bc6"/><path d="m511.912 245.33c-1.801-40.021-13.104-79.438-32.732-114.273l19.378-19.433c3.028-3.038 4.217-7.499 3.101-11.641-1.117-4.143-4.387-7.402-8.533-8.507l-31.055-8.271c-.027 3.116-1.261 6.16-3.512 8.419l-6.156 6.174c-7.614 7.635-9.698 19.242-5.072 28.983 14.611 30.769 23.048 64.44 24.583 98.55 2.195 48.804-9.658 97.024-34.276 139.448-29.068 50.091-72.77 87.829-126.381 109.134-30.269 12.029-62.618 18.104-94.899 18.104-10.564 0-21.121-.651-31.595-1.956l-.994 3.709c-1.066 3.978 1.275 8.071 5.244 9.17 21.917 6.065 44.613 9.077 67.345 9.077 32.281 0 64.63-6.075 94.899-18.104 53.611-21.306 97.313-59.043 126.381-109.134 24.616-42.425 36.469-90.645 34.274-139.449z" fill="#8078bc"/></svg>