<?xml version="1.0" encoding="iso-8859-1"?>
<!-- Generator: Adobe Illustrator 19.0.0, SVG Export Plug-In . SVG Version: 6.00 Build 0)  -->
<svg version="1.1" id="Capa_1" xmlns="http://www.w3.org/2000/svg" xmlns:xlink="http://www.w3.org/1999/xlink" x="0px" y="0px"
	 viewBox="0 0 512.305 512.305" style="enable-background:new 0 0 512.305 512.305;" xml:space="preserve">
<rect x="328.853" y="342.08" transform="matrix(-0.7071 0.7071 -0.7071 -0.7071 869.4356 359.228)" style="fill:#ACB3BA;" width="62.933" height="35.2"/>
<path style="fill:#FFD15C;" d="M497.255,497.067L497.255,497.067c-21.333,21.333-57.6,20.267-76.8-3.2l-76.8-92.8l57.6-57.6
	l92.8,76.8C516.455,439.467,518.589,474.667,497.255,497.067z"/>
<path style="fill:#F8B64C;" d="M416.189,354.133L354.322,416c-6.4,6.4-16,6.4-21.333,0l-2.133-2.133c-6.4-6.4-6.4-16,0-21.333
	l61.867-61.867c6.4-6.4,16-6.4,21.333,0l2.133,2.133C422.589,338.133,422.589,348.8,416.189,354.133z"/>
<circle style="fill:#40596B;" cx="207.122" cy="206.933" r="206.933"/>
<circle style="fill:#84DBFF;" cx="207.122" cy="206.933" r="153.6"/>
<path style="fill:#FFFFFF;" d="M95.122,222.933c-8.533,0-16-7.467-16-16C79.122,136.533,135.655,80,206.055,80
	c8.533,0,16,7.467,16,16s-7.467,16-16,16c-52.267,0-94.933,42.667-94.933,94.933C111.122,215.467,104.722,222.933,95.122,222.933z"
	/>
<g>
</g>
<g>
</g>
<g>
</g>
<g>
</g>
<g>
</g>
<g>
</g>
<g>
</g>
<g>
</g>
<g>
</g>
<g>
</g>
<g>
</g>
<g>
</g>
<g>
</g>
<g>
</g>
<g>
</g>
</svg>
