<?xml version="1.0"?>
<svg xmlns="http://www.w3.org/2000/svg" xmlns:xlink="http://www.w3.org/1999/xlink" version="1.1" id="Layer_1" x="0px" y="0px" viewBox="0 0 501.967 501.967" style="enable-background:new 0 0 501.967 501.967;" xml:space="preserve" width="512px" height="512px" class=""><g><rect x="337.456" y="356.273" transform="matrix(-0.7071 0.7071 -0.7071 -0.7071 908.924 375.7635)" style="fill:#40596B;" width="78.367" height="39.706" data-original="#40596B" class=""/><polygon style="fill:#F68E3E" points="501.675,421.51 501.675,501.967 421.218,501.967 363.748,445.542 445.25,364.04 " data-original="#CDD6E0" class="active-path" data-old_color="#CDD6E0"/><g>
	<path style="fill:#40596B;" d="M447.34,347.322L447.34,347.322c-4.18-4.18-10.449-4.18-14.629,0l-85.682,86.727   c-4.18,4.18-4.18,10.449,0,14.629c4.18,4.18,10.449,4.18,14.629,0l86.727-86.727C451.52,357.771,451.52,351.502,447.34,347.322z" data-original="#40596B" class=""/>
	<ellipse style="fill:#40596B;" cx="218.673" cy="218.382" rx="218.382" ry="218.382" data-original="#40596B" class=""/>
</g><path style="fill:#FFFFFF;" d="M340.761,341.053c-67.918,67.918-177.633,67.918-245.551,0s-67.918-177.633,0-245.551  s177.633-67.918,245.551,0S408.679,273.134,340.761,341.053z" data-original="#FFFFFF" class=""/><path style="fill:#3C3E96" d="M217.463,218.8l125.388,89.861c-30.302,40.751-73.143,63.739-124.343,63.739V218.8H217.463z" data-original="#FF7058" class="" data-old_color="#FF7058"/><path style="fill:#F68E3E" d="M217.463,218.8l146.286-48.065c15.673,48.065,8.359,97.176-21.943,137.927L217.463,218.8z" data-original="#FFD15C" class="" data-old_color="#FFD15C"/><path style="fill:#F2F2F2" d="M217.463,218.8l48.065-146.286c48.065,15.673,82.547,50.155,99.265,99.265L217.463,218.8z" data-original="#84DBFF" class="" data-old_color="#84DBFF"/><path style="fill:#F2F2F2" d="M217.463,218.8v153.6c-84.637,0-153.6-68.963-153.6-153.6s68.963-153.6,153.6-153.6  c16.718,0,31.347,2.09,48.065,7.314L217.463,218.8z" data-original="#F2F2F2" class="" data-old_color="#F2F2F2"/></g> </svg>
