<?xml version="1.0" encoding="iso-8859-1"?>
<!-- Generator: Adobe Illustrator 19.0.0, SVG Export Plug-In . SVG Version: 6.00 Build 0)  -->
<svg version="1.1" id="Capa_1" xmlns="http://www.w3.org/2000/svg" xmlns:xlink="http://www.w3.org/1999/xlink" x="0px" y="0px"
	 viewBox="0 0 496 496" style="enable-background:new 0 0 496 496;" xml:space="preserve">
<circle style="fill:#FFCB57;" cx="312" cy="224" r="88"/>
<g>
	<path style="fill:#E56565;" d="M496,80H128V0h368V80z M144,64h336V16H144V64z"/>
	<rect x="160" y="32" style="fill:#E56565;" width="16" height="16"/>
	<rect x="192" y="32" style="fill:#E56565;" width="16" height="16"/>
	<rect x="224" y="32" style="fill:#E56565;" width="16" height="16"/>
</g>
<g>
	<rect x="128" y="96" style="fill:#3F3A34;" width="16" height="32"/>
	<polygon style="fill:#3F3A34;" points="480,96 480,368 224,368 224,384 496,384 496,96 	"/>
	<path style="fill:#3F3A34;" d="M218.144,311.04C242.296,337.072,276.504,352,312,352c70.576,0,128-57.424,128-128
		S382.576,96,312,96c-35.504,0-69.712,14.936-93.864,40.976l11.736,10.872c15.136-16.312,34.816-27.536,56.16-32.656
		c-8.216,8.176-17.48,19.104-25.56,32.928c-2.984-1.568-5.712-3.152-8.008-4.688l-8.888,13.312c2.768,1.848,6.04,3.76,9.648,5.64
		c-6.856,15.176-11.768,33.04-12.824,53.616H224v16h16.384c1.056,20.576,5.968,38.44,12.824,53.616
		c-3.608,1.888-6.896,3.808-9.664,5.664l8.904,13.296c2.296-1.536,5.024-3.128,8.008-4.696c8.088,13.816,17.352,24.752,25.56,32.928
		c-21.336-5.12-41.016-16.336-56.144-32.656L218.144,311.04z M348.464,154.464c-8.064,2.624-17.496,4.6-28.464,5.256V120.4
		C328.184,127.656,339.072,138.984,348.464,154.464z M337.936,115.152c15.968,3.808,30.6,11,43.112,20.84
		c-3.576,3.328-9.336,7.904-17.472,12.184C355.464,134.304,346.168,123.336,337.936,115.152z M320,175.72
		c13.992-0.744,25.944-3.36,35.984-6.888c6.12,13.416,10.56,29.144,11.616,47.168H320V175.72z M367.608,232
		c-1.064,17.992-5.52,33.72-11.672,47.152c-10.032-3.52-21.968-6.12-35.936-6.872V232H367.608z M320,288.272
		c10.96,0.656,20.376,2.608,28.416,5.208c-9.384,15.448-20.24,26.792-28.416,34.072V288.272z M363.592,299.784
		c8.144,4.28,13.896,8.856,17.472,12.208c-12.512,9.848-27.16,17.048-43.128,20.856C346.176,324.656,355.48,313.672,363.592,299.784
		z M392.92,301.224c-4.472-4.304-11.752-10.248-22.096-15.672c6.84-15.16,11.736-33.008,12.792-53.552h39.976
		C421.688,258.768,410.392,282.928,392.92,301.224z M423.592,216h-39.976c-1.056-20.552-5.96-38.392-12.792-53.552
		c10.344-5.424,17.624-11.368,22.096-15.672C410.392,165.072,421.688,189.232,423.592,216z M304,120.456v39.232
		c-10.92-0.664-20.416-2.584-28.408-5.176C284.976,139.064,295.832,127.728,304,120.456z M268.088,168.8
		c9.952,3.496,21.904,6.12,35.912,6.888V216h-47.608C257.464,197.984,261.928,182.24,268.088,168.8z M256.392,232H304v40.32
		c-14.04,0.76-26.008,3.4-35.968,6.896C261.904,265.792,257.456,250.04,256.392,232z M275.52,293.512
		c8.008-2.608,17.52-4.536,28.48-5.2V327.6C295.808,320.344,284.92,309.008,275.52,293.512z"/>
	<path style="fill:#3F3A34;" d="M168,144H40c-22.056,0-40,17.944-40,40v216h16V208h176v192h16V184C208,161.944,190.056,144,168,144z
		 M16,192v-8c0-13.232,10.768-24,24-24h128c13.232,0,24,10.768,24,24v8H16z"/>
	<path style="fill:#3F3A34;" d="M0,456c0,22.056,17.944,40,40,40h128c22.056,0,40-17.944,40-40v-40H0V456z M16,432h176v24
		c0,13.232-10.768,24-24,24H40c-13.232,0-24-10.768-24-24V432z"/>
	<rect x="80" y="448" style="fill:#3F3A34;" width="48" height="16"/>
</g>
<rect x="32" y="224" style="fill:#FFCB57;" width="144" height="176"/>
<g>
</g>
<g>
</g>
<g>
</g>
<g>
</g>
<g>
</g>
<g>
</g>
<g>
</g>
<g>
</g>
<g>
</g>
<g>
</g>
<g>
</g>
<g>
</g>
<g>
</g>
<g>
</g>
<g>
</g>
</svg>
