<?xml version="1.0" encoding="iso-8859-1"?>
<!-- Generator: Adobe Illustrator 19.0.0, SVG Export Plug-In . SVG Version: 6.00 Build 0)  -->
<svg version="1.1" id="Layer_1" xmlns="http://www.w3.org/2000/svg" xmlns:xlink="http://www.w3.org/1999/xlink" x="0px" y="0px"
	 viewBox="0 0 496.2 496.2" style="enable-background:new 0 0 496.2 496.2;" xml:space="preserve">
<path d="M140.8,342.1c-8,0-15.2-5.6-16.8-13.6l-38.4-180c-1.6-9.6,4-18.4,12.8-20c9.6-1.6,18.4,4,20,12.8l38.4,180
	c1.6,9.6-4,18.4-12.8,20C143.2,342.1,142.4,342.1,140.8,342.1z"/>
<path d="M273.6,342.1c-0.8,0-2.4,0-3.2,0c-9.6-1.6-15.2-11.2-12.8-20l38.4-180c1.6-9.6,11.2-15.2,20-12.8c9.6,1.6,15.2,11.2,12.8,20
	l-38.4,179.2C288.8,336.5,281.6,342.1,273.6,342.1z"/>
<path d="M207.2,338.9c-9.6,0-16.8-8-16.8-16.8v-180c0-9.6,8-16.8,16.8-16.8s16.8,8,16.8,16.8v180
	C224.8,330.9,216.8,338.9,207.2,338.9z"/>
<path style="fill:#18456D;" d="M414.4,146.9c1.6-4.8,0.8-11.2-2.4-15.2c-3.2-4-8-7.2-13.6-7.2H16.8c-5.6,0-10.4,2.4-13.6,7.2
	c-3.2,4.8-4,10.4-2.4,15.2L40,272.5c0,2.4,0.8,4.8,2.4,7.2l16.8,54.4c2.4,7.2,8.8,12,16,12h264c7.2,0,14.4-4.8,16-12l16.8-54.4
	c0.8-2.4,1.6-4.8,2.4-7.2L414.4,146.9z M60.8,223.7h293.6l-9.6,30.4H70.4L60.8,223.7z M374.4,158.9l-9.6,30.4H49.6L40,158.9H374.4z
	 M88,312.5l-7.2-24h253.6l-7.2,24H88z"/>
<g>
	<path style="fill:#0B3249;" d="M397.6,132.5H16.8c-5.6,0-10.4,2.4-13.6,7.2c-1.6,1.6-2.4,4-2.4,6.4v0.8L40,272.5
		c0,2.4,0.8,4.8,2.4,7.2l16.8,54.4c2.4,7.2,8.8,12,16,12h264c7.2,0,14.4-4.8,16-12l16.8-54.4c0.8-2.4,1.6-4.8,2.4-7.2l39.2-125.6
		v-0.8c-0.8-2.4-1.6-4-2.4-6.4C408.8,134.9,403.2,132.5,397.6,132.5z M334.4,296.5l-7.2,24H88l-7.2-24h2.4l-2.4-8h253.6l-2.4,8
		H334.4z M354.4,231.7l-9.6,30.4H70.4l-9.6-30.4h2.4l-2.4-8h293.6l-2.4,8L354.4,231.7L354.4,231.7z M374.4,166.9l-9.6,30.4H49.6
		L40,166.9h2.4l-2.4-8h334.4l-2.4,8H374.4z"/>
	<path style="fill:#0B3249;" d="M348.8,407.7H66.4c-9.6,0-16.8-8-16.8-16.8c0-9.6,8-16.8,16.8-16.8h282.4c9.6,0,16.8,8,16.8,16.8
		C365.6,400.5,358.4,407.7,348.8,407.7z"/>
</g>
<path d="M80.8,407.7h112c0-14.4-16-26.4-33.6-34.4h-60C87.2,381.3,80.8,394.1,80.8,407.7z"/>
<path style="fill:#0E3451;" d="M166.4,407.7c0,24-19.2,45.6-43.2,45.6S80,430.9,80,407.7c0-24,19.2-43.2,43.2-43.2
	C147.2,365.3,166.4,384.5,166.4,407.7z"/>
<path style="fill:#2689C6;" d="M166.4,407.7c0,24-19.2,43.2-43.2,43.2S80,431.7,80,407.7s19.2-46.4,43.2-46.4
	C147.2,362.1,166.4,384.5,166.4,407.7z"/>
<circle style="fill:#1B5A89;" cx="123.2" cy="407.7" r="43.2"/>
<path style="fill:#18456D;" d="M92.8,377.3c16.8-16.8,44-16.8,60.8,0s16.8,44,0,60.8"/>
<path style="fill:#0B3249;" d="M123.2,433.3c-14.4,0-25.6-11.2-25.6-25.6s11.2-25.6,25.6-25.6s25.6,11.2,25.6,25.6
	C148.8,422.1,137.6,433.3,123.2,433.3z"/>
<path d="M141.6,390.1c9.6,9.6,9.6,26.4,0,36s-26.4,9.6-36,0"/>
<path d="M238.4,407.7h112c0-14.4-16-26.4-33.6-34.4H256C245.6,381.3,238.4,394.1,238.4,407.7z"/>
<path style="fill:#0E3451;" d="M324,407.7c0,24-19.2,45.6-43.2,45.6s-43.2-22.4-43.2-45.6c0-24,19.2-43.2,43.2-43.2
	S324,384.5,324,407.7z"/>
<path style="fill:#2689C6;" d="M324,407.7c0,24-19.2,43.2-43.2,43.2s-43.2-19.2-43.2-43.2s19.2-46.4,43.2-46.4S324,384.5,324,407.7z
	"/>
<circle style="fill:#1B5A89;" cx="281.6" cy="407.7" r="43.2"/>
<path style="fill:#18456D;" d="M251.2,377.3c16.8-16.8,44-16.8,60.8,0s16.8,44,0,60.8"/>
<path style="fill:#0B3249;" d="M281.6,433.3c-14.4,0-25.6-11.2-25.6-25.6s11.2-25.6,25.6-25.6s25.6,11.2,25.6,25.6
	C306.4,422.1,295.2,433.3,281.6,433.3z"/>
<path d="M299.2,390.1c9.6,9.6,9.6,26.4,0,36s-26.4,9.6-36,0"/>
<path style="fill:#1B5A89;" d="M496,86.1c0,9.6-8,16.8-16.8,16.8h-72c-9.6,0-16.8-8-16.8-16.8v-0.8c0-9.6,8-16.8,16.8-16.8h72
	c9.6,0,16.8,8,16.8,16.8V86.1z"/>
<path style="fill:#18456D;" d="M407.2,67.7c-7.2,0-13.6,4.8-16,12c2.4,7.2,8.8,12,16,12h72c7.2,0,13.6-4.8,16-12
	c-2.4-7.2-8.8-12-16-12H407.2z"/>
<g>
	<circle style="opacity:0.5;fill:#0093F7;enable-background:new    ;" cx="364.8" cy="142.1" r="86.4"/>
	<path style="fill:#0093F7;" d="M364.8,42.9c-54.4,0-99.2,44.8-99.2,99.2s44,99.2,98.4,99.2h0.8c54.4,0,99.2-44.8,99.2-99.2
		C464,87.7,420,42.9,364.8,42.9z M364.8,66.9c41.6,0,75.2,33.6,75.2,75.2s-33.6,75.2-75.2,75.2s-75.2-33.6-75.2-75.2
		C289.6,100.5,324,66.9,364.8,66.9z"/>
</g>
<path style="fill:#0078DB;" d="M492,250.9l-33.6-33.6c-4.8-4.8-12.8-4.8-18.4,0c-4.8,4.8-4.8,13.6,0,18.4l33.6,33.6
	c4.8,4.8,13.6,4.8,18.4,0C497.6,264.5,497.6,255.7,492,250.9z"/>
<g>
</g>
<g>
</g>
<g>
</g>
<g>
</g>
<g>
</g>
<g>
</g>
<g>
</g>
<g>
</g>
<g>
</g>
<g>
</g>
<g>
</g>
<g>
</g>
<g>
</g>
<g>
</g>
<g>
</g>
</svg>
