<?xml version="1.0" encoding="iso-8859-1"?>
<!-- Generator: Adobe Illustrator 19.0.0, SVG Export Plug-In . SVG Version: 6.00 Build 0)  -->
<svg version="1.1" id="Layer_1" xmlns="http://www.w3.org/2000/svg" xmlns:xlink="http://www.w3.org/1999/xlink" x="0px" y="0px"
	 viewBox="0 0 504.6 504.6" style="enable-background:new 0 0 504.6 504.6;" xml:space="preserve">
<path d="M143.2,336.7c-8,0-15.2-5.6-16.8-13.6L87.2,140.7c-2.4-9.6,4-18.4,13.6-20.8s18.4,4,20.8,13.6l39.2,182.4
	c1.6,9.6-4,18.4-13.6,20.8C145.6,336.7,144.8,336.7,143.2,336.7z"/>
<path d="M278.4,336.7c-1.6,0-2.4,0-4,0c-9.6-2.4-15.2-11.2-13.6-20.8L300,133.5c2.4-9.6,11.2-15.2,20.8-13.6
	c9.6,2.4,15.2,11.2,13.6,20.8l-39.2,182.4C293.6,331.1,286.4,336.7,278.4,336.7z"/>
<path d="M212,333.5c-9.6,0-16-8-16-17.6V133.5c0-9.6,6.4-9.6,16-9.6s16,0,16,9.6v182.4C228,325.5,221.6,333.5,212,333.5z"/>
<path style="fill:#18456D;" d="M420.8,138.3c1.6-5.6,0.8-9.6-2.4-14.4c-3.2-4-8.8-5.6-14.4-5.6H17.6c-5.6,0-10.4,1.6-14.4,5.6
	c-3.2,4.8-4,9.6-2.4,15.2L60,329.5c2.4,7.2,8.8,12.8,16.8,12.8h268c8,0,14.4-5.6,16.8-12.8l17.6-56c1.6-2.4,1.6-4.8,2.4-7.2
	L420.8,138.3z M61.6,214.3H360l-9.6,32H71.2L61.6,214.3z M380.8,150.3l-9.6,32H50.4l-9.6-32H380.8z M89.6,310.3l-7.2-32H340l-8,32
	H89.6z"/>
<g>
	<path style="fill:#0B3249;" d="M404,126.3H17.6c-5.6,0-10.4,1.6-14.4,5.6c-1.6,1.6-2.4,3.2-3.2,5.6c0,0.8,0,0.8,0,0.8l60,191.2
		c2.4,7.2,8.8,12.8,16.8,12.8h268c8,0,14.4-5.6,16.8-12.8l17.6-56c1.6-2.4,1.6-4.8,2.4-7.2l40-128c0,0,0-0.8,0-1.6
		c-0.8-2.4-1.6-3.2-3.2-4.8C415.2,127.9,409.6,126.3,404,126.3z M340,286.3l-8,32H89.6l-7.2-32H84l-1.6-8H340l-1.6,8H340z
		 M360,222.3l-9.6,32H71.2l-9.6-32H64l-2.4-8H360l-2.4,8H360z M380.8,158.3l-9.6,32H50.4l-9.6-32h2.4l-2.4-8h340l-2.4,8H380.8z"/>
	<path style="fill:#0B3249;" d="M354.4,406.3H67.2c-9.6,0-17.6-10.4-17.6-20s8-20,17.6-20h287.2c9.6,0,17.6,10.4,17.6,20
		S364,406.3,354.4,406.3z"/>
</g>
<path d="M81.6,406.3h113.6c0-16-16-32-34.4-40H99.2C88.8,374.3,81.6,390.3,81.6,406.3z"/>
<path style="fill:#0E3451;" d="M168.8,403.9c0,24-19.2,46.4-43.2,46.4s-43.2-22.4-43.2-46.4s19.2-43.2,43.2-43.2
	C149.6,359.9,168.8,379.9,168.8,403.9z"/>
<path style="fill:#2689C6;" d="M168.8,403.9c0,24-19.2,43.2-43.2,43.2s-43.2-19.2-43.2-43.2s19.2-47.2,43.2-47.2
	S168.8,379.9,168.8,403.9z"/>
<circle style="fill:#1B5A89;" cx="125.6" cy="403.9" r="43.2"/>
<path style="fill:#18456D;" d="M94.4,372.7c16.8-16.8,44.8-16.8,61.6,0s16.8,44.8,0,61.6"/>
<path style="fill:#0B3249;" d="M125.6,429.5c-14.4,0-25.6-11.2-25.6-25.6s11.2-25.6,25.6-25.6s25.6,11.2,25.6,25.6
	C151.2,418.3,139.2,429.5,125.6,429.5z"/>
<path d="M143.2,385.5c10.4,10.4,10.4,26.4,0,36.8s-26.4,10.4-36.8,0"/>
<path d="M242.4,406.3H356c0-16-16-32-34.4-40H260C249.6,374.3,242.4,390.3,242.4,406.3z"/>
<path style="fill:#0E3451;" d="M329.6,403.9c0,24-19.2,46.4-43.2,46.4s-43.2-22.4-43.2-46.4s19.2-43.2,43.2-43.2
	C309.6,359.9,329.6,379.9,329.6,403.9z"/>
<path style="fill:#2689C6;" d="M329.6,403.9c0,24-19.2,43.2-43.2,43.2s-43.2-19.2-43.2-43.2s19.2-47.2,43.2-47.2
	C309.6,356.7,329.6,379.9,329.6,403.9z"/>
<circle style="fill:#1B5A89;" cx="285.6" cy="403.9" r="43.2"/>
<path style="fill:#18456D;" d="M255.2,372.7c16.8-16.8,44.8-16.8,61.6,0c16.8,16.8,16.8,44.8,0,61.6"/>
<path style="fill:#0B3249;" d="M285.6,429.5c-14.4,0-25.6-11.2-25.6-25.6s11.2-25.6,25.6-25.6s25.6,11.2,25.6,25.6
	C312,418.3,300,429.5,285.6,429.5z"/>
<path d="M304,385.5c10.4,10.4,10.4,26.4,0,36.8s-26.4,10.4-36.8,0"/>
<path style="fill:#1B5A89;" d="M500,70.3c0,8.8-7.2,16-16,16h-72c-8.8,0-16-7.2-16-16l0,0c0-8.8,7.2-16,16-16h72
	C492.8,54.3,500,61.5,500,70.3L500,70.3z"/>
<path style="fill:#18456D;" d="M412,54.3c-8,0-12.8,4.8-15.2,12c2.4,7.2,9.6,12,17.6,12h71.2c8,0,12-4.8,14.4-12
	c-3.2-7.2-8-12-16-12H412z"/>
<circle style="fill:#1AD85A;" cx="395.2" cy="167.1" r="108.8"/>
<path style="fill:#0FA862;" d="M395.2,58.3c60,0,108.8,48.8,108.8,108.8s-48.8,108.8-108.8,108.8"/>
<path style="fill:#19BF55;" d="M318.4,90.3c42.4-42.4,111.2-42.4,154.4,0c42.4,42.4,42.4,111.2,0,154.4"/>
<g>
	<path style="fill:#FFFFFF;" d="M396,139.1c4,0,8,3.2,8,7.2v72.8c0,4-4,6.4-8,6.4s-8-3.2-8-6.4v-72.8C388,142.3,392,139.1,396,139.1
		z"/>
	<circle style="fill:#FFFFFF;" cx="395.2" cy="117.5" r="8.8"/>
</g>
<g>
</g>
<g>
</g>
<g>
</g>
<g>
</g>
<g>
</g>
<g>
</g>
<g>
</g>
<g>
</g>
<g>
</g>
<g>
</g>
<g>
</g>
<g>
</g>
<g>
</g>
<g>
</g>
<g>
</g>
</svg>
