<?xml version="1.0" encoding="iso-8859-1"?>
<!-- Generator: Adobe Illustrator 19.0.0, SVG Export Plug-In . SVG Version: 6.00 Build 0)  -->
<svg version="1.1" id="Layer_1" xmlns="http://www.w3.org/2000/svg" xmlns:xlink="http://www.w3.org/1999/xlink" x="0px" y="0px"
	 viewBox="0 0 504.2 504.2" style="enable-background:new 0 0 504.2 504.2;" xml:space="preserve">
<path d="M143.4,345.7c-8,0-15.2-5.6-16.8-13.6L87.4,149.7c-2.4-9.6,4-18.4,13.6-20.8c9.6-2.4,18.4,4,20.8,13.6L161,324.9
	c1.6,9.6-4,18.4-13.6,20.8C145.8,345.7,145,345.7,143.4,345.7z"/>
<path d="M278.6,345.7c-0.8,0-2.4,0-4,0c-9.6-2.4-15.2-11.2-13.6-20.8l39.2-183.2c2.4-9.6,11.2-15.2,20.8-13.6
	c9.6,2.4,15.2,11.2,13.6,20.8l-39.2,183.2C293.8,340.1,286.6,345.7,278.6,345.7z"/>
<path d="M212.2,341.7c-9.6,0-16-8-16-17.6V141.7c0-9.6,6.4-17.6,16-17.6s16,8,16,17.6v182.4C228.2,334.5,221.8,341.7,212.2,341.7z"
	/>
<path style="fill:#18456D;" d="M421,147.3c1.6-5.6,0.8-11.2-2.4-16c-3.2-4-8.8-7.2-14.4-7.2H17.8c-5.6,0-10.4,3.2-14.4,7.2
	s-4,10.4-2.4,15.2l40,128l2.4,7.2l16.8,55.2c2.4,7.2,8.8,11.2,16.8,11.2h268c8,0,14.4-4,16.8-11.2l17.6-55.2l2.4-7.2L421,147.3z
	 M61.8,228.1h298.4l-9.6,24H71.4L61.8,228.1z M381,156.1l-9.6,32H50.6l-9.6-32H381z M89.8,316.1l-7.2-24h257.6l-8,24H89.8z"/>
<g>
	<path style="fill:#0B3249;" d="M404.2,132.1H17.8c-5.6,0-10.4,3.2-14.4,7.2c-1.6,1.6-2.4,4-3.2,6.4c0,0,0,0.8,0,1.6l40,128l2.4,7.2
		l17.6,54.4c2.4,7.2,8.8,11.2,16.8,11.2h268c8,0,14.4-4,16.8-11.2l17.6-55.2l2.4-7.2l40-128v-0.8c-0.8-2.4-1.6-4.8-3.2-6.4
		C415.4,135.3,409.8,132.1,404.2,132.1z M340.2,300.1l-8,24H89.8l-7.2-24H85l-2.4-8h257.6l-2.4,8H340.2z M360.2,236.1l-9.6,24H71.4
		l-9.6-24h2.4l-2.4-8h298.4l-2.4,8H360.2z M381,164.1l-9.6,32H50.6l-9.6-32h2.4l-2.4-8h340l-2.4,8H381z"/>
	<path style="fill:#0B3249;" d="M354.6,412.1H67.4c-9.6,0-17.6-6.4-17.6-16s8-16,17.6-16h287.2c9.6,0,17.6,6.4,17.6,16
		S364.2,412.1,354.6,412.1z"/>
</g>
<path d="M81.8,412.1h113.6c0-16-16-24-34.4-32H99.4C89,388.1,81.8,396.1,81.8,412.1z"/>
<path style="fill:#0E3451;" d="M169,412.1c0,24-19.2,46.4-43.2,46.4s-43.2-22.4-43.2-46.4s19.2-43.2,43.2-43.2S169,388.1,169,412.1z
	"/>
<path style="fill:#2689C6;" d="M169,412.1c0,24-19.2,43.2-43.2,43.2s-43.2-19.2-43.2-43.2s19.2-47.2,43.2-47.2
	C149.8,365.7,169,388.1,169,412.1z"/>
<circle style="fill:#1B5A89;" cx="125.8" cy="412.1" r="43.2"/>
<path style="fill:#18456D;" d="M94.6,381.7c16.8-16.8,44.8-16.8,61.6,0s16.8,44.8,0,61.6"/>
<path style="fill:#0B3249;" d="M125.8,438.5c-14.4,0-25.6-11.2-25.6-25.6s11.2-25.6,25.6-25.6s25.6,11.2,25.6,25.6
	C151.4,426.5,139.4,438.5,125.8,438.5z"/>
<path d="M143.4,393.7c10.4,10.4,10.4,26.4,0,36.8s-26.4,10.4-36.8,0"/>
<path d="M242.6,412.1h113.6c0-16-16-24-34.4-32h-61.6C249.8,388.1,242.6,396.1,242.6,412.1z"/>
<path style="fill:#0E3451;" d="M329.8,412.1c0,24-19.2,46.4-43.2,46.4s-43.2-22.4-43.2-46.4s19.2-43.2,43.2-43.2
	C309.8,368.9,329.8,388.1,329.8,412.1z"/>
<path style="fill:#2689C6;" d="M329.8,412.1c0,24-19.2,43.2-43.2,43.2s-43.2-19.2-43.2-43.2s19.2-47.2,43.2-47.2
	C309.8,365.7,329.8,388.1,329.8,412.1z"/>
<circle style="fill:#1B5A89;" cx="285.8" cy="412.1" r="43.2"/>
<path style="fill:#18456D;" d="M255.4,381.7c16.8-16.8,44.8-16.8,61.6,0c16.8,16.8,16.8,44.8,0,61.6"/>
<circle style="fill:#0B3249;" cx="285.8" cy="412.1" r="25.6"/>
<path d="M304.2,393.7c10.4,10.4,10.4,26.4,0,36.8s-26.4,10.4-36.8,0"/>
<path style="fill:#1B5A89;" d="M504.2,84.1c0,9.6-8,16-17.6,16h-72.8c-9.6,0-17.6-4.8-17.6-14.4v-1.6c0-9.6,8-16,17.6-16h72.8
	C496.2,68.1,504.2,74.5,504.2,84.1L504.2,84.1z"/>
<path style="fill:#18456D;" d="M413.8,68.1c-8,0-14.4,4.8-16.8,12c2.4,7.2,8.8,12,16.8,12h72.8c8,0,14.4-4.8,16.8-12
	c-1.6-8-9.6-12-16.8-12H413.8z"/>
<path style="fill:#FFB000;" d="M503.4,108.1c-1.6-4-4.8-7.2-9.6-8l-45.6-6.4l-20.8-41.6c-1.6-4-6.4-6.4-10.4-6.4
	c-4.8,0-8.8,2.4-10.4,6.4l-20.8,41.6l-45.6,6.4c-4.8,0.8-8,4-9.6,8s0,8.8,3.2,12l33.6,32l-8,45.6c-0.8,4.8,0.8,8.8,4.8,11.2
	s8.8,3.2,12.8,0.8l40.8-21.6l40.8,21.6c1.6,0.8,3.2,1.6,5.6,1.6s4.8-0.8,7.2-2.4c3.2-2.4,5.6-7.2,4.8-11.2l-8-45.6l32.8-32
	C504.2,116.9,505,112.1,503.4,108.1z"/>
<path style="fill:#FF9700;" d="M503.4,108.1c-1.6-4-4.8-7.2-9.6-8l-45.6-6.4l-20.8-41.6c-0.8-1.6-1.6-2.4-3.2-4l-58.4,162.4
	c3.2,1.6,7.2,1.6,10.4,0l40.8-21.6l40.8,21.6c1.6,0.8,3.2,1.6,5.6,1.6s4.8-0.8,7.2-2.4c3.2-2.4,5.6-7.2,4.8-11.2l-8-45.6l32.8-32
	C504.2,116.9,505,112.1,503.4,108.1z"/>
<g>
</g>
<g>
</g>
<g>
</g>
<g>
</g>
<g>
</g>
<g>
</g>
<g>
</g>
<g>
</g>
<g>
</g>
<g>
</g>
<g>
</g>
<g>
</g>
<g>
</g>
<g>
</g>
<g>
</g>
</svg>
