<?xml version="1.0" encoding="iso-8859-1"?>
<!-- Generator: Adobe Illustrator 19.0.0, SVG Export Plug-In . SVG Version: 6.00 Build 0)  -->
<svg version="1.1" id="Layer_1" xmlns="http://www.w3.org/2000/svg" xmlns:xlink="http://www.w3.org/1999/xlink" x="0px" y="0px"
	 viewBox="0 0 500 500" style="enable-background:new 0 0 500 500;" xml:space="preserve">
<path d="M143.2,336.9c-8,0-15.2-5.6-16.8-13.6L87.2,140.9c-2.4-9.6,4-18.4,13.6-20.8s18.4,4,20.8,13.6l39.2,182.4
	c1.6,9.6-4,18.4-13.6,20.8C145.6,336.9,144.8,336.9,143.2,336.9z"/>
<path d="M278.4,336.9c-1.6,0-2.4,0-4,0c-9.6-2.4-15.2-11.2-13.6-20.8L300,132.9c2.4-9.6,11.2-15.2,20.8-13.6
	c9.6,2.4,15.2,11.2,13.6,20.8l-39.2,182.4C293.6,331.3,286.4,336.9,278.4,336.9z"/>
<path d="M212,333.7c-9.6,0-16-8-16-17.6V133.7c0-9.6,6.4-17.6,16-17.6s16,8,16,17.6v182.4C228,325.7,221.6,333.7,212,333.7z"/>
<path style="fill:#18456D;" d="M420.8,138.5c1.6-5.6,0.8-12-2.4-16c-3.2-4.8-8.8-8-14.4-8H17.6c-5.6,0-10.4,3.2-14.4,8
	c-3.2,4.8-4,10.4-2.4,16L60,327.3c2.4,7.2,8.8,11.2,16.8,11.2h268c8,0,14.4-3.2,16.8-11.2L420.8,138.5z M61.6,218.5H360l-9.6,32
	H71.2L61.6,218.5z M380.8,154.5l-9.6,24H50.4l-9.6-24H380.8z M89.6,306.5l-7.2-24H340l-8,24H89.6z"/>
<g>
	<path style="fill:#0B3249;" d="M404,122.5H17.6c-5.6,0-10.4,3.2-14.4,8c-1.6,1.6-2.4,4.8-3.2,6.4c0,0,0,0.8,0,1.6l60,188.8
		c2.4,7.2,8.8,11.2,16.8,11.2h268c8,0,14.4-3.2,16.8-11.2l59.2-188.8c0-0.8,0-0.8,0-0.8c-0.8-2.4-1.6-4.8-3.2-7.2
		C415.2,125.7,409.6,122.5,404,122.5z M340,290.5l-8,24H89.6l-7.2-24h2.4l-2.4-8H340l-2.4,8H340z M360,226.5l-9.6,32H71.2l-9.6-32
		H64l-2.4-8H360l-2.4,8H360z M380.8,162.5l-9.6,24H50.4l-9.6-24h2.4l-2.4-8h340l-2.4,8H380.8z"/>
	<path style="fill:#0B3249;" d="M354.4,402.5H67.2c-9.6,0-17.6-6.4-17.6-16s8-16,17.6-16h287.2c9.6,0,17.6,6.4,17.6,16
		C372,396.1,364,402.5,354.4,402.5z"/>
</g>
<path d="M81.6,402.5h113.6c0-16-16-24-34.4-32H99.2C88.8,378.5,81.6,386.5,81.6,402.5z"/>
<path style="fill:#0E3451;" d="M168.8,403.3c0,24-19.2,46.4-43.2,46.4s-43.2-22.4-43.2-46.4s19.2-43.2,43.2-43.2
	C149.6,360.1,168.8,379.3,168.8,403.3z"/>
<path style="fill:#2689C6;" d="M168.8,403.3c0,24-19.2,43.2-43.2,43.2s-43.2-19.2-43.2-43.2s19.2-47.2,43.2-47.2
	C149.6,356.9,168.8,379.3,168.8,403.3z"/>
<circle style="fill:#1B5A89;" cx="125.6" cy="403.3" r="43.2"/>
<path style="fill:#18456D;" d="M94.4,372.9c16.8-16.8,44.8-16.8,61.6,0s16.8,44.8,0,61.6"/>
<path style="fill:#0B3249;" d="M125.6,429.7c-14.4,0-25.6-11.2-25.6-25.6s11.2-25.6,25.6-25.6s25.6,11.2,25.6,25.6
	C151.2,417.7,139.2,429.7,125.6,429.7z"/>
<path d="M143.2,385.7c10.4,10.4,10.4,26.4,0,36.8s-26.4,10.4-36.8,0"/>
<path d="M242.4,402.5H356c0-16-16-24-34.4-32H260C249.6,378.5,242.4,386.5,242.4,402.5z"/>
<path style="fill:#0E3451;" d="M329.6,403.3c0,24-19.2,46.4-43.2,46.4s-43.2-22.4-43.2-46.4s19.2-43.2,43.2-43.2
	C309.6,360.1,329.6,379.3,329.6,403.3z"/>
<path style="fill:#2689C6;" d="M329.6,403.3c0,24-19.2,43.2-43.2,43.2s-43.2-19.2-43.2-43.2s19.2-47.2,43.2-47.2
	C309.6,356.9,329.6,379.3,329.6,403.3z"/>
<circle style="fill:#1B5A89;" cx="285.6" cy="403.3" r="43.2"/>
<path style="fill:#18456D;" d="M255.2,372.9c16.8-16.8,44.8-16.8,61.6,0c16.8,16.8,16.8,44.8,0,61.6"/>
<path style="fill:#0B3249;" d="M285.6,429.7c-14.4,0-25.6-11.2-25.6-25.6s11.2-25.6,25.6-25.6s25.6,11.2,25.6,25.6
	C312,417.7,300,429.7,285.6,429.7z"/>
<path d="M304,385.7c10.4,10.4,10.4,26.4,0,36.8s-26.4,10.4-36.8,0"/>
<path style="fill:#1B5A89;" d="M500,74.5c0,8.8-7.2,16-16,16h-72c-8.8,0-16-7.2-16-16l0,0c0-8.8,7.2-16,16-16h72
	C492.8,58.5,500,65.7,500,74.5L500,74.5z"/>
<path style="fill:#18456D;" d="M413.6,58.5c-8,0-14.4,4.8-16.8,12c2.4,7.2,8.8,12,16.8,12h69.6c8,0,13.6-4.8,16-12
	c-0.8-7.2-7.2-12-15.2-12H413.6z"/>
<path style="fill:#F96294;" d="M445.6,187.3L404,145.7l41.6-41.6c6.4-6.4,8.8-14.4,8.8-22.4s-3.2-16-8.8-22.4c-12-12-32-12-44,0
	L360,100.9l-41.6-41.6c-12-12-32-12-44,0s-12,32,0,44l41.6,41.6l-41.6,41.6c-12,12-12,32,0,44s32,12,44,0l41.6-41.6l41.6,41.6
	c6.4,6.4,14.4,8.8,22.4,8.8s16-3.2,22.4-8.8C457.6,219.3,457.6,200.1,445.6,187.3z"/>
<g>
	<path style="fill:#FF0D52;" d="M270.4,64.1c-3.2,4.8-4.8,9.6-5.6,14.4L270.4,64.1z"/>
	<path style="fill:#FF0D52;" d="M455.2,81.7c0-8-3.2-16-8.8-22.4c-4.8-4.8-11.2-8-17.6-8.8l-55.2,152.8l28,28
		c6.4,6.4,14.4,8.8,22.4,8.8s16-3.2,22.4-8.8c12-12,12-32,0-44L404,145.7l41.6-41.6C452,97.7,455.2,89.7,455.2,81.7z"/>
	<path style="fill:#FF0D52;" d="M276,233.7c5.6,4.8,12.8,7.2,20,7.2L276,233.7z"/>
</g>
<g>
</g>
<g>
</g>
<g>
</g>
<g>
</g>
<g>
</g>
<g>
</g>
<g>
</g>
<g>
</g>
<g>
</g>
<g>
</g>
<g>
</g>
<g>
</g>
<g>
</g>
<g>
</g>
<g>
</g>
</svg>
