<svg height="464pt" viewBox="-20 0 464 464" width="464pt" xmlns="http://www.w3.org/2000/svg"><path d="m0 0h352v432h-352zm0 0" fill="#ebebeb"/><path d="m232 319h24v2h-24zm0 0"/><path d="m272 319h16v2h-16zm0 0"/><path d="m304 319h16v2h-16zm0 0"/><path d="m152 288h240v144h-240zm0 0" fill="#85bc94"/><path d="m184 320h176v80h-176zm0 0" fill="#aae5c8"/><path d="m312 360c0 22.089844-17.910156 40-40 40s-40-17.910156-40-40 17.910156-40 40-40 40 17.910156 40 40zm0 0" fill="#85bc94"/><path d="m152 432h240v32h-240zm0 0" fill="#aae5c8"/><path d="m152 448h240v16h-240zm0 0" fill="#85bc94"/><path d="m64 88h96v72h-96zm0 0" fill="#4799cf"/><path d="m112 48-64 24v24h128v-24zm0 0" fill="#5abcf3"/><path d="m96 128h32v40h-32zm0 0" fill="#ebebeb"/><g fill="#cdcdcd"><path d="m240 104h56v16h-56zm0 0"/><path d="m208 152h16v16h-16zm0 0"/><path d="m208 104h16v16h-16zm0 0"/><path d="m240 152h16v16h-16zm0 0"/><path d="m280 32h16v16h-16zm0 0"/><path d="m312 32h16v16h-16zm0 0"/><path d="m312 104h16v16h-16zm0 0"/><path d="m272 152h56v16h-56zm0 0"/><path d="m40 296h56v16h-56zm0 0"/><path d="m72 248h16v16h-16zm0 0"/><path d="m40 248h16v16h-16zm0 0"/><path d="m104 248h16v16h-16zm0 0"/><path d="m144 200h32v16h-32zm0 0"/><path d="m112 296h16v16h-16zm0 0"/><path d="m136 248h72v16h-72zm0 0"/><path d="m56 200h72v16h-72zm0 0"/><path d="m40 344h72v16h-72zm0 0"/><path d="m40 376h48v16h-48zm0 0"/></g><path d="m256 288h32v144h-32zm0 0" fill="#b8eaee"/><path d="m256 432h32v32h-32zm0 0" fill="#a8d6da"/><path d="m224 224h184c8.800781 0 16 7.199219 16 16v104c0 8.800781-7.199219 16-16 16h-184c-8.800781 0-16-7.199219-16-16v-104c0-8.800781 7.199219-16 16-16zm0 0" fill="#fbb540"/><path d="m240 256h40v32h-40zm0 0" fill="#fece2f"/><path d="m304 256h24v16h-24zm0 0" fill="#ea9d2d"/><path d="m344 256h24v16h-24zm0 0" fill="#ea9d2d"/><path d="m384 256h16v16h-16zm0 0" fill="#ea9d2d"/><path d="m392 316c0 11.046875-8.953125 20-20 20s-20-8.953125-20-20 8.953125-20 20-20 20 8.953125 20 20zm0 0" fill="#ea9d2d"/><path d="m368 316c0 11.046875-8.953125 20-20 20s-20-8.953125-20-20 8.953125-20 20-20 20 8.953125 20 20zm0 0" fill="#ea6b65"/></svg>