<?xml version="1.0" encoding="iso-8859-1"?>
<!-- Generator: Adobe Illustrator 19.0.0, SVG Export Plug-In . SVG Version: 6.00 Build 0)  -->
<svg version="1.1" id="Capa_1" xmlns="http://www.w3.org/2000/svg" xmlns:xlink="http://www.w3.org/1999/xlink" x="0px" y="0px"
	 viewBox="0 0 512.001 512.001" style="enable-background:new 0 0 512.001 512.001;" xml:space="preserve">
<path style="fill:#0071BC;" d="M163.333,485.4V114.731h-61.778L260.413,0l158.858,114.731h-61.778V485.4H163.333z"/>
<path style="fill:#E6E6E6;" d="M489.875,511.876H322.191V282.415h114.731l52.953,52.953V511.876z"/>
<path style="fill:#F2F2F2;" d="M436.922,282.415v52.953h52.953L436.922,282.415z"/>
<g>
	<path style="fill:#29485A;" d="M348.668,308.891h61.778v17.651h-61.778V308.891z"/>
	<path style="fill:#29485A;" d="M348.668,344.193h61.778v17.651h-61.778V344.193z"/>
</g>
<path style="fill:#ED1C24;" d="M365.48,462.674l-15.974-7.502l29.601-62.987l44.401,19.743l22.955-53.562l16.221,6.954
	l-29.998,69.995l-44.957-19.972L365.48,462.674z"/>
<path style="fill:#29485A;" d="M410.446,467.749h52.953V485.4h-52.953V467.749z"/>
<path style="fill:#06AAE9;" d="M82.872,295.926c-55.953,29.733-77.223,99.189-47.49,155.152s99.189,77.214,155.152,47.49
	c21.11-11.217,38.197-28.753,48.858-50.155l-102.534-51.267L82.872,295.926z"/>
<path style="fill:#FBB03B;" d="M246.39,362.92c-18.904-60.481-83.259-94.185-143.731-75.281c-6.84,2.136-13.459,4.907-19.787,8.287
	l53.985,101.219L246.39,362.92z"/>
<path style="fill:#ED1C24;" d="M246.39,362.92l-109.533,34.225l102.534,51.267C252.726,421.901,255.233,391.25,246.39,362.92
	L246.39,362.92z"/>
<g>
	<path style="fill:#29485A;" d="M13.3,141.207h61.778v17.651H13.3V141.207z"/>
	<path style="fill:#29485A;" d="M13.3,176.509h61.778v17.651H13.3V176.509z"/>
	<path style="fill:#29485A;" d="M13.3,211.811h61.778v17.651H13.3V211.811z"/>
	<path style="fill:#29485A;" d="M436.922,17.651h61.778v17.651h-61.778V17.651z"/>
	<path style="fill:#29485A;" d="M436.922,52.953h61.778v17.651h-61.778V52.953z"/>
</g>
<g>
</g>
<g>
</g>
<g>
</g>
<g>
</g>
<g>
</g>
<g>
</g>
<g>
</g>
<g>
</g>
<g>
</g>
<g>
</g>
<g>
</g>
<g>
</g>
<g>
</g>
<g>
</g>
<g>
</g>
</svg>
