<?xml version="1.0"?>
<svg xmlns="http://www.w3.org/2000/svg" xmlns:xlink="http://www.w3.org/1999/xlink" version="1.1" id="Layer_1" x="0px" y="0px" viewBox="0 0 505 505" style="enable-background:new 0 0 505 505;" xml:space="preserve" width="512px" height="512px" class=""><g transform="matrix(-6.12323e-17 -1 -1 6.12323e-17 505 505)"><path style="fill:#F9BF22" d="M0,252.5C0,113,113,0,252.5,0C391.9,0,505,113,505,252.5S391.9,505,252.5,505C113,505,0,392,0,252.5z  " data-original="#54C0EB" class="active-path" data-old_color="#F2BA23"/><polygon style="fill:#FFFFFF" points="270,150.3 191.8,72.1 113.6,150.3 148.9,150.3 161,290.4 222.7,290.4 234.8,150.3 " data-original="#E6E9EE" class="" data-old_color="#E6E9EE"/><polygon style="fill:#FFFFFF" points="235,354.7 313.2,432.9 391.4,354.7 356.1,354.7 344,214.6 282.3,214.6 270.2,354.7 " data-original="#FFFFFF" class=""/></g> </svg>
