<svg height="512pt" viewBox="0 0 512 512" width="512pt" xmlns="http://www.w3.org/2000/svg"><path d="m370.757812 267.476562v32.660157c-.027343 9.738281-7.914062 17.628906-17.65625 17.65625h-61.792968v-105.929688h39.371094c2.980468.003907 5.761718 1.496094 7.417968 3.972657l26.746094 40.164062 4.414062 6.621094c.96875 1.433594 1.492188 3.125 1.5 4.855468zm0 0" fill="#a5a5a4"/><path d="m300.136719 247.171875v70.621094h-150.066407c-4.875 0-8.828124-3.953125-8.828124-8.828125v-44.136719zm0 0" fill="#d1d4d1"/><path d="m300.136719 194.207031v70.621094h-158.894531v-70.621094c0-4.875 3.953124-8.828125 8.828124-8.828125h141.238282c4.878906 0 8.828125 3.953125 8.828125 8.828125zm0 0" fill="#e64c3c"/><path d="m220.691406 326.613281c0 14.625-11.859375 26.480469-26.484375 26.480469s-26.484375-11.855469-26.484375-26.480469c0-14.628906 11.859375-26.484375 26.484375-26.484375s26.484375 11.855469 26.484375 26.484375zm0 0" fill="#2c3e50"/><path d="m326.621094 326.613281c0 14.625-11.855469 26.480469-26.484375 26.480469-14.625 0-26.480469-11.855469-26.480469-26.480469 0-14.628906 11.855469-26.484375 26.480469-26.484375 14.628906 0 26.484375 11.855469 26.484375 26.484375zm0 0" fill="#2c3e50"/><path d="m203.035156 326.613281c0 4.875-3.953125 8.824219-8.828125 8.824219s-8.828125-3.949219-8.828125-8.824219 3.953125-8.828125 8.828125-8.828125 8.828125 3.953125 8.828125 8.828125zm0 0" fill="#a5a5a4"/><path d="m308.964844 326.613281c0 4.875-3.953125 8.824219-8.828125 8.824219s-8.828125-3.949219-8.828125-8.824219 3.953125-8.828125 8.828125-8.828125 8.828125 3.953125 8.828125 8.828125zm0 0" fill="#a5a5a4"/><path d="m364.84375 256h-38.222656c-4.875 0-8.828125-3.953125-8.828125-8.828125v-35.308594h12.886719c2.980468.003907 5.761718 1.496094 7.417968 3.972657zm0 0" fill="#b0d3f0"/><path d="m511.292969 274.007812c.53125-5.914062.707031-11.917968.707031-18.007812s-.175781-12.09375-.707031-18.007812l-37.78125-18.890626c-2.277344-13.613281-5.855469-26.972656-10.679688-39.902343l23.304688-35.222657c-2.5625-5.382812-5.386719-10.679687-8.476563-15.976562s-6.179687-10.417969-9.535156-15.273438l-42.28125 2.5625c-8.765625-10.558593-18.519531-20.253906-29.132812-28.957031l2.5625-42.457031c-4.855469-3.355469-9.976563-6.535156-15.273438-9.535156s-10.59375-5.914063-15.976562-8.476563l-35.3125 23.304688c-10.765626-4.039063-21.835938-7.226563-33.101563-9.53125-2.207031-.441407-4.503906-.796875-6.710937-1.148438l-18.890626-37.78125c-5.914062-.53125-11.917968-.707031-18.007812-.707031s-12.09375.175781-18.007812.707031l-18.890626 37.78125c-2.207031.351563-4.503906.707031-6.710937 1.148438-11.265625 2.304687-22.335937 5.492187-33.101563 9.53125l-35.3125-23.304688c-5.382812 2.5625-10.679687 5.386719-15.976562 8.476563s-10.417969 6.179687-15.273438 9.535156l2.5625 42.457031c-10.613281 8.703125-20.367187 18.398438-29.132812 28.957031l-42.28125-2.5625c-3.355469 4.855469-6.535156 9.976563-9.535156 15.273438s-5.914063 10.59375-8.476563 15.976562l23.304688 35.222657c-4.824219 12.929687-8.402344 26.289062-10.679688 39.902343l-37.78125 18.890626c-.53125 5.914062-.707031 11.917968-.707031 18.007812s.175781 12.09375.707031 18.007812l37.78125 18.890626c2.289063 13.601562 5.835938 26.957031 10.59375 39.902343l-23.21875 35.222657c2.5625 5.382812 5.386719 10.679687 8.476563 15.976562s6.179687 10.417969 9.535156 15.273438l42.28125-2.5625c8.808594 10.574218 18.558594 20.324218 29.132812 29.132812l-2.5625 42.28125c4.855469 3.355469 9.976563 6.535156 15.273438 9.535156s10.59375 5.914063 15.976562 8.476563l35.222657-23.21875c12.945312 4.757812 26.300781 8.304687 39.902343 10.59375l18.890626 37.78125c5.914062.53125 11.917968.707031 18.007812.707031s12.09375-.175781 18.007812-.707031l18.890626-37.78125c13.601562-2.289063 26.957031-5.835938 39.902343-10.59375l35.222657 23.21875c5.382812-2.5625 10.679687-5.386719 15.976562-8.476563s10.417969-6.179687 15.273438-9.535156l-2.5625-42.28125c10.574218-8.808594 20.324218-18.558594 29.132812-29.132812l42.28125 2.5625c3.355469-4.855469 6.535156-9.976563 9.535156-15.273438s5.914063-10.59375 8.476563-15.976562l-23.21875-35.222657c4.757812-12.945312 8.304687-26.300781 10.59375-39.902343zm-255.292969 149.714844c-92.632812 0-167.722656-75.089844-167.722656-167.722656s75.089844-167.722656 167.722656-167.722656 167.722656 75.089844 167.722656 167.722656c0 44.484375-17.667968 87.144531-49.125 118.597656-31.453125 31.457032-74.113281 49.125-118.597656 49.125zm0 0" fill="#84b5cb"/><path d="m256 432.550781c-97.507812 0-176.550781-79.042969-176.550781-176.550781s79.042969-176.550781 176.550781-176.550781 176.550781 79.042969 176.550781 176.550781c-.109375 97.460938-79.089843 176.441406-176.550781 176.550781zm0-335.449219c-87.757812 0-158.898438 71.140626-158.898438 158.898438s71.140626 158.898438 158.898438 158.898438 158.898438-71.140626 158.898438-158.898438c-.105469-87.714844-71.183594-158.792969-158.898438-158.898438zm0 0" fill="#547580"/></svg>