<?xml version="1.0" encoding="iso-8859-1"?>
<!-- Generator: Adobe Illustrator 19.0.0, SVG Export Plug-In . SVG Version: 6.00 Build 0)  -->
<svg version="1.1" id="Capa_1" xmlns="http://www.w3.org/2000/svg" xmlns:xlink="http://www.w3.org/1999/xlink" x="0px" y="0px"
	 viewBox="0 0 464 464" style="enable-background:new 0 0 464 464;" xml:space="preserve">
<circle style="fill:#FDB62F;" cx="128" cy="336" r="128"/>
<circle style="fill:#FFA12E;" cx="128" cy="336" r="96"/>
<circle style="fill:#FDB62F;" cx="336" cy="128" r="128"/>
<circle style="fill:#FFA12E;" cx="336" cy="128" r="96"/>
<g>
	<path style="fill:#F46B27;" d="M136,392v16h16v-17.136c17.081-4.396,27.364-21.807,22.968-38.888
		C171.332,337.849,158.587,327.982,144,328h-32c-8.837,0-16-7.163-16-16s7.163-16,16-16h32c8.837,0,16,7.163,16,16h16
		c-0.055-14.547-9.915-27.227-24-30.864V264h-16v16h-16v-16h-16v17.136c-17.081,4.396-27.364,21.807-22.968,38.888
		C84.668,334.151,97.413,344.018,112,344h32c8.837,0,16,7.163,16,16s-7.163,16-16,16h-32c-8.837,0-16-7.163-16-16H80
		c0.055,14.547,9.915,27.227,24,30.864V408h16v-16H136z"/>
	<path style="fill:#F46B27;" d="M128,232c-57.41,0.066-103.934,46.59-104,104h16c0.057-48.577,39.423-87.943,88-88V232z"/>
	<path style="fill:#F46B27;" d="M216,336c-0.057,48.577-39.423,87.943-88,88v16c57.41-0.066,103.934-46.59,104-104H216z"/>
</g>
<g>
	<path style="fill:#87CED9;" d="M72,144c0-39.764,32.236-72,72-72h40V40h-40C86.562,40,40,86.562,40,144H16l40,48l40-48H72z"/>
	<path style="fill:#87CED9;" d="M392,328c0,39.764-32.236,72-72,72h-40v32h40c57.438,0,104-46.562,104-104h24l-40-48l-40,48H392z"/>
</g>
<g>
	<path style="fill:#F46B27;" d="M344,184v16h16v-17.136c17.064-4.357,27.364-21.722,23.007-38.786
		c-1.591-6.231-5.029-11.836-9.863-16.078c13.237-11.616,14.55-31.764,2.934-45.001c-4.242-4.834-9.847-8.272-16.078-9.863V56h-16
		v16h-16V56h-16v16h-16c-4.418,0-8,3.582-8,8v96c0,4.418,3.582,8,8,8h16v16h16v-16H344z M304,88h48c8.837,0,16,7.163,16,16
		s-7.163,16-16,16h-48V88z M304,136h48c8.837,0,16,7.163,16,16s-7.163,16-16,16h-48V136z"/>
	<path style="fill:#F46B27;" d="M336,24c-57.41,0.066-103.934,46.59-104,104h16c0.057-48.577,39.423-87.943,88-88V24z"/>
	<path style="fill:#F46B27;" d="M424,128c-0.057,48.577-39.423,87.943-88,88v16c57.41-0.066,103.934-46.59,104-104H424z"/>
</g>
</svg>
