<?xml version="1.0" encoding="iso-8859-1"?>
<!-- Generator: Adobe Illustrator 19.0.0, SVG Export Plug-In . SVG Version: 6.00 Build 0)  -->
<svg version="1.1" id="Layer_1" xmlns="http://www.w3.org/2000/svg" xmlns:xlink="http://www.w3.org/1999/xlink" x="0px" y="0px"
	 viewBox="0 0 511.999 511.999" style="enable-background:new 0 0 511.999 511.999;" xml:space="preserve">
<path style="fill:#A4A9AD;" d="M415.74,186.184h35.172c4.232,0,7.694,3.462,7.694,7.694v16.487c0,4.232-3.463,7.694-7.694,7.694
	H415.74V186.184z"/>
<rect x="415.735" y="186.186" style="opacity:0.1;enable-background:new    ;" width="16.395" height="31.874"/>
<path style="fill:#A4A9AD;" d="M96.258,186.184H61.088c-4.232,0-7.694,3.462-7.694,7.694v16.487c0,4.232,3.463,7.694,7.694,7.694
	h35.171V186.184z"/>
<rect x="79.866" y="186.186" style="opacity:0.1;enable-background:new    ;" width="16.394" height="31.874"/>
<path style="fill:#A4A9AD;" d="M353.103,90.461h-39.203V59.285c0-6.512-5.502-12.013-12.013-12.013h-91.778
	c-6.512,0-12.014,5.502-12.014,12.013v31.176h-39.203V59.285c0-28.24,22.975-51.216,51.217-51.216h91.778
	c28.24,0,51.216,22.975,51.216,51.216V90.461z"/>
<path style="opacity:0.1;enable-background:new    ;" d="M158.892,59.284V90.46h39.203V59.284c0-1.186,0.187-2.334,0.524-3.425
	h-39.602C158.944,56.994,158.892,58.132,158.892,59.284z M352.975,55.86h-39.598c0.338,1.091,0.523,2.24,0.523,3.425v31.176h39.203
	V59.285C353.103,58.132,353.051,56.994,352.975,55.86z"/>
<path style="fill:#D1D3D3;" d="M402.894,87.447c0-10.433-8.537-18.969-18.97-18.969H128.076c-10.433,0-18.97,8.536-18.97,18.969
	v27.125c0,10.433,8.537,18.969,18.97,18.969h255.848c10.433,0,18.97-8.537,18.97-18.969V87.447z"/>
<path style="opacity:0.05;enable-background:new    ;" d="M402.519,83.726H109.48c-0.243,1.205-0.374,2.447-0.374,3.72v27.125
	c0,10.433,8.537,18.969,18.97,18.969h255.848c10.433,0,18.97-8.537,18.97-18.969V87.447
	C402.894,86.174,402.762,84.931,402.519,83.726z"/>
<path style="fill:#D1D3D3;" d="M89.662,138.671v336.353c0,15.898,13.006,28.906,28.906,28.906H393.43
	c15.899,0,28.906-13.008,28.906-28.906V138.671H89.662z"/>
<path style="opacity:0.1;enable-background:new    ;" d="M89.662,458.939v16.085c0,15.898,13.006,28.906,28.906,28.906H393.43
	c15.899,0,28.906-13.008,28.906-28.906v-16.085H89.662z"/>
<rect x="89.666" y="138.668" style="opacity:0.1;enable-background:new    ;" width="332.675" height="41.138"/>
<g>
	<path style="fill:#A4A9AD;" d="M444.962,117.87c0-10.434-8.536-18.969-18.969-18.969H86.006c-10.433,0-18.969,8.536-18.969,18.969
		v19.537c0,10.433,8.536,18.969,18.969,18.969h339.987c10.433,0,18.969-8.536,18.969-18.969L444.962,117.87L444.962,117.87z"/>
	<path style="fill:#A4A9AD;" d="M255.999,425.306c-10.826,0-19.602-8.776-19.602-19.602v-183.98
		c0-10.826,8.775-19.603,19.602-19.603c10.827,0,19.602,8.776,19.602,19.603v183.98
		C275.601,416.531,266.826,425.306,255.999,425.306z"/>
	<path style="fill:#A4A9AD;" d="M165.369,425.306c-10.827,0-19.603-8.776-19.603-19.602v-183.98
		c0-10.826,8.776-19.603,19.603-19.603s19.602,8.776,19.602,19.603v183.98C184.97,416.531,176.195,425.306,165.369,425.306z"/>
	<path style="fill:#A4A9AD;" d="M346.629,425.306c-10.827,0-19.602-8.776-19.602-19.602v-183.98
		c0-10.826,8.775-19.603,19.602-19.603s19.602,8.776,19.602,19.603v183.98C366.231,416.531,357.456,425.306,346.629,425.306z"/>
</g>
<path style="fill:#1E252B;" d="M450.911,178.116h-20.505v-14.037c12.816-2.114,22.625-13.267,22.625-26.672V117.87
	c0-14.908-12.128-27.038-27.038-27.038h-15.031v-3.385c0-14.908-12.129-27.038-27.039-27.038h-22.752v-1.124
	C361.172,26.595,334.576,0,301.887,0h-91.778c-32.691,0-59.285,26.595-59.285,59.284v1.124h-22.748
	c-14.908,0-27.039,12.129-27.039,27.038v3.385H86.006c-14.908,0-27.038,12.129-27.038,27.038v19.537
	c0,13.405,9.809,24.558,22.625,26.672v14.037H61.088c-8.691,0-15.762,7.071-15.762,15.762v16.487
	c0,8.691,7.071,15.762,15.762,15.762h20.507v248.897c0,20.388,16.586,36.975,36.975,36.975h274.862
	c20.388,0,36.975-16.586,36.975-36.975V226.128h20.505c8.691,0,15.762-7.071,15.762-15.762v-16.487
	C466.674,185.187,459.602,178.116,450.911,178.116z M81.593,209.992H61.461v-15.738h20.132V209.992z M166.961,59.284
	c0-23.791,19.357-43.147,43.149-43.147h91.778c23.792,0,43.147,19.357,43.147,43.147v1.124h-23.066v-1.124
	c0-10.886-9.197-20.082-20.082-20.082h-91.778c-10.886,0-20.083,9.196-20.083,20.082v1.124h-23.066V59.284z M305.832,59.284v1.124
	h-99.669v-1.124c0-2.064,1.88-3.945,3.946-3.945h91.778C303.951,55.339,305.832,57.22,305.832,59.284z M117.174,87.447
	c0-6.01,4.891-10.901,10.902-10.901h255.848c6.011,0,10.902,4.89,10.902,10.901v3.385H117.174V87.447z M414.268,475.025
	c0,11.49-9.347,20.838-20.838,20.838H118.568c-11.49,0-20.838-9.347-20.838-20.838v-8.017h316.538V475.025z M414.268,450.871H97.73
	V164.444h316.538V450.871z M425.993,148.308H86.006c-6.01,0-10.901-4.889-10.901-10.901V117.87c0-6.01,4.891-10.901,10.901-10.901
	h339.987c6.01,0,10.901,4.891,10.901,10.901v19.537C436.894,143.418,432.003,148.308,425.993,148.308z M450.537,209.992h-20.132
	v-15.738h20.132V209.992z"/>
<g>
</g>
<g>
</g>
<g>
</g>
<g>
</g>
<g>
</g>
<g>
</g>
<g>
</g>
<g>
</g>
<g>
</g>
<g>
</g>
<g>
</g>
<g>
</g>
<g>
</g>
<g>
</g>
<g>
</g>
</svg>
