<?xml version="1.0"?>
<svg xmlns="http://www.w3.org/2000/svg" xmlns:xlink="http://www.w3.org/1999/xlink" version="1.1" id="Layer_1" x="0px" y="0px" viewBox="0 0 508 508" style="enable-background:new 0 0 508 508;" xml:space="preserve" width="512px" height="512px" class=""><g><circle style="fill:#F3AC3C" cx="254" cy="254" r="254" data-original="#FD8469" class="" data-old_color="#FD8469"/><path style="fill:#FFFFFF;" d="M372.8,207.6H368c-2.4-40.4-35.6-72.4-76.4-72.4c-4,0-8,0.4-11.6,0.8c-16-28.4-46-47.6-80.8-47.6  c-51.2,0-92.4,41.6-92.4,92.4c0,10.8,2,21.2,5.2,30.8c-24.8,9.6-42.8,33.6-42.8,62c0,36.4,29.6,66.4,66.4,66.4h237.2  c36.4,0,66.4-29.6,66.4-66.4C438.8,237.2,409.2,207.6,372.8,207.6z" data-original="#FFFFFF" class=""/><path style="fill:#04458F" d="M325.2,288.4L258.8,222c-2.8-2.8-7.2-2.8-10,0l-66,66.4c-4.4,4.4-1.2,12,4.8,12h14.8  c4,0,7.2,3.2,7.2,7.2v96c0,4,3.2,7.2,7.2,7.2h74.8c4,0,7.2-3.2,7.2-7.2v-96c0-4,3.2-7.2,7.2-7.2h14.8  C326.4,300.4,329.6,292.8,325.2,288.4z" data-original="#FFD05B" class="active-path" data-old_color="#FFD05B"/></g> </svg>
