<svg id="icons" enable-background="new 0 0 64 64" height="512" viewBox="0 0 64 64" width="512" xmlns="http://www.w3.org/2000/svg">
  <path d="m63 48.5c0 1.1-.9 2-2 2h-58c-1.1 0-2-.9-2-2v-4c0 1.1.9 2 2 2h58c1.1 0 2-.9 2-2z" fill="#da4453"/>
  <path d="m63 40.5c0 1.1-.9 2-2 2h-58c-1.1 0-2-.9-2-2v-4c0 1.1.9 2 2 2h12 46c1.1 0 2-.9 2-2z" fill="#da4453"/>
  <path d="m63 44.5c0 1.1-.9 2-2 2h-58c-1.1 0-2-.9-2-2v-4c0 1.1.9 2 2 2h58c1.1 0 2-.9 2-2z" fill="#ed5565"/>
  <path d="m15 35.5v3h-12c-1.1 0-2-.9-2-2v-8-4-4-5c0-1.1.9-2 2-2h12v3 4 3 5 3z" fill="#ffce54"/>
  <path d="m49.99 23.5v2h-8v-2c0-2.21 1.79-4 4-4s4 1.79 4 4z" fill="#ccd1d9"/>
  <path d="m45.99 19.5c-.348 0-.68.059-1.001.142 1.722.446 2.999 1.996 2.999 3.858v2h2.002v-2c0-2.21-1.79-4-4-4z" fill="#aab2bd"/>
  <g fill="#ed5565">
    <circle cx="32.5" cy="30" r="2.5"/>
    <circle cx="24.5" cy="22" r="2.5"/>
    <path d="m49.99 25.5v-2c0-2.21-1.79-4-4-4s-4 1.79-4 4v2zm13.01 3v8c0 1.1-.9 2-2 2h-46v-3-4-3-5-3-4-3h46c1.1 0 2 .9 2 2v5 4zm-28 1.5c0-1.38-1.12-2.5-2.5-2.5s-2.5 1.12-2.5 2.5 1.12 2.5 2.5 2.5 2.5-1.12 2.5-2.5zm-8-8c0-1.38-1.12-2.5-2.5-2.5s-2.5 1.12-2.5 2.5 1.12 2.5 2.5 2.5 2.5-1.12 2.5-2.5z"/>
  </g>
  <path d="m1 36.5v4c0 1.1.9 2 2 2h12v-4h-12c-1.1 0-2-.9-2-2z" fill="#f6bb42"/>
  <path d="m1 40.5v4c0 1.1.9 2 2 2h12v-4h-12c-1.1 0-2-.9-2-2z" fill="#ffce54"/>
  <path d="m1 44.5v4c0 1.1.9 2 2 2h12v-4h-12c-1.1 0-2-.9-2-2z" fill="#f6bb42"/>
  <path d="m61 39.501h-58c-1.654 0-3-1.346-3-3v-21.002c0-1.654 1.346-3 3-3h58c1.654 0 3 1.346 3 3v21.002c0 1.654-1.346 3-3 3zm-58-25.002c-.552 0-1 .448-1 1v21.002c0 .552.448 1 1 1h58c.552 0 1-.448 1-1v-21.002c0-.552-.448-1-1-1z"/>
  <path d="m61 43.501h-58c-1.654 0-3-1.346-3-3v-20.001c0-.553.447-1 1-1s1 .447 1 1v20.001c0 .552.448 1 1 1h58c.552 0 1-.448 1-1v-20.001c0-.553.447-1 1-1s1 .447 1 1v20.001c0 1.654-1.346 3-3 3z"/>
  <path d="m61 47.501h-58c-1.654 0-3-1.346-3-3v-20.001c0-.553.447-1 1-1s1 .447 1 1v20.001c0 .552.448 1 1 1h58c.552 0 1-.448 1-1v-20.001c0-.553.447-1 1-1s1 .447 1 1v20.001c0 1.654-1.346 3-3 3z"/>
  <path d="m61 51.501h-58c-1.654 0-3-1.346-3-3v-20.001c0-.553.447-1 1-1s1 .447 1 1v20.001c0 .552.448 1 1 1h58c.552 0 1-.448 1-1v-20.001c0-.553.447-1 1-1s1 .447 1 1v20.001c0 1.654-1.346 3-3 3z"/>
  <path d="m15 21.499c-.553 0-1-.447-1-1v-4.002c0-.553.447-1 1-1s1 .447 1 1v4.002c0 .553-.447 1-1 1z"/>
  <path d="m15 29.502c-.553 0-1-.447-1-1v-5.003c0-.553.447-1 1-1s1 .447 1 1v5.003c0 .553-.447 1-1 1z"/>
  <path d="m15 36.504c-.553 0-1-.447-1-1v-4.002c0-.553.447-1 1-1s1 .447 1 1v4.002c0 .553-.447 1-1 1z"/>
  <path d="m6 34.501c-.553 0-1-.447-1-1v-15.002c0-.553.447-1 1-1s1 .447 1 1v15.002c0 .553-.447 1-1 1z"/>
  <path d="m9 34.501c-.553 0-1-.447-1-1v-15.002c0-.553.447-1 1-1s1 .447 1 1v15.002c0 .553-.447 1-1 1z"/>
  <path d="m24.499 25.499c-1.93 0-3.5-1.57-3.5-3.5s1.57-3.5 3.5-3.5 3.5 1.57 3.5 3.5-1.57 3.5-3.5 3.5zm0-5c-.827 0-1.5.673-1.5 1.5s.673 1.5 1.5 1.5 1.5-.673 1.5-1.5-.673-1.5-1.5-1.5z"/>
  <path d="m32.501 33.501c-1.93 0-3.5-1.57-3.5-3.5s1.57-3.5 3.5-3.5 3.5 1.57 3.5 3.5-1.57 3.5-3.5 3.5zm0-5c-.827 0-1.5.673-1.5 1.5s.673 1.5 1.5 1.5 1.5-.673 1.5-1.5-.673-1.5-1.5-1.5z"/>
  <path d="m22 33.5c-.256 0-.512-.098-.707-.293-.391-.391-.391-1.023 0-1.414l13.001-13.001c.391-.391 1.023-.391 1.414 0s.391 1.023 0 1.414l-13.001 13.001c-.195.195-.451.293-.707.293z"/>
  <path d="m57 30.501h-16c-.553 0-1-.447-1-1s.447-1 1-1h16c.553 0 1 .447 1 1s-.447 1-1 1z"/>
  <path d="m49 33.501h-8c-.553 0-1-.447-1-1s.447-1 1-1h8c.553 0 1 .447 1 1s-.447 1-1 1z"/>
  <path d="m49.992 24.501c-.553 0-1-.447-1-1 0-1.654-1.346-3-3-3s-3 1.346-3 3c0 .553-.447 1-1 1s-1-.447-1-1c0-2.757 2.243-5 5-5s5 2.243 5 5c0 .553-.447 1-1 1z"/>
  <path d="m50.992 26.501h-10c-.553 0-1-.447-1-1s.447-1 1-1h10c.553 0 1 .447 1 1s-.447 1-1 1z"/>
  <path d="m41.992 26.501c-.553 0-1-.447-1-1v-2c0-.553.447-1 1-1s1 .447 1 1v2c0 .553-.447 1-1 1z"/>
  <path d="m49.992 26.501c-.553 0-1-.447-1-1v-2c0-.553.447-1 1-1s1 .447 1 1v2c0 .553-.447 1-1 1z"/>
  <path d="m45.992 20.501c-.553 0-1-.447-1-1v-1.001c0-.553.447-1 1-1s1 .447 1 1v1.001c0 .553-.447 1-1 1z"/>
</svg>