<?xml version="1.0"?>
<svg xmlns="http://www.w3.org/2000/svg" xmlns:xlink="http://www.w3.org/1999/xlink" version="1.1" id="Capa_1" x="0px" y="0px" viewBox="0 0 512 512" style="enable-background:new 0 0 512 512;" xml:space="preserve" width="512px" height="512px" class=""><g><rect x="223.859" y="239.979" style="fill:#005BFF" width="64.313" height="84.313" data-original="#67E5DD" class="" data-old_color="#0054FF"/><circle style="fill:#FF5D5D;" cx="256.01" cy="337.563" r="24.001" data-original="#FF5D5D"/><path style="fill:#005BFF" d="M486.082,245.895l-62.119-97.167c-10.532-16.475-28.736-26.443-48.29-26.443h-92.317  c0-15.033-12.186-27.219-27.219-27.219s-27.219,12.186-27.219,27.219h-92.551c-19.553,0-37.757,9.968-48.29,26.443l-62.119,97.167  L486.082,245.895L486.082,245.895z" data-original="#67E5DD" class="" data-old_color="#0054FF"/><g>
	<circle style="fill:#D9F9F7;" cx="123.005" cy="303.901" r="113.004" data-original="#D9F9F7" class=""/>
	<circle style="fill:#D9F9F7;" cx="389.015" cy="303.901" r="113.004" data-original="#D9F9F7" class=""/>
</g><g>
	<path style="fill:#0082FF" d="M502.02,303.897c0-21.53-6.022-41.652-16.473-58.776l-92.008,92.009l-27.668-27.668l-65.065,65.065   c20.71,25.831,52.525,42.376,88.208,42.376C451.426,416.902,502.02,366.308,502.02,303.897z" data-original="#96EDE7" class="active-path" data-old_color="#007AFF"/>
	<path style="fill:#0082FF" d="M236.009,303.897c0-21.53-6.022-41.652-16.473-58.776l-92.008,92.009l-27.668-27.668l-65.065,65.065   c20.71,25.831,52.525,42.376,88.208,42.376C185.415,416.902,236.009,366.308,236.009,303.897z" data-original="#96EDE7" class="active-path" data-old_color="#007AFF"/>
</g><path d="M236.009,154.02c-2.63,0-5.21,1.069-7.07,2.93c-1.86,1.861-2.93,4.44-2.93,7.07c0,2.64,1.069,5.21,2.93,7.069  c1.86,1.87,4.44,2.931,7.07,2.931c2.63,0,5.21-1.061,7.069-2.931c1.86-1.859,2.931-4.43,2.931-7.069c0-2.63-1.07-5.21-2.931-7.07  C241.219,155.089,238.639,154.02,236.009,154.02z" data-original="#000000" class="" style="fill:#000000"/><path d="M462.061,376.522l-0.288,0.288c-3.862,3.948-3.792,10.279,0.155,14.143c1.946,1.903,4.47,2.852,6.992,2.852  c2.591,0,5.181-1.001,7.138-2.996c3.937-3.862,4.003-10.186,0.145-14.131C472.341,372.731,466.009,372.66,462.061,376.522z" data-original="#000000" class="" style="fill:#000000"/><path d="M510.757,286.273c-2.306-16.007-7.641-31.104-15.681-44.736c-0.169-0.349-0.355-0.693-0.569-1.028l-1.548-2.422  c-0.464-0.73-0.917-1.465-1.397-2.185l-59.174-92.559c-12.432-19.447-33.634-31.057-56.715-31.057h-83.681  c-4.38-15.682-18.796-27.219-35.855-27.219s-31.475,11.537-35.855,27.219h-83.915c-23.081,0-44.283,11.609-56.715,31.056  l-62.119,97.167c-0.292,0.457-0.53,0.932-0.74,1.414C6.125,260.133,0,281.311,0,303.897c0,67.825,55.18,123.005,123.005,123.005  c47.088,0,88.072-26.6,108.738-65.56c6.175,6.299,14.771,10.217,24.267,10.217c9.484,0,18.069-3.907,24.242-10.19  c5.602,10.617,12.863,20.583,21.785,29.506c23.631,23.63,55.112,36.057,87.042,36.057c18.386,0,36.926-4.124,54.187-12.606  c4.957-2.436,7-8.428,4.564-13.386c-2.436-4.957-8.427-7.003-13.386-4.564c-39.553,19.435-87.08,11.54-118.266-19.645  c-0.574-0.574-1.138-1.156-1.696-1.74l51.388-51.388l20.597,20.597c1.876,1.875,4.419,2.929,7.071,2.929  c2.652,0,5.196-1.054,7.071-2.929l30.127-30.127c1.146,4.26,5.024,7.401,9.646,7.401c5.522,0,10-4.478,10-10v-21.182  c0-5.522-4.478-10-10-10h-21.182c-5.522,0-10,4.478-10,10c0,4.616,3.133,8.492,7.386,9.643l-23.05,23.051l-20.597-20.597  c-3.906-3.904-10.236-3.904-14.144,0l-56.736,56.736c-25.299-39.819-20.598-93.35,14.117-128.064  c40.161-40.161,105.509-40.161,145.67,0c4.933,4.933,9.276,10.256,13.028,15.876l2.224,3.479  c18.6,30.424,20.323,68.709,3.114,101.418c-2.57,4.889-0.693,10.935,4.194,13.507c4.89,2.573,10.935,0.693,13.507-4.194  C509.878,338.414,514.438,311.823,510.757,286.273z M123.005,406.901c-28.672,0-54.641-11.78-73.334-30.75l52.546-52.547  l20.597,20.597c3.906,3.904,10.236,3.904,14.144,0l30.127-30.127c1.146,4.26,5.025,7.4,9.646,7.4c5.522,0,10-4.478,10-10v-21.182  c0-5.522-4.478-10-10-10H155.55c-5.522,0-10,4.478-10,10c0,4.616,3.133,8.492,7.385,9.643l-23.051,23.051l-20.597-20.597  c-1.876-1.875-4.419-2.929-7.071-2.929c-2.652,0-5.195,1.054-7.071,2.929l-58.136,58.137c-10.742-16.26-17.008-35.725-17.008-56.629  c0-56.796,46.208-103.004,103.004-103.004s103.004,46.208,103.004,103.004S179.801,406.901,123.005,406.901z M256.01,351.559  c-7.72,0-14.001-6.28-14.001-14.001s6.28-14.001,14.001-14.001s14.001,6.28,14.001,14.001S263.73,351.559,256.01,351.559z   M302.037,216.919c-6.126,6.126-11.464,12.745-16.026,19.729v-72.623c0-5.522-4.478-10-10-10s-10,4.478-10,10v139.872  c0,0.39,0.028,0.773,0.071,1.151c0,0.011,0,0.021,0,0.032c-3.184-0.989-6.567-1.523-10.072-1.523c-3.484,0-6.847,0.529-10.015,1.507  c0.004-0.389,0.015-0.777,0.015-1.167V197.982c0-5.522-4.478-10-10-10s-10,4.478-10,10v38.762  c-21.982-33.601-59.94-55.851-103.004-55.851c-18.018,0-35.143,3.894-50.579,10.885l24.079-37.663  c8.737-13.668,23.64-21.828,39.863-21.828h92.552c5.522,0,10-4.478,10-10c0-9.494,7.724-17.219,17.219-17.219  s17.219,7.724,17.219,17.219c0,5.522,4.478,10,10,10h92.317c16.224,0,31.125,8.16,39.863,21.829l24.085,37.673  C394.344,171.411,339.176,179.782,302.037,216.919z" data-original="#000000" class="" style="fill:#000000"/></g> </svg>
