<?xml version="1.0" encoding="iso-8859-1"?>
<!-- Generator: Adobe Illustrator 19.0.0, SVG Export Plug-In . SVG Version: 6.00 Build 0)  -->
<svg version="1.1" id="Capa_1" xmlns="http://www.w3.org/2000/svg" xmlns:xlink="http://www.w3.org/1999/xlink" x="0px" y="0px"
	 viewBox="0 0 496 496" style="enable-background:new 0 0 496 496;" xml:space="preserve">
<polygon style="fill:#FFCB57;" points="424,360 424,232 296,232 296,360 232,360 232,488 488,488 488,360 "/>
<g>
	<polygon style="fill:#3F3A34;" points="256,120 240,120 240,296 32,296 32,120 16,120 16,312 256,312 	"/>
	<path style="fill:#3F3A34;" d="M208,280V152H64v128h16v-16h112v16H208z M192,216H80v-16h112V216z M192,168v16H80v-16H192z M80,248
		v-16h112v16H80z"/>
	<path style="fill:#3F3A34;" d="M432,352V224H288v128h-64v144h128h16h128V352H432z M440,368v16h-32v-16h24H440z M376,352h-8h-16h-8
		v-16h32V352z M344,240h32v16h-32V240z M304,240h24v32h64v-32h24v112h-24v-32h-64v32h-24V240z M312,368v16h-32v-16h8H312z M312,480
		h-32v-16h32V480z M352,480h-24v-32h-64v32h-24V368h24v32h64v-32h24V480z M440,480h-32v-16h32V480z M480,480h-24v-32h-64v32h-24V368
		h24v32h64v-32h24V480z"/>
	<path style="fill:#3F3A34;" d="M272,56H160V37.768L225.296,16H240v24h16V0h-33.296L144,26.232V56H32V37.768L97.296,16H112v24h16V0
		H94.704L16,26.232V56H0v48h272V56z M256,88H16V72h240V88z"/>
</g>
<g>
	<rect x="128" y="120" style="fill:#E56565;" width="16" height="16"/>
	<rect x="160" y="120" style="fill:#E56565;" width="16" height="16"/>
	<rect x="96" y="120" style="fill:#E56565;" width="16" height="16"/>
	<path style="fill:#E56565;" d="M80.944,368.976C85.296,364.632,88,358.624,88,352c0-13.232-10.768-24-24-24s-24,10.768-24,24
		s10.768,24,24,24c0.76,0,1.472-0.152,2.216-0.224c32.392,47.984,83.448,79.528,140.8,86.68l1.976-15.872
		C157.096,440.112,110.808,411.92,80.944,368.976z M56,352c0-4.416,3.592-8,8-8s8,3.584,8,8s-3.592,8-8,8S56,356.416,56,352z"/>
	<path style="fill:#E56565;" d="M408,160c-1.736,0-3.416,0.208-5.048,0.56c-25.616-42.32-65.224-73.488-112.624-87.92l-4.656,15.312
		c43.016,13.088,80.352,42.528,103.712,81.08c-3.312,4.12-5.384,9.28-5.384,14.968c0,13.232,10.768,24,24,24s24-10.768,24-24
		S421.232,160,408,160z M408,192c-4.408,0-8-3.584-8-8s3.592-8,8-8s8,3.584,8,8S412.408,192,408,192z"/>
</g>
</svg>
