<svg height="511pt" viewBox="0 -14 511.99977 511" width="511pt" xmlns="http://www.w3.org/2000/svg"><path d="m501.726562 370.101562-181.226562-333c-13.800781-22.800781-37.800781-36.601562-64.5-36.601562s-50.699219 13.800781-64.5 36.601562c0 .296876-.300781.296876-.300781.597657l-180.660157 331.800781c-13.796874 23.699219-14.097656 51.902344-.597656 75.601562 13.5 23.699219 37.796875 37.796876 65.097656 37.796876h361.886719c27.300781 0 51.597657-14.097657 65.097657-37.796876 13.5-23.699218 13.199218-51.902343-.296876-75zm0 0" fill="#444"/><path d="m502.023438 445.101562c-13.5 23.699219-37.796876 37.796876-65.097657 37.796876h-180.925781v-482.398438c26.699219 0 50.699219 13.800781 64.5 36.601562l181.226562 333c13.496094 23.097657 13.796876 51.300782.296876 75zm0 0" fill="#292929"/><path d="m75.039062 452.898438c-16.605468 0-30.832031-8.253907-39.03125-22.648438-8.210937-14.414062-8.042968-31.054688.457032-45.65625l.21875-.371094 180.523437-331.546875c.234375-.394531.460938-.792969.679688-1.195312 8.484375-13.164063 22.632812-20.980469 38.113281-20.980469 15.730469 0 30.082031 8.070312 38.519531 21.617188l181.074219 332.722656.230469.394531c8.171875 13.988281 8.222656 30.816406.132812 45.015625-8.199219 14.394531-22.425781 22.648438-39.035156 22.648438zm0 0" fill="#ffd400"/><path d="m475.59375 384.839844-181.074219-332.722656c-8.4375-13.546876-22.789062-21.617188-38.519531-21.617188v422.398438h180.925781c16.605469 0 30.832031-8.253907 39.03125-22.648438 8.089844-14.199219 8.039063-31.027344-.132812-45.015625zm0 0" fill="#ff9f00"/><path d="m256 122.898438c-24.902344 0-45 20.101562-45 45v90c0 24.902343 20.097656 45 45 45s45-20.097657 45-45v-90c0-24.898438-20.097656-45-45-45zm0 0" fill="#6e6e6e"/><path d="m256 332.898438c-24.902344 0-45 20.101562-45 45 0 24.902343 20.097656 45 45 45s45-20.097657 45-45c0-24.898438-20.097656-45-45-45zm0 0" fill="#6e6e6e"/><g fill="#444"><path d="m301 377.898438c0 24.902343-20.097656 45-45 45v-90c24.902344 0 45 20.101562 45 45zm0 0"/><path d="m301 167.898438v90c0 24.902343-20.097656 45-45 45v-180c24.902344 0 45 20.101562 45 45zm0 0"/></g></svg>