<svg height="451pt" viewBox="0 -28 451.9 451" width="451pt" xmlns="http://www.w3.org/2000/svg"><path d="m451.898438 309.890625-11.796876 30.597656-18.203124-.5c-5.753907 8.734375-13.039063 16.355469-21.5 22.5l1.300781 18.203125-30 13.097656-12.597657-13.097656c-10.265624 1.863282-20.753906 2.132813-31.101562.796875l-11.800781 13.703125-30.5-11.800781.5-18.199219c-8.730469-5.757812-16.351563-13.039062-22.5-21.5l-7.097657-9.902344c14.191407-6.003906 27.355469-14.203124 39-24.300781l.597657.800781c12.382812 21.90625 38.667969 31.808594 62.425781 23.515626 23.757812-8.289063 38.175781-32.398438 34.234375-57.253907-3.9375-24.851562-25.101563-43.320312-50.257813-43.859375 2.746094-11.363281 4.121094-23.011718 4.097657-34.703125 0-3.699219-.097657-7.296875-.398438-10.898437 2.898438.101562 5.699219.398437 8.597657.699218l11.800781-13.699218 30.601562 11.800781-.5 18.199219c8.730469 5.753906 16.351563 13.039062 22.5 21.5l18.199219-1.300782 13.101562 30-13.101562 12.601563c1.867188 10.261719 2.136719 20.753906.800781 31.097656zm0 0" fill="#00efd1"/><path d="m308.300781 297.191406c16.660157-18.269531 28.425781-40.460937 34.199219-64.5 25.148438.546875 46.296875 19.015625 50.230469 43.859375 3.933593 24.839844-10.472657 48.941407-34.222657 57.230469-23.746093 8.292969-50.023437-1.597656-62.40625-23.492188l-.601562-.800781c4.554688-3.789062 8.832031-7.898437 12.800781-12.296875zm0 0" fill="#00acea"/><path d="m313.5 94.191406c-28.199219-31.308594-68.074219-49.582031-110.199219-50.5-2.699219-.101562-5.300781-.101562-8 0-83.660156 2.171875-150.347656 70.613282-150.347656 154.296875 0 83.6875 66.6875 152.128907 150.347656 154.300781 1.300781 0 2.699219.101563 4 .101563s2.699219 0 4-.101563c19.253907-.453124 38.25-4.523437 56-12 14.863281-6.304687 28.660157-14.871093 40.898438-25.398437 4.710937-4.078125 9.183593-8.417969 13.402343-13 17.40625-19.15625 29.746094-42.359375 35.898438-67.5 2.886719-11.882813 4.332031-24.070313 4.300781-36.300781 0-3.898438-.101562-7.699219-.402343-11.398438-2.714844-34.394531-16.746094-66.921875-39.898438-92.5zm-23.199219 96.796875c-.484375-20.199219-3.957031-40.214843-10.300781-59.398437 10.199219-6.320313 19.628906-13.804688 28.101562-22.300782 18.15625 22.296876 29.046876 49.625 31.199219 78.300782.097657 1.101562.097657 2.199218.199219 3.300781h-49.199219zm-200.101562 95.300781c-18.722657-23.117187-29.613281-51.585937-31.097657-81.300781h49.199219c.449219 20.097657 3.886719 40.015625 10.199219 59.101563-10.253906 6.289062-19.75 13.738281-28.300781 22.199218zm0-176.597656c8.523437 8.492188 18.023437 15.941406 28.300781 22.199219-6.3125 19.085937-9.75 39.003906-10.199219 59.097656h-49.199219c1.519532-29.703125 12.40625-58.164062 31.097657-81.296875zm102.101562 132.097656c-21.265625 1-42.113281 6.269532-61.300781 15.5-5.304688-16.945312-8.230469-34.546874-8.699219-52.300781h70zm-70-50.800781c.46875-17.75 3.394531-35.351562 8.699219-52.296875 19.144531 9.34375 40.015625 14.621094 61.300781 15.5v36.796875zm84-130.699219c24.898438 13.800782 44.300781 36.101563 56.398438 65.101563-17.550781 8.851563-36.765625 13.929687-56.398438 14.898437zm-14 0v80c-19.613281-.960937-38.8125-5.964843-56.402343-14.699218 12.101562-29.101563 31.402343-51.5 56.402343-65.300782zm0 195.5v80c-25-13.800781-44.300781-36.199218-56.402343-65.300781 17.59375-8.71875 36.792968-13.722656 56.402343-14.699219zm14 80v-80c19.632813.984376 38.84375 6.058594 56.398438 14.902344-12.097657 29-31.5 51.296875-56.398438 65.097656zm61.199219-78.300781c-19.101562-9.394531-39.9375-14.738281-61.199219-15.699219v-36.800781h70c-.445312 17.828125-3.40625 35.503907-8.800781 52.5zm-61.199219-66.5v-36.796875c21.265625-.9375 42.109375-6.285156 61.199219-15.703125 5.34375 17.011719 8.304688 34.679688 8.800781 52.5zm92.398438-92.097656c-7.214844 7.300781-15.191407 13.804687-23.800781 19.398437-9.796876-22.898437-23.898438-42-41.5-56.5 24.75 6.171876 47.332031 19 65.300781 37.101563zm-133.5-37.101563c-17.699219 14.5-31.800781 33.699219-41.597657 56.800782-8.710937-5.5-16.761718-11.976563-24-19.300782 17.945313-18.367187 40.664063-31.355468 65.597657-37.5zm-65.597657 235c7.238282-7.324218 15.289063-13.800781 24-19.300781 9.796876 23 23.898438 42.203125 41.597657 56.800781-24.898438-6.226562-47.597657-19.203124-65.597657-37.5zm191.398438 7.5c-11.132812 9.578126-23.679688 17.371094-37.199219 23.101563-6.605469 2.816406-13.425781 5.089844-20.402343 6.800781 17.601562-14.5 31.601562-33.5 41.402343-56.402344 8.628907 5.5625 16.609375 12.070313 23.800781 19.402344-2.402343 2.398438-5 4.796875-7.601562 7.097656zm17.101562-17.597656c-8.472656-8.5-17.902343-15.980468-28.101562-22.300781 6.34375-19.183594 9.816406-39.203125 10.300781-59.402344h49.199219c-1.398438 29.90625-12.414062 58.558594-31.398438 81.703125zm0 0" fill="#fedb41"/><g fill="#d4e1f4"><path d="m60.800781 318.191406c-.394531-.410156-.765625-.84375-1.101562-1.300781l-10.5 9.300781c.402343.5.800781.898438 1.199219 1.398438 4.203124 4.699218 8.601562 9.199218 13.203124 13.5l9.597657-10.199219c-4.398438-4.101563-8.5-8.300781-12.398438-12.699219zm0 0"/><path d="m79.300781 354.390625c5.5 4.199219 11.199219 8.199219 17 11.800781l7.398438-11.902344c-5.398438-3.398437-10.699219-7-15.898438-11zm0 0"/><path d="m25 292.589844c3.398438 5.898437 7.199219 11.800781 11.199219 17.398437l11.402343-8.199219c-3.777343-5.214843-7.285156-10.621093-10.5-16.199218zm0 0"/><path d="m21.5 250.789062-13.398438 4c2.023438 6.691407 4.496094 13.238282 7.398438 19.601563l12.699219-5.800781c-2.636719-5.773438-4.875-11.722656-6.699219-17.800782zm0 0"/><path d="m237.898438 376.890625c-19 4.402344-38.59375 5.652344-58 3.699219-8.257813-.839844-16.445313-2.277344-24.5-4.300782-2.898438-.699218-5.796876-1.5-8.597657-2.398437-1.402343-.402344-2.800781-.902344-4.199219-1.300781-6.164062-2.027344-12.207031-4.398438-18.101562-7.101563l-5.800781 12.703125c6.402343 2.898438 13 5.5 19.5 7.699219 1.5.5 3 1 4.5 1.398437 3 .902344 6.101562 1.800782 9.300781 2.601563 8.675781 2.167969 17.5 3.707031 26.398438 4.597656 6.300781.601563 12.601562 1 18.902343 1 14.632813-.050781 29.21875-1.695312 43.5-4.898437 4.597657-1 11.398438-2.800782 16.300781-4.300782l-4.101562-13.398437c-4.398438 1.398437-10.800781 3-15.101562 4zm0 0"/></g><path d="m385.101562 137.589844c-14.300781-42.601563-45.101562-81.398438-84.5-106.5-31.101562-19.800782-81.902343-40.398438-147-25.601563-33.703124 7.601563-65.203124 25-91.402343 50.101563-17.675781 17.113281-32.378907 37.054687-43.5 59l-5.097657-22.398438-13.601562 3.199219 9.199219 40.5c.722656 3.183594 3.535156 5.460937 6.800781 5.5.539062-.023437 1.074219-.089844 1.601562-.199219l36.898438-8.402344-3.101562-13.699218-21.597657 4.898437c20.199219-41.796875 63.199219-90.296875 126.898438-104.796875 101.101562-22.902344 188.699219 44.398438 215.101562 122.796875 1.710938 5.054688 3.144531 10.195313 4.300781 15.402344l13.699219-3.101563c-1.300781-5.5-2.902343-11.199218-4.699219-16.699218zm0 0" fill="#00acea"/></svg>